<svg xmlns="http://www.w3.org/2000/svg" xmlns:xlink="http://www.w3.org/1999/xlink" width="78.798" height="56.632" viewBox="0 0 78.798 56.632">
  <defs>
    <clipPath id="clip-path">
      <rect id="Rectangle_1698" data-name="Rectangle 1698" width="78.798" height="56.632" fill="#4286f5"/>
    </clipPath>
  </defs>
  <g id="Group_8509" data-name="Group 8509" transform="translate(-12.32)">
    <g id="Group_8508" data-name="Group 8508" transform="translate(12.32)" clip-path="url(#clip-path)">
      <path id="Path_7645" data-name="Path 7645" d="M432.434,30.817c-.207,1.519-.357,3.048-.632,4.554a38.781,38.781,0,0,1-10.766,20.654,1.646,1.646,0,1,1-2.331-2.3,33.517,33.517,0,0,0,7.505-11.148c5.351-13.606,3.507-26.176-5.7-37.6-.561-.7-1.208-1.325-1.813-1.987a1.67,1.67,0,0,1-.112-2.459,1.637,1.637,0,0,1,2.449.155A38.74,38.74,0,0,1,431.986,22.48c.173,1.136.3,2.278.448,3.417Z" transform="translate(-353.636 -0.046)" fill="#4286f5"/>
      <path id="Path_7646" data-name="Path 7646" d="M161.791,42.936h-7.334c-1.077,0-2.154-.018-3.23.006a1.7,1.7,0,0,1-1.478-2.92q5.883-7.834,11.745-15.683,3.66-4.891,7.321-9.781c.777-1.037,1.487-1.34,2.309-.992s1.093,1.1.884,2.361q-1.356,8.179-2.692,16.361c-.037.226-.053.456-.093.809h.831c3.281,0,6.563.007,9.844-.005a1.746,1.746,0,0,1,1.493,3.048q-11.005,14.269-22,28.549c-.892,1.158-1.634,1.466-2.493,1.034s-1.038-1.2-.643-2.631q2.7-9.8,5.4-19.6c.039-.143.069-.288.133-.555m-7.671-3.267H163.4c1.859,0,2.5.844,2,2.636Q163.558,49,161.718,55.692c-.046.167-.062.343-.092.515l.13.037L177.034,36.4h-1.055c-2.82,0-5.64.011-8.459-.006a1.688,1.688,0,0,1-1.864-2.116c.427-2.6.867-5.2,1.295-7.8.261-1.586.509-3.174.762-4.762l-.127-.045L154.12,39.668" transform="translate(-126.203 -11.357)" fill="#4286f5"/>
      <path id="Path_7647" data-name="Path 7647" d="M0,27.589A38.592,38.592,0,0,1,11.225.848,3.241,3.241,0,0,1,12.267.1a1.54,1.54,0,0,1,1.812.65,1.632,1.632,0,0,1-.2,2.05c-.907,1.043-1.889,2.026-2.744,3.11A35.228,35.228,0,0,0,3.456,31.519a35.06,35.06,0,0,0,9.723,21.557c.228.243.468.475.685.728a1.648,1.648,0,0,1-.012,2.346,1.556,1.556,0,0,1-2.328-.083,69.658,69.658,0,0,1-4.988-6.124C2.125,43.423.061,36.147,0,27.589" transform="translate(0 0)" fill="#4286f5"/>
      <path id="Path_7648" data-name="Path 7648" d="M384.414,67.091a28.966,28.966,0,0,1-8.487,20.063,1.644,1.644,0,0,1-2.14.446,1.542,1.542,0,0,1-.746-1.841,3.435,3.435,0,0,1,.771-1.116,25.361,25.361,0,0,0,6.837-13.258,25.819,25.819,0,0,0-6.591-22.815c-.189-.209-.393-.4-.581-.615a1.657,1.657,0,0,1-.042-2.346,1.608,1.608,0,0,1,2.394.078,28.879,28.879,0,0,1,5.147,6.955,30.21,30.21,0,0,1,3.437,14.449" transform="translate(-315.457 -38.157)" fill="#4286f5"/>
      <path id="Path_7649" data-name="Path 7649" d="M63.989,65.317a28.673,28.673,0,0,1,8.452-19.5,1.669,1.669,0,0,1,2.136-.492,1.54,1.54,0,0,1,.781,1.824,3.529,3.529,0,0,1-.8,1.184,25.344,25.344,0,0,0-6.739,12.89,25.8,25.8,0,0,0,6.5,23.121c.206.229.429.442.63.674a1.653,1.653,0,0,1-.014,2.346,1.539,1.539,0,0,1-2.328-.089,56.306,56.306,0,0,1-4.452-5.758c-2.833-4.522-4.165-9.718-4.162-16.2" transform="translate(-54.124 -38.16)" fill="#4286f5"/>
    </g>
  </g>
</svg>
