<svg id="Group_8469" data-name="Group 8469" xmlns="http://www.w3.org/2000/svg" xmlns:xlink="http://www.w3.org/1999/xlink" width="58.696" height="58.705" viewBox="0 0 58.696 58.705">
  <defs>
    <clipPath id="clip-path">
      <rect id="Rectangle_1689" data-name="Rectangle 1689" width="58.696" height="58.705" fill="#4286f5"/>
    </clipPath>
  </defs>
  <g id="Group_8485" data-name="Group 8485">
    <g id="Group_8484" data-name="Group 8484" clip-path="url(#clip-path)">
      <path id="Path_7625" data-name="Path 7625" d="M27.625,0h3.439c.145.034.289.075.436.1a47.38,47.38,0,0,1,4.656.882A24.093,24.093,0,0,1,51.3,33.9a.651.651,0,0,0,.16.876q3.057,3.02,6.08,6.074a3.431,3.431,0,0,1-1.511,5.916c-2.169.666-4.338,1.33-6.515,1.967a1,1,0,0,0-.783.772c-.635,2.178-1.266,4.358-1.987,6.508a4.512,4.512,0,0,1-1.112,1.814,3.344,3.344,0,0,1-4.778-.28q-4.546-4.529-9.069-9.08a1.215,1.215,0,0,0-1.053-.379,20.8,20.8,0,0,1-2.746,0,1.3,1.3,0,0,0-1.142.441q-4.46,4.494-8.949,8.958A3.435,3.435,0,0,1,11.915,56c-.671-2.187-1.344-4.374-1.99-6.568a.868.868,0,0,0-.668-.67c-2.193-.648-4.392-1.283-6.561-2.008A4.841,4.841,0,0,1,.88,45.646,6.234,6.234,0,0,1,0,44.018V42.757a5.327,5.327,0,0,1,1.4-2.175c1.949-1.912,3.86-3.861,5.806-5.777a.683.683,0,0,0,.176-.921A22.511,22.511,0,0,1,6,18.3C8.625,8.889,14.7,2.887,24.253.553,25.356.284,26.5.181,27.625,0M8.69,24.106A20.649,20.649,0,1,0,29.414,3.44,20.664,20.664,0,0,0,8.69,24.106m14.4,23.221A24.215,24.215,0,0,1,9.444,37.618L3.609,43.449c.041.015.146.062.254.095,2.17.658,4.334,1.338,6.514,1.962a3.75,3.75,0,0,1,2.785,2.747c.369,1.3.777,2.592,1.17,3.887.307,1.01.618,2.019.925,3.021l7.835-7.834m26.2-9.78a24.254,24.254,0,0,1-13.615,9.76l7.77,7.772c.026-.078.076-.22.12-.365q1.019-3.335,2.035-6.671a3.443,3.443,0,0,1,2.434-2.435q3.2-.968,6.4-1.947c.245-.075.486-.165.711-.241l-5.854-5.873" transform="translate(0 -0.001)" fill="#4286f5"/>
      <path id="Path_7626" data-name="Path 7626" d="M172.03,160.448c3.272-2.428,6.463-4.8,9.665-7.163a3.43,3.43,0,0,1,1.045-.562,2.221,2.221,0,0,1,2.592,1.154,2.247,2.247,0,0,1-.7,2.822c-1.833,1.393-3.691,2.754-5.539,4.127q-2.863,2.126-5.729,4.248a2.313,2.313,0,0,1-3.463-.294q-2.193-2.32-4.369-4.656a2.331,2.331,0,0,1-.125-3.458c1-.922,2.337-.771,3.441.4,1.047,1.108,2.087,2.223,3.178,3.386" transform="translate(-145.787 -135.108)" fill="#4286f5"/>
    </g>
  </g>
</svg>
