<svg id="Group_8628" data-name="Group 8628" xmlns="http://www.w3.org/2000/svg" xmlns:xlink="http://www.w3.org/1999/xlink" width="92.878" height="58.705" viewBox="0 0 92.878 58.705">
  <defs>
    <clipPath id="clip-path">
      <rect id="Rectangle_1723" data-name="Rectangle 1723" width="92.878" height="58.705" fill="#4286f5"/>
    </clipPath>
  </defs>
  <g id="Group_8627" data-name="Group 8627" clip-path="url(#clip-path)">
    <path id="Path_7677" data-name="Path 7677" d="M92.878,48.388a1.984,1.984,0,0,1-2.035,1.038c-1.352-.043-2.707-.011-4.131-.011a9.4,9.4,0,0,1-3.627,7.356,8.984,8.984,0,0,1-6,1.925,9.333,9.333,0,0,1-8.9-9.213H35.5a9.3,9.3,0,0,1-3.911,7.5,8.919,8.919,0,0,1-5.979,1.695c-3.755-.255-8.232-3.061-8.628-9.266h-.946c-2.177,0-4.354.01-6.531,0a3.059,3.059,0,0,1-3.334-3.325c-.008-.93,0-1.859,0-2.894-1.353,0-2.615,0-3.877,0a7.448,7.448,0,0,1-1.086-.035A1.321,1.321,0,0,1,0,41.8a1.31,1.31,0,0,1,1.041-1.406,3.79,3.79,0,0,1,.986-.095q6.4-.008,12.79,0a4.774,4.774,0,0,1,.724.03,1.449,1.449,0,0,1,1.306,1.483,1.391,1.391,0,0,1-1.411,1.365c-1.753.036-3.507.017-5.261.019H9.142v3.251c.269.023.555.068.841.069,2.268.006,4.535-.016,6.8.016a.994.994,0,0,0,1.059-.711A8.832,8.832,0,0,1,26.3,40.333a8.822,8.822,0,0,1,8.37,5.479c.211.446.39.719.971.718q14.422-.032,28.845-.017c.176,0,.352-.024.645-.045V36.318c0-.211-.008-.423,0-.634A1.515,1.515,0,0,1,66.649,34.1,1.46,1.46,0,0,1,68.035,35.7c.018,1.782.006,3.564.006,5.346,0,1.48-.018,2.96.013,4.439a4.244,4.244,0,0,0,.28,1.017,3.509,3.509,0,0,0,.721-.767,9.2,9.2,0,0,1,16.766-.006,1.13,1.13,0,0,0,1.281.8c.925-.06,1.858-.015,2.869-.015,0-1.914,0-3.719,0-5.524,0-.265-.026-.529-.046-.9-.549,0-1.054.011-1.56,0a4.5,4.5,0,0,1-4.583-4.6c-.014-.846-.006-1.691,0-2.537C83.784,31.464,84.237,31,85.71,31c1.29,0,2.579,0,3.885,0a4.4,4.4,0,0,0-4.41-3.271c-5.08-.012-10.159,0-15.239,0H68.034c0,.609.026,1.144-.006,1.676A1.417,1.417,0,0,1,66.652,30.8a1.461,1.461,0,0,1-1.495-1.3,6.378,6.378,0,0,1-.022-.9q0-12.232,0-24.464V2.979H9.083V4.06q0,12.232,0,24.463c0,.3.01.605-.013.906a1.37,1.37,0,0,1-1.317,1.364,1.424,1.424,0,0,1-1.539-1.234,5.947,5.947,0,0,1-.036-.994c0-8.215.03-16.43-.025-24.645C6.138,2.046,6.716.7,8.51,0H65.662a3.334,3.334,0,0,1,2.389,3.774c-.061.771-.01,1.551-.01,2.421h1.075c3.231,0,6.463-.026,9.694.009a5.87,5.87,0,0,1,5.816,3.819,12.543,12.543,0,0,1,.473,3.184,1.764,1.764,0,0,1-1.115,2.12c.755,3.036,1.481,6.019,2.263,8.988A1.229,1.229,0,0,0,87.01,25a7.7,7.7,0,0,1,5.5,5.152c.136.4.245.8.366,1.2ZM68.092,24.725H83.327c-.722-2.906-1.439-5.705-2.1-8.517a.972.972,0,0,0-1.149-.9c-3.685.039-7.371.017-11.058.02-.294,0-.587.029-.925.046ZM77.473,55.8a6.3,6.3,0,1,0-6.325-6.263A6.352,6.352,0,0,0,77.473,55.8m-51.243,0A6.3,6.3,0,1,0,19.955,49.5,6.331,6.331,0,0,0,26.23,55.8M68.1,12.337H82.129a3.079,3.079,0,0,0-3.291-3.225c-3.352-.021-6.7-.007-10.056,0a6.238,6.238,0,0,0-.687.075Zm18.65,21.607c-.347,2.9.519,3.57,3.161,3.122V33.944Z" transform="translate(0.001 0.001)" fill="#4286f5"/>
    <path id="Path_7678" data-name="Path 7678" d="M154.536,90.075c4.2-4.207,8.322-8.333,12.444-12.457a4.242,4.242,0,0,1,.743-.659A1.432,1.432,0,0,1,169.7,78.9a3.9,3.9,0,0,1-.646.751q-6.538,6.539-13.084,13.071c-1.185,1.183-1.758,1.179-2.952-.013-2.331-2.327-4.675-4.642-6.977-7a2.174,2.174,0,0,1-.69-1.377,1.919,1.919,0,0,1,.846-1.241c.607-.406,1.217-.087,1.7.4q2.922,2.912,5.84,5.827c.232.231.474.452.794.756" transform="translate(-118.928 -62.777)" fill="#4286f5"/>
    <path id="Path_7679" data-name="Path 7679" d="M217.09,224.548q-5.079,0-10.158,0a6.358,6.358,0,0,1-.9-.033,1.327,1.327,0,0,1-1.217-1.356,1.311,1.311,0,0,1,1.038-1.411,3.877,3.877,0,0,1,.987-.1q10.294-.008,20.587,0a4.749,4.749,0,0,1,.634.023,1.461,1.461,0,0,1,1.361,1.526,1.41,1.41,0,0,1-1.444,1.335c-1.087.035-2.176.015-3.265.015H217.09" transform="translate(-167.576 -181.355)" fill="#4286f5"/>
    <path id="Path_7680" data-name="Path 7680" d="M27.709,190.44q-4.441,0-8.883,0c-1.171,0-1.825-.5-1.855-1.392-.031-.91.686-1.5,1.859-1.5q8.928-.006,17.856,0c1.117,0,1.814.579,1.813,1.461s-.673,1.432-1.817,1.434q-4.487.007-8.973,0" transform="translate(-13.886 -153.446)" fill="#4286f5"/>
  </g>
</svg>
