<svg xmlns="http://www.w3.org/2000/svg" width="20.465" height="20.465" viewBox="0 0 20.465 20.465">
  <path id="Icon_awesome-directions" data-name="Icon awesome-directions" d="M20.09,9.326,11.139.375a1.282,1.282,0,0,0-1.813,0L.375,9.326a1.282,1.282,0,0,0,0,1.813L9.326,20.09a1.282,1.282,0,0,0,1.813,0l8.951-8.951a1.282,1.282,0,0,0,0-1.813Zm-4.036.5-3.366,3.107a.32.32,0,0,1-.537-.235V10.552H8.314V13.11a.32.32,0,0,1-.32.32H6.715a.32.32,0,0,1-.32-.32v-3.2A1.279,1.279,0,0,1,7.674,8.634h4.477V6.486a.32.32,0,0,1,.537-.235l3.366,3.107A.32.32,0,0,1,16.053,9.828Z" fill="#4286f5"/>
</svg>
