<svg id="Group_8491" data-name="Group 8491" xmlns="http://www.w3.org/2000/svg" xmlns:xlink="http://www.w3.org/1999/xlink" width="62.813" height="62.818" viewBox="0 0 62.813 62.818">
  <defs>
    <clipPath id="clip-path">
      <rect id="Rectangle_1691" data-name="Rectangle 1691" width="62.813" height="62.818" fill="#4286f5"/>
    </clipPath>
  </defs>
  <g id="Group_8490" data-name="Group 8490" clip-path="url(#clip-path)">
    <path id="Path_7629" data-name="Path 7629" d="M52.561,0a4.308,4.308,0,0,1,3.09,3.207,6.42,6.42,0,0,1,.1,1.249c.008,2.625,0,5.251,0,7.993,1.358,0,2.662-.035,3.963.008a3.04,3.04,0,0,1,2.809,4.307,4.493,4.493,0,0,1-.888,1.2q-2.289,2.339-4.628,4.63a1.008,1.008,0,0,0-.306,1.169A26.368,26.368,0,0,1,36.547,57.323a25.423,25.423,0,0,1-13.322-.8,1.176,1.176,0,0,0-1.446.315c-1.564,1.639-3.187,3.222-4.8,4.814a3.094,3.094,0,0,1-4.846,0C8.491,58.009,4.862,54.358,1.206,50.734A3.18,3.18,0,0,1,.228,47.1c.493-1.294,1.61-1.927,3.306-1.929,1.142,0,2.284,0,3.52,0-.091-1.6.161-3.1-.427-4.653A26.429,26.429,0,0,1,40.119,6.439c.182.062.368.11.714.212C40.592,3.776,40.672,1.069,44,0ZM34.126,13.941c-6.2-.73-11.468.98-15.693,5.51a17.181,17.181,0,0,0-4.652,13.284c1.471,0,2.812-.017,4.153,0A3.981,3.981,0,0,1,22,36.84c.018,2.405,0,4.81.005,7.216v1.129h3.359c2.552,0,3.593,1,3.711,3.558,0,.046.054.089.084.133C40.5,50.564,50.139,40.547,48.934,30.041c-1.531.309-2.56-.506-3.566-1.53q-5.059-5.144-10.206-10.2c-1.271-1.243-1.852-2.562-1.035-4.367M9.4,41.493q0,2.14,0,4.28c0,1.435-.322,1.748-1.79,1.749-1.427,0-2.854-.025-4.279.021a1.142,1.142,0,0,0-.877.439,1.076,1.076,0,0,0,.27.931q5.549,5.606,11.143,11.169a.84.84,0,0,0,1.369-.011c3.693-3.705,7.4-7.4,11.076-11.117a1.228,1.228,0,0,0,.295-1.01c-.06-.208-.569-.394-.883-.4-1.4-.043-2.8-.018-4.2-.019-1.579,0-1.874-.29-1.875-1.837,0-2.881,0-5.763,0-8.644,0-1.349-.6-1.956-1.937-1.963q-3.189-.015-6.378,0c-1.322,0-1.927.622-1.934,1.968-.008,1.483,0,2.965,0,4.448M43.136,8.648c0,1.539.007,3.078,0,4.617-.007,1.127-.4,1.524-1.5,1.53-1.483.008-2.967-.029-4.449.025a1.383,1.383,0,0,0-1.012.5c-.114.187.135.737.372.976,3.644,3.677,7.317,7.325,10.97,10.994a.893.893,0,0,0,1.488,0c3.671-3.69,7.361-7.361,11.023-11.059.218-.22.437-.724.33-.914a1.255,1.255,0,0,0-.927-.493c-1.482-.051-2.966-.019-4.449-.024-1.24,0-1.584-.35-1.585-1.6q0-4.324,0-8.647c0-1.618-.568-2.2-2.15-2.2q-3.064,0-6.129,0c-1.346,0-1.963.6-1.972,1.93-.011,1.455,0,2.91,0,4.365m-2.351,3.882c0-1.013-.035-1.847.013-2.677a.8.8,0,0,0-.64-.908,23.582,23.582,0,0,0-13.6-1.112A24.012,24.012,0,0,0,7.407,33.578c.025.335.1.667.18,1.15a4.543,4.543,0,0,1,3.865-2.063c0-1.051-.062-2.033.018-3a20.625,20.625,0,0,1,.468-2.893,20.058,20.058,0,0,1,25.3-14.549,17.021,17.021,0,0,0,3.544.31m13.74,12.477c-1.026,1.049-1.988,1.982-2.88,2.978a1.573,1.573,0,0,0-.357,1.088,20.043,20.043,0,0,1-23.22,22.071.919.919,0,0,0-.679.12c-1.044.992-2.055,2.018-3.113,3.071A23.923,23.923,0,0,0,54.525,25.008" transform="translate(0)" fill="#4286f5"/>
    <path id="Path_7630" data-name="Path 7630" d="M147.869,134.345H152.9v2.768h-5.027q0,1.215-.1,2.585t-.3,2.584h7.767v2.881H143.66a41.984,41.984,0,0,0,.847-8.05h-2.542v-2.768h2.542v-1.864a11.063,11.063,0,0,1,.481-3.544,5.513,5.513,0,0,1,1.328-2.218,4.758,4.758,0,0,1,2.033-1.158,9.446,9.446,0,0,1,2.6-.339,8.87,8.87,0,0,1,2.1.226,11.133,11.133,0,0,1,1.765.594l-.847,2.768a7.083,7.083,0,0,0-2.909-.649,4.5,4.5,0,0,0-1.328.183,2.168,2.168,0,0,0-1,.65,3.212,3.212,0,0,0-.635,1.271,7.621,7.621,0,0,0-.226,2.02Z" transform="translate(-118.062 -104.139)" fill="#4286f5"/>
  </g>
</svg>
