<svg id="Group_8505" data-name="Group 8505" xmlns="http://www.w3.org/2000/svg" xmlns:xlink="http://www.w3.org/1999/xlink" width="69.817" height="61.029" viewBox="0 0 69.817 61.029">
  <defs>
    <clipPath id="clip-path">
      <rect id="Rectangle_1696" data-name="Rectangle 1696" width="69.817" height="61.029" fill="#4286f5" stroke="#fff" stroke-width="1"/>
    </clipPath>
  </defs>
  <g id="Group_8504" data-name="Group 8504" clip-path="url(#clip-path)">
    <path id="Path_7639" data-name="Path 7639" d="M32.033,0H64.066c.037.025.072.067.112.072a6.6,6.6,0,0,1,5.638,6.9c-.1,4.7-.024,9.4-.025,14.1,0,3.179.024,6.359-.01,9.538a6.241,6.241,0,0,1-5.574,6.2c-2.164.194-4.355.1-6.534.121-1.5.014-2.991,0-4.575,0,.1.3.165.536.248.763q2.8,7.629,5.6,15.257c.678,1.851,1.379,3.7,1.992,5.569a1.919,1.919,0,0,1-1.175,2.33,1.948,1.948,0,0,1-2.479-.815,5.8,5.8,0,0,1-.448-.987Q52.892,48.324,48.97,37.594c-.207-.57-.5-.652-1.026-.687-.6-.04-.758.252-.93.726q-3.886,10.744-7.8,21.476a5.767,5.767,0,0,1-.426.923A1.837,1.837,0,0,1,36.9,61a1.789,1.789,0,0,1-1.718-1.416,3.543,3.543,0,0,1,.166-1.771c2.4-6.677,4.837-13.341,7.263-20.008.1-.267.182-.539.292-.87-2.383,0-4.676-.013-6.968.021a1.036,1.036,0,0,0-.651.462,5.467,5.467,0,0,1-6.616,2.037c-2.122-.914-4.161-2.02-6.237-3.039-.236-.116-.477-.219-.817-.374v.989q0,10.764,0,21.529a2.146,2.146,0,0,1-2.452,2.472q-6.167.006-12.335,0a2.151,2.151,0,0,1-2.453-2.474c0-3.452-.008-6.9.008-10.356a.909.909,0,0,0-.56-.928A11.79,11.79,0,0,1,1.6,45.632,6.556,6.556,0,0,1,0,42.244V33.932a5.056,5.056,0,0,0,.113-.525,12.009,12.009,0,0,1,3.12-7.024c.975-1.052,2.129-1.937,3.2-2.894A9.725,9.725,0,0,1,18.643,8.395a9.4,9.4,0,0,1,3.816,5.77,9.654,9.654,0,0,1-2.429,8.818l6.262,3.1v-.955q0-8.921,0-17.842c0-.386,0-.772.02-1.157a6.363,6.363,0,0,1,2.394-4.7A7.606,7.606,0,0,1,32.033,0m4.009,32.842h.694q13.12,0,26.239,0A2.4,2.4,0,0,0,65.7,30.128q0-11.651,0-23.3c0-1.856-.893-2.737-2.771-2.737H33.147c-1.888,0-2.763.864-2.764,2.734q0,6.78,0,13.559c0,2.385,0,4.77.008,7.154,0,.225.043.574.185.654.819.462,1.673.86,2.544,1.294,1.076-2.15,2.109-4.218,3.145-6.284.417-.831.81-1.676,1.268-2.484a1.9,1.9,0,0,1,2.085-.96,1.751,1.751,0,0,1,1.591,1.467,3.182,3.182,0,0,1-.285,1.748c-1.488,3.084-3.041,6.137-4.571,9.2-.1.2-.185.4-.311.671M17.524,56.912v-.934q0-11.274,0-22.547a8.1,8.1,0,0,1,.047-1.019,1.971,1.971,0,0,1,2.217-1.728,3.725,3.725,0,0,1,1.081.384c2.946,1.461,5.877,2.952,8.837,4.384a2.488,2.488,0,0,0,1.486.186,1.271,1.271,0,0,0,.954-1.2,1.306,1.306,0,0,0-.894-1.312c-3.616-1.8-7.28-3.5-10.828-5.421A14.578,14.578,0,0,0,12.368,26c-3.974.234-7.727,3.483-8.106,7.452a79.676,79.676,0,0,0-.137,8.229,2.2,2.2,0,0,0,2.147,2.078,2.116,2.116,0,0,1,2.19,2.461q0,4.973,0,9.945v.743Zm1.053-40.356a5.594,5.594,0,1,0-5.763,5.312,5.548,5.548,0,0,0,5.763-5.312" fill="#4286f5" stroke="#fff" stroke-width="1"/>
    <path id="Path_7640" data-name="Path 7640" d="M269.573,68.1c-3.633,0-7.267.012-10.9-.007a2.012,2.012,0,0,1-1.975-2.747,1.924,1.924,0,0,1,1.359-1.228,2.723,2.723,0,0,1,.671-.1q10.832-.008,21.663,0a2.043,2.043,0,1,1-.055,4.076c-3.588.009-7.176,0-10.763,0" transform="translate(-221.514 -55.273)" fill="#4286f5" stroke="#fff" stroke-width="1"/>
    <path id="Path_7641" data-name="Path 7641" d="M344.4,120.177c1.769,0,3.538-.03,5.306.01a2.015,2.015,0,0,1,2.04,2.659,1.923,1.923,0,0,1-1.554,1.361,3.306,3.306,0,0,1-.609.054c-3.492,0-6.984.01-10.477,0a2.054,2.054,0,0,1-2.212-1.528,2.033,2.033,0,0,1,2.13-2.547c1.791-.03,3.583-.007,5.374-.007" transform="translate(-290.829 -103.755)" fill="#4286f5" stroke="#fff" stroke-width="1"/>
    <path id="Path_7642" data-name="Path 7642" d="M344.37,176.427c1.747,0,3.493-.006,5.24,0a2.069,2.069,0,0,1,2.3,2.044,2.094,2.094,0,0,1-2.264,2.038q-5.274.019-10.547,0a2.036,2.036,0,0,1-2.185-1.729,1.972,1.972,0,0,1,1.348-2.238,3.217,3.217,0,0,1,.936-.112c1.724-.01,3.448,0,5.172,0" transform="translate(-290.877 -152.33)" fill="#4286f5" stroke="#fff" stroke-width="1"/>
  </g>
</svg>
