<svg id="Group_8459" data-name="Group 8459" xmlns="http://www.w3.org/2000/svg" xmlns:xlink="http://www.w3.org/1999/xlink" width="49.379" height="63.244" viewBox="0 0 49.379 63.244">
  <defs>
    <clipPath id="clip-path">
      <rect id="Rectangle_1671" data-name="Rectangle 1671" width="49.379" height="63.244" fill="#4286f5" stroke="#fff" stroke-width="0.5"/>
    </clipPath>
  </defs>
  <g id="Group_8458" data-name="Group 8458" clip-path="url(#clip-path)">
    <path id="Path_7563" data-name="Path 7563" d="M3.81,63.245a10.846,10.846,0,0,1-1.321-.49A4.426,4.426,0,0,1,0,58.532Q0,48.188,0,37.845q0-2.779,0-5.558c0-3.073,1.742-4.865,4.818-4.967.1,0,.2-.017.373-.032v-.8q0-12.351,0-24.7C5.192.353,5.545,0,6.98,0H47.62C49,0,49.376.372,49.376,1.758q0,10.56,0,21.12c0,.124,0,.247,0,.371A1.245,1.245,0,0,1,48.093,24.6a1.207,1.207,0,0,1-1.185-1.364c-.007-2.8,0-5.6,0-8.4q0-5.8,0-11.61V2.514H7.7V27.322h.747c4.447,0,8.894-.007,13.341,0a4.45,4.45,0,0,1,4.548,3.425,6.677,6.677,0,0,1,.142,1.53c.012,3.5.006,7,.006,10.5v.8H41.929c1.271,0,1.652.384,1.653,1.658q0,2.5,0,5c0,1.091-.444,1.526-1.544,1.527q-7.381,0-14.761,0H26.52v3.793H46.905v-.727q0-9.973,0-19.946c0-.185,0-.371,0-.556a1.233,1.233,0,1,1,2.462-.075c.016.184.007.37.007.556q0,10.714,0,21.428c0,1.5-.33,1.831-1.8,1.831H26.521c-.016.277-.029.514-.042.752a4.444,4.444,0,0,1-3.551,4.324,1.232,1.232,0,0,0-.216.1ZM2.472,45.267q0,6.574,0,13.148a2.067,2.067,0,0,0,2.339,2.359q8.427,0,16.854,0a2.058,2.058,0,0,0,2.348-2.346q0-13.148,0-26.3a2.073,2.073,0,0,0-2.364-2.339q-8.4,0-16.792,0a2.092,2.092,0,0,0-2.385,2.388q0,6.543,0,13.086m24.016,3.977H41.066V46.084H26.526c-.015.157-.036.276-.037.4,0,.9,0,1.807,0,2.763" transform="translate(0 0)" fill="#4286f5" stroke="#fff" stroke-width="0.5"/>
    <path id="Path_7564" data-name="Path 7564" d="M75.242,36.323a9.123,9.123,0,0,1,9.1,8.859,1.368,1.368,0,0,1-.881,1.463.877.877,0,0,0-.355.553,7.793,7.793,0,0,1-6.475,6.169,7.571,7.571,0,0,1-8.076-3.433,7.734,7.734,0,0,1-.158-8.776.819.819,0,0,0,.114-.883,1.192,1.192,0,0,1,.416-1.431,9.029,9.029,0,0,1,6.311-2.522m-4.694,6.183a5.362,5.362,0,0,0,.008,6.015,5.614,5.614,0,0,0,6.276,2.292c1.936-.573,3.721-2.509,3.749-4.137h-.6c-1.317,0-2.637-.049-3.951.016a2.664,2.664,0,0,1-2.274-.951c-1.022-1.119-2.131-2.159-3.208-3.236m.927-2.57c1.421,1.42,2.762,2.774,4.127,4.1a.986.986,0,0,0,.623.158c1.171.015,2.342.007,3.514.007H81.7a6.35,6.35,0,0,0-3.663-4.786,6.668,6.668,0,0,0-6.561.516" transform="translate(-56.04 -30.33)" fill="#4286f5" stroke="#fff" stroke-width="0.5"/>
    <path id="Path_7565" data-name="Path 7565" d="M195.6,150.622c0,1.015.028,1.92-.012,2.823a.645.645,0,0,0,.537.741,3.663,3.663,0,0,1,2.551,2.62,4.21,4.21,0,0,1-2.56,4.906c-.385.15-.543.307-.529.736.026.8-.386,1.254-1.031,1.253s-1.029-.464-1.056-1.255c0-.123,0-.245,0-.275-.837-.361-1.639-.657-2.391-1.048a1.04,1.04,0,0,1-.49-1.5,1.069,1.069,0,0,1,1.562-.287c.391.21.8.387,1.316.634,0-1.546.007-2.954-.012-4.362,0-.119-.157-.264-.276-.346-.219-.15-.467-.258-.7-.389a3.056,3.056,0,0,1-1.7-2.989,3.466,3.466,0,0,1,2.165-3.184c.361-.157.554-.289.541-.733a1.05,1.05,0,0,1,1.063-1.175,1.031,1.031,0,0,1,1.009,1.156c0,.391.149.505.5.623a6,6,0,0,1,1.367.688.894.894,0,0,1,.372,1.273,1.055,1.055,0,0,1-1.314.515,9.72,9.72,0,0,1-.91-.42m.031,5.686v3.313a2.114,2.114,0,0,0,1.063-1.873,1.43,1.43,0,0,0-1.063-1.44m-2.166-5.343a1.109,1.109,0,0,0,0,1.938Z" transform="translate(-159.04 -122.569)" fill="#4286f5" stroke="#fff" stroke-width="0.5"/>
    <path id="Path_7566" data-name="Path 7566" d="M196.5,42.529c1.418,0,2.836-.006,4.254,0,.872.005,1.409.465,1.429,1.193A1.273,1.273,0,0,1,200.757,45q-4.254.012-8.508,0a1.268,1.268,0,0,1-1.426-1.27c.017-.732.549-1.19,1.424-1.195,1.418-.008,2.836,0,4.254,0" transform="translate(-159.338 -35.51)" fill="#4286f5" stroke="#fff" stroke-width="0.5"/>
    <path id="Path_7567" data-name="Path 7567" d="M196.471,114.937c-1.418,0-2.836.006-4.254,0-.866-.005-1.393-.481-1.391-1.222a1.237,1.237,0,0,1,1.336-1.235q4.346-.027,8.692,0a1.236,1.236,0,1,1-.068,2.457c-1.438.008-2.877,0-4.315,0" transform="translate(-159.341 -93.907)" fill="#4286f5" stroke="#fff" stroke-width="0.5"/>
    <path id="Path_7568" data-name="Path 7568" d="M196.408,80c-1.459,0-2.918.022-4.376-.007a1.185,1.185,0,0,1-1.15-1.765,1.554,1.554,0,0,1,1.075-.656c2.958-.053,5.917-.042,8.875-.022a1.194,1.194,0,0,1,1.25,1.24,1.221,1.221,0,0,1-1.3,1.2c-1.458.023-2.917.007-4.376.007" transform="translate(-159.237 -64.743)" fill="#4286f5" stroke="#fff" stroke-width="0.5"/>
    <path id="Path_7569" data-name="Path 7569" d="M284.326,168.28a1.217,1.217,0,0,1,1.215-1.218,1.226,1.226,0,1,1-.022,2.451,1.207,1.207,0,0,1-1.193-1.233" transform="translate(-237.414 -139.497)" fill="#4286f5" stroke="#fff" stroke-width="0.5"/>
    <path id="Path_7570" data-name="Path 7570" d="M39.5,274.138c-2.016,0-4.031,0-6.047,0a1.832,1.832,0,0,1-2-1.99q-.013-5.676,0-11.352a1.834,1.834,0,0,1,2.036-2.021q6.016-.013,12.033,0a1.816,1.816,0,0,1,2.026,2.023q.015,5.645,0,11.291a1.831,1.831,0,0,1-2.059,2.05q-2.993,0-5.986,0m1.276-2.5h4.265v-3.916H40.78Zm4.263-10.349H40.785v3.9h4.258Zm-11.081,3.889h4.251v-3.9H33.962Zm0,6.439h4.265v-3.889H33.965Z" transform="translate(-26.26 -216.072)" fill="#4286f5" stroke="#fff" stroke-width="0.5"/>
    <path id="Path_7571" data-name="Path 7571" d="M39.494,203.849q-3.21,0-6.421,0c-1.175,0-1.614-.434-1.617-1.59q-.006-2.377,0-4.753c0-1.108.43-1.548,1.522-1.549q6.544-.007,13.089,0c1.039,0,1.477.427,1.485,1.454q.019,2.5,0,5a1.264,1.264,0,0,1-1.45,1.435c-2.2.01-4.4,0-6.606,0m5.56-5.369h-11.1v2.842h11.1Z" transform="translate(-26.263 -163.621)" fill="#4286f5" stroke="#fff" stroke-width="0.5"/>
  </g>
</svg>
