<svg xmlns="http://www.w3.org/2000/svg" width="23" height="23" viewBox="0 0 23 23">
  <path id="Icon_awesome-gas-pump" data-name="Icon awesome-gas-pump" d="M15.094,20.125H.719A.721.721,0,0,0,0,20.844v1.438A.721.721,0,0,0,.719,23H15.094a.721.721,0,0,0,.719-.719V20.844A.721.721,0,0,0,15.094,20.125Zm7.062-15.3L18.517,1.181a.721.721,0,0,0-1.015,0l-.508.508a.721.721,0,0,0,0,1.015L18.688,4.4v2.79a2.512,2.512,0,0,0,2.156,2.48v7.223a1.078,1.078,0,0,1-2.156,0V15.453A3.953,3.953,0,0,0,14.734,11.5h-.359V2.875A2.878,2.878,0,0,0,11.5,0H4.313A2.878,2.878,0,0,0,1.438,2.875V18.688H14.375V13.656h.359a1.8,1.8,0,0,1,1.8,1.8V16.7a3.369,3.369,0,0,0,2.9,3.41A3.243,3.243,0,0,0,23,16.891V6.855a2.88,2.88,0,0,0-.845-2.035ZM11.5,8.625H4.313V2.875H11.5Z" fill="#4286f5"/>
</svg>
