<svg xmlns="http://www.w3.org/2000/svg" width="17.339" height="17.337" viewBox="0 0 17.339 17.337">
  <path id="Icon_ionic-ios-call" data-name="Icon ionic-ios-call" d="M21.328,18.078a14.563,14.563,0,0,0-3.042-2.036c-.912-.438-1.246-.429-1.891.036-.537.388-.885.749-1.5.614a8.966,8.966,0,0,1-3.02-2.234,8.9,8.9,0,0,1-2.234-3.02c-.131-.623.23-.966.614-1.5.465-.645.478-.979.036-1.891A14.276,14.276,0,0,0,8.252,5c-.664-.664-.812-.519-1.178-.388a6.7,6.7,0,0,0-1.079.573A3.254,3.254,0,0,0,4.7,6.555c-.257.555-.555,1.589.961,4.288a23.927,23.927,0,0,0,4.207,5.61h0l0,0,0,0h0a24.02,24.02,0,0,0,5.61,4.207c2.7,1.517,3.733,1.219,4.288.961a3.2,3.2,0,0,0,1.368-1.3,6.7,6.7,0,0,0,.573-1.079C21.847,18.89,22,18.742,21.328,18.078Z" transform="translate(-4.49 -4.503)" fill="#4286f5"/>
</svg>
