<svg id="Group_8437" data-name="Group 8437" xmlns="http://www.w3.org/2000/svg" xmlns:xlink="http://www.w3.org/1999/xlink" width="128.774" height="34.187" viewBox="0 0 128.774 34.187">
  <defs>
    <clipPath id="clip-path">
      <rect id="Rectangle_1582" data-name="Rectangle 1582" width="128.774" height="34.187" fill="none"/>
    </clipPath>
  </defs>
  <path id="Path_47" data-name="Path 47" d="M112.626,48.73h-4.571l-.872,2.109h-2.335l4.388-9.845h2.25l4.4,9.845H113.5ZM111.908,47l-1.561-3.769L108.786,47Z" transform="translate(-65.691 -25.684)" fill="#fff"/>
  <g id="Group_1929" data-name="Group 1929">
    <g id="Group_1928" data-name="Group 1928" clip-path="url(#clip-path)">
      <path id="Path_48" data-name="Path 48" d="M136.369,46.508V40.994h2.279v5.429c0,1.87.816,2.644,2.194,2.644s2.194-.774,2.194-2.644V40.994h2.25v5.514c0,2.9-1.659,4.5-4.458,4.5s-4.458-1.6-4.458-4.5" transform="translate(-85.439 -25.684)" fill="#fff"/>
      <path id="Path_49" data-name="Path 49" d="M165.993,42.85h-3.151V40.994h8.58V42.85h-3.151v7.989h-2.279Z" transform="translate(-102.026 -25.684)" fill="#fff"/>
      <path id="Path_50" data-name="Path 50" d="M187.059,45.634a5.4,5.4,0,1,1,5.387,5.092,5.094,5.094,0,0,1-5.387-5.092m8.467,0a3.081,3.081,0,1,0-3.08,3.151,3,3,0,0,0,3.08-3.151" transform="translate(-117.198 -25.401)" fill="#fff"/>
      <path id="Path_51" data-name="Path 51" d="M227.67,48.772h-1.6v2.067h-2.222V48.772h-5.3V47.239l4.641-6.245h2.391l-4.3,5.921h2.644V45.073h2.152v1.842h1.6Z" transform="translate(-136.924 -25.684)" fill="#4286f5"/>
      <path id="Path_52" data-name="Path 52" d="M246.7,49.586l.773-1.716a5.792,5.792,0,0,0,3.249,1.027c1.35,0,1.9-.45,1.9-1.055,0-1.843-5.724-.577-5.724-4.234,0-1.674,1.35-3.066,4.149-3.066a6.6,6.6,0,0,1,3.417.872l-.7,1.73a5.556,5.556,0,0,0-2.728-.773c-1.35,0-1.871.506-1.871,1.125,0,1.814,5.724.562,5.724,4.177,0,1.646-1.364,3.052-4.177,3.052a7.015,7.015,0,0,1-4.008-1.139" transform="translate(-154.567 -25.401)" fill="#fff"/>
      <path id="Path_53" data-name="Path 53" d="M277.114,48.73h-4.571l-.872,2.109h-2.335l4.388-9.845h2.25l4.4,9.845h-2.391ZM276.4,47l-1.561-3.769L273.274,47Z" transform="translate(-168.747 -25.684)" fill="#fff"/>
      <path id="Path_54" data-name="Path 54" d="M301.647,40.994h2.279v7.989h4.936v1.856h-7.215Z" transform="translate(-188.991 -25.684)" fill="#fff"/>
      <path id="Path_55" data-name="Path 55" d="M332.016,49.011v1.829h-7.623V40.994h7.44v1.829h-5.176V44.96h4.571v1.772h-4.571v2.279Z" transform="translate(-203.242 -25.684)" fill="#fff"/>
      <path id="Path_56" data-name="Path 56" d="M110.489,85.36l.166-.35a1.61,1.61,0,0,0,1.035.363c.542,0,.775-.21.775-.484,0-.766-1.9-.282-1.9-1.447,0-.484.376-.9,1.2-.9a1.844,1.844,0,0,1,1.008.277l-.148.359a1.619,1.619,0,0,0-.86-.255c-.533,0-.762.224-.762.5,0,.766,1.9.287,1.9,1.438,0,.479-.385.891-1.214.891a1.861,1.861,0,0,1-1.2-.394" transform="translate(-69.225 -51.718)" fill="#f9f9f9"/>
      <path id="Path_57" data-name="Path 57" d="M124.824,85.388v.39h-2.276V82.642h2.213v.39H123V84h1.572v.381H123v1.012Z" transform="translate(-76.78 -51.778)" fill="#f9f9f9"/>
      <path id="Path_58" data-name="Path 58" d="M134.429,82.642h.448v2.746h1.7v.39h-2.146Z" transform="translate(-84.224 -51.778)" fill="#f9f9f9"/>
      <path id="Path_59" data-name="Path 59" d="M145.4,82.642h.448v2.746h1.7v.39H145.4Z" transform="translate(-91.095 -51.778)" fill="#f9f9f9"/>
      <path id="Path_60" data-name="Path 60" d="M163.814,84.694v1.084h-.443V84.685l-1.245-2.042h.479l1,1.653,1.008-1.653h.444Z" transform="translate(-101.577 -51.778)" fill="#f9f9f9"/>
      <path id="Path_61" data-name="Path 61" d="M173.992,84.15a1.667,1.667,0,1,1,1.671,1.6,1.594,1.594,0,0,1-1.671-1.6m2.885,0a1.218,1.218,0,1,0-1.214,1.205,1.177,1.177,0,0,0,1.214-1.205" transform="translate(-109.011 -51.718)" fill="#f9f9f9"/>
      <path id="Path_62" data-name="Path 62" d="M188.524,84.426V82.643h.448v1.765c0,.694.318,1.008.883,1.008s.887-.313.887-1.008V82.643h.434v1.783a1.327,1.327,0,1,1-2.652,0" transform="translate(-118.116 -51.778)" fill="#f9f9f9"/>
      <path id="Path_63" data-name="Path 63" d="M204.024,85.778l-.676-.963c-.063,0-.13.009-.2.009h-.775v.954h-.448V82.642h1.223c.815,0,1.308.412,1.308,1.093a.99.99,0,0,1-.69.99l.744,1.053Zm-.013-2.042c0-.448-.3-.7-.874-.7h-.761v1.411h.761c.573,0,.874-.26.874-.708" transform="translate(-126.514 -51.778)" fill="#f9f9f9"/>
      <path id="Path_64" data-name="Path 64" d="M220.876,84.15a1.586,1.586,0,0,1,1.662-1.6,1.549,1.549,0,0,1,1.191.488l-.292.282a1.159,1.159,0,0,0-.882-.372,1.205,1.205,0,1,0,0,2.41,1.165,1.165,0,0,0,.882-.376l.292.282a1.557,1.557,0,0,1-1.2.493,1.585,1.585,0,0,1-1.657-1.6" transform="translate(-138.386 -51.718)" fill="#f9f9f9"/>
      <path id="Path_65" data-name="Path 65" d="M235.073,84.994h-1.666l-.345.784H232.6l1.42-3.136h.443l1.424,3.136h-.47Zm-.157-.359L234.24,83.1l-.676,1.536Z" transform="translate(-145.732 -51.778)" fill="#f9f9f9"/>
      <path id="Path_66" data-name="Path 66" d="M248.593,85.778l-.676-.963c-.063,0-.13.009-.2.009h-.775v.954H246.5V82.642h1.222c.816,0,1.308.412,1.308,1.093a.989.989,0,0,1-.689.99l.744,1.053Zm-.013-2.042c0-.448-.3-.7-.874-.7h-.761v1.411h.761c.573,0,.874-.26.874-.708" transform="translate(-154.438 -51.778)" fill="#f9f9f9"/>
      <path id="Path_67" data-name="Path 67" d="M270.01,82.642l-1.048,3.136h-.47l-.855-2.5-.856,2.5h-.48l-1.048-3.136h.461l.847,2.549.883-2.549h.412l.865,2.562.864-2.562Z" transform="translate(-166.189 -51.778)" fill="#f9f9f9"/>
      <rect id="Rectangle_1581" data-name="Rectangle 1581" width="0.448" height="3.136" transform="translate(105.804 30.865)" fill="#f9f9f9"/>
      <path id="Path_68" data-name="Path 68" d="M290.723,83.032h-1.075v-.39h2.593v.39h-1.075v2.746h-.443Z" transform="translate(-181.473 -51.778)" fill="#f9f9f9"/>
      <path id="Path_69" data-name="Path 69" d="M304.44,82.642v3.136h-.448v-1.4h-1.8v1.4h-.448V82.642h.448v1.348h1.8V82.642Z" transform="translate(-189.052 -51.778)" fill="#f9f9f9"/>
      <path id="Path_70" data-name="Path 70" d="M322.324,84.426V82.643h.448v1.765c0,.694.318,1.008.882,1.008s.887-.313.887-1.008V82.643h.434v1.783a1.327,1.327,0,1,1-2.652,0" transform="translate(-201.946 -51.778)" fill="#f9f9f9"/>
      <path id="Path_71" data-name="Path 71" d="M334.96,85.36l.165-.35a1.612,1.612,0,0,0,1.035.363c.542,0,.775-.21.775-.484,0-.766-1.9-.282-1.9-1.447,0-.484.376-.9,1.2-.9a1.843,1.843,0,0,1,1.008.277l-.148.359a1.62,1.62,0,0,0-.86-.255c-.533,0-.762.224-.762.5,0,.766,1.9.287,1.9,1.438,0,.479-.385.891-1.214.891a1.86,1.86,0,0,1-1.2-.394" transform="translate(-209.863 -51.718)" fill="#f9f9f9"/>
      <path id="Path_72" data-name="Path 72" d="M51.839,41.3A10.58,10.58,0,0,0,46.9,35.272a9.9,9.9,0,0,0-5.169-1.105l-.666.031c-.221.02-.441.061-.661.091s-.443.053-.658.11l-.649.164c-.108.029-.217.053-.323.086l-.315.115L37.828,35c-.2.094-.4.2-.6.3l-.3.149c-.1.055-.19.118-.286.176l-.568.357-.531.41c-.087.07-.179.134-.262.209l-.244.229c-.159.156-.333.3-.481.466l-.444.5c-.151.165-.271.354-.407.53l-.2.269c-.062.092-.119.189-.178.283-.114.192-.24.376-.342.574a10.62,10.62,0,0,0-.971,2.482,9.781,9.781,0,0,0-.236,1.316c-.018.22-.042.438-.056.658l-.028.66a18,18,0,0,0,.133,2.631,14.5,14.5,0,0,0,.48,2.352q-1.942.027-3.885.074l-2.06.044-2.06.056,2.06.056,2.06.045c1.374.031,2.748.059,4.121.078l.238,0-.068-.239a14.834,14.834,0,0,1-.458-2.518,17.521,17.521,0,0,1-.072-2.566l.041-.64.064-.638a9.232,9.232,0,0,1,.24-1.241,10.1,10.1,0,0,1,.951-2.339,10.716,10.716,0,0,1,1.5-2.029c.14-.157.3-.291.455-.437l.23-.215c.078-.07.165-.13.248-.195l.5-.384.536-.333c.09-.055.177-.114.269-.164l.283-.139.567-.276.591-.22.3-.111c.1-.031.2-.054.306-.081l.612-.159c.2-.055.416-.069.624-.106s.417-.07.627-.09l.634-.032a9.546,9.546,0,0,1,4.9.99,9.928,9.928,0,0,1,3.713,3.386A10.162,10.162,0,0,1,51.51,41.4,11.977,11.977,0,0,1,52,43.916a20.5,20.5,0,0,1-.243,5.168,19.188,19.188,0,0,0,.493-5.187,11.292,11.292,0,0,0-.415-2.6" transform="translate(-15.224 -21.396)" fill="#4286f5"/>
      <path id="Path_73" data-name="Path 73" d="M33.017,49.777l-.488-.006c-1.374-.019-2.749-.047-4.123-.078l-4.122-.1v-.373l4.122-.1q1.821-.041,3.642-.07A14.819,14.819,0,0,1,31.63,46.9a18.3,18.3,0,0,1-.134-2.658l.028-.663c.009-.148.022-.291.036-.435l.021-.231a10,10,0,0,1,.241-1.349,10.81,10.81,0,0,1,.988-2.524c.067-.13.147-.259.227-.387.04-.063.08-.127.118-.192l.064-.1c.039-.063.078-.127.12-.189l.2-.276c.049-.064.094-.125.139-.187a3.987,3.987,0,0,1,.281-.358l.443-.5a4.467,4.467,0,0,1,.322-.319c.057-.052.113-.1.167-.157l.247-.232c.061-.055.122-.1.184-.149l.623-.482.682-.43c.065-.041.129-.081.195-.118l.509-.252c.135-.067.27-.134.407-.2l.958-.353c.082-.025.155-.044.229-.062l.762-.193a3.784,3.784,0,0,1,.447-.079c.075-.01.151-.021.226-.034l.235-.034c.147-.022.294-.045.442-.058l.673-.032a10.15,10.15,0,0,1,5.265,1.128,10.764,10.764,0,0,1,5.032,6.134v0a11.462,11.462,0,0,1,.422,2.643,19.408,19.408,0,0,1-.5,5.238l-.366-.071a20.261,20.261,0,0,0,.241-5.121,11.72,11.72,0,0,0-.487-2.474,9.885,9.885,0,0,0-1.12-2.231,9.716,9.716,0,0,0-3.642-3.322,9.357,9.357,0,0,0-4.805-.97l-.636.032c-.122.012-.251.032-.38.053l-.23.035c-.069.012-.147.023-.225.034a3.146,3.146,0,0,0-.376.068l-.723.187c-.063.016-.125.031-.187.05l-.878.328-.833.407c-.048.027-.1.061-.156.1l-.632.393-.577.444c-.05.037-.1.075-.146.116l-.227.213c-.053.052-.11.1-.167.156a3.749,3.749,0,0,0-.276.269,10.481,10.481,0,0,0-1.477,2A9.882,9.882,0,0,0,32.7,41.8a9.015,9.015,0,0,0-.235,1.218l-.063.63-.041.634a17.354,17.354,0,0,0,.071,2.535,14.483,14.483,0,0,0,.451,2.486Zm9.267-15.753c-.184,0-.368.005-.552.016l-.667.031c-.132.012-.272.034-.411.055l-.235.035c-.072.012-.152.024-.232.034a3.408,3.408,0,0,0-.4.071l-.765.194c-.067.017-.133.034-.2.054l-.934.343c-.12.056-.252.122-.384.188l-.5.248c-.052.03-.11.066-.169.1l-.669.421-.609.473c-.054.041-.107.082-.158.127l-.242.227c-.055.053-.114.108-.172.162a4.118,4.118,0,0,0-.3.291l-.444.5a3.756,3.756,0,0,0-.256.328c-.047.065-.094.13-.143.193l-.2.265c-.034.051-.07.11-.106.169l-.063.1c-.037.062-.079.128-.12.195-.074.12-.149.239-.214.365a10.477,10.477,0,0,0-.956,2.443,9.727,9.727,0,0,0-.232,1.293l-.02.227c-.013.14-.026.28-.034.42l-.028.656a18.067,18.067,0,0,0,.131,2.6,14.626,14.626,0,0,0,.37,1.951,16.208,16.208,0,0,1-.313-1.957,17.782,17.782,0,0,1-.073-2.594l.042-.643.064-.644a9.354,9.354,0,0,1,.246-1.272,10.278,10.278,0,0,1,.968-2.38,10.837,10.837,0,0,1,1.526-2.067c.09-.1.194-.2.3-.291.054-.049.109-.1.161-.15l.233-.218c.057-.051.115-.095.173-.138L36.288,36l.644-.4c.061-.038.121-.076.183-.111l.859-.419.9-.337c.078-.025.148-.042.217-.06l.719-.186a3.454,3.454,0,0,1,.42-.076c.073-.01.145-.02.217-.033s.156-.023.23-.035c.137-.022.274-.044.412-.057l.642-.033a9.73,9.73,0,0,1,5,1.011,10.09,10.09,0,0,1,3.784,3.45,11.425,11.425,0,0,1,.831,1.487,10.642,10.642,0,0,0-.79-1.514A9.989,9.989,0,0,0,46.8,35.125a9.733,9.733,0,0,0-4.519-1.1" transform="translate(-15.215 -21.083)" fill="#4286f5"/>
      <path id="Path_74" data-name="Path 74" d="M14.816,42.954c.679-.385,1.358-.771,2.049-1.133s1.39-.713,2.1-1.04c-.744.246-1.467.554-2.186.868s-1.418.672-2.113,1.036-1.38.747-2.059,1.14c-.34.2-.675.4-1.01.6s-.661.407-1,.64l-.717.489.866-.131,2.429-.369c.808-.132,1.617-.257,2.425-.4s1.614-.28,2.42-.428L19.224,44c.4-.08.8-.157,1.2-.263-.812.111-1.625.2-2.439.3l-2.437.312-2.434.332-1.533.223c.4-.255.814-.506,1.218-.754.666-.407,1.339-.8,2.015-1.193" transform="translate(-6.189 -25.55)" fill="#4286f5"/>
      <path id="Path_75" data-name="Path 75" d="M7.781,45.568l1.395-.951c.289-.2.565-.369.847-.543l.162-.1c.338-.207.674-.412,1.016-.608.607-.351,1.327-.762,2.066-1.144.777-.407,1.472-.748,2.123-1.04.731-.319,1.448-.626,2.2-.875l.137.347c-.786.362-1.47.7-2.091,1.035-.689.361-1.377.752-2.042,1.129l-.1-.16.093.162c-.81.468-1.43.835-2.011,1.19l-.226.139-.233.143.649-.094,2.435-.332,2.67-.34c.736-.086,1.472-.172,2.206-.273l.074.365c-.361.1-.73.17-1.087.241l-1.334.261q-1.213.223-2.425.429c-.553.1-1.109.185-1.664.274l-.761.123Zm3.671-1.917-.064.037c-.339.195-.673.4-1.006.6l-.162.1c-.277.172-.549.34-.834.534l-.04.028,2.9-.444-2.817.405.742-.469c.329-.208.663-.413.995-.617l.226-.139.063-.038m1.99-1.1.06.105-.058-.106h0" transform="translate(-4.875 -25.252)" fill="#4286f5"/>
      <path id="Path_76" data-name="Path 76" d="M139.653,11.163c-.011-.016-.022-.027-.033-.041a.6.6,0,0,0-.061-.052c-.039-.029-.078-.052-.117-.075-.078-.045-.155-.084-.233-.122-.156-.076-.314-.145-.472-.213-.316-.134-.635-.259-.954-.381-.639-.244-1.282-.475-1.927-.7-1.29-.452-2.59-.869-3.9-1.271-.654-.2-1.309-.394-1.97-.576-.331-.09-.662-.178-1-.256-.169-.039-.338-.075-.516-.1l-.509-.072c-1.357-.182-2.716-.328-4.078-.452-2.723-.246-5.456-.409-8.193-.429a62.107,62.107,0,0,0-8.206.422c-1.359.167-2.713.376-4.063.62s-2.687.557-4.014.909-2.634.767-3.931,1.209-2.575.929-3.85,1.422c-2.549.989-5.072,2.032-7.6,3.069l-.745.306.776.212,7.257,1.987.045.012.046,0c2.7-.229,5.4-.5,8.091-.767s5.39-.551,8.082-.849,5.382-.618,8.068-.969,5.371-.72,8.039-1.188c-2.681.388-5.37.7-8.061,1s-5.386.558-8.081.825-5.391.512-8.088.748l-8.047.681-6.428-1.789c2.279-.926,4.559-1.852,6.853-2.731,2.545-.972,5.108-1.889,7.725-2.608q1.965-.531,3.965-.916c1.336-.246,2.678-.46,4.028-.631a61.632,61.632,0,0,1,8.133-.452q2.041.012,4.081.1c1.361.054,2.72.14,4.078.246s2.715.235,4.065.4l.5.065c.16.023.325.056.489.092.329.072.658.155.987.24.657.172,1.313.357,1.967.548,1.308.382,2.608.791,3.9,1.21.648.211,1.294.428,1.935.658.32.115.639.233.954.359.157.063.314.128.466.2.076.035.151.072.222.111a1.138,1.138,0,0,1,.1.061l.01.008-.021.013a.937.937,0,0,1-.1.06c-.07.04-.149.074-.223.111q-.231.1-.467.2c-.315.128-.633.249-.953.367-.639.236-1.283.462-1.928.683q-1.936.664-3.881,1.3c1.309-.387,2.615-.781,3.916-1.2.65-.209,1.3-.421,1.944-.645.323-.112.645-.227.965-.349q.24-.091.478-.193c.079-.037.158-.069.237-.112a1.113,1.113,0,0,0,.12-.067.418.418,0,0,0,.062-.044l.034-.033a.107.107,0,0,0,.038-.071.1.1,0,0,0,0-.056.246.246,0,0,0-.018-.041" transform="translate(-52.184 -4.022)" fill="#4286f5"/>
      <path id="Path_77" data-name="Path 77" d="M90.38,16.465l-.077-.021L81.743,14.1l2-.822c2.238-.92,4.553-1.871,6.851-2.763,1.493-.578,2.718-1.03,3.857-1.425C95.946,8.581,97.2,8.2,98.4,7.877c1.349-.359,2.7-.665,4.027-.912,1.4-.252,2.773-.462,4.075-.621a61.763,61.763,0,0,1,8.23-.424c2.533.018,5.218.159,8.209.429,1.482.135,2.818.283,4.086.452l.511.073c.184.029.358.067.531.106.339.079.673.167,1.006.258.589.162,1.216.345,1.975.577,1.5.461,2.739.865,3.9,1.274.759.265,1.374.488,1.932.7.322.123.642.249.961.384.161.069.321.139.48.216.082.04.163.082.244.128.046.027.09.054.134.086a.786.786,0,0,1,.079.066.7.7,0,0,1,.057.068l.013.021a.444.444,0,0,1,.031.072.264.264,0,0,1,.009.146.3.3,0,0,1-.091.169l-.036.035a.391.391,0,0,1-.075.056,1.378,1.378,0,0,1-.147.084c-.062.033-.123.061-.184.088l-.064.029c-.166.071-.328.136-.49.2-.322.123-.645.239-.97.351-.648.223-1.3.437-1.948.646-1.371.439-2.751.852-3.92,1.2l-.111-.357c1.163-.378,2.432-.8,3.878-1.3.643-.221,1.286-.446,1.924-.682.317-.117.634-.238.947-.365q.234-.094.46-.2l.032-.015-.02-.009c-.149-.069-.3-.133-.457-.195-.313-.125-.629-.242-.947-.356-.558-.2-1.171-.409-1.929-.656-1.52-.491-2.76-.875-3.9-1.208-.76-.222-1.383-.4-1.962-.547-.326-.085-.653-.167-.98-.239-.159-.034-.32-.067-.475-.089l-.5-.065c-1.255-.152-2.582-.282-4.056-.4s-2.809-.2-4.07-.246c-1.381-.059-2.752-.093-4.075-.1h-.043a60.909,60.909,0,0,0-8.064.45c-1.287.163-2.638.375-4.018.63-1.3.247-2.625.555-3.951.912-2.8.77-5.47,1.747-7.707,2.6-2.12.812-4.261,1.678-6.342,2.523l5.868,1.633,8.014-.678c2.854-.25,5.5-.494,8.086-.747l1.273-.126c2.231-.22,4.539-.448,6.805-.7,2.991-.333,5.5-.63,8.055-1l.059.369c-2.8.491-5.621.871-8.047,1.189-2.892.378-5.532.695-8.073.97-2.586.286-5.231.564-8.083.849l-.6.059c-2.456.244-4.994.5-7.5.708ZM82.9,14.029l7.517,2.058h.012c2.5-.212,5.037-.464,7.491-.707l.6-.059c1.726-.173,3.375-.342,4.982-.513-1.608.15-3.26.3-4.988.451l-8.081.684L83.441,14l.508-.206c2.255-.916,4.567-1.855,6.857-2.732,2.246-.857,4.922-1.839,7.742-2.613,1.335-.36,2.674-.67,3.98-.919,1.388-.256,2.746-.469,4.039-.633a61.247,61.247,0,0,1,8.114-.453h.043c1.328.008,2.7.043,4.089.1,1.265.05,2.6.131,4.084.246s2.811.247,4.073.4l.506.066c.166.024.335.058.5.094l.2.044-.2-.047c-.164-.038-.329-.074-.5-.1l-.507-.072c-1.261-.168-2.592-.316-4.068-.45-2.98-.27-5.655-.41-8.177-.428a61.741,61.741,0,0,0-8.181.421c-1.3.159-2.658.367-4.053.618-1.313.245-2.659.55-4,.906-1.188.316-2.433.7-3.919,1.205-1.133.393-2.354.844-3.843,1.42-2.295.89-4.607,1.841-6.844,2.76Zm55.708-2.963,0,0,0,0Zm-.083-.117a.09.09,0,0,0,.005.015l0,0,0,0h0Z" transform="translate(-51.215 -3.708)" fill="#4286f5"/>
      <path id="Path_78" data-name="Path 78" d="M11.314,60.77c.187-.072.373-.144.562-.224.048-.021.094-.041.148-.067l.044-.023.031-.018a.289.289,0,0,0,.034-.027l.018-.016a.246.246,0,0,0,.062-.177c-.017-.1-.03-.09-.025-.089l0-.006-.009-.012-.019-.024-.04-.047c-.031-.035-.046-.049-.063-.068L12,59.918l-.106-.107c-.562-.565-1.136-1.113-1.707-1.666-1.148-1.1-2.3-2.19-3.49-3.251,1.06,1.187,2.148,2.345,3.239,3.5l1.642,1.724.036.038c-.151.058-.305.115-.46.17l-1.121.388c-.75.254-1.506.489-2.261.725s-1.517.451-2.277.623c-.189.041-.38.078-.563.1a2.425,2.425,0,0,1-.277.014c-.094,0-.191,0-.288,0-.387-.012-.777-.047-1.168-.089-.726-.083-1.452-.2-2.173-.336a1.636,1.636,0,0,1,.2-.336,2.933,2.933,0,0,1,.4-.415q1-.407,2-.837-1.047.318-2.087.657l-.012,0-.014.01a3.142,3.142,0,0,0-.473.423,1.631,1.631,0,0,0-.346.564l-.046.138L.8,62c.776.2,1.556.363,2.349.486a11.54,11.54,0,0,0,1.2.132c.1.006.2.011.308.009a2.793,2.793,0,0,0,.318-.009c.213-.019.413-.054.613-.092.8-.157,1.56-.382,2.326-.607s1.521-.481,2.274-.739c.376-.131.753-.262,1.126-.406" transform="translate(-0.404 -34.393)" fill="#4286f5"/>
      <path id="Path_79" data-name="Path 79" d="M4.351,62.576H4.241c-.114,0-.211,0-.307-.01a11.765,11.765,0,0,1-1.223-.134c-.772-.12-1.546-.279-2.367-.489L0,61.854l.11-.328A1.829,1.829,0,0,1,.493,60.9a3.326,3.326,0,0,1,.5-.45l.064-.036c.707-.232,1.4-.45,2.1-.663l.128.35q-.983.423-1.973.826a2.737,2.737,0,0,0-.351.369q-.031.04-.061.084c.725.13,1.336.222,1.907.288.469.051.825.078,1.152.088.092,0,.184.005.275,0h.043a1.917,1.917,0,0,0,.216-.012c.195-.023.395-.064.548-.1.652-.148,1.35-.338,2.262-.619l.108-.033c.706-.221,1.437-.449,2.148-.69l1.12-.387.192-.069L9.393,58.289c-1.049-1.111-2.164-2.3-3.243-3.505l.264-.263c1.268,1.134,2.478,2.282,3.5,3.255l.4.388c.439.424.878.848,1.309,1.282l.159.161c.027.028.044.044.071.076l.069.085a.237.237,0,0,1,.018.025l.366.491-.341-.124a.433.433,0,0,1-.089.136l-.076.071-.01,0-.084.047c-.056.028-.1.048-.149.068-.2.086-.391.159-.58.232-.357.138-.718.264-1.079.39l-.053.018c-.725.249-1.5.511-2.283.742-.769.226-1.546.453-2.343.611-.195.037-.405.074-.632.095a2.289,2.289,0,0,1-.236.01m-.1-.374a2.558,2.558,0,0,0,.3-.008,6.007,6.007,0,0,0,.6-.09c.78-.153,1.548-.379,2.292-.6.8-.234,1.564-.495,2.283-.742l.052-.018c.357-.124.714-.249,1.068-.385h0c.185-.071.369-.142.556-.222.05-.022.092-.04.138-.062l.04-.021.151.12-.115-.147-.006.008,0-.009-.041-.016.012-.07-.015-.019-.04-.043-.172-.174c-.429-.432-.866-.854-1.3-1.276l-.075-.073L11.532,60l-.258.1q-.23.088-.465.172l-1.122.388c-.717.243-1.45.472-2.158.693l-.109.034c-.921.283-1.628.476-2.292.626-.163.035-.375.079-.582.1a2.29,2.29,0,0,1-.255.015H4.253c-.1,0-.2,0-.3,0-.432-.013-.859-.055-1.182-.09-.2-.023-.412-.05-.629-.081.209.038.416.074.624.105a11.361,11.361,0,0,0,1.185.131c.1.005.2.012.3.009" transform="translate(0 -34.159)" fill="#4286f5"/>
      <path id="Path_80" data-name="Path 80" d="M103.721,5.2c-1.664-.235-3.326-.484-4.988-.736l-9.97-1.522-4.99-.74c-1.666-.244-3.333-.455-5-.689A99.584,99.584,0,0,0,68.715.559,73.317,73.317,0,0,0,58.6.843a63.457,63.457,0,0,0-9.962,1.792,91.466,91.466,0,0,0-9.568,3.274Q34.382,7.74,29.759,9.732q-3.59.7-7.1,1.746c-1.176.342-2.337.728-3.495,1.126s-2.3.839-3.43,1.309a58.612,58.612,0,0,0-6.6,3.2c-1.063.606-2.107,1.246-3.119,1.934a28.563,28.563,0,0,0-2.919,2.227l-.046.04.032.052c.316.5.651.992.987,1.48s.677.972,1.021,1.454q1.032,1.445,2.081,2.879Q6.153,25.72,5.155,24.251l-.993-1.472c-.315-.475-.63-.952-.924-1.437a28.752,28.752,0,0,1,2.892-2.118c1.02-.665,2.07-1.282,3.138-1.865a60.451,60.451,0,0,1,6.607-3.1C17,13.806,18.149,13.394,19.3,13s2.314-.754,3.486-1.08c2.341-.665,4.713-1.218,7.1-1.682l.027-.005.026-.011q4.635-1.969,9.335-3.791a91.014,91.014,0,0,1,9.519-3.219,65.821,65.821,0,0,1,9.867-1.8,72.7,72.7,0,0,1,10.034-.319c1.674.06,3.347.172,5.017.326s3.336.348,5,.559,3.338.408,5,.632l5,.683,4.994.7,5,.675c1.666.221,3.334.44,5,.644s3.34.4,5.016.532c-1.672-.173-3.336-.416-5-.648" transform="translate(-1.908 -0.313)" fill="#4286f5"/>
      <path id="Path_81" data-name="Path 81" d="M6.611,26.975Q5.562,25.54,4.529,24.094c-.345-.483-.685-.968-1.023-1.456s-.673-.977-.992-1.488L2.4,20.965l.164-.145A29.246,29.246,0,0,1,5.5,18.578c.956-.649,1.98-1.285,3.132-1.942a58.333,58.333,0,0,1,6.626-3.207c.976-.406,2.036-.81,3.438-1.312,1.033-.355,2.255-.766,3.505-1.13,2.355-.7,4.743-1.286,7.1-1.746,3.24-1.39,6.283-2.64,9.3-3.818a92.011,92.011,0,0,1,9.588-3.281,63.893,63.893,0,0,1,9.991-1.8A73.72,73.72,0,0,1,68.316.059,99.254,99.254,0,0,1,78.4,1.01q1.049.147,2.1.287c.966.13,1.932.26,2.9.4l4.99.74,9.972,1.522c1.467.223,3.207.484,4.986.736l.629.088c1.429.2,2.906.409,4.365.559l-.034.372c-1.839-.148-3.651-.363-5.024-.533-1.792-.22-3.535-.449-5-.644l-5-.675-9.99-1.383c-.965-.13-1.933-.249-2.9-.369-.7-.086-1.4-.173-2.1-.263-1.834-.232-3.468-.414-5-.558-1.728-.158-3.412-.268-5.006-.325a72.805,72.805,0,0,0-10.009.318,65.811,65.811,0,0,0-9.839,1.792,91.145,91.145,0,0,0-9.5,3.212c-2.984,1.152-6.123,2.427-9.329,3.788l-.063.023c-2.5.486-4.885,1.051-7.113,1.683-1.234.343-2.451.737-3.479,1.077-.938.324-2.176.761-3.414,1.259A60.475,60.475,0,0,0,8.951,17.21c-1.149.627-2.171,1.235-3.125,1.858a29.533,29.533,0,0,0-2.751,2c.261.424.535.84.837,1.295l.992,1.47q1,1.467,2.012,2.924ZM65.289.373c-2.4,0-4.772.115-7.074.342A63.516,63.516,0,0,0,48.283,2.5,91.567,91.567,0,0,0,38.735,5.77C35.714,6.949,32.67,8.2,29.427,9.591l-.038.012c-2.349.459-4.733,1.045-7.084,1.742-1.244.362-2.46.771-3.487,1.124-1.389.5-2.442.9-3.409,1.3,1.241-.5,2.481-.937,3.423-1.262,1.034-.342,2.257-.738,3.5-1.083,2.237-.635,4.631-1.2,7.115-1.685,3.225-1.369,6.368-2.645,9.357-3.8A91.462,91.462,0,0,1,48.34,2.716a66.209,66.209,0,0,1,9.9-1.8A73.2,73.2,0,0,1,68.3.594c1.6.057,3.292.167,5.027.326,1.532.145,3.171.328,5.009.56.7.09,1.4.177,2.1.263.97.12,1.938.239,2.906.369l3.789.518L83.34,2.068c-.964-.141-1.929-.271-2.894-.4q-1.051-.142-2.1-.287A98.835,98.835,0,0,0,68.3.433Q66.789.373,65.289.373" transform="translate(-1.502 0)" fill="#4286f5"/>
      <path id="Path_82" data-name="Path 82" d="M178.32,10.081c-.191-.423-.388-.844-.608-1.254.144.443.3.878.466,1.313s.329.867.5,1.3l.511,1.292c.086.215.17.431.25.648s.16.434.234.655a8.4,8.4,0,0,0-.339-1.354c-.14-.444-.3-.88-.47-1.313s-.348-.862-.541-1.284" transform="translate(-111.342 -5.53)" fill="#4286f5"/>
      <path id="Path_83" data-name="Path 83" d="M179.194,13.945l-.014-.042c-.069-.2-.137-.4-.217-.6-.081-.221-.165-.435-.25-.648l-.622-1.577c-.131-.338-.263-.677-.387-1.018-.15-.4-.32-.863-.468-1.319l.342-.146c.234.436.441.884.613,1.265.2.434.379.878.545,1.293s.33.869.474,1.325a8.508,8.508,0,0,1,.346,1.385Z" transform="translate(-111.044 -5.382)" fill="#4286f5"/>
      <path id="Path_84" data-name="Path 84" d="M108.6,23.518a2.679,2.679,0,0,1,.3-.012c.1,0,.205,0,.309,0,.415.012.835.044,1.254.07l2.521.2c.842.065,1.685.129,2.532.167-.828-.186-1.662-.329-2.5-.457-.418-.063-.838-.121-1.258-.17s-.842-.1-1.265-.131-.847-.067-1.277-.071c-.107,0-.214,0-.325,0a3.023,3.023,0,0,0-.333.018,2.245,2.245,0,0,0-.658.179,5.74,5.74,0,0,0-1.122.658,9.337,9.337,0,0,0-.983.825l-.083.079.088.059c.354.237.709.471,1.071.7-.287-.26-.581-.512-.875-.762a9.145,9.145,0,0,1,2.037-1.221,1.92,1.92,0,0,1,.565-.131" transform="translate(-66.236 -14.482)" fill="#4286f5"/>
      <path id="Path_85" data-name="Path 85" d="M106.282,25.478c-.365-.226-.722-.462-1.077-.7l-.281-.187.25-.24a9.616,9.616,0,0,1,1-.841,5.843,5.843,0,0,1,1.159-.679,2.453,2.453,0,0,1,.719-.193,1.689,1.689,0,0,1,.235-.015l.1,0c.116,0,.227,0,.338,0,.449,0,.9.039,1.288.072.434.036.862.08,1.272.131s.843.108,1.263.171c1.008.153,1.782.3,2.512.459l-.049.369c-.819-.037-1.634-.1-2.538-.167l-2.817-.218c-.317-.021-.635-.041-.949-.05-.1,0-.2-.008-.3,0a2.564,2.564,0,0,0-.276.009l-.026,0a1.773,1.773,0,0,0-.507.121,8.541,8.541,0,0,0-1.8,1.055c.236.2.471.4.7.614Zm1.825-2.273h0Zm.38-.2c.078,0,.157,0,.236.006.317.009.639.03.961.051l1.295.1c-.324-.037-.657-.07-.993-.1-.381-.032-.824-.066-1.263-.07-.106,0-.209,0-.314,0l-.112,0a2.071,2.071,0,0,0-.5.067,1.4,1.4,0,0,1,.292-.043,1.7,1.7,0,0,1,.213-.01h.183" transform="translate(-65.738 -14.169)" fill="#4286f5"/>
      <path id="Path_86" data-name="Path 86" d="M37.455,90.191c-3.067.08-6.135.118-9.2.149l-9.2.046-9.2-.045-4.6-.054-4.6-.1,4.6-.1,4.6-.054L19.05,90l9.2.046c3.067.031,6.135.069,9.2.149" transform="translate(-0.404 -56.385)" fill="#4286f5"/>
      <path id="Path_87" data-name="Path 87" d="M19.045,90.259l-9.2-.045-4.6-.054-4.6-.1v-.373l4.6-.1,4.6-.055,9.2-.045,9.2.046c2.777.028,6.006.065,9.206.149v.373c-3.2.084-6.429.121-9.206.149Zm-1.595-.381,1.595.008,1.57-.008-1.572-.008Z" transform="translate(-0.398 -56.072)" fill="#4286f5"/>
    </g>
  </g>
</svg>
