<svg xmlns="http://www.w3.org/2000/svg" width="14.51" height="17.412" viewBox="0 0 14.51 17.412">
  <g id="Icon_feather-map-pin" data-name="Icon feather-map-pin" transform="translate(-3)">
    <g id="Group_8854" data-name="Group 8854" transform="translate(3)">
      <path id="Path_7697" data-name="Path 7697" d="M10.255,0A7.255,7.255,0,0,1,17.51,7.255,8.291,8.291,0,0,1,16.4,11.219a15.352,15.352,0,0,1-2.355,3.156,22.014,22.014,0,0,1-3.389,2.916.726.726,0,0,1-.8,0,22.014,22.014,0,0,1-3.389-2.916,15.352,15.352,0,0,1-2.355-3.156A8.291,8.291,0,0,1,3,7.255,7.255,7.255,0,0,1,10.255,0Zm0,15.795c1.376-1.021,5.8-4.612,5.8-8.54a5.8,5.8,0,0,0-11.608,0C4.451,11.182,8.879,14.774,10.255,15.795Z" transform="translate(-3)" fill="#4286f5"/>
      <path id="Path_7698" data-name="Path 7698" d="M14.9,9A2.9,2.9,0,1,1,12,11.9,2.905,2.905,0,0,1,14.9,9Zm0,4.353A1.451,1.451,0,1,0,13.451,11.9,1.453,1.453,0,0,0,14.9,13.353Z" transform="translate(-7.647 -4.647)" fill="#4286f5"/>
    </g>
  </g>
</svg>
