<svg id="Group_8463" data-name="Group 8463" xmlns="http://www.w3.org/2000/svg" xmlns:xlink="http://www.w3.org/1999/xlink" width="50.022" height="61.029" viewBox="0 0 50.022 61.029">
  <defs>
    <clipPath id="clip-path">
      <rect id="Rectangle_1673" data-name="Rectangle 1673" width="50.022" height="61.029" fill="#4286f5"/>
    </clipPath>
  </defs>
  <g id="Group_8462" data-name="Group 8462" clip-path="url(#clip-path)">
    <path id="Path_7578" data-name="Path 7578" d="M42.281,61.029H2.978C.614,60.134,0,59.232,0,56.653v-22.4Q0,21.388,0,8.521A3.571,3.571,0,0,1,3.744,4.778c.329,0,.659,0,1.02,0,0-.3,0-.512,0-.728C4.767,1.42,6.179.01,8.81.01Q22.65.01,36.491,0a2.056,2.056,0,0,1,1.58.651q5.561,5.6,11.146,11.171c.29.291.538.625.806.939v40.52c-.038.091-.084.179-.112.272a3.566,3.566,0,0,1-3.6,2.707c-.331,0-.662,0-1.05,0,0,.389,0,.722,0,1.053A3.336,3.336,0,0,1,44.044,60.1a10.257,10.257,0,0,1-1.763.927m.529-4.767H8.747a3.62,3.62,0,0,1-3.982-3.986q0-13.973,0-27.946c0-1.1.39-1.656,1.166-1.673.8-.017,1.216.562,1.216,1.682q0,13.973,0,27.946c0,1.216.38,1.593,1.609,1.593H46.032c1.227,0,1.609-.377,1.609-1.593q0-18.65,0-37.3v-.674h-.718q-3.692,0-7.384,0a3.581,3.581,0,0,1-3.807-3.8q-.006-3.725,0-7.448V2.437a2.047,2.047,0,0,0-.248-.04q-13.517,0-27.034,0a1.192,1.192,0,0,0-1.3,1.3c-.012.953,0,1.906,0,2.86,0,2.145.005,4.29,0,6.435a1.2,1.2,0,1,1-2.377-.011c-.008-.477,0-.953,0-1.43V7.161c-.209,0-.363,0-.517,0-1.573-.014-1.866.279-1.866,1.871q0,23.953,0,47.907c0,1.378.334,1.707,1.731,1.707,12.207,0,24.415-.02,36.621.019,2.16.007,2.219-.666,2.126-2.271a.849.849,0,0,0-.052-.132m2.881-44.334L38.117,4.351c0,2.079-.015,4.256.008,6.431a1.157,1.157,0,0,0,1.265,1.142c.97.014,1.941,0,2.912,0h3.388" transform="translate(0 0)" fill="#4286f5"/>
    <path id="Path_7579" data-name="Path 7579" d="M36.007,27.739h-9.04a4.384,4.384,0,0,1-.594-.016,1.185,1.185,0,0,1,.017-2.355,4.309,4.309,0,0,1,.535-.012H45.183a4.577,4.577,0,0,1,.476.008,1.186,1.186,0,0,1-.017,2.367c-.177.016-.357.008-.535.008h-9.1" transform="translate(-13.416 -13.428)" fill="#4286f5"/>
    <path id="Path_7580" data-name="Path 7580" d="M36,52.379q-4.555,0-9.111,0a2.375,2.375,0,0,1-.818-.1,1.166,1.166,0,0,1,.072-2.187A2.789,2.789,0,0,1,26.963,50q9.081-.007,18.162,0c.119,0,.238,0,.357,0a1.225,1.225,0,0,1,1.283,1.207,1.18,1.18,0,0,1-1.3,1.169c-3.156.009-6.312,0-9.468,0" transform="translate(-13.422 -26.478)" fill="#4286f5"/>
    <path id="Path_7581" data-name="Path 7581" d="M34.734,89.373q-3.865,0-7.73,0a5.214,5.214,0,0,1-.653-.021,1.167,1.167,0,0,1-.17-2.282A3.362,3.362,0,0,1,27,86.993q7.73-.006,15.461,0a3.469,3.469,0,0,1,.766.06,1.168,1.168,0,0,1-.172,2.3c-.374.03-.753.016-1.129.017h-7.2" transform="translate(-13.414 -46.071)" fill="#4286f5"/>
    <path id="Path_7582" data-name="Path 7582" d="M34.195,99.337q3.777,0,7.553,0a1.215,1.215,0,0,1,1.312.888,1.183,1.183,0,0,1-1.183,1.488c-.793.023-1.586.006-2.379.006H27.069c-.159,0-.318,0-.476,0a1.206,1.206,0,0,1-1.262-1.215,1.189,1.189,0,0,1,1.252-1.162c1.05-.015,2.1,0,3.152,0h4.461" transform="translate(-13.416 -52.609)" fill="#4286f5"/>
    <path id="Path_7583" data-name="Path 7583" d="M31.251,15.386c-1.509,0-3.017.005-4.526,0-.874,0-1.4-.469-1.395-1.2A1.222,1.222,0,0,1,26.7,13.008q4.585-.015,9.17,0a1.222,1.222,0,0,1,1.366,1.182c.009.724-.524,1.191-1.4,1.2-1.528.007-3.057,0-4.585,0" transform="translate(-13.416 -6.885)" fill="#4286f5"/>
    <path id="Path_7584" data-name="Path 7584" d="M31.283,64.732c-1.505,0-3.011,0-4.516,0-.9,0-1.453-.483-1.435-1.22.017-.716.558-1.16,1.433-1.161q4.516,0,9.033,0c.9,0,1.453.481,1.435,1.218-.018.715-.56,1.161-1.433,1.163-1.506,0-3.011,0-4.517,0" transform="translate(-13.416 -33.021)" fill="#4286f5"/>
    <path id="Path_7585" data-name="Path 7585" d="M31.28,74.7c1.509,0,3.017,0,4.526,0,.889,0,1.417.443,1.426,1.165s-.537,1.211-1.4,1.214q-4.555.013-9.111,0a1.234,1.234,0,0,1-1.4-1.214c.009-.723.537-1.161,1.426-1.165,1.509-.006,3.017,0,4.526,0" transform="translate(-13.415 -39.562)" fill="#4286f5"/>
    <path id="Path_7586" data-name="Path 7586" d="M12.512,37.928a1.187,1.187,0,1,1-1.184-1.159,1.2,1.2,0,0,1,1.184,1.159" transform="translate(-5.369 -19.474)" fill="#4286f5"/>
  </g>
</svg>
