<svg id="Group_8536" data-name="Group 8536" xmlns="http://www.w3.org/2000/svg" xmlns:xlink="http://www.w3.org/1999/xlink" width="61.047" height="61.029" viewBox="0 0 61.047 61.029">
  <defs>
    <clipPath id="clip-path">
      <rect id="Rectangle_1707" data-name="Rectangle 1707" width="61.047" height="61.029" fill="#4286f5"/>
    </clipPath>
  </defs>
  <g id="Group_8535" data-name="Group 8535" clip-path="url(#clip-path)">
    <path id="Path_7660" data-name="Path 7660" d="M27.976,42.635l1.3-1.3.342.372c.086.094.17.187.252.278.166.184.322.358.484.52l3.137,3.14c4.5,4.5,9.144,9.154,13.725,13.722a4.9,4.9,0,0,0,5.37,1.327,3.367,3.367,0,0,0,1.241-.66q.534-.511,1.07-1.019c1.614-1.533,3.283-3.119,4.791-4.787a4.8,4.8,0,0,0-.217-6.9C55.282,43.1,51,38.828,46.853,34.693q-2.226-2.22-4.45-4.442c-.129-.129-.271-.251-.434-.393-.084-.072-.171-.148-.262-.229l-.384-.342.364-.364c.317-.317.636-.628.953-.938.729-.711,1.417-1.383,2.069-2.106.733-.811,1.835-2.032,3.618-1.434a12.471,12.471,0,0,0,8.165-2.714,12.3,12.3,0,0,0,4.347-7.474,11.721,11.721,0,0,0-.947-7.144,1.458,1.458,0,0,0-1.005-.9,1.485,1.485,0,0,0-1.29.473c-1.617,1.536-3.253,3.12-4.864,4.709a1.846,1.846,0,0,1-1.548.6c-.347-.028-.71-.022-1.1-.015-.183,0-.371.006-.567.006h-.485V11.5c0-.206,0-.41,0-.612,0-.571-.008-1.11.019-1.663a1.248,1.248,0,0,1,.434-.774l.021-.021Q50.69,7.2,51.877,5.977q1.171-1.21,2.338-2.423a1.7,1.7,0,0,0,.6-1.474,1.592,1.592,0,0,0-1.1-1.013A21.317,21.317,0,0,0,51.289.373c-.369-.09-.751-.184-1.126-.285L49.89.017,49.822,0H47.643c-.338.085-.681.16-1.013.232a13.352,13.352,0,0,0-2.174.6,11.961,11.961,0,0,0-7.784,12.121c.017.366.034.745.034,1.121a1.225,1.225,0,0,1-.25.89c-1.121,1.144-2.249,2.27-3.444,3.462l-1.3,1.3-.342-.38c-.136-.152-.268-.3-.4-.451-.276-.316-.537-.614-.816-.89a1.353,1.353,0,0,0-2.178.013c-.237.233-.464.479-.706.739-.115.124-.231.25-.353.378l-.32.339-.352-.305c-.058-.051-.112-.1-.162-.138-.106-.089-.206-.173-.3-.268l-1.247-1.245c-2.371-2.368-4.823-4.817-7.219-7.242a1.9,1.9,0,0,1-.5-1.208c-.028-.78-.024-1.57-.02-2.333,0-.4,0-.794,0-1.191a1.51,1.51,0,0,0-1.262-1.729q-4.179-1.4-8.36-2.8L4.158,0H3.675c-.134.1-.27.2-.4.3a7.746,7.746,0,0,0-1.046.852C1.654,1.741,1.1,2.39.574,3.016Q.288,3.354,0,3.691v.586q.265.773.532,1.545c.415,1.2.844,2.448,1.259,3.675q.563,1.664,1.116,3.332.456,1.37.916,2.738A1.489,1.489,0,0,0,5.512,16.8c.474,0,.948,0,1.422,0,.725,0,1.474,0,2.214.012a1.575,1.575,0,0,1,1.02.394c2.556,2.533,5.141,5.12,7.642,7.622l1.137,1.138a1.571,1.571,0,0,1,.151.182c.021.029.046.062.077.1l.269.344-.313.3c-.125.121-.25.24-.375.359-.275.262-.535.51-.787.77a1.328,1.328,0,0,0,.007,2.1c.277.285.573.556.887.842.148.135.3.272.449.413l.352.329-.327.354-.177.194c-.107.118-.2.219-.3.318q-.557.558-1.115,1.114c-.827.825-1.682,1.678-2.512,2.525a1.494,1.494,0,0,1-1.357.491,11.916,11.916,0,0,0-8.652,2.1,11.986,11.986,0,0,0-5.1,8.334c-.025.162-.059.316-.092.466-.011.049-.022.1-.032.147v2.19c.083.329.159.663.234.986A20.732,20.732,0,0,0,.815,53.1a12.2,12.2,0,0,0,23.6-3.534,10.694,10.694,0,0,0-.039-1.6c-.024-.326-.048-.663-.056-1a1.345,1.345,0,0,1,.292-.944c1.107-1.131,2.2-2.224,3.362-3.381m6.274-21.668.6-.61c1.279-1.3,2.6-2.653,3.952-3.935a2.125,2.125,0,0,0,.679-2.207A9.551,9.551,0,0,1,49.35,2.682a4.118,4.118,0,0,1,.476.057,1.567,1.567,0,0,1,.229.06l.108.033.728.213-.5.572-.14.163c-.1.113-.188.221-.288.325l-.718.749c-.74.773-1.5,1.573-2.272,2.348a1.924,1.924,0,0,0-.611,1.487c.016.879.014,1.77.011,2.632,0,.608,0,1.236,0,1.852a1.348,1.348,0,0,0,1.49,1.474c.642,0,1.284,0,1.925,0,.857,0,1.743,0,2.617.007a1.756,1.756,0,0,0,1.338-.541c.834-.813,1.669-1.614,2.552-2.461l1.124-1.079.679-.654.137.933a9.13,9.13,0,0,1-.843,5.526,9.47,9.47,0,0,1-10.543,5.176,2.155,2.155,0,0,0-2.264.679c-1.084,1.131-2.211,2.253-3.3,3.338-.753.749-1.532,1.524-2.288,2.293a1.192,1.192,0,0,1-.852.419,1.317,1.317,0,0,1-.665-.207,6.185,6.185,0,0,1-2.943-4.062c-.08-.334-.189-.661-.3-1.007-.108-.322-.219-.656-.306-1a1.209,1.209,0,0,1,.32-1.041m-5.208-.14.343.325c.176.167.357.335.539.5.491.457,1,.93,1.48,1.434a2.083,2.083,0,0,1,.439,1.054l0,.014a8.5,8.5,0,0,0,4.217,6.126,13.281,13.281,0,0,0,2.624.993l.32.1a4.033,4.033,0,0,1,1.754.988C44.844,36.456,49,40.614,53.024,44.634l4.382,4.382a2.373,2.373,0,0,1,.006,3.808c-.21.212-.418.427-.643.659l-.67.69-.348-.33-.185-.175c-.127-.119-.245-.229-.358-.343l-2.294-2.294c-4.467-4.467-9.086-9.086-13.625-13.634a1.583,1.583,0,0,0-1.4-.643,1.331,1.331,0,0,0-1.055.8,1.3,1.3,0,0,0,.163,1.3,3.962,3.962,0,0,0,.41.45l.072.072c5.037,5.039,10.406,10.41,15.8,15.792a2.17,2.17,0,0,0,.326.241c.084.055.173.114.268.182l.476.341-.423.4c-.2.193-.386.377-.562.552a14.089,14.089,0,0,1-1.122,1.039,2.074,2.074,0,0,1-1.3.455,2.309,2.309,0,0,1-1.375-.468,4.821,4.821,0,0,1-.539-.488l-.049-.049-4.41-4.409c-3.984-3.984-8.1-8.1-12.162-12.149a3.637,3.637,0,0,1-1.044-1.9A8.544,8.544,0,0,0,26.1,32.43a7.407,7.407,0,0,0-1.571-.469A3.791,3.791,0,0,1,22.3,30.7c-.254-.283-.535-.542-.833-.816-.136-.125-.271-.25-.4-.377l-.359-.343Zm-11.818-.34c-1.853-1.853-3.77-3.769-5.644-5.664a2.057,2.057,0,0,0-1.675-.695c-.9.038-1.887.035-3-.008a1.19,1.19,0,0,1-.98-.713c-.493-1.436-.983-2.9-1.457-4.314-.457-1.364-.93-2.774-1.4-4.158a1.105,1.105,0,0,1,.4-1.284c.037-.034.074-.067.109-.1s.051-.055.077-.083a1.1,1.1,0,0,1,1.278-.406C7.382,3.9,10.075,4.8,13.4,5.892a1,1,0,0,1,.743,1.087c-.007.43,0,.871,0,1.3,0,.568.007,1.156-.012,1.737a1.9,1.9,0,0,0,.644,1.518c1.825,1.81,3.673,3.657,5.46,5.443q1.77,1.768,3.541,3.535a1.521,1.521,0,0,0,.273.192c.059.036.115.07.163.1l.483.33L21.117,24.7l-.327-.5c-.03-.046-.062-.1-.095-.159a1.365,1.365,0,0,0-.18-.266q-1.644-1.65-3.292-3.3m8.307,20.84c-1.06,1.066-2.156,2.168-3.262,3.226a2.246,2.246,0,0,0-.716,2.317,9.258,9.258,0,0,1-3.909,9.787,9.08,9.08,0,0,1-5.334,1.72,9.684,9.684,0,0,1-3.86-.815,9.367,9.367,0,0,1-5.673-7.423A9.6,9.6,0,0,1,5.73,41.778a9.477,9.477,0,0,1,8.445-2.307,2.176,2.176,0,0,0,2.261-.683c1.12-1.179,2.278-2.325,3.4-3.434q.684-.677,1.35-1.341l.2-.2,1.189.332c.634.177,1.225.343,1.817.5a6.009,6.009,0,0,1,3.657,2.789,1.128,1.128,0,0,1-.193,1.573c-.781.765-1.565,1.554-2.325,2.317" fill="#4286f5"/>
    <path id="Path_7661" data-name="Path 7661" d="M64.892,361.33h0a4.989,4.989,0,0,0-3.52,1.5,4.858,4.858,0,0,0-1.436,3.5,5.043,5.043,0,0,0,4.94,4.923h.042a4.96,4.96,0,0,0-.025-9.92m0,7.259h-.023a2.3,2.3,0,0,1,.022-4.6h.024a2.3,2.3,0,0,1-.023,4.6" transform="translate(-52.663 -317.495)" fill="#4286f5"/>
  </g>
</svg>
