<svg id="Icon_ionic-ios-arrow-dropdown" data-name="Icon ionic-ios-arrow-dropdown" xmlns="http://www.w3.org/2000/svg" width="16.52" height="16.52" viewBox="0 0 16.52 16.52">
  <path id="Path_7683" data-name="Path 7683" d="M10.206,14.64a.769.769,0,0,0,0,1.084l3.8,3.788a.766.766,0,0,0,1.056.024L18.807,15.8a.765.765,0,1,0-1.08-1.084l-3.217,3.169L11.29,14.636A.766.766,0,0,0,10.206,14.64Z" transform="translate(-6.251 -8.179)" fill="#fff"/>
  <path id="Path_7684" data-name="Path 7684" d="M3.375,11.635a8.26,8.26,0,1,0,8.26-8.26A8.259,8.259,0,0,0,3.375,11.635Zm13.2-4.94a6.986,6.986,0,1,1-9.88,9.88,6.986,6.986,0,1,1,9.88-9.88Z" transform="translate(-3.375 -3.375)" fill="#fff"/>
</svg>
