<svg id="Group_8488" data-name="Group 8488" xmlns="http://www.w3.org/2000/svg" xmlns:xlink="http://www.w3.org/1999/xlink" width="62.581" height="58.705" viewBox="0 0 62.581 58.705">
  <defs>
    <clipPath id="clip-path">
      <rect id="Rectangle_1690" data-name="Rectangle 1690" width="62.581" height="58.705" fill="#4286f5"/>
    </clipPath>
  </defs>
  <g id="Group_8487" data-name="Group 8487" clip-path="url(#clip-path)">
    <path id="Path_7627" data-name="Path 7627" d="M62.58,48.279a7.055,7.055,0,0,1-1.26,2.927,5.84,5.84,0,0,1-4.565,2.211c-.427.013-.854,0-1.137,0a23.079,23.079,0,0,1-1.789,2.833,7.183,7.183,0,0,1-12.143-2.261.72.72,0,0,0-.81-.583q-9.93.026-19.86,0a.725.725,0,0,0-.837.556A7.2,7.2,0,0,1,6.664,54a.719.719,0,0,0-.8-.59A5.8,5.8,0,0,1,.007,47.489C-.007,46.43,0,45.37.006,44.311a5.732,5.732,0,0,1,4.43-5.839c2.915-.823,5.845-1.6,8.761-2.418a1.684,1.684,0,0,0,.822-.545q2.568-3.3,5.084-6.647a7.461,7.461,0,0,1,6.356-3.142c3.035.018,6.07,0,9.105,0h.774c-.312-.956-.614-1.833-.884-2.72a18.526,18.526,0,0,1-.715-5.366c-.011-3.055.011-6.11-.013-9.165a1.754,1.754,0,0,1,1.006-1.72Q40.656,3.53,46.559.269A1.786,1.786,0,0,1,48.407.247q6.161,3.3,12.336,6.567a1.719,1.719,0,0,1,.985,1.677c-.014,3.035.045,6.07-.017,9.1a18.88,18.88,0,0,1-8.426,15.84c-.132.093-.262.188-.454.326.464.746.907,1.49,1.388,2.208a1.228,1.228,0,0,0,.518.3c1.35.617,2.7,1.245,4.057,1.837A5.856,5.856,0,0,1,62.473,42.5a1.746,1.746,0,0,0,.107.278ZM50.323,35.185a.694.694,0,0,0-.142,0,16.591,16.591,0,0,1-1.919.776A2.539,2.539,0,0,1,46.8,36a19.848,19.848,0,0,1-9.423-6.98.98.98,0,0,0-.915-.439c-3.666.013-7.332.026-11,0a4.757,4.757,0,0,0-4.083,2.024c-1.735,2.312-3.523,4.585-5.252,6.9a3.214,3.214,0,0,1-1.87,1.246c-3.008.79-6.006,1.622-9.006,2.444A2.828,2.828,0,0,0,2.9,43.949c-.051,1.28-.058,2.567.013,3.846A2.856,2.856,0,0,0,5.8,50.539c.353.013.486-.111.577-.454a9.236,9.236,0,0,1,.644-1.9,7.242,7.242,0,0,1,7.1-3.906,7.165,7.165,0,0,1,6.34,5.658c.1.471.268.611.749.61q9.715-.025,19.43,0c.517,0,.705-.158.794-.647A6.375,6.375,0,0,1,43.4,46.329a7.2,7.2,0,0,1,12.1,3.732c.081.372.239.523.613.481.2-.023.407,0,.611-.008A2.822,2.822,0,0,0,59.667,47.8c.106-1.254.037-2.522.068-3.783a3.205,3.205,0,0,0-2.113-3.3c-1.531-.659-3.059-1.332-4.551-2.073a3.69,3.69,0,0,1-1.243-1.092c-.556-.746-1.008-1.571-1.506-2.366M36.6,14.3c0,1.059-.02,2.118,0,3.177.152,6.922,3.286,11.963,9.482,15.112a2.8,2.8,0,0,0,2.721.056c6.145-2.857,9.574-7.606,9.981-14.383.176-2.922.042-5.863.069-8.8a.689.689,0,0,0-.473-.681q-5.2-2.762-10.389-5.548a.815.815,0,0,0-.892.021Q42.079,6.034,37.04,8.776a.74.74,0,0,0-.452.759c.02,1.588.008,3.177.008,4.765M48.522,55.774a4.336,4.336,0,1,0-4.4-4.144,4.347,4.347,0,0,0,4.4,4.144m-35.094,0a4.339,4.339,0,1,0-4.354-4.34,4.344,4.344,0,0,0,4.354,4.34" transform="translate(0.001 0)" fill="#4286f5"/>
    <path id="Path_7628" data-name="Path 7628" d="M339.121,119.535c2.169-1.765,4.3-3.5,6.438-5.227a2.434,2.434,0,0,1,.949-.507,1.293,1.293,0,0,1,1.452.658,1.336,1.336,0,0,1-.154,1.639,12.786,12.786,0,0,1-1.191,1.045q-3.216,2.628-6.44,5.246c-1.055.86-1.717.8-2.6-.239-1-1.179-2.017-2.347-3.008-3.535a1.446,1.446,0,0,1-.186-1.751,1.259,1.259,0,0,1,1.463-.621,2.467,2.467,0,0,1,1.035.691c.771.835,1.489,1.72,2.241,2.6" transform="translate(-293.245 -99.834)" fill="#4286f5"/>
  </g>
</svg>
