<svg id="Frame_3" data-name="Frame 3" xmlns="http://www.w3.org/2000/svg" xmlns:xlink="http://www.w3.org/1999/xlink" width="24" height="24" viewBox="0 0 24 24">
  <defs>
    <clipPath id="clip-path">
      <rect id="Frame_3_Background_Mask_" data-name="Frame 3 (Background/Mask)" width="24" height="24" fill="none"/>
    </clipPath>
  </defs>
  <rect id="Frame_3_Background_Mask_2" data-name="Frame 3 (Background/Mask)" width="24" height="24" fill="none"/>
  <g id="Frame_3-2" data-name="Frame 3" clip-path="url(#clip-path)">
    <g id="Group_1759" data-name="Group 1759" transform="translate(2 3)">
      <path id="Union" d="M.5,15.652a.5.5,0,0,1-.5-.5V6.761a.5.5,0,0,1,.5-.5h.771L3.139.349A.5.5,0,0,1,3.616,0H16.384a.5.5,0,0,1,.477.349l1.868,5.912H19.5a.5.5,0,0,1,.5.5v8.392a.5.5,0,0,1-.5.5Z" fill="#4286f5"/>
      <path id="Rectangle_663" data-name="Rectangle 663" d="M12.093,0l1.4,4.737H0L1.4,0Z" transform="translate(3.256 1.421)" fill="#fff8f3"/>
      <ellipse id="Ellipse_109" data-name="Ellipse 109" cx="1.154" cy="1.174" rx="1.154" ry="1.174" transform="translate(4.615 9.391)" fill="#fff8f3"/>
      <ellipse id="Ellipse_110" data-name="Ellipse 110" cx="1.154" cy="1.174" rx="1.154" ry="1.174" transform="translate(13.077 9.391)" fill="#fff8f3"/>
      <rect id="Rectangle_660" data-name="Rectangle 660" width="3.721" height="4.696" rx="1.86" transform="translate(1.86 13.304)" fill="#4286f5"/>
      <rect id="Rectangle_661" data-name="Rectangle 661" width="3.721" height="4.696" rx="1.86" transform="translate(14.418 13.304)" fill="#4286f5"/>
    </g>
  </g>
</svg>
