<svg id="Group_8507" data-name="Group 8507" xmlns="http://www.w3.org/2000/svg" xmlns:xlink="http://www.w3.org/1999/xlink" width="60.065" height="63.244" viewBox="0 0 60.065 63.244">
  <defs>
    <clipPath id="clip-path">
      <rect id="Rectangle_1697" data-name="Rectangle 1697" width="60.065" height="63.244" fill="#4286f5"/>
    </clipPath>
  </defs>
  <g id="Group_8506" data-name="Group 8506" clip-path="url(#clip-path)">
    <path id="Path_7643" data-name="Path 7643" d="M9.162,0H22.5a1.64,1.64,0,0,1,.693,1.592c-.026.855-.006,1.71-.006,2.616,1.381,0,2.674-.015,3.966.007a6.178,6.178,0,0,1,1.465.164A4.055,4.055,0,0,1,31.624,8.6q.008,7.471,0,14.942v.744c.284.061.522.111.759.164a8.274,8.274,0,0,1,4.365,2.517A8.672,8.672,0,0,1,39,33.122q-.024,11.021,0,22.042c0,.411.017.823.052,1.233a4.212,4.212,0,0,0,8.38-.816c.011-7.162,0-14.324.012-21.486A.737.737,0,0,0,47,33.33a3.014,3.014,0,0,1-1.664-2.7c-.014-.361,0-.723,0-1.12-.758,0-1.416.016-2.073,0a4.114,4.114,0,0,1-4.219-4.039c-.1-2.61-.036-5.226-.047-7.839,0-.238-.02-.476-.032-.734-.227-.013-.389-.028-.55-.031-1.235-.024-1.527-.316-1.53-1.548,0-1.132-.009-2.264,0-3.4.01-1.009.379-1.377,1.377-1.392.571-.009,1.142,0,1.781,0,0-.28,0-.5,0-.72q0-3.211,0-6.421A3.149,3.149,0,0,1,41.324.655,8.912,8.912,0,0,1,42.632,0h1.235c.025.03.044.076.076.089a3.2,3.2,0,0,1,2.418,3.547q0,3.085,0,6.169v.681h4.217V9.771q0-3.146,0-6.292A3.181,3.181,0,0,1,51.7.792,9.907,9.907,0,0,1,53.13,0h1.235c2,.655,2.649,2.108,2.568,4.1-.077,1.911-.018,3.828-.015,5.743,0,.216.02.433.032.687.687,0,1.3-.019,1.917.005.75.03,1.169.393,1.181,1.068q.035,2.1,0,4.2a.994.994,0,0,1-1,1.04c-.341.039-.687.038-1.089.058v.708c0,2.491.01,4.982,0,7.473a4.229,4.229,0,0,1-4.424,4.433c-.611.006-1.222,0-1.887,0,0,.393.013.718,0,1.042a3.022,3.022,0,0,1-1.565,2.7.912.912,0,0,0-.544.952q.021,10.653.013,21.306a7.087,7.087,0,0,1-.924,3.594,6.329,6.329,0,0,1-9.13,1.846,6.549,6.549,0,0,1-2.615-5.516c.02-7.39.008-14.78.005-22.171,0-.432-.013-.865-.047-1.3a6.312,6.312,0,0,0-5.206-5.485V47.356c0,3.849.008,7.7,0,11.548a4.06,4.06,0,0,1-4.212,4.33q-11.609.019-23.218-.013a4.541,4.541,0,0,1-1.9-.42A4.054,4.054,0,0,1,0,58.771Q.022,33.728.009,8.686c0-.247,0-.494.019-.741A3.872,3.872,0,0,1,.9,5.744,4.106,4.106,0,0,1,4.252,4.21c1.372-.01,2.745,0,4.173,0,0-.947.027-1.829-.009-2.707A1.5,1.5,0,0,1,9.162,0M2.114,33.709q0,12.533,0,25.066c0,1.663.7,2.36,2.361,2.36H27.132c1.682,0,2.384-.711,2.384-2.417q0-25,0-50.008c0-1.689-.714-2.4-2.41-2.4H4.513c-1.7,0-2.4.695-2.4,2.392q0,12.5,0,25M55.851,16.939H41.173a.913.913,0,0,0-.056.2c0,2.735-.022,5.469.01,8.2a2.047,2.047,0,0,0,2.037,2.06c.184.012.37.006.555.006,3.166,0,6.333-.046,9.5.02a2.356,2.356,0,0,0,2.651-2.682c-.081-1.661-.017-3.33-.017-5V16.939m2.073-4.26H39.05v2.034H57.924ZM10.545,4.152H21.031v-2H10.545Zm44.213,6.322a3.712,3.712,0,0,0,.043-.388q0-3.331,0-6.662a2.312,2.312,0,0,0-.056-.489.957.957,0,0,0-1.018-.806.944.944,0,0,0-.973.785,3.2,3.2,0,0,0-.062.673q-.007,3.146,0,6.292c0,.2.017.395.026.6Zm-12.612,0h2.077c.011-.13.026-.228.026-.327,0-2.263.006-4.526,0-6.789,0-.75-.394-1.215-1.006-1.24s-1.077.465-1.092,1.231c-.016.843,0,1.687,0,2.53v4.594m5.28,19.074c.066.709-.235,1.486.532,1.88a1.3,1.3,0,0,0,1.078-.027c.705-.424.487-1.166.474-1.853Z" transform="translate(0 0.001)" fill="#4286f5"/>
    <path id="Path_7644" data-name="Path 7644" d="M57.119,139.347h-4c-.247,0-.494,0-.741,0a1.136,1.136,0,0,1-1.158-.653,1.117,1.117,0,0,1,.282-1.243q1.65-2,3.3-4l10.833-13.155c.144-.175.289-.349.437-.52a1.039,1.039,0,0,1,1.327-.325,1.019,1.019,0,0,1,.529,1.256c-.124.541-.271,1.076-.414,1.612q-1.623,6.075-3.248,12.15c-.047.178-.084.358-.145.619.239.014.451.037.662.037q1.976.005,3.952,0a1.116,1.116,0,0,1,.933,1.964q-7.167,8.695-14.33,17.393c-.18.218-.4.508-.64.545a1.725,1.725,0,0,1-1.085-.171.964.964,0,0,1-.3-1.164q1.294-4.823,2.571-9.65l1.248-4.688m-.472,10,.124.069L66.8,137.235c-1.35,0-2.533.008-3.716,0s-1.591-.558-1.284-1.71q1.181-4.434,2.368-8.867c.142-.534.274-1.071.411-1.606l-.1-.041L54.407,137.235c1.376,0,2.583-.011,3.789,0,1.108.013,1.511.557,1.225,1.64-.566,2.144-1.14,4.286-1.709,6.429q-.535,2.017-1.065,4.036" transform="translate(-44.798 -104.557)" fill="#4286f5"/>
  </g>
</svg>
