<svg id="icons_contact_copy" data-name="icons/contact copy" xmlns="http://www.w3.org/2000/svg" xmlns:xlink="http://www.w3.org/1999/xlink" width="27" height="26" viewBox="0 0 27 26">
  <defs>
    <clipPath id="clip-path">
      <path id="Shape" d="M20.3,21.2h0l-4.278-1.574a1.537,1.537,0,0,0-.616-.122,1.635,1.635,0,0,0-.571.1c0,.006-.005.006-.01.006a.4.4,0,0,0-.087.036,10.891,10.891,0,0,1-4.143.81A10.725,10.725,0,0,1,3.1,17.459,9.976,9.976,0,0,1,3.1,3,10.725,10.725,0,0,1,10.6,0a10.852,10.852,0,0,1,4.215.841,10.55,10.55,0,0,1,3.412,2.288A9.968,9.968,0,0,1,19.5,15.76a1.6,1.6,0,0,0-.115.169l-.012.019a1.525,1.525,0,0,0-.2.744l1.126,4.5ZM15.49,8.968a1.631,1.631,0,1,0,1.63,1.63A1.632,1.632,0,0,0,15.49,8.968Zm-4.892,0a1.631,1.631,0,1,0,1.631,1.63A1.632,1.632,0,0,0,10.6,8.968Zm-4.892,0A1.631,1.631,0,1,0,7.338,10.6,1.632,1.632,0,0,0,5.706,8.968Z" transform="translate(0 0)"/>
    </clipPath>
  </defs>
  <rect id="icons_contact_copy_background" data-name="icons/contact copy background" width="27" height="26" fill="rgba(0,0,0,0)"/>
  <rect id="Rectangle" width="26" height="26" fill="rgba(255,0,0,0)"/>
  <path id="Shape-2" data-name="Shape" d="M20.3,21.2h0l-4.278-1.574a1.537,1.537,0,0,0-.616-.122,1.635,1.635,0,0,0-.571.1c0,.006-.005.006-.01.006a.4.4,0,0,0-.087.036,10.891,10.891,0,0,1-4.143.81A10.725,10.725,0,0,1,3.1,17.459,9.976,9.976,0,0,1,3.1,3,10.725,10.725,0,0,1,10.6,0a10.852,10.852,0,0,1,4.215.841,10.55,10.55,0,0,1,3.412,2.288A9.968,9.968,0,0,1,19.5,15.76a1.6,1.6,0,0,0-.115.169l-.012.019a1.525,1.525,0,0,0-.2.744l1.126,4.5ZM15.49,8.968a1.631,1.631,0,1,0,1.63,1.63A1.632,1.632,0,0,0,15.49,8.968Zm-4.892,0a1.631,1.631,0,1,0,1.631,1.63A1.632,1.632,0,0,0,10.6,8.968Zm-4.892,0A1.631,1.631,0,1,0,7.338,10.6,1.632,1.632,0,0,0,5.706,8.968Z" transform="translate(2.777 2.378)"/>
  <g id="Group_98" data-name="Group 98" transform="translate(2.777 2.378)" clip-path="url(#clip-path)">
    <g id="Colors_Primary" data-name="Colors/Primary" transform="translate(-2.777 -2.378)">
      <rect id="Colors_Primary_background" data-name="Colors/Primary background" width="27" height="26" fill="rgba(0,0,0,0)"/>
      <rect id="Rectangle_3" data-name="Rectangle 3" width="26" height="26" fill="#fff"/>
    </g>
  </g>
</svg>
