<svg id="Group_8579" data-name="Group 8579" xmlns="http://www.w3.org/2000/svg" xmlns:xlink="http://www.w3.org/1999/xlink" width="27.273" height="58.706" viewBox="0 0 27.273 58.706">
  <defs>
    <clipPath id="clip-path">
      <rect id="Rectangle_1713" data-name="Rectangle 1713" width="27.273" height="58.706" fill="#4286f5"/>
    </clipPath>
  </defs>
  <g id="Group_8578" data-name="Group 8578" clip-path="url(#clip-path)">
    <path id="Path_7662" data-name="Path 7662" d="M28.024,102.9c-.2.6-.625.7-1.181.585-.466-.092-.939-.147-1.41-.209-.391-.052-.785-.216-1.074.291-.082.145-.492.154-.747.141q-2.6-.129-5.2-.3a.831.831,0,0,0-.827.377,4.4,4.4,0,0,1-2.362,1.5c.357.027.545.043.734.054,2.5.145,5,.275,7.494.438a3.157,3.157,0,0,1,3.1,3.059c.206,5.552.373,11.106.469,16.661.037,2.173-.122,4.352-.252,6.524-.188,3.156-1.483,4.585-4.605,5.119-1.2.205-2.414.326-3.7.5,0,.781.021,1.561,0,2.341a3.967,3.967,0,0,1-3.582,3.812,3.885,3.885,0,0,1-4.163-2.815,14.131,14.131,0,0,1-.191-2.59c-.014-.245,0-.492,0-.748-1.279-.169-2.512-.3-3.733-.505a9,9,0,0,1-1.722-.492,4,4,0,0,1-2.726-3.605c-.2-2.457-.4-4.927-.368-7.388.072-5.6.252-11.192.461-16.786a3.186,3.186,0,0,1,3.261-3.1c2.519-.137,5.038-.286,7.557-.432.118-.007.235-.035.522-.08a4.564,4.564,0,0,1-2.564-1.68c-.1-.131-.4-.161-.608-.15-1.735.087-3.469.214-5.2.276a3.078,3.078,0,0,1-.976-.332,1.236,1.236,0,0,0-.475-.13c-.6.061-1.189.153-1.781.243-.7.107-1.069-.048-1.148-.5s.233-.73.936-.818c.41-.051.822-.093,1.229-.163.458-.078.991-.006,1.168-.652.039-.142.32-.247.509-.312,1.971-.677,3.948-1.333,5.916-2.018a2.666,2.666,0,0,0,.938-.528,4.053,4.053,0,0,1,5.57.008,2.645,2.645,0,0,0,.941.522c1.93.668,3.875,1.294,5.8,1.98.306.109.521.462.791.686a.9.9,0,0,0,.393.214c.611.1,1.225.2,1.842.257a1.076,1.076,0,0,1,.98.624ZM10.5,136.3a3.606,3.606,0,0,0-.568-2.73,3.33,3.33,0,0,1-.646-1.775,17.354,17.354,0,0,1,0-3.347,5.264,5.264,0,0,1,10.392-.21,16.085,16.085,0,0,1,.025,3.531,3.56,3.56,0,0,1-.7,1.884c-.682.818-.522,1.676-.507,2.649,1.468-.211,2.907-.353,4.317-.639a3.075,3.075,0,0,0,2.527-2.726c.072-.427.074-.866.109-1.3a172.471,172.471,0,0,0-.176-22.565,1.95,1.95,0,0,0-1.937-1.959A88.917,88.917,0,0,0,5.8,107.1a2.044,2.044,0,0,0-2.106,2.257c-.1,2.217-.231,4.432-.31,6.649a137.9,137.9,0,0,0,.2,16.538A3.227,3.227,0,0,0,6.2,135.672c1.4.269,2.818.416,4.29.625m8-6.131-.045,0c0-.373.017-.747,0-1.119a3.829,3.829,0,0,0-3.6-3.755,3.743,3.743,0,0,0-4.233,3.217,12.274,12.274,0,0,0-.052,3.1,3.291,3.291,0,0,0,2.965,2.891,12.512,12.512,0,0,0,1.612.02,3.329,3.329,0,0,0,3.219-2.681,13.1,13.1,0,0,0,.135-1.666m-6.625,5.249c0,1.633-.053,3.21.017,4.78a2.565,2.565,0,0,0,2.468,2.286,2.523,2.523,0,0,0,2.687-2.094c.127-1.638.031-3.293.031-4.982a7.4,7.4,0,0,1-5.2.01m5.23-34.1a2.616,2.616,0,1,0-2.622,2.669,2.642,2.642,0,0,0,2.622-2.669m-11.566.8.066.248,4.935-.275V100.38l-5,1.741m17.833.248.069-.246-5-1.751v1.721l4.935.276" transform="translate(-0.876 -85.235)" fill="#4286f5"/>
    <path id="Path_7663" data-name="Path 7663" d="M13.559,143.1a4.029,4.029,0,0,1-3.848-2.936,8.179,8.179,0,0,1-.17-1.836c0-.256-.009-.521-.024-.777-.01-.172-.007-.347,0-.516,0-.043,0-.086,0-.13q-.506-.066-1-.128c-.9-.114-1.759-.221-2.625-.364a8.955,8.955,0,0,1-1.746-.5,4.115,4.115,0,0,1-2.806-3.712l-.007-.088c-.193-2.4-.392-4.874-.361-7.311.077-5.953.276-11.827.461-16.789A3.3,3.3,0,0,1,4.807,104.8c2.02-.11,4.073-.23,6.059-.345l1.5-.087h0a4.392,4.392,0,0,1-2.138-1.562.742.742,0,0,0-.5-.1c-.665.033-1.341.073-1.995.112-1.052.062-2.14.126-3.212.165a1.6,1.6,0,0,1-.71-.206,3.345,3.345,0,0,0-.311-.132c-.041-.014-.083-.031-.125-.048a.728.728,0,0,0-.3-.077c-.567.058-1.143.146-1.7.231l-.076.012c-.286.044-1.155.176-1.289-.6a.7.7,0,0,1,.113-.552,1.3,1.3,0,0,1,.93-.411l.3-.036c.3-.036.618-.074.923-.126.082-.014.166-.023.25-.033.388-.043.695-.077.819-.529.052-.189.314-.3.589-.4q1.222-.419,2.446-.832c1.139-.386,2.316-.784,3.47-1.186a2.529,2.529,0,0,0,.894-.5,4.192,4.192,0,0,1,5.741.009,2.489,2.489,0,0,0,.9.5c.793.275,1.6.547,2.386.81,1.121.377,2.281.766,3.414,1.171a1.545,1.545,0,0,1,.568.449,2.912,2.912,0,0,0,.261.259.765.765,0,0,0,.333.187c.552.092,1.194.2,1.833.255a1.193,1.193,0,0,1,1.081.7l.012.025-.006.19a1,1,0,0,1-1.324.669c-.381-.076-.775-.126-1.156-.176l-.247-.032c-.059-.008-.118-.018-.176-.028-.331-.058-.57-.1-.773.257-.091.159-.38.227-.861.2-1.835-.091-3.537-.191-5.206-.3a.711.711,0,0,0-.718.326,3.9,3.9,0,0,1-1.905,1.344l.184.012,2.334.133c1.692.1,3.442.194,5.162.305a3.288,3.288,0,0,1,3.216,3.179c.229,6.168.382,11.619.469,16.664.032,1.892-.086,3.816-.2,5.677q-.026.428-.052.857c-.192,3.221-1.512,4.688-4.709,5.234-.822.14-1.637.24-2.5.346-.361.044-.726.089-1.1.137q0,.311,0,.623c0,.529.009,1.075-.008,1.613a4.079,4.079,0,0,1-3.691,3.932,3.679,3.679,0,0,1-.452.028M9.8,102.457c.178,0,.5.026.63.2a4.421,4.421,0,0,0,2.5,1.633l.528.158-.545.085-.257.043a2.46,2.46,0,0,1-.277.039l-1.5.087c-1.986.116-4.04.235-6.06.345a3.058,3.058,0,0,0-3.144,2.977c-.185,4.96-.384,10.833-.461,16.783-.031,2.426.168,4.9.36,7.288l.007.088a3.88,3.88,0,0,0,2.646,3.5,8.725,8.725,0,0,0,1.7.485c.861.142,1.713.249,2.615.363.368.046.739.093,1.114.142l.108.014v.109c0,.082,0,.163,0,.243,0,.172,0,.335,0,.5.015.261.02.529.024.787a7.988,7.988,0,0,0,.163,1.78,3.766,3.766,0,0,0,4.027,2.721,3.834,3.834,0,0,0,3.473-3.692c.017-.533.012-1.077.008-1.6,0-.245,0-.489,0-.734v-.109l.108-.014c.409-.054.811-.1,1.208-.152.86-.105,1.673-.2,2.489-.344,3.056-.522,4.318-1.925,4.5-5q.025-.428.052-.857c.114-1.856.232-3.775.2-5.657-.087-5.043-.24-10.492-.469-16.659a3.045,3.045,0,0,0-2.983-2.939c-1.719-.112-3.468-.21-5.16-.305q-1.167-.066-2.334-.133c-.121-.007-.243-.016-.408-.029l-.9-.067.537-.2a4.263,4.263,0,0,0,2.305-1.457.957.957,0,0,1,.936-.427c1.667.113,3.368.212,5.2.3.425.021.61-.044.632-.078a.835.835,0,0,1,1.032-.38c.055.01.111.019.166.027l.246.032c.385.05.784.1,1.173.179.576.114.876-.026,1.032-.483v-.076a.956.956,0,0,0-.867-.528c-.647-.061-1.295-.165-1.851-.258a1,1,0,0,1-.452-.241,3.133,3.133,0,0,1-.284-.281,1.353,1.353,0,0,0-.469-.384c-1.131-.4-2.289-.793-3.41-1.169-.783-.263-1.594-.535-2.388-.81a2.732,2.732,0,0,1-.986-.549,3.942,3.942,0,0,0-5.4-.008,2.736,2.736,0,0,1-.982.555c-1.155.4-2.333.8-3.472,1.187q-1.223.414-2.445.832c-.376.129-.424.206-.43.227-.169.616-.647.669-1.032.712-.079.009-.158.017-.235.031-.311.053-.629.091-.936.127l-.3.036a1.105,1.105,0,0,0-.761.311.45.45,0,0,0-.067.361c.046.266.2.523,1.006.4l.076-.012c.559-.085,1.138-.174,1.711-.233a.9.9,0,0,1,.415.093c.038.015.076.03.113.043.114.039.226.091.335.141a1.453,1.453,0,0,0,.6.183c1.069-.038,2.155-.1,3.206-.164.654-.039,1.331-.079,2-.112l.085,0m3.8,39.314c-.04,0-.08,0-.12,0a2.675,2.675,0,0,1-2.587-2.405c-.049-1.1-.038-2.174-.027-3.314,0-.486.01-.977.01-1.472V134.4l.167.06a7.284,7.284,0,0,0,5.119-.009l.167-.06v.178c0,.509.009,1.023.017,1.521.02,1.142.04,2.322-.049,3.471a2.629,2.629,0,0,1-2.7,2.212m-2.475-7.018c0,.437-.005.87-.009,1.3-.011,1.136-.022,2.21.027,3.3a2.452,2.452,0,0,0,2.349,2.167,2.393,2.393,0,0,0,2.557-1.979c.088-1.137.069-2.259.048-3.447-.008-.441-.015-.9-.017-1.349a7.486,7.486,0,0,1-4.955.009m6.369.852,0-.142c0-.146-.008-.288-.013-.429a3.028,3.028,0,0,1,.549-2.3,3.44,3.44,0,0,0,.67-1.815,15.715,15.715,0,0,0-.025-3.5,5.14,5.14,0,0,0-10.145.206,17.3,17.3,0,0,0,0,3.323,3.178,3.178,0,0,0,.617,1.706,3.374,3.374,0,0,1,.605,2.541c0,.09-.006.181-.008.273l0,.14-.139-.02c-.454-.064-.9-.123-1.348-.181-1.017-.133-1.978-.258-2.948-.444a3.359,3.359,0,0,1-2.723-3.244,139.263,139.263,0,0,1-.2-16.553c.05-1.4.121-2.821.191-4.2.041-.818.082-1.636.119-2.455a2.173,2.173,0,0,1,2.219-2.376,89.452,89.452,0,0,1,17.557.012,2.082,2.082,0,0,1,2.049,2.077,174.169,174.169,0,0,1,.176,22.582c-.01.134-.018.269-.025.4a8.106,8.106,0,0,1-.084.907,3.194,3.194,0,0,1-2.625,2.828c-.982.2-1.954.326-2.983.46-.438.057-.892.116-1.341.181ZM13.6,122.951a5.33,5.33,0,0,1,5.317,4.429,15.953,15.953,0,0,1,.026,3.559,3.647,3.647,0,0,1-.727,1.953,2.8,2.8,0,0,0-.492,2.132c0,.1.008.194.01.293.405-.057.811-.11,1.205-.161,1.025-.133,1.992-.259,2.965-.457a2.961,2.961,0,0,0,2.428-2.625,7.927,7.927,0,0,0,.081-.879c.007-.137.015-.274.026-.41a173.967,173.967,0,0,0-.176-22.549,1.831,1.831,0,0,0-1.825-1.841,89.2,89.2,0,0,0-17.508-.012,1.921,1.921,0,0,0-1.994,2.139q-.056,1.228-.12,2.456c-.069,1.374-.141,2.795-.19,4.192a139.036,139.036,0,0,0,.2,16.523,3.085,3.085,0,0,0,2.521,3.019c.962.185,1.919.31,2.933.442.4.052.8.1,1.213.162q0-.068,0-.135a3.139,3.139,0,0,0-.546-2.371,3.432,3.432,0,0,1-.675-1.845,17.543,17.543,0,0,1,0-3.371,5.284,5.284,0,0,1,5.227-4.642h.1m-.139,10.866a8,8,0,0,1-.817-.037,3.418,3.418,0,0,1-3.076-3,12.338,12.338,0,0,1,.052-3.127,3.863,3.863,0,0,1,4.365-3.322A3.949,3.949,0,0,1,17.7,128.2c.014.259.01.521.006.774,0,.078,0,.156,0,.234l.053,0-.009.127c-.013.172-.02.35-.027.521a7.225,7.225,0,0,1-.11,1.161,3.439,3.439,0,0,1-3.337,2.781l-.116,0c-.229.006-.461.013-.695.013m.163-9.252a3.58,3.58,0,0,0-3.757,3.123,12.075,12.075,0,0,0-.051,3.064,3.167,3.167,0,0,0,2.853,2.78,11.473,11.473,0,0,0,1.479.023l.116,0a3.193,3.193,0,0,0,3.1-2.582,7.048,7.048,0,0,0,.105-1.121c.005-.132.011-.268.019-.4l-.037,0v-.118c0-.118,0-.237,0-.355,0-.249.007-.507-.006-.757a3.705,3.705,0,0,0-3.481-3.637c-.116-.008-.232-.012-.345-.012m-.009-21.293h-.011a2.7,2.7,0,0,1-1.92-.81,2.8,2.8,0,0,1-.813-2,2.766,2.766,0,0,1,2.714-2.755,2.7,2.7,0,0,1,1.938.792,2.8,2.8,0,0,1,0,3.97,2.692,2.692,0,0,1-1.912.8m0-5.312h-.023a2.515,2.515,0,0,0-2.467,2.506,2.548,2.548,0,0,0,.741,1.82,2.455,2.455,0,0,0,1.744.736h.01a2.444,2.444,0,0,0,1.736-.727,2.547,2.547,0,0,0,0-3.616,2.458,2.458,0,0,0-1.738-.72m8.977,3.7-5.153-.288V99.358l5.28,1.848Zm-4.9-.524,4.717.264.01-.037L17.686,99.71Zm-13.051.524-.122-.458,5.277-1.837v2.007Zm.179-.3.01.038,4.716-.263v-1.42Z" transform="translate(0 -84.397)" fill="#4286f5"/>
    <path id="Path_7664" data-name="Path 7664" d="M60.634,1a8.708,8.708,0,0,1,6.324,2.752c.141.151.269.314.4.476.266.337.324.69-.036.984-.381.31-.713.167-1.022-.17A9.95,9.95,0,0,0,65.239,4a7.311,7.311,0,0,0-10.063.865c-.068.078-.132.159-.2.236A.633.633,0,0,1,54,5.2a.619.619,0,0,1-.042-.937,7.823,7.823,0,0,1,4.368-2.878c.753-.2,1.541-.259,2.313-.383" transform="translate(-47.054 -0.878)" fill="#4286f5"/>
    <path id="Path_7665" data-name="Path 7665" d="M53.551,4.637a.8.8,0,0,1-.524-.219.736.736,0,0,1-.06-1.107A7.961,7.961,0,0,1,57.4.388,13.668,13.668,0,0,1,59,.106c.238-.032.484-.066.724-.1l.012,0h.012a8.794,8.794,0,0,1,6.41,2.792c.144.155.276.322.4.484a.748.748,0,0,1-.055,1.158c-.389.317-.791.256-1.193-.182a9.7,9.7,0,0,0-1.045-1.029,7.167,7.167,0,0,0-9.891.85c-.03.035-.06.07-.09.106s-.074.088-.113.131a.858.858,0,0,1-.629.327M59.754.25c-.239.038-.482.071-.718.1a13.532,13.532,0,0,0-1.572.276,7.716,7.716,0,0,0-4.3,2.833c-.231.3-.223.553.024.767a.51.51,0,0,0,.8-.086c.037-.041.072-.083.107-.125s.062-.074.094-.11A7.415,7.415,0,0,1,64.43,3.029,10.2,10.2,0,0,1,65.5,4.083c.313.341.568.388.851.157.1-.08.4-.325.017-.809-.125-.158-.254-.321-.391-.469A8.553,8.553,0,0,0,59.754.25" transform="translate(-46.167)" fill="#4286f5"/>
    <path id="Path_7666" data-name="Path 7666" d="M77.491,28.039a5.281,5.281,0,0,1,4.1,2.141c.28.364.439.751.006,1.085-.417.321-.748.122-1.05-.253a3.956,3.956,0,0,0-6.44.011c-.3.377-.639.558-1.053.235s-.266-.681-.015-1.039a5.506,5.506,0,0,1,4.454-2.18" transform="translate(-63.716 -24.541)" fill="#4286f5"/>
    <path id="Path_7667" data-name="Path 7667" d="M72.588,30.676a.806.806,0,0,1-.5-.2c-.515-.4-.27-.882-.04-1.209a5.626,5.626,0,0,1,4.555-2.233h.005A5.41,5.41,0,0,1,80.8,29.228a.809.809,0,1,1-1.24.986,4,4,0,0,0-3.108-1.606h0a4.034,4.034,0,0,0-3.134,1.617,1.02,1.02,0,0,1-.729.45M76.6,27.288a5.372,5.372,0,0,0-4.35,2.127c-.286.408-.289.651-.01.869.307.24.562.178.88-.215a4.279,4.279,0,0,1,3.328-1.71h0a4.241,4.241,0,0,1,3.3,1.7c.321.4.574.466.876.233s.291-.494-.028-.91a5.168,5.168,0,0,0-4-2.092" transform="translate(-62.831 -23.666)" fill="#4286f5"/>
    <path id="Path_7668" data-name="Path 7668" d="M95.124,58.669a1.959,1.959,0,1,1,2.064-1.877,1.989,1.989,0,0,1-2.064,1.877m-.577-2.159c.04.633.3.911.684.822a.964.964,0,0,0,.588-.626.514.514,0,0,0-.643-.611c-.258.045-.478.309-.629.415" transform="translate(-81.592 -47.924)" fill="#4286f5"/>
    <path id="Path_7669" data-name="Path 7669" d="M94.33,57.922l-.087,0a2.1,2.1,0,0,1-1.469-.687,2.05,2.05,0,0,1-.552-1.482,2.108,2.108,0,0,1,3.655-1.318,2.051,2.051,0,0,1,.561,1.491,2.1,2.1,0,0,1-2.107,2M94.347,54a1.865,1.865,0,0,0-1.876,1.757,1.8,1.8,0,0,0,.486,1.3,1.858,1.858,0,0,0,3.231-1.151,1.8,1.8,0,0,0-.494-1.31,1.851,1.851,0,0,0-1.287-.6h-.06M94.221,56.6a.549.549,0,0,1-.333-.108,1.094,1.094,0,0,1-.341-.847l0-.07.057-.04c.036-.026.082-.066.131-.109a1.189,1.189,0,0,1,.548-.327.711.711,0,0,1,.637.185.619.619,0,0,1,.15.574,1.09,1.09,0,0,1-.682.722.714.714,0,0,1-.163.02m-.42-.9a.84.84,0,0,0,.236.6.333.333,0,0,0,.29.045.852.852,0,0,0,.494-.53.372.372,0,0,0-.085-.35.463.463,0,0,0-.415-.113,1.013,1.013,0,0,0-.426.269c-.033.029-.064.057-.095.082" transform="translate(-80.716 -47.05)" fill="#4286f5"/>
    <path id="Path_7670" data-name="Path 7670" d="M86.013,192.352a12.085,12.085,0,0,1-2.325-.863,1.893,1.893,0,0,1-.06-3.227,4.442,4.442,0,0,1,4.888.038,1.943,1.943,0,0,1-.05,3.181,3.972,3.972,0,0,1-2.392.7l-.061.173m.042-1.4a9.4,9.4,0,0,0,1.531-.5c.569-.3.546-.806.022-1.176a3.348,3.348,0,0,0-3.139.008c-.515.371-.525.889.046,1.176a9.938,9.938,0,0,0,1.539.491" transform="translate(-72.433 -164.153)" fill="#4286f5"/>
    <path id="Path_7671" data-name="Path 7671" d="M85.213,191.611l-.118-.042c-.24-.086-.492-.161-.736-.235a6.7,6.7,0,0,1-1.613-.64,1.992,1.992,0,0,1-.989-1.589,2.195,2.195,0,0,1,.918-1.843,4.547,4.547,0,0,1,5.042.04,2.067,2.067,0,0,1-.053,3.377,4.053,4.053,0,0,1-2.378.723Zm-.048-4.836a3.91,3.91,0,0,0-2.336.685,1.95,1.95,0,0,0-.821,1.632,1.724,1.724,0,0,0,.871,1.389,6.519,6.519,0,0,0,1.554.613c.208.062.421.126.63.2l.049-.138H85.2a3.856,3.856,0,0,0,2.317-.674,1.818,1.818,0,0,0,.047-2.983,3.927,3.927,0,0,0-2.4-.722m.015,3.41-.037-.011c-.163-.05-.33-.094-.491-.137a5.434,5.434,0,0,1-1.068-.362.8.8,0,0,1-.5-.629.88.88,0,0,1,.434-.76,3.486,3.486,0,0,1,3.284-.009.892.892,0,0,1,.45.758.8.8,0,0,1-.487.63,5.224,5.224,0,0,1-1.064.37c-.16.043-.326.088-.487.138Zm-.01-2.068a2.728,2.728,0,0,0-1.5.371.656.656,0,0,0-.331.538.569.569,0,0,0,.361.426,5.236,5.236,0,0,0,1.02.344c.151.04.308.081.463.128.154-.047.31-.089.46-.13a4.968,4.968,0,0,0,1.014-.351.559.559,0,0,0,.353-.426.669.669,0,0,0-.345-.538,2.744,2.744,0,0,0-1.491-.363" transform="translate(-71.557 -163.253)" fill="#4286f5"/>
    <path id="Path_7672" data-name="Path 7672" d="M105.215,249.231c0,.746,0,1.492,0,2.237,0,.442-.188.728-.652.727s-.649-.289-.648-.73q0-2.206,0-4.413c0-.426.149-.747.621-.761.505-.016.681.305.681.765q0,1.088,0,2.175" transform="translate(-90.952 -215.568)" fill="#4286f5"/>
    <path id="Path_7673" data-name="Path 7673" d="M103.688,251.446h0c-.5,0-.774-.3-.773-.855q0-2.206,0-4.413c0-.714.4-.876.742-.886a.765.765,0,0,1,.576.19.939.939,0,0,1,.233.7v2.61q0,.9,0,1.8a.886.886,0,0,1-.219.652.755.755,0,0,1-.556.2m.006-5.905h-.032c-.233.007-.5.086-.5.637q0,2.207,0,4.413c0,.542.3.605.524.606h0a.517.517,0,0,0,.38-.127.652.652,0,0,0,.146-.475q0-.9,0-1.8v-2.609a.708.708,0,0,0-.157-.52.5.5,0,0,0-.363-.12" transform="translate(-90.076 -214.693)" fill="#4286f5"/>
  </g>
</svg>
