<svg xmlns="http://www.w3.org/2000/svg" width="22.667" height="17" viewBox="0 0 22.667 17">
  <g id="Icon_feather-delete" data-name="Icon feather-delete" transform="translate(0 -4.5)">
    <path id="Path_7687" data-name="Path 7687" d="M7.556,4.5H19.833a2.837,2.837,0,0,1,2.833,2.833V18.667A2.837,2.837,0,0,1,19.833,21.5H7.556a.944.944,0,0,1-.711-.323L.234,13.622a.944.944,0,0,1,0-1.244L6.845,4.823A.944.944,0,0,1,7.556,4.5ZM19.833,19.611a.946.946,0,0,0,.944-.944V7.333a.946.946,0,0,0-.944-.944H7.984L2.2,13l5.785,6.611Z" fill="#4286f5"/>
    <path id="Path_7688" data-name="Path 7688" d="M17.444,19.556a.944.944,0,0,1-.668-1.612l5.667-5.667a.944.944,0,0,1,1.336,1.336l-5.667,5.667A.941.941,0,0,1,17.444,19.556Z" transform="translate(-6.111 -2.778)" fill="#4286f5"/>
    <path id="Path_7689" data-name="Path 7689" d="M23.111,19.556a.941.941,0,0,1-.668-.277l-5.667-5.667a.944.944,0,0,1,1.336-1.336l5.667,5.667a.944.944,0,0,1-.668,1.612Z" transform="translate(-6.111 -2.778)" fill="#4286f5"/>
  </g>
</svg>
