<svg id="Group_8844" data-name="Group 8844" xmlns="http://www.w3.org/2000/svg" xmlns:xlink="http://www.w3.org/1999/xlink" width="27.604" height="23" viewBox="0 0 27.604 23">
  <defs>
    <clipPath id="clip-path">
      <rect id="Rectangle_1764" data-name="Rectangle 1764" width="27.604" height="23" fill="#4286f5"/>
    </clipPath>
  </defs>
  <g id="Group_8843" data-name="Group 8843" clip-path="url(#clip-path)">
    <path id="Path_7696" data-name="Path 7696" d="M0,13.121v-.862a1.8,1.8,0,0,0,.052-.2A4.8,4.8,0,0,1,1.341,9.42C3.359,7.213,5.328,4.96,7.357,2.763A8.151,8.151,0,0,1,13.443.023C18.061-.02,22.679.011,27.3.011c.1,0,.191.008.307.013v.2q0,10.2-.01,20.4a2.547,2.547,0,0,1-.234,1.064A2.281,2.281,0,0,1,25.107,23q-9.838-.008-19.676,0a3.253,3.253,0,0,1-3.225-2.4Q1.1,16.86,0,13.121m25.279-2.775V2.314c-.089,0-.16-.011-.23-.011-3.882,0-7.764-.029-11.645.013A5.753,5.753,0,0,0,9.179,4.184C7.354,6.129,5.6,8.139,3.814,10.123c-.056.062-.105.13-.179.223Zm.008,2.325H20.723v2.264h4.564Z" transform="translate(0 0)" fill="#4286f5"/>
  </g>
</svg>
