<svg id="Icon_feather-external-link" data-name="Icon feather-external-link" xmlns="http://www.w3.org/2000/svg" width="16.762" height="16.762" viewBox="0 0 16.762 16.762">
  <path id="Path_7697" data-name="Path 7697" d="M5.514,21.747h9.219a2.517,2.517,0,0,0,2.514-2.514V10.014A2.517,2.517,0,0,0,14.733,7.5H9.7a.838.838,0,1,0,0,1.676h5.029a.839.839,0,0,1,.838.838v9.219a.839.839,0,0,1-.838.838H5.514a.839.839,0,0,1-.838-.838V14.2A.838.838,0,1,0,3,14.2v5.029A2.517,2.517,0,0,0,5.514,21.747Z" transform="translate(-0.486 -4.986)" fill="#4286f5"/>
  <path id="Path_7698" data-name="Path 7698" d="M21.838,9.7a.838.838,0,0,0,.838-.838V4.676h4.19a.838.838,0,0,0,0-1.676H21.838A.838.838,0,0,0,21,3.838V8.867A.838.838,0,0,0,21.838,9.7Z" transform="translate(-21 -3)" fill="#4286f5"/>
  <path id="Path_7699" data-name="Path 7699" d="M23.557,13.9a.838.838,0,0,0,.593-1.431L14.931,3.245a.838.838,0,0,0-1.185,1.185l9.219,9.219A.835.835,0,0,0,23.557,13.9Z" transform="translate(-13.5 -3)" fill="#4286f5"/>
</svg>
