<svg id="Group_8454" data-name="Group 8454" xmlns="http://www.w3.org/2000/svg" xmlns:xlink="http://www.w3.org/1999/xlink" width="60.985" height="61.029" viewBox="0 0 60.985 61.029">
  <defs>
    <clipPath id="clip-path">
      <rect id="Rectangle_1706" data-name="Rectangle 1706" width="60.985" height="61.029" fill="#4286f5"/>
    </clipPath>
  </defs>
  <g id="Group_8533" data-name="Group 8533">
    <g id="Group_8532" data-name="Group 8532" clip-path="url(#clip-path)">
      <path id="Path_7656" data-name="Path 7656" d="M33.941,0a1.54,1.54,0,0,1,.647,1.475c-.042.927-.011,1.858-.011,2.8.929-.071,1.806-.165,2.685-.2,1.038-.041,1.382.311,1.382,1.339q0,7.6,0,15.19v.748H55.272c1.46,0,1.656.191,1.673,1.627A19.331,19.331,0,0,1,44.355,41.5c-2.907,1.106-5.469,1.366-9.778.978v.733q0,8.167,0,16.334c0,1.175-.294,1.474-1.451,1.474q-15.826,0-31.652.011A1.6,1.6,0,0,1,0,60.383V8.771L8.771,0ZM32.516,42.1c-8.66-3.047-13.9-8.932-14.115-18.187C18.174,14.161,23.448,7.929,32.507,4.66V2.076H10.17c0,2.284,0,4.526,0,6.768,0,.989-.343,1.324-1.344,1.326q-3.05,0-6.1,0H2.086V58.95h30.43ZM54.865,23.42a2.274,2.274,0,0,0-.23-.027c-5.4,0-10.8-.008-16.2.015a1.3,1.3,0,0,0-.79.4q-5.721,5.687-11.422,11.4a4.626,4.626,0,0,1-.664.467,17.2,17.2,0,0,0,29.3-12.252M24.181,34.329c.165-.138.251-.2.324-.271q5.907-5.9,11.8-11.822A1.292,1.292,0,0,0,36.6,21.4c.017-4.869.012-9.739.012-14.608V6.088c-6.712.723-11.743,3.868-14.587,9.951C19.017,22.469,20,28.58,24.181,34.329M8.109,3.827,3.831,8.1H8.109Z" fill="#4286f5"/>
      <path id="Path_7657" data-name="Path 7657" d="M321.8,0c1.241.242,2.505.4,3.72.741A19.211,19.211,0,0,1,339.5,17.517c.017.19.05.378.062.568a1.045,1.045,0,0,1-1.111,1.233c-.868.019-1.737,0-2.6,0H320.722c-1.169,0-1.465-.295-1.465-1.458,0-5.464.008-10.928-.011-16.391A1.586,1.586,0,0,1,319.893,0Zm-.477,17.249H337.41A17.139,17.139,0,0,0,321.322,2.117Z" transform="translate(-278.578 -0.001)" fill="#4286f5"/>
      <path id="Path_7658" data-name="Path 7658" d="M73.038,321.673a9.15,9.15,0,1,1,9.142-9.191,9.159,9.159,0,0,1-9.142,9.191m-7.127-9.162a7.117,7.117,0,1,0,7.176-7.1,7.131,7.131,0,0,0-7.176,7.1" transform="translate(-55.74 -264.727)" fill="#4286f5"/>
      <rect id="Rectangle_1702" data-name="Rectangle 1702" width="10.089" height="1.957" transform="translate(6.131 14.271)" fill="#4286f5"/>
      <rect id="Rectangle_1703" data-name="Rectangle 1703" width="10.089" height="1.959" transform="translate(6.152 20.383)" fill="#4286f5"/>
      <rect id="Rectangle_1704" data-name="Rectangle 1704" width="10.087" height="1.957" transform="translate(6.149 26.468)" fill="#4286f5"/>
      <rect id="Rectangle_1705" data-name="Rectangle 1705" width="10.089" height="1.959" transform="translate(6.132 32.575)" fill="#4286f5"/>
      <path id="Path_7659" data-name="Path 7659" d="M115.837,327.623a5.154,5.154,0,0,1,0,.571.728.728,0,0,0,.471.831,2.96,2.96,0,0,1,1.566,2.577h-1.982c-.042-.1-.089-.235-.153-.363a1,1,0,0,0-1.921.457.975.975,0,0,0,.922.965c.25.038.509.037.753.1a2.915,2.915,0,0,1,2.29,2.293,2.747,2.747,0,0,1-1.053,2.993c-.608.453-1.147.82-.856,1.71h-1.975c-.02-.023-.073-.056-.07-.084a1.409,1.409,0,0,0-.812-1.554,2.718,2.718,0,0,1-1.244-2.354h1.984a3.442,3.442,0,0,0,.186.44,1,1,0,0,0,1.887-.481.965.965,0,0,0-.815-.993c-.286-.069-.592-.052-.876-.126a2.9,2.9,0,0,1-2.261-2.318,2.722,2.722,0,0,1,1.079-2.981c.625-.445,1.045-.845.82-1.68Z" transform="translate(-97.531 -285.888)" fill="#4286f5"/>
    </g>
  </g>
</svg>
