<svg id="Group_8447" data-name="Group 8447" xmlns="http://www.w3.org/2000/svg" xmlns:xlink="http://www.w3.org/1999/xlink" width="62.847" height="56.392" viewBox="0 0 62.847 56.392">
  <defs>
    <clipPath id="clip-path">
      <rect id="Rectangle_1659" data-name="Rectangle 1659" width="62.847" height="56.392" fill="#4286f5"/>
    </clipPath>
  </defs>
  <g id="Group_8447-2" data-name="Group 8447" clip-path="url(#clip-path)">
    <path id="Path_7547" data-name="Path 7547" d="M0,54.714a1.717,1.717,0,0,1,1.8-.983c.77.034,1.542.007,2.372.007V52.89q0-23.476-.005-46.952A5.728,5.728,0,0,1,6.314,1.151,5.5,5.5,0,0,1,9.86.009C17.818,0,25.776-.011,33.734.015a5.464,5.464,0,0,1,5.708,5.846q.013,11.661,0,23.322v.856c.689,0,1.316,0,1.943,0A6.218,6.218,0,0,1,47.754,36.4c.007,1.187-.024,2.374.012,3.559a4.339,4.339,0,0,0,8.677-.134c.014-5.932.007-11.865.007-17.909a5.432,5.432,0,0,1-5.771.173,4.946,4.946,0,0,1-2.3-2.847,5.183,5.183,0,0,1,.461-4.37,5.449,5.449,0,0,1,3.653-2.555L44.528,3.226,46.5,1.494l3.267,3.72q3.522,4.013,7.045,8.024a8.735,8.735,0,0,1,2.257,5.994c-.009,6.833.009,13.666-.008,20.5a6.96,6.96,0,0,1-13.893.771c-.089-1.55-.023-3.109-.109-4.66a3.331,3.331,0,0,0-3.088-3.112c-.808-.063-1.625-.011-2.483-.011V53.738h.75q10.372,0,20.745,0a3.68,3.68,0,0,1,.968.107,1.269,1.269,0,0,1,.892,1.256,1.29,1.29,0,0,1-1.033,1.208,4.141,4.141,0,0,1-.791.069q-29.583,0-59.165.01c-.85,0-1.537-.187-1.857-1.064ZM6.785,53.69H36.826v-.411q0-23.78,0-47.56a2.842,2.842,0,0,0-3.067-3.064q-11.967-.005-23.933,0a3.765,3.765,0,0,0-.91.089C7.518,3.1,6.785,4.226,6.785,5.991q0,23.5,0,47.007ZM53.37,14.9a2.657,2.657,0,0,0-2.642,2.66,2.7,2.7,0,0,0,2.679,2.64,2.667,2.667,0,0,0,2.627-2.678A2.625,2.625,0,0,0,53.37,14.9" transform="translate(0 0)" fill="#4286f5"/>
    <path id="Path_7548" data-name="Path 7548" d="M67.766,57.244H56.6c-1.336,0-1.778-.433-1.779-1.754q0-7.271,0-14.542c0-1.32.442-1.748,1.783-1.748H78.938c1.382,0,1.82.444,1.821,1.845q0,7.179,0,14.358c0,1.394-.443,1.842-1.825,1.842H67.766M78.082,41.883h-20.6v12.68h20.6Z" transform="translate(-45.776 -32.733)" fill="#4286f5"/>
  </g>
</svg>
