<svg id="Group_8833" data-name="Group 8833" xmlns="http://www.w3.org/2000/svg" xmlns:xlink="http://www.w3.org/1999/xlink" width="34.535" height="23" viewBox="0 0 34.535 23">
  <defs>
    <clipPath id="clip-path">
      <rect id="Rectangle_1761" data-name="Rectangle 1761" width="34.535" height="23" fill="#4286f5"/>
    </clipPath>
  </defs>
  <g id="Group_8832" data-name="Group 8832" clip-path="url(#clip-path)">
    <path id="Path_7692" data-name="Path 7692" d="M12.034,23a3.183,3.183,0,0,1-.529-.487c-.624-.9-1.23-1.821-1.83-2.741a.479.479,0,0,0-.465-.247c-.819.012-1.639,0-2.459,0s-.964-.13-.965-.949q0-1.329,0-2.658v-.384H4.637v.352c0,.953,0,1.907,0,2.86,0,.6-.18.776-.787.779s-1.235,0-1.852,0-.806-.187-.806-.8c0-1.48.006-2.961-.008-4.441a2.263,2.263,0,0,0-.168-.591.157.157,0,0,0-.036-.056,3.673,3.673,0,0,1-.931-3.16,1.483,1.483,0,0,1,.174-.562C.539,9.4.89,8.909,1.22,8.4a.7.7,0,0,1,.641-.353c.7.01,1.392,0,2.088,0,.487,0,.684.2.687.705,0,.965,0,1.929,0,2.894v.39H5.787v-.92c0-.785-.005-1.57,0-2.355.005-.511.212-.712.72-.714.876,0,1.752-.011,2.627,0a.58.58,0,0,0,.57-.3c.59-.914,1.211-1.807,1.8-2.721a.874.874,0,0,1,.835-.441c.931.018,1.864.006,2.8.006h.394V3.454H11.894c-.781,0-.933-.15-.933-.915,0-.594,0-1.189,0-1.783,0-.54.212-.752.759-.753Q17.3,0,22.87,0c.527,0,.741.216.745.732q.008.993,0,1.985c0,.52-.211.729-.743.732-1.134.006-2.268,0-3.4,0h-.426V4.6h.646c.853,0,1.707.014,2.56-.006a.871.871,0,0,1,.829.452c.6.923,1.219,1.829,1.818,2.749a.5.5,0,0,0,.489.258c1.078-.012,2.156-.007,3.233,0,.54,0,.733.191.734.725,0,1.155,0,2.311,0,3.466v.377h1.15v-.862c0-.594,0-1.189,0-1.783,0-.577.2-.774.763-.776.483,0,.966-.015,1.448.008a.8.8,0,0,1,.489.169c.459.442.888.915,1.327,1.376v9.489c-.721.927-1.428,1.876-2.833,1.6a1.986,1.986,0,0,0-.37,0c-.635,0-.825-.192-.826-.823,0-1.132,0-2.265,0-3.4,0-.119-.011-.237-.017-.364H29.355v.379q0,2.27,0,4.54c0,.545-.062.637-.546.831ZM6.957,18.379h.379c.763,0,1.527.008,2.29,0a.835.835,0,0,1,.781.419c.6.922,1.22,1.827,1.818,2.749a.562.562,0,0,0,.54.3q6.382-.013,12.764-.006h.361V9.2c-.3,0-.581-.021-.858,0a.9.9,0,0,1-.91-.492c-.585-.916-1.2-1.811-1.8-2.721a.455.455,0,0,0-.43-.241q-4.6.01-9.194,0a.481.481,0,0,0-.456.259c-.521.8-1.1,1.564-1.568,2.389a1.427,1.427,0,0,1-1.522.817C8.432,9.152,7.7,9.2,6.957,9.2Zm24.719,2.259a.676.676,0,0,0,.111.039,1.271,1.271,0,0,0,1.273-.459A1.179,1.179,0,0,0,33.4,19.4c-.015-2.532-.02-5.065,0-7.6a1.516,1.516,0,0,0-.45-1.113c-.388-.437-.815-.342-1.272-.323Zm-4.592,1.176h1.105V9.216H27.084ZM3.472,9.2c-.441,0-.844-.006-1.247,0A.313.313,0,0,0,2,9.312a2.826,2.826,0,0,0-.827,2.178,1.635,1.635,0,0,0,.236.743c.22.3.4.625.624.916a1.548,1.548,0,0,1,.308,1.031c-.016,1.266-.006,2.532-.006,3.8v.379H3.472ZM22.454,1.184H12.136v1.09H22.454ZM30.49,13.812H29.373v2.249H30.49ZM16.733,4.579h1.114v-1.1H16.733ZM5.767,13.238h-1.1v1.11h1.1Z" transform="translate(0 0)" fill="#4286f5"/>
    <path id="Path_7693" data-name="Path 7693" d="M183.508,118.319h-1.525a9.628,9.628,0,0,1-1.21-.02.692.692,0,0,1-.479-.338.939.939,0,0,1,.085-.584c.036-.1.165-.178.256-.261l6.5-5.953c.05-.045.1-.092.152-.133a.589.589,0,0,1,.69-.079.543.543,0,0,1,.261.636c-.193.9-.392,1.793-.589,2.689-.125.567-.251,1.134-.384,1.734.132.006.238.015.345.015q1.128,0,2.255,0a.618.618,0,0,1,.652.376.586.586,0,0,1-.211.688q-3.373,3.091-6.748,6.181a.586.586,0,0,1-1-.586q.452-2.049.905-4.1c.016-.075.025-.151.045-.267m.572,2.817.066.04,4.367-4H186.75c-.657,0-.865-.267-.72-.916.12-.535.243-1.07.36-1.606.1-.473.2-.948.3-1.422l-.071-.037-4.346,3.981H184c.7,0,.9.265.751.952q-.336,1.505-.667,3.012" transform="translate(-168.103 -103.388)" fill="#4286f5"/>
  </g>
</svg>
