<svg id="Group_8837" data-name="Group 8837" xmlns="http://www.w3.org/2000/svg" xmlns:xlink="http://www.w3.org/1999/xlink" width="22.995" height="23" viewBox="0 0 22.995 23">
  <defs>
    <clipPath id="clip-path">
      <rect id="Rectangle_1763" data-name="Rectangle 1763" width="22.995" height="23" fill="#4286f5"/>
    </clipPath>
  </defs>
  <g id="Group_8836" data-name="Group 8836" clip-path="url(#clip-path)">
    <path id="Path_7695" data-name="Path 7695" d="M11.14,0h.719a.533.533,0,0,0,.1.042,2.7,2.7,0,0,1,2.186,2.19,2.667,2.667,0,0,1-1.357,2.8.26.26,0,0,0-.137.272c0,1.19,0,2.379,0,3.569a.288.288,0,0,0,.169.3,2.436,2.436,0,0,1,1,1,.3.3,0,0,0,.315.18c1.122-.005,2.244,0,3.367,0a1.54,1.54,0,0,0,1.665-1.665c0-1.115,0-2.23,0-3.344A.326.326,0,0,0,18.982,5,2.663,2.663,0,0,1,18.931.4,6.291,6.291,0,0,1,19.989,0h.674a.579.579,0,0,0,.1.039,2.7,2.7,0,0,1,2.186,2.137,2.67,2.67,0,0,1-1.318,2.838.289.289,0,0,0-.168.3q.008,1.707,0,3.413a4.2,4.2,0,0,1-.062.759,3.819,3.819,0,0,1-3.828,3.167c-1.153.007-2.305,0-3.458,0a.273.273,0,0,0-.283.16,2.477,2.477,0,0,1-1.015,1.019.29.29,0,0,0-.17.3c.005,1.168.008,2.335,0,3.5a.378.378,0,0,0,.22.383A2.666,2.666,0,0,1,14.1,20.967a2.68,2.68,0,0,1-5.18.081,2.662,2.662,0,0,1,1.27-3.071.258.258,0,0,0,.157-.259q-.007-1.808,0-3.615a.255.255,0,0,0-.15-.265,2.445,2.445,0,0,1-1.023-1.011.3.3,0,0,0-.318-.177q-2.391.006-4.783,0H3.829v.29c0,1.557,0,3.114,0,4.671a.394.394,0,0,0,.225.4A2.664,2.664,0,0,1,5.3,20.925a2.678,2.678,0,0,1-5.085.417c-.09-.219-.142-.453-.212-.68v-.674a.646.646,0,0,0,.037-.1A2.684,2.684,0,0,1,1.4,17.954a.328.328,0,0,0,.125-.245q.009-6.21.009-12.419a.274.274,0,0,0-.169-.274A2.609,2.609,0,0,1,.126,3.484C.077,3.328.042,3.168,0,3.01V2.336a.544.544,0,0,0,.039-.1A2.493,2.493,0,0,1,1.191.471,7.188,7.188,0,0,1,2.336,0H3.01a.967.967,0,0,0,.126.041,2.676,2.676,0,0,1,.858,4.977.292.292,0,0,0-.167.3c0,1.594,0,3.189,0,4.783,0,.073.006.146.009.224a1.251,1.251,0,0,0,.146.019c1.647,0,3.294,0,4.941,0a.307.307,0,0,0,.219-.135A2.663,2.663,0,0,1,10.2,9.16a.255.255,0,0,0,.15-.265q-.005-1.808,0-3.616a.262.262,0,0,0-.158-.259,2.585,2.585,0,0,1-1.37-2.343A2.537,2.537,0,0,1,10.184.358,6.266,6.266,0,0,1,11.14,0" fill="#4286f5"/>
  </g>
</svg>
