<svg id="Group_8453" data-name="Group 8453" xmlns="http://www.w3.org/2000/svg" xmlns:xlink="http://www.w3.org/1999/xlink" width="50.688" height="56.392" viewBox="0 0 50.688 56.392">
  <defs>
    <clipPath id="clip-path">
      <rect id="Rectangle_1663" data-name="Rectangle 1663" width="50.688" height="56.392" fill="#4286f5"/>
    </clipPath>
  </defs>
  <g id="Group_8452" data-name="Group 8452" clip-path="url(#clip-path)">
    <path id="Path_7549" data-name="Path 7549" d="M2.755,56.392c-.171-.061-.341-.124-.512-.183A3.294,3.294,0,0,1,0,53.173c-.005-.165,0-.33,0-.5Q0,31.5,0,10.332c0-2.421,1.313-3.724,3.75-3.725L11.076,6.6a.752.752,0,0,0,.131-.028c.8-1.923,2.4-2.339,4.268-2.152C16.744,1.3,18.454-.043,21.055,0c2.483.043,4.225,1.474,5.315,4.4.361,0,.742-.006,1.123,0a3.217,3.217,0,0,1,2.983,1.817.629.629,0,0,0,.669.393c2.35-.016,4.7-.009,7.049-.008a3.336,3.336,0,0,1,3.667,3.644q0,11.811,0,23.623v.68c.386.112.755.208,1.118.324A11.007,11.007,0,0,1,41.067,56.3a1.806,1.806,0,0,0-.307.1Zm26.1-8.811h-16.3a4,4,0,0,1-.6-.018,1.095,1.095,0,0,1,.024-2.169,4.527,4.527,0,0,1,.6-.015h15.9l.917-4.414H12.57c-.165,0-.331.009-.5-.006a1.092,1.092,0,0,1,.009-2.183c.183-.014.367-.005.551-.005q8.813,0,17.625.007a1.06,1.06,0,0,0,.931-.417,10.653,10.653,0,0,1,6.4-3.786c.676-.128,1.366-.182,2.056-.271.005-.113.013-.2.013-.295q0-11.95,0-23.9c0-.893-.416-1.295-1.33-1.3q-3.5-.005-7,0c-.157,0-.314.02-.486.032,0,.254,0,.456,0,.657,0,1.171-.34,1.512-1.5,1.512H20.806q-4.214,0-8.427,0c-.975,0-1.357-.391-1.362-1.376,0-.267,0-.533,0-.826-2.539,0-5,0-7.456,0-.971,0-1.357.393-1.357,1.38q0,21.312,0,42.625c0,.984.386,1.372,1.365,1.372q14.431,0,28.862,0c.15,0,.3-.021.541-.039a11.2,11.2,0,0,1-4.117-6.568m19.616-2.207a8.812,8.812,0,1,0-8.829,8.815,8.8,8.8,0,0,0,8.829-8.815M13.264,8.769H28.642c0-.3,0-.553,0-.808-.006-.949-.4-1.347-1.33-1.353-.551,0-1.1,0-1.652,0-1.014,0-1.347-.321-1.434-1.314a3.214,3.214,0,0,0-1.842-2.747A3.3,3.3,0,0,0,17.632,5.3c-.067.964-.422,1.3-1.386,1.3-.349,0-.7.019-1.046,0-1.981-.121-2.056.577-1.967,2.082a.459.459,0,0,0,.03.083" transform="translate(0 -0.001)" fill="#4286f5"/>
    <path id="Path_7550" data-name="Path 7550" d="M87.025,128.744H97.59a4.854,4.854,0,0,1,.55.01,1.1,1.1,0,0,1-.013,2.183,4.506,4.506,0,0,1-.495.009H76.392a3.612,3.612,0,0,1-.549-.017,1.095,1.095,0,0,1,.013-2.169,3.9,3.9,0,0,1,.549-.015h10.62" transform="translate(-63.884 -109.801)" fill="#4286f5"/>
    <path id="Path_7551" data-name="Path 7551" d="M87.077,173.664h10.51a4.959,4.959,0,0,1,.55.01,1.1,1.1,0,0,1,0,2.183,4.4,4.4,0,0,1-.495.009H76.4a3.669,3.669,0,0,1-.549-.017,1.095,1.095,0,0,1,0-2.169,3.836,3.836,0,0,1,.549-.016H87.077" transform="translate(-63.886 -148.112)" fill="#4286f5"/>
    <path id="Path_7552" data-name="Path 7552" d="M87.023,220.787H76.458a4.993,4.993,0,0,1-.55-.009,1.1,1.1,0,0,1-.007-2.183,4.325,4.325,0,0,1,.495-.01h21.24a4.476,4.476,0,0,1,.495.009,1.1,1.1,0,0,1,.007,2.183,4.853,4.853,0,0,1-.55.01H87.023" transform="translate(-63.886 -186.424)" fill="#4286f5"/>
    <path id="Path_7553" data-name="Path 7553" d="M46.071,130.979a1.1,1.1,0,1,1,1.081-1.142,1.109,1.109,0,0,1-1.081,1.142" transform="translate(-38.343 -109.837)" fill="#4286f5"/>
    <path id="Path_7554" data-name="Path 7554" d="M47.15,174.823a1.1,1.1,0,1,1-1.044-1.123,1.112,1.112,0,0,1,1.044,1.123" transform="translate(-38.341 -148.144)" fill="#4286f5"/>
    <path id="Path_7555" data-name="Path 7555" d="M47.151,219.732a1.1,1.1,0,1,1-1.054-1.113,1.112,1.112,0,0,1,1.054,1.113" transform="translate(-38.342 -186.455)" fill="#4286f5"/>
    <path id="Path_7556" data-name="Path 7556" d="M46.037,263.543a1.1,1.1,0,1,1-1.08,1.086,1.111,1.111,0,0,1,1.08-1.086" transform="translate(-38.343 -224.77)" fill="#4286f5"/>
    <path id="Path_7557" data-name="Path 7557" d="M47.15,309.535a1.1,1.1,0,1,1-1.1-1.072,1.11,1.11,0,0,1,1.1,1.072" transform="translate(-38.341 -263.082)" fill="#4286f5"/>
    <path id="Path_7558" data-name="Path 7558" d="M242.981,289.894l2.325-2.338c.375-.377.747-.757,1.129-1.126A1.113,1.113,0,1,1,247.983,288c-.025.027-.051.053-.077.078q-1.983,1.983-3.967,3.965c-.75.747-1.27.749-2.014.01-.625-.62-1.25-1.238-1.865-1.868a1.112,1.112,0,1,1,1.573-1.542c.409.394.811.8,1.217,1.192a.8.8,0,0,0,.132.057" transform="translate(-204.368 -243.916)" fill="#4286f5"/>
    <path id="Path_7559" data-name="Path 7559" d="M137,31.07a1.1,1.1,0,1,1-1.055-1.113A1.112,1.112,0,0,1,137,31.07" transform="translate(-114.976 -25.549)" fill="#4286f5"/>
  </g>
</svg>
