<svg id="Group_1930" data-name="Group 1930" xmlns="http://www.w3.org/2000/svg" xmlns:xlink="http://www.w3.org/1999/xlink" width="167.5" height="44.468" viewBox="0 0 167.5 44.468">
  <defs>
    <clipPath id="clip-path">
      <rect id="Rectangle_1582" data-name="Rectangle 1582" width="167.5" height="44.468" fill="none"/>
    </clipPath>
  </defs>
  <path id="Path_47" data-name="Path 47" d="M114.964,51.056h-5.946L107.885,53.8h-3.037l5.708-12.806h2.927L119.209,53.8H116.1Zm-.933-2.25L112,43.9l-2.031,4.9Z" transform="translate(-53.915 -21.08)" fill="#333"/>
  <g id="Group_1929" data-name="Group 1929">
    <g id="Group_1928" data-name="Group 1928" clip-path="url(#clip-path)">
      <path id="Path_48" data-name="Path 48" d="M136.369,48.166V40.994h2.964v7.062c0,2.433,1.061,3.439,2.853,3.439,1.811,0,2.854-1.007,2.854-3.439V40.994h2.927v7.172c0,3.769-2.158,5.854-5.8,5.854s-5.8-2.085-5.8-5.854" transform="translate(-70.123 -21.08)" fill="#333"/>
      <path id="Path_49" data-name="Path 49" d="M166.941,43.409h-4.1V40.994H174v2.415h-4.1V53.8h-2.964Z" transform="translate(-83.736 -21.08)" fill="#333"/>
      <path id="Path_50" data-name="Path 50" d="M187.059,47.165c0-3.805,2.963-6.622,7.006-6.622,4.025,0,7.006,2.8,7.006,6.622s-2.982,6.623-7.006,6.623c-4.043,0-7.006-2.818-7.006-6.623m11.013,0a4.008,4.008,0,1,0-4.006,4.1,3.907,3.907,0,0,0,4.006-4.1" transform="translate(-96.189 -20.848)" fill="#333"/>
      <path id="Path_51" data-name="Path 51" d="M230.415,51.111h-2.085V53.8h-2.89V51.111h-6.9V49.117l6.037-8.123h3.11l-5.6,7.7h3.439V46.3h2.8v2.4h2.085Z" transform="translate(-112.378 -21.08)" fill="#4286f5"/>
      <path id="Path_52" data-name="Path 52" d="M246.7,52.306l1.006-2.232a7.533,7.533,0,0,0,4.226,1.335c1.756,0,2.469-.585,2.469-1.372,0-2.4-7.446-.75-7.446-5.507,0-2.177,1.756-3.988,5.4-3.988a8.589,8.589,0,0,1,4.445,1.134l-.915,2.25a7.226,7.226,0,0,0-3.549-1.006c-1.757,0-2.433.658-2.433,1.463,0,2.36,7.446.732,7.446,5.433,0,2.14-1.774,3.97-5.433,3.97a9.124,9.124,0,0,1-5.213-1.482" transform="translate(-126.859 -20.848)" fill="#333"/>
      <path id="Path_53" data-name="Path 53" d="M279.452,51.056h-5.945L272.373,53.8h-3.037l5.707-12.806h2.927L283.7,53.8h-3.11Zm-.933-2.25-2.031-4.9-2.031,4.9Z" transform="translate(-138.497 -21.08)" fill="#333"/>
      <path id="Path_54" data-name="Path 54" d="M301.647,40.994h2.964V51.385h6.421V53.8h-9.384Z" transform="translate(-155.112 -21.08)" fill="#333"/>
      <path id="Path_55" data-name="Path 55" d="M334.309,51.422V53.8h-9.915V40.994h9.677v2.379h-6.732v2.78h5.946v2.305h-5.946v2.964Z" transform="translate(-166.808 -21.08)" fill="#333"/>
      <path id="Path_56" data-name="Path 56" d="M110.489,86.205l.216-.455a2.1,2.1,0,0,0,1.346.472c.705,0,1.008-.273,1.008-.629,0-1-2.47-.367-2.47-1.882,0-.629.489-1.165,1.561-1.165a2.4,2.4,0,0,1,1.311.361l-.192.466a2.106,2.106,0,0,0-1.119-.332c-.693,0-.991.291-.991.647,0,1,2.47.373,2.47,1.87,0,.623-.5,1.16-1.579,1.16a2.42,2.42,0,0,1-1.561-.513" transform="translate(-56.815 -42.447)" fill="#333"/>
      <path id="Path_57" data-name="Path 57" d="M125.508,86.213v.507h-2.96V82.642h2.878v.507h-2.3V84.4h2.045v.5h-2.045v1.316Z" transform="translate(-63.017 -42.496)" fill="#333"/>
      <path id="Path_58" data-name="Path 58" d="M134.429,82.642h.582v3.571h2.208v.507h-2.791Z" transform="translate(-69.125 -42.496)" fill="#333"/>
      <path id="Path_59" data-name="Path 59" d="M145.4,82.642h.582v3.571h2.208v.507H145.4Z" transform="translate(-74.765 -42.496)" fill="#333"/>
      <path id="Path_60" data-name="Path 60" d="M164.322,85.311v1.41h-.577V85.3l-1.62-2.657h.623l1.3,2.15,1.311-2.15h.577Z" transform="translate(-83.368 -42.496)" fill="#333"/>
      <path id="Path_61" data-name="Path 61" d="M173.992,84.632a2.169,2.169,0,1,1,2.173,2.086,2.073,2.073,0,0,1-2.173-2.086m3.752,0a1.585,1.585,0,1,0-1.579,1.568,1.531,1.531,0,0,0,1.579-1.568" transform="translate(-89.47 -42.447)" fill="#333"/>
      <path id="Path_62" data-name="Path 62" d="M188.524,84.962V82.643h.582v2.3c0,.9.414,1.311,1.148,1.311s1.154-.408,1.154-1.311v-2.3h.565v2.319a1.726,1.726,0,1,1-3.449,0" transform="translate(-96.942 -42.496)" fill="#333"/>
      <path id="Path_63" data-name="Path 63" d="M204.655,86.721l-.88-1.253c-.082.006-.169.012-.256.012H202.51v1.241h-.582V82.642h1.59c1.06,0,1.7.536,1.7,1.422a1.287,1.287,0,0,1-.9,1.287l.967,1.369Zm-.017-2.657c0-.583-.391-.915-1.136-.915h-.991v1.836h.991c.746,0,1.136-.338,1.136-.921" transform="translate(-103.835 -42.496)" fill="#333"/>
      <path id="Path_64" data-name="Path 64" d="M220.876,84.632a2.063,2.063,0,0,1,2.162-2.085,2.015,2.015,0,0,1,1.55.635l-.379.367a1.508,1.508,0,0,0-1.147-.484,1.568,1.568,0,1,0,0,3.135,1.515,1.515,0,0,0,1.147-.49l.379.367a2.026,2.026,0,0,1-1.556.641,2.061,2.061,0,0,1-2.155-2.086" transform="translate(-113.578 -42.447)" fill="#333"/>
      <path id="Path_65" data-name="Path 65" d="M235.817,85.7h-2.168l-.448,1.02h-.6l1.847-4.079h.577l1.853,4.079h-.612Zm-.2-.466-.88-2-.88,2Z" transform="translate(-119.607 -42.496)" fill="#333"/>
      <path id="Path_66" data-name="Path 66" d="M249.223,86.721l-.879-1.253c-.082.006-.169.012-.257.012h-1.008v1.241H246.5V82.642h1.59c1.061,0,1.7.536,1.7,1.422a1.287,1.287,0,0,1-.9,1.287l.967,1.369Zm-.017-2.657c0-.583-.391-.915-1.136-.915h-.99v1.836h.99c.746,0,1.136-.338,1.136-.921" transform="translate(-126.753 -42.496)" fill="#333"/>
      <path id="Path_67" data-name="Path 67" d="M271.44,82.642l-1.364,4.079h-.612l-1.112-3.257-1.113,3.257h-.624l-1.363-4.079h.6l1.1,3.315,1.148-3.315h.535l1.125,3.332,1.124-3.332Z" transform="translate(-136.397 -42.496)" fill="#333"/>
      <rect id="Rectangle_1581" data-name="Rectangle 1581" width="0.582" height="4.079" transform="translate(137.622 40.147)" fill="#333"/>
      <path id="Path_68" data-name="Path 68" d="M291.046,83.149h-1.4v-.507h3.373v.507h-1.4v3.572h-.577Z" transform="translate(-148.942 -42.496)" fill="#333"/>
      <path id="Path_69" data-name="Path 69" d="M305.251,82.642v4.079h-.582V84.9h-2.342v1.818h-.582V82.642h.582V84.4h2.342V82.642Z" transform="translate(-155.162 -42.496)" fill="#333"/>
      <path id="Path_70" data-name="Path 70" d="M322.324,84.962V82.643h.582v2.3c0,.9.414,1.311,1.148,1.311s1.154-.408,1.154-1.311v-2.3h.565v2.319a1.726,1.726,0,1,1-3.449,0" transform="translate(-165.744 -42.496)" fill="#333"/>
      <path id="Path_71" data-name="Path 71" d="M334.96,86.205l.215-.455a2.1,2.1,0,0,0,1.346.472c.7,0,1.008-.273,1.008-.629,0-1-2.471-.367-2.471-1.882,0-.629.49-1.165,1.562-1.165a2.4,2.4,0,0,1,1.311.361l-.192.466a2.107,2.107,0,0,0-1.119-.332c-.694,0-.991.291-.991.647,0,1,2.47.373,2.47,1.87,0,.623-.5,1.16-1.579,1.16a2.419,2.419,0,0,1-1.561-.513" transform="translate(-172.242 -42.447)" fill="#333"/>
      <path id="Path_72" data-name="Path 72" d="M60.122,43.446A13.762,13.762,0,0,0,53.7,35.61a12.873,12.873,0,0,0-6.723-1.438l-.866.041c-.288.026-.573.079-.86.118s-.576.069-.856.143l-.844.214c-.14.037-.282.068-.421.111l-.41.15-.819.3c-.264.122-.523.256-.784.384l-.391.194c-.127.071-.248.153-.372.229l-.739.465-.69.534c-.113.091-.233.174-.341.272l-.318.3c-.207.2-.433.39-.625.607l-.578.652c-.2.215-.352.461-.53.69l-.259.35c-.081.12-.154.246-.232.368-.148.249-.312.489-.445.747a13.814,13.814,0,0,0-1.263,3.229,12.722,12.722,0,0,0-.307,1.711c-.024.286-.054.57-.072.856l-.036.858a23.411,23.411,0,0,0,.172,3.422,18.857,18.857,0,0,0,.624,3.059q-2.526.036-5.053.1l-2.68.058L24.3,54.4l2.68.073,2.68.058c1.787.04,3.574.077,5.361.1l.309,0-.088-.311a19.294,19.294,0,0,1-.6-3.275,22.79,22.79,0,0,1-.093-3.337l.054-.833.084-.829A12.009,12.009,0,0,1,35,44.438,13.142,13.142,0,0,1,36.239,41.4a13.939,13.939,0,0,1,1.949-2.639c.182-.2.4-.378.592-.569l.3-.28c.1-.091.215-.169.323-.254l.65-.5.7-.433c.117-.071.23-.148.349-.214l.369-.18.737-.359.769-.286.384-.144c.131-.04.265-.07.4-.105l.8-.206c.265-.071.541-.09.811-.138s.542-.091.816-.117L47,34.93a12.416,12.416,0,0,1,6.375,1.288,12.913,12.913,0,0,1,4.83,4.4,13.218,13.218,0,0,1,1.485,2.96,15.579,15.579,0,0,1,.644,3.27,26.668,26.668,0,0,1-.316,6.723,24.958,24.958,0,0,0,.641-6.747,14.688,14.688,0,0,0-.54-3.383" transform="translate(-12.495 -17.561)" fill="#4286f5"/>
      <path id="Path_73" data-name="Path 73" d="M35.644,54.627l-.634-.008c-1.788-.024-3.575-.061-5.363-.1l-5.361-.132V53.9l5.362-.131q2.368-.054,4.737-.091a19.275,19.275,0,0,1-.545-2.791,23.809,23.809,0,0,1-.174-3.458l.036-.862c.012-.192.029-.378.047-.565l.027-.3a13,13,0,0,1,.314-1.754,14.061,14.061,0,0,1,1.285-3.283c.087-.17.191-.337.295-.5.052-.083.1-.166.154-.25l.083-.134c.051-.082.1-.165.156-.245l.265-.359c.064-.083.122-.163.181-.243a5.186,5.186,0,0,1,.365-.466l.576-.649a5.812,5.812,0,0,1,.419-.414c.074-.068.147-.135.218-.2l.322-.3c.079-.071.159-.133.239-.194l.81-.627.887-.559c.084-.053.168-.106.254-.154l.662-.328c.175-.087.351-.175.529-.257l1.246-.459c.107-.033.2-.057.3-.081l.991-.252a4.923,4.923,0,0,1,.581-.1c.1-.014.2-.027.293-.044s.206-.03.306-.045c.191-.029.383-.058.575-.076l.876-.042A13.2,13.2,0,0,1,53.8,35.139a14,14,0,0,1,6.545,7.979v0a14.909,14.909,0,0,1,.548,3.438,25.244,25.244,0,0,1-.646,6.813l-.476-.092a26.354,26.354,0,0,0,.313-6.661,15.244,15.244,0,0,0-.633-3.218A12.858,12.858,0,0,0,58,40.5a12.639,12.639,0,0,0-4.737-4.322,12.171,12.171,0,0,0-6.251-1.262l-.827.042c-.159.015-.327.042-.495.068-.1.016-.2.032-.3.046s-.191.03-.292.044a4.091,4.091,0,0,0-.489.088l-.94.243c-.082.02-.163.041-.243.066l-1.142.426-1.083.529c-.062.034-.133.079-.2.124l-.821.511-.75.578c-.065.049-.129.1-.189.151l-.3.276c-.068.067-.143.135-.218.2a4.877,4.877,0,0,0-.359.35,13.633,13.633,0,0,0-1.921,2.6,12.853,12.853,0,0,0-1.213,2.983,11.726,11.726,0,0,0-.306,1.584l-.082.82-.053.824a22.573,22.573,0,0,0,.093,3.3A18.839,18.839,0,0,0,35.467,54ZM47.7,34.137c-.24,0-.479.007-.718.02l-.868.041c-.172.016-.353.044-.534.071-.1.016-.2.031-.305.045s-.2.031-.3.045a4.432,4.432,0,0,0-.526.092l-1,.252c-.087.022-.173.044-.26.07l-1.215.446c-.155.073-.327.159-.5.244l-.652.323c-.068.038-.143.086-.22.135l-.87.547-.792.615c-.07.053-.139.107-.205.166l-.314.295c-.071.069-.148.14-.224.211a5.358,5.358,0,0,0-.386.379l-.578.652a4.885,4.885,0,0,0-.333.426c-.061.085-.123.169-.187.252l-.256.345c-.044.066-.091.143-.138.22l-.083.134c-.049.081-.1.167-.156.254-.1.156-.194.311-.279.475a13.628,13.628,0,0,0-1.243,3.178,12.653,12.653,0,0,0-.3,1.681l-.026.295c-.017.182-.034.364-.045.547l-.036.853a23.5,23.5,0,0,0,.171,3.382,19.025,19.025,0,0,0,.482,2.537,21.083,21.083,0,0,1-.407-2.546,23.13,23.13,0,0,1-.095-3.374l.055-.837.084-.838a12.167,12.167,0,0,1,.32-1.655,13.369,13.369,0,0,1,1.26-3.1,14.1,14.1,0,0,1,1.985-2.688c.117-.131.253-.255.388-.379.07-.064.141-.129.209-.2l.3-.283c.074-.067.149-.123.225-.18L39.9,36.7l.838-.523c.079-.05.157-.1.238-.144l1.117-.545,1.175-.439c.1-.032.192-.055.283-.078l.935-.242a4.493,4.493,0,0,1,.547-.1c.095-.013.189-.026.283-.043s.2-.03.3-.045c.178-.029.356-.057.536-.074l.835-.043a12.656,12.656,0,0,1,6.5,1.315A13.125,13.125,0,0,1,58.4,40.232a14.861,14.861,0,0,1,1.081,1.934,13.842,13.842,0,0,0-1.027-1.97,12.993,12.993,0,0,0-4.882-4.629A12.66,12.66,0,0,0,47.7,34.137" transform="translate(-12.488 -17.304)" fill="#4286f5"/>
      <path id="Path_74" data-name="Path 74" d="M16.3,43.608c.883-.5,1.766-1,2.665-1.474s1.808-.927,2.734-1.353c-.968.32-1.908.721-2.843,1.129s-1.845.873-2.749,1.348-1.794.972-2.678,1.483c-.443.254-.878.52-1.314.786s-.86.529-1.306.833L9.878,47,11,46.824l3.159-.479c1.051-.172,2.1-.335,3.154-.517s2.1-.364,3.148-.557l1.57-.307c.523-.1,1.047-.2,1.563-.342-1.056.145-2.114.266-3.172.391l-3.17.406-3.165.431-1.995.29c.524-.331,1.059-.658,1.585-.981.866-.53,1.742-1.044,2.621-1.552" transform="translate(-5.079 -20.97)" fill="#4286f5"/>
      <path id="Path_75" data-name="Path 75" d="M7.781,47.151,9.6,45.914c.376-.256.735-.48,1.1-.707l.211-.131c.44-.269.877-.535,1.321-.791.789-.457,1.726-.991,2.687-1.488,1.01-.53,1.914-.973,2.761-1.353.951-.415,1.883-.814,2.867-1.139l.178.451c-1.023.471-1.913.912-2.72,1.347-.9.47-1.791.978-2.656,1.469l-.125-.208.121.21c-1.053.608-1.86,1.086-2.615,1.548l-.293.18-.3.187.844-.123,3.168-.431,3.472-.443c.957-.112,1.914-.224,2.869-.355l.1.475c-.469.126-.95.221-1.414.313l-1.735.34q-1.578.29-3.154.558c-.719.125-1.442.241-2.165.357l-.99.16Zm4.775-2.493-.083.048c-.441.254-.875.518-1.309.784l-.21.131c-.361.223-.715.443-1.085.7l-.052.036,3.769-.578L9.922,46.3l.965-.61c.427-.27.862-.537,1.294-.8l.293-.18.082-.05m2.588-1.432.078.137-.075-.138h0" transform="translate(-4.001 -20.725)" fill="#4286f5"/>
      <path id="Path_76" data-name="Path 76" d="M156.6,12.589c-.015-.02-.028-.035-.043-.053a.777.777,0,0,0-.079-.067c-.051-.037-.1-.068-.152-.1-.1-.058-.2-.109-.3-.159-.2-.1-.408-.189-.614-.276-.411-.174-.825-.337-1.241-.5-.832-.318-1.668-.617-2.507-.911C149.987,9.942,148.3,9.4,146.6,8.876c-.85-.26-1.7-.513-2.562-.749-.43-.118-.861-.232-1.3-.333-.22-.051-.44-.1-.671-.135l-.663-.094c-1.765-.236-3.533-.426-5.3-.587-3.542-.321-7.1-.532-10.657-.558a80.784,80.784,0,0,0-10.674.549c-1.767.217-3.529.49-5.285.806s-3.5.724-5.221,1.182-3.426,1-5.113,1.573-3.35,1.208-5.008,1.85c-3.315,1.286-6.6,2.643-9.881,3.992l-.969.4,1.009.276,9.439,2.585.058.016.059,0c3.512-.3,7.018-.65,10.524-1s7.01-.717,10.512-1.1,7-.8,10.495-1.26,6.986-.936,10.456-1.546c-3.487.5-6.986.911-10.486,1.3s-7.006.725-10.511,1.073-7.012.666-10.521.973l-10.467.886L85.5,16.64c2.965-1.2,5.93-2.409,8.914-3.553,3.31-1.264,6.644-2.457,10.048-3.392q2.556-.69,5.158-1.191c1.737-.32,3.483-.6,5.239-.821A80.167,80.167,0,0,1,125.436,7.1q2.655.016,5.309.133c1.77.07,3.538.182,5.3.32s3.531.306,5.287.518l.656.085c.208.03.422.073.636.119.428.094.856.2,1.284.312.855.223,1.708.465,2.558.713,1.7.5,3.393,1.028,5.079,1.574.842.275,1.683.557,2.516.855.416.15.831.3,1.241.467.2.082.408.167.606.258.1.046.2.093.289.144a1.48,1.48,0,0,1,.13.08l.014.011-.027.017a1.218,1.218,0,0,1-.133.078c-.091.052-.193.1-.29.144q-.3.136-.608.259c-.41.166-.823.324-1.239.477-.831.307-1.669.6-2.508.889q-2.518.863-5.049,1.691c1.7-.5,3.4-1.015,5.093-1.557.845-.272,1.689-.548,2.529-.838.42-.145.838-.295,1.255-.454q.312-.119.622-.251c.1-.048.206-.09.308-.145a1.449,1.449,0,0,0,.155-.087.545.545,0,0,0,.081-.057l.045-.043a.139.139,0,0,0,.05-.092.123.123,0,0,0,0-.073.322.322,0,0,0-.023-.053" transform="translate(-42.829 -3.301)" fill="#4286f5"/>
      <path id="Path_77" data-name="Path 77" d="M92.977,19.637l-.1-.028L81.743,16.56l2.6-1.069c2.911-1.2,5.922-2.434,8.912-3.593,1.942-.752,3.536-1.34,5.017-1.853,1.945-.662,3.574-1.164,5.13-1.578C105.158,8,106.92,7.6,108.641,7.28c1.825-.328,3.607-.6,5.3-.808a80.337,80.337,0,0,1,10.7-.551c3.3.024,6.788.206,10.678.559,1.927.175,3.665.368,5.314.588l.665.095c.24.037.466.087.691.138.442.1.875.218,1.309.336.766.211,1.582.449,2.569.751,1.949.6,3.562,1.126,5.078,1.657.988.345,1.787.635,2.513.913.418.16.836.324,1.249.5.209.089.418.181.625.281.107.052.212.106.318.167.06.035.117.07.174.112a1.025,1.025,0,0,1,.1.086.917.917,0,0,1,.074.089l.017.027a.578.578,0,0,1,.04.094.344.344,0,0,1,.012.19.385.385,0,0,1-.118.22l-.047.046a.509.509,0,0,1-.1.073,1.792,1.792,0,0,1-.191.11c-.08.043-.16.079-.24.115l-.084.037c-.216.092-.426.177-.637.257-.418.16-.839.31-1.262.457-.842.29-1.688.568-2.534.84-1.783.571-3.578,1.109-5.1,1.558l-.144-.464c1.513-.491,3.164-1.044,5.045-1.689.837-.288,1.673-.581,2.5-.887.413-.153.824-.309,1.231-.474q.3-.122.6-.256l.042-.02-.026-.012c-.194-.089-.393-.172-.594-.253-.407-.163-.819-.315-1.232-.463-.725-.26-1.523-.531-2.51-.854-1.978-.639-3.589-1.139-5.072-1.572-.989-.289-1.8-.515-2.552-.711-.424-.11-.85-.217-1.274-.31-.207-.044-.416-.087-.618-.116l-.653-.085c-1.633-.2-3.359-.366-5.275-.517s-3.654-.254-5.295-.32c-1.8-.077-3.58-.121-5.3-.132h-.056a79.226,79.226,0,0,0-10.49.586c-1.674.212-3.431.488-5.227.819-1.685.322-3.415.721-5.139,1.187-3.648,1-7.115,2.273-10.025,3.384-2.757,1.056-5.542,2.183-8.249,3.282l7.632,2.124,10.423-.882c3.713-.325,7.153-.643,10.517-.972l1.656-.164c2.9-.287,5.9-.583,8.852-.909,3.89-.433,7.16-.82,10.477-1.3l.077.48c-3.641.639-7.312,1.133-10.467,1.547-3.761.491-7.2.9-10.5,1.261-3.364.372-6.8.733-10.514,1.1l-.777.077c-3.194.317-6.5.645-9.751.921Zm-9.731-3.169,9.777,2.677h.016c3.251-.276,6.551-.6,9.743-.92l.777-.077c2.245-.224,4.39-.445,6.48-.667-2.092.2-4.24.39-6.488.586l-10.511.889-9.089-2.53.66-.268c2.933-1.191,5.94-2.413,8.919-3.554,2.921-1.115,6.4-2.392,10.071-3.4,1.737-.469,3.478-.871,5.177-1.2,1.806-.333,3.572-.61,5.253-.823a79.666,79.666,0,0,1,10.554-.59h.056c1.728.011,3.517.055,5.319.133,1.645.065,3.383.171,5.312.321s3.656.321,5.3.519l.658.085c.216.031.436.075.656.122l.256.058-.255-.061c-.213-.049-.428-.1-.653-.131l-.66-.094c-1.64-.219-3.372-.411-5.292-.586-3.876-.351-7.356-.533-10.637-.557A80.309,80.309,0,0,0,114,6.954c-1.685.206-3.458.477-5.272.8-1.708.319-3.459.716-5.2,1.179-1.545.411-3.164.909-5.1,1.568-1.473.511-3.062,1.1-5,1.846-2.985,1.158-5.993,2.394-8.9,3.59Zm72.461-3.854,0,0,0,0Zm-.107-.153a.116.116,0,0,0,.007.019l.006,0,0,0h0Z" transform="translate(-42.034 -3.043)" fill="#4286f5"/>
      <path id="Path_78" data-name="Path 78" d="M14.523,62.537c.243-.093.485-.187.731-.292.062-.027.123-.053.192-.087l.057-.03.04-.024a.375.375,0,0,0,.045-.035l.023-.021a.32.32,0,0,0,.081-.23c-.022-.129-.039-.118-.033-.115l-.006-.008-.012-.016-.024-.031-.051-.062c-.04-.046-.06-.064-.083-.088l-.069-.069-.138-.139c-.731-.735-1.478-1.448-2.221-2.168-1.494-1.43-3-2.848-4.54-4.228,1.379,1.544,2.794,3.051,4.213,4.553l2.136,2.243.047.05c-.2.076-.4.15-.6.222l-1.458.5c-.975.331-1.959.636-2.941.943s-1.974.586-2.962.81c-.246.053-.494.1-.732.13a3.155,3.155,0,0,1-.36.018c-.123,0-.249,0-.374,0-.5-.016-1.011-.061-1.52-.116-.944-.108-1.889-.264-2.827-.437a2.128,2.128,0,0,1,.261-.438,3.815,3.815,0,0,1,.519-.54q1.306-.529,2.6-1.088Q3.156,62.16,1.8,62.6l-.016,0-.018.013a4.086,4.086,0,0,0-.615.55,2.121,2.121,0,0,0-.45.733l-.06.18.2.05c1.009.258,2.024.472,3.056.632a15.01,15.01,0,0,0,1.566.172c.133.007.265.014.4.012a3.633,3.633,0,0,0,.414-.011c.276-.025.537-.07.8-.119,1.034-.2,2.03-.5,3.026-.789s1.978-.625,2.958-.962c.49-.171.98-.341,1.465-.528" transform="translate(-0.332 -28.227)" fill="#4286f5"/>
      <path id="Path_79" data-name="Path 79" d="M5.659,65H5.517c-.149,0-.274-.006-.4-.013a15.3,15.3,0,0,1-1.591-.175c-1-.155-2.011-.363-3.079-.636L0,64.059l.143-.427a2.379,2.379,0,0,1,.5-.817A4.326,4.326,0,0,1,1.3,62.23l.083-.047c.92-.3,1.827-.586,2.737-.862l.167.456Q3,62.327,1.715,62.852a3.56,3.56,0,0,0-.457.479q-.041.052-.079.109c.943.169,1.738.289,2.481.375.611.066,1.073.1,1.5.114.12,0,.239.007.358,0h.056a2.492,2.492,0,0,0,.281-.015c.253-.03.513-.083.713-.126.849-.192,1.757-.44,2.942-.8l.14-.043c.919-.287,1.869-.584,2.794-.9l1.456-.5.25-.09-1.931-2.028C10.853,57.977,9.4,56.435,8,54.863l.343-.342C9.993,56,11.567,57.489,12.89,58.755l.522.5c.571.551,1.142,1.1,1.7,1.667l.207.21c.035.036.057.058.093.1l.09.11a.309.309,0,0,1,.024.033l.476.638-.443-.161a.563.563,0,0,1-.115.177l-.1.092-.013,0-.109.061c-.073.036-.133.062-.194.089-.264.112-.508.207-.754.3-.465.18-.934.343-1.4.507l-.068.024c-.942.324-1.947.664-2.97.965-1,.293-2.011.59-3.048.794-.253.048-.527.1-.822.123A2.977,2.977,0,0,1,5.659,65m-.132-.486a3.327,3.327,0,0,0,.392-.01,7.813,7.813,0,0,0,.776-.117c1.014-.2,2.014-.493,2.981-.777,1.035-.3,2.034-.644,2.97-.965l.068-.024c.464-.162.929-.324,1.389-.5h0c.241-.092.48-.185.723-.289.066-.029.119-.051.179-.081l.052-.028.2.156-.15-.191a.079.079,0,0,0-.008.011l.006-.011-.054-.021.016-.091-.02-.024c-.023-.025-.038-.041-.052-.055l-.223-.226c-.559-.562-1.127-1.111-1.7-1.66l-.1-.095L15,61.646l-.336.129q-.3.114-.6.223l-1.459.5c-.933.316-1.886.614-2.807.9l-.141.044c-1.2.368-2.118.619-2.981.815-.212.046-.487.1-.757.134a2.979,2.979,0,0,1-.332.019H5.532c-.124,0-.255,0-.387,0-.562-.017-1.117-.071-1.538-.117-.265-.03-.536-.065-.818-.1.272.05.542.1.812.137a14.777,14.777,0,0,0,1.541.17c.128.007.256.015.385.012" transform="translate(0 -28.036)" fill="#4286f5"/>
      <path id="Path_80" data-name="Path 80" d="M134,6.607c-2.165-.306-4.327-.63-6.489-.958L114.541,3.67l-6.491-.963c-2.167-.317-4.336-.591-6.5-.9A129.533,129.533,0,0,0,88.463.577,95.365,95.365,0,0,0,75.31.946,82.541,82.541,0,0,0,62.353,3.277,118.972,118.972,0,0,0,49.908,7.536q-6.1,2.382-12.115,4.973-4.669.912-9.236,2.272c-1.529.444-3.04.947-4.545,1.465-1.5.536-2.991,1.092-4.461,1.7a76.238,76.238,0,0,0-8.591,4.159c-1.382.788-2.74,1.621-4.057,2.515a37.152,37.152,0,0,0-3.8,2.9l-.059.052.042.067c.411.656.847,1.291,1.284,1.926s.881,1.264,1.329,1.891q1.343,1.88,2.706,3.745-1.32-1.9-2.618-3.806L4.5,29.48c-.41-.618-.819-1.238-1.2-1.869a37.4,37.4,0,0,1,3.761-2.755c1.326-.865,2.693-1.668,4.082-2.426A78.631,78.631,0,0,1,19.732,18.4c1.469-.591,2.959-1.126,4.455-1.642,1.5-.5,3.01-.981,4.535-1.4,3.045-.865,6.13-1.584,9.237-2.187l.035-.007.034-.015q6.029-2.561,12.143-4.931A118.385,118.385,0,0,1,62.551,4.024,85.615,85.615,0,0,1,75.385,1.687a94.559,94.559,0,0,1,13.052-.415c2.178.078,4.354.224,6.526.424s4.339.453,6.507.727,4.342.53,6.506.822l6.5.889,6.5.909,6.5.878c2.168.288,4.336.572,6.507.838s4.344.516,6.524.692c-2.175-.225-4.339-.541-6.5-.843" transform="translate(-1.566 -0.257)" fill="#4286f5"/>
      <path id="Path_81" data-name="Path 81" d="M7.878,35.087Q6.514,33.221,5.17,31.34c-.449-.628-.89-1.26-1.331-1.894s-.875-1.271-1.291-1.935L2.4,27.27l.213-.189a38.041,38.041,0,0,1,3.821-2.916c1.243-.845,2.575-1.671,4.073-2.526a75.875,75.875,0,0,1,8.618-4.172c1.269-.528,2.648-1.054,4.472-1.707,1.343-.462,2.933-1,4.559-1.469,3.063-.908,6.17-1.673,9.232-2.272,4.215-1.809,8.173-3.434,12.1-4.966A119.682,119.682,0,0,1,61.957,2.785a83.108,83.108,0,0,1,13-2.338A95.89,95.89,0,0,1,88.14.078a129.1,129.1,0,0,1,13.111,1.237q1.364.192,2.731.374c1.257.169,2.513.339,3.77.522l6.491.963,12.97,1.98c1.909.29,4.171.63,6.485.957l.818.114c1.859.261,3.78.531,5.678.728l-.045.484c-2.392-.193-4.749-.472-6.534-.693-2.33-.286-4.6-.584-6.509-.838l-6.5-.878-12.994-1.8c-1.255-.169-2.514-.324-3.774-.479-.91-.112-1.821-.224-2.731-.342-2.385-.3-4.511-.539-6.5-.726-2.248-.206-4.439-.348-6.511-.423a94.7,94.7,0,0,0-13.019.414A85.6,85.6,0,0,0,62.279,4,118.556,118.556,0,0,0,49.923,8.181c-3.881,1.5-7.964,3.157-12.134,4.928l-.082.03c-3.253.632-6.354,1.367-9.252,2.189-1.606.446-3.188.959-4.525,1.4-1.22.422-2.831.99-4.44,1.638a78.662,78.662,0,0,0-8.568,4.018C9.427,23.2,8.1,23.992,6.857,24.8a38.414,38.414,0,0,0-3.578,2.6c.34.552.7,1.093,1.088,1.684L5.657,31q1.3,1.908,2.616,3.8ZM84.2.486C81.076.486,78,.635,75,.931A82.617,82.617,0,0,0,62.082,3.255a119.1,119.1,0,0,0-12.42,4.251c-3.929,1.534-7.889,3.16-12.107,4.97l-.049.015c-3.056.6-6.156,1.359-9.214,2.266-1.618.47-3.2,1-4.535,1.462-1.807.647-3.177,1.17-4.435,1.692,1.615-.649,3.227-1.218,4.453-1.641,1.345-.445,2.935-.96,4.549-1.409,2.91-.826,6.024-1.564,9.255-2.191,4.2-1.78,8.283-3.44,12.17-4.941a118.967,118.967,0,0,1,12.408-4.2A86.12,86.12,0,0,1,75.027,1.188,95.209,95.209,0,0,1,88.113.772c2.082.074,4.282.217,6.539.424,1.993.188,4.124.426,6.515.728.91.118,1.819.23,2.729.342,1.261.155,2.521.311,3.779.48l4.928.674-4.922-.73c-1.254-.183-2.51-.353-3.764-.522q-1.367-.184-2.734-.374A128.558,128.558,0,0,0,88.121.563Q86.153.486,84.2.486" transform="translate(-1.233 0)" fill="#4286f5"/>
      <path id="Path_82" data-name="Path 82" d="M178.5,10.459c-.249-.55-.5-1.1-.791-1.632.187.576.4,1.142.606,1.708s.428,1.128.646,1.689l.665,1.68c.111.28.221.56.325.842s.208.564.3.852a10.927,10.927,0,0,0-.441-1.761c-.183-.577-.394-1.144-.611-1.708s-.452-1.121-.7-1.67" transform="translate(-91.383 -4.539)" fill="#4286f5"/>
      <path id="Path_83" data-name="Path 83" d="M179.783,15.555l-.018-.055c-.089-.264-.178-.526-.282-.784-.106-.287-.215-.565-.325-.843l-.809-2.051c-.171-.44-.342-.881-.5-1.325-.195-.526-.416-1.123-.609-1.716l.445-.19c.3.567.574,1.15.8,1.645.258.564.493,1.142.709,1.681s.429,1.131.616,1.724a11.067,11.067,0,0,1,.45,1.8Z" transform="translate(-91.138 -4.418)" fill="#4286f5"/>
      <path id="Path_84" data-name="Path 84" d="M109.473,23.639a3.485,3.485,0,0,1,.39-.015c.132,0,.267,0,.4.006.54.016,1.086.057,1.631.091l3.28.259c1.095.085,2.191.168,3.294.217-1.076-.242-2.162-.428-3.251-.594-.544-.082-1.09-.157-1.637-.222s-1.1-.124-1.645-.17-1.1-.087-1.66-.092c-.139,0-.279-.006-.422,0a3.932,3.932,0,0,0-.433.023,2.92,2.92,0,0,0-.856.233,7.466,7.466,0,0,0-1.46.856,12.145,12.145,0,0,0-1.278,1.073l-.107.1.114.077c.46.308.923.613,1.394.906-.373-.339-.755-.666-1.139-.991a11.9,11.9,0,0,1,2.649-1.589,2.5,2.5,0,0,1,.735-.171" transform="translate(-54.362 -11.886)" fill="#4286f5"/>
      <path id="Path_85" data-name="Path 85" d="M106.69,26.338c-.474-.294-.939-.6-1.4-.91l-.365-.244.325-.312a12.508,12.508,0,0,1,1.3-1.094,7.6,7.6,0,0,1,1.507-.884,3.191,3.191,0,0,1,.936-.252,2.2,2.2,0,0,1,.306-.019l.131,0c.151-.006.3,0,.44,0,.584.005,1.171.051,1.675.093.564.047,1.121.1,1.655.171s1.1.14,1.643.222c1.311.2,2.318.384,3.268.6l-.064.48c-1.066-.048-2.126-.126-3.3-.217l-3.665-.284c-.413-.027-.825-.053-1.234-.066-.132-.005-.262-.01-.388-.006a3.335,3.335,0,0,0-.359.012l-.034,0a2.306,2.306,0,0,0-.66.157,11.11,11.11,0,0,0-2.34,1.372c.307.262.612.527.912.8Zm2.374-2.956h0Zm.495-.259c.1,0,.2,0,.307.008.412.012.831.039,1.249.066l1.684.128c-.422-.049-.854-.091-1.292-.128-.5-.042-1.072-.086-1.642-.091-.137,0-.272-.006-.409,0l-.146,0a2.695,2.695,0,0,0-.647.087,1.821,1.821,0,0,1,.38-.056,2.21,2.21,0,0,1,.277-.014h.124l.114,0" transform="translate(-53.954 -11.629)" fill="#4286f5"/>
      <path id="Path_86" data-name="Path 86" d="M48.525,90.249c-3.99.1-7.98.154-11.97.194l-11.97.059-11.97-.058-5.985-.07L.645,90.249l5.985-.124,5.985-.07L24.585,90l11.97.059c3.99.04,7.98.089,11.97.194" transform="translate(-0.332 -46.277)" fill="#4286f5"/>
      <path id="Path_87" data-name="Path 87" d="M24.581,90.488,12.609,90.43l-5.987-.07L.635,90.235v-.486l5.985-.124,5.987-.071L24.579,89.5l11.972.059c3.612.037,7.812.085,11.975.194v.486c-4.161.109-8.362.157-11.974.194Zm-2.074-.5,2.074.01,2.042-.01-2.045-.01Z" transform="translate(-0.327 -46.02)" fill="#4286f5"/>
    </g>
  </g>
</svg>
