<svg xmlns="http://www.w3.org/2000/svg" width="20.725" height="16.119" viewBox="0 0 20.725 16.119">
  <path id="Icon_awesome-book-open" data-name="Icon awesome-book-open" d="M19.509,2.252c-1.972.112-5.891.519-8.31,2a.553.553,0,0,0-.262.474V17.818a.569.569,0,0,0,.838.485,21.945,21.945,0,0,1,7.869-1.688,1.122,1.122,0,0,0,1.08-1.1V3.356a1.128,1.128,0,0,0-1.215-1.1Zm-9.984,2c-2.419-1.481-6.338-1.888-8.31-2A1.128,1.128,0,0,0,0,3.356V15.512a1.122,1.122,0,0,0,1.08,1.1A21.943,21.943,0,0,1,8.952,18.3a.568.568,0,0,0,.835-.484V4.719A.542.542,0,0,0,9.525,4.252Z" transform="translate(0 -2.25)" fill="#4286f5"/>
</svg>
