<svg id="Group_8461" data-name="Group 8461" xmlns="http://www.w3.org/2000/svg" xmlns:xlink="http://www.w3.org/1999/xlink" width="56.023" height="61.088" viewBox="0 0 56.023 61.088">
  <defs>
    <clipPath id="clip-path">
      <rect id="Rectangle_1672" data-name="Rectangle 1672" width="56.023" height="61.088" fill="#4286f5" stroke="#fff" stroke-width="0.5"/>
    </clipPath>
  </defs>
  <g id="Group_8460" data-name="Group 8460" clip-path="url(#clip-path)">
    <path id="Path_7572" data-name="Path 7572" d="M25.029,0c1.265.244,2.557.4,3.792.746A18.735,18.735,0,0,1,42.229,16.4c.17,1.437.132,2.9.187,4.348.009.232,0,.465,0,.728a5.646,5.646,0,0,0,.59.028,4.042,4.042,0,0,1,4.233,4.234c0,4.02.008,8.04-.008,12.06a.872.872,0,0,0,.532.919c2.13,1.116,4.211,2.328,6.362,3.4a3.182,3.182,0,0,1,1.893,3.317A19.087,19.087,0,0,1,53.552,54a17.622,17.622,0,0,1-4.914,5.923c-.208.153-.43.288-.637.443a3.019,3.019,0,0,1-3.9.022,15.2,15.2,0,0,1-3.442-3.19,1.153,1.153,0,0,0-1.051-.482q-17.642.014-35.285.008A3.913,3.913,0,0,1,.053,52.689c-.09-3.142-.041-6.288-.03-9.432A1.158,1.158,0,0,1,1.236,42a1.2,1.2,0,0,1,1.187,1.359c.011,2.905-.009,5.811.018,8.716a4.345,4.345,0,0,0,.294,1.5,1.209,1.209,0,0,0,1.237.757q17.135-.01,34.27-.006c.115,0,.229-.012.394-.02-.386-.825-.774-1.6-1.115-2.4a18.4,18.4,0,0,1-1.465-6.416,3.2,3.2,0,0,1,1.9-3.374c2.153-1.068,4.234-2.281,6.364-3.4a.873.873,0,0,0,.535-.919c-.018-3.88-.006-7.761-.017-11.642a4.066,4.066,0,0,0-.157-1.173A1.4,1.4,0,0,0,43.164,23.9q-19.523,0-39.046,0a1.534,1.534,0,0,0-1.649,1.454,6.15,6.15,0,0,0-.04.893c0,2.03.009,4.06-.009,6.089a1.218,1.218,0,0,1-1.232,1.324A1.206,1.206,0,0,1,.02,32.344c-.013-2.209-.007-4.418,0-6.627a4.42,4.42,0,0,1,.74-2.48A3.6,3.6,0,0,1,3.91,21.5h.938c0-.869,0-1.68,0-2.49a18.46,18.46,0,0,1,5.995-13.94A18.261,18.261,0,0,1,21.706.1a3.851,3.851,0,0,0,.457-.1Zm9.218,21.472c0-1.151.05-2.246-.008-3.336a10.612,10.612,0,0,0-15.286-8.9c-5.121,2.6-6.4,7.134-5.913,12.235Zm-23.671.012c0-.8-.019-1.557.005-2.308a20.387,20.387,0,0,1,.147-2.379,13.047,13.047,0,0,1,24.793-3.382,13.471,13.471,0,0,1,1.172,5.678c0,.787,0,1.575,0,2.41h3.258c.534-7.375-1.842-13.339-8.393-16.984-6.074-3.38-12.185-2.9-17.772,1.232C8.538,9.629,6.794,15.121,7.3,21.483ZM38.482,45.521A16.367,16.367,0,0,0,40.6,52.779a15.149,15.149,0,0,0,4.767,5.558,1.058,1.058,0,0,0,1.382-.018,14.479,14.479,0,0,0,4.089-4.444,16.7,16.7,0,0,0,2.767-8.69A.85.85,0,0,0,53.1,44.3q-3.291-1.745-6.554-3.542a.892.892,0,0,0-.981,0c-2.035,1.122-4.072,2.243-6.141,3.3-.73.373-1.172.784-.938,1.466" transform="translate(0)" fill="#4286f5" stroke="#fff" stroke-width="0.5"/>
    <path id="Path_7573" data-name="Path 7573" d="M48.277,205.278a6.233,6.233,0,0,1-.212-9.234,6.151,6.151,0,1,1,8.135,9.223c.189.122.369.235.547.353a8.69,8.69,0,0,1,4.245,7.19,2.992,2.992,0,0,1-3.134,3.223q-5.608.024-11.216,0a3.068,3.068,0,0,1-3.152-3.508,8.894,8.894,0,0,1,4.339-6.964c.145-.094.293-.185.448-.283m3.955,8.36c1.829,0,3.658,0,5.487,0,.678,0,.905-.229.875-.9a6.012,6.012,0,0,0-1.372-3.489,6.177,6.177,0,0,0-6.665-2.309,6.748,6.748,0,0,0-4.646,5.654c-.051.862.122,1.043,1.014,1.044q2.654,0,5.308,0m-3.7-13.08A3.718,3.718,0,1,0,52.2,196.8a3.714,3.714,0,0,0-3.672,3.758" transform="translate(-37.145 -166.106)" fill="#4286f5" stroke="#fff" stroke-width="0.5"/>
    <path id="Path_7574" data-name="Path 7574" d="M180.74,221.341c-1.71,0-3.421,0-5.131,0-.886,0-1.4-.442-1.4-1.188s.507-1.2,1.385-1.206q5.131-.006,10.262,0a1.208,1.208,0,1,1,.018,2.393c-1.71.006-3.421,0-5.131,0" transform="translate(-148.844 -187.068)" fill="#4286f5" stroke="#fff" stroke-width="0.5"/>
    <path id="Path_7575" data-name="Path 7575" d="M179.034,265.631c-1.132,0-2.263,0-3.394,0-.922,0-1.442-.447-1.435-1.213.007-.744.518-1.18,1.4-1.181q3.454-.005,6.908,0c.887,0,1.4.436,1.405,1.18.008.768-.511,1.211-1.434,1.214-1.151,0-2.3,0-3.454,0" transform="translate(-148.842 -224.909)" fill="#4286f5" stroke="#fff" stroke-width="0.5"/>
    <path id="Path_7576" data-name="Path 7576" d="M1.405,251.658A1.19,1.19,0,0,1,2.58,252.84a1.232,1.232,0,0,1-1.225,1.21,1.2,1.2,0,0,1-1.161-1.258,1.166,1.166,0,0,1,1.211-1.134" transform="translate(-0.165 -215.019)" fill="#4286f5" stroke="#fff" stroke-width="0.5"/>
    <path id="Path_7577" data-name="Path 7577" d="M291.413,320.765c1.2-1.125,2.358-2.189,3.492-3.276a1.273,1.273,0,0,1,1.408-.368,1.163,1.163,0,0,1,.458,1.875c-1.43,1.522-2.9,3.012-4.372,4.489a1.107,1.107,0,0,1-1.573.006q-1.076-.944-2.093-1.955a1.158,1.158,0,0,1-.059-1.664,1.191,1.191,0,0,1,1.711-.063c.2.164.38.35.569.527l.459.43" transform="translate(-246.37 -270.881)" fill="#4286f5" stroke="#fff" stroke-width="0.5"/>
  </g>
</svg>
