<svg id="Group_8503" data-name="Group 8503" xmlns="http://www.w3.org/2000/svg" xmlns:xlink="http://www.w3.org/1999/xlink" width="60.171" height="56.392" viewBox="0 0 60.171 56.392">
  <defs>
    <clipPath id="clip-path">
      <rect id="Rectangle_1695" data-name="Rectangle 1695" width="60.171" height="56.392" fill="#4286f5"/>
    </clipPath>
  </defs>
  <g id="Group_8502" data-name="Group 8502" clip-path="url(#clip-path)">
    <path id="Path_7632" data-name="Path 7632" d="M95.271,0a36.218,36.218,0,0,1,3.794.689c8.748,2.534,14.1,8.267,15.952,17.2a20.024,20.024,0,0,1-1.6,12.192,55.287,55.287,0,0,1-8.469,13.254A98.08,98.08,0,0,1,94.61,54.058c-.659.589-1.018.618-1.638.086a81.179,81.179,0,0,1-15.154-16.75,32.588,32.588,0,0,1-5.075-11.021c-1.886-8.769.817-16.02,7.651-21.715A20.27,20.27,0,0,1,91.824.095a2.593,2.593,0,0,0,.392-.1ZM93.683,52.341c.179-.153.3-.249.412-.353a101.2,101.2,0,0,0,8.888-9.282,57.218,57.218,0,0,0,8.354-12.571A19.442,19.442,0,0,0,113.015,17.3,19.783,19.783,0,0,0,94.7,1.908a19.116,19.116,0,0,0-16.17,7.183,18.682,18.682,0,0,0-4.148,16.03,29.867,29.867,0,0,0,4.359,10.186A72.807,72.807,0,0,0,89.538,48.421c1.347,1.33,2.75,2.6,4.145,3.919" transform="translate(-63.664 0.001)" fill="#4286f5"/>
    <path id="Path_7633" data-name="Path 7633" d="M0,388.466q2.456-2.475,4.912-4.948a.914.914,0,0,1,1.065-.266.95.95,0,0,1,.6.978c0,.565,0,1.129,0,1.769h.66c4.013,0,8.025.01,12.037-.011a1.8,1.8,0,0,1,1.441.61c1.017,1.084,2.068,2.138,3.124,3.185.373.37.659.75.432,1.287-.217.516-.677.572-1.177.572q-7.869-.011-15.737,0H6.58c0,.608,0,1.187,0,1.765a.95.95,0,0,1-.6.979.917.917,0,0,1-1.066-.264q-2.46-2.47-4.912-4.947v-.7m21.11,1.292c-.534-.562-.989-1.009-1.406-1.49a1.078,1.078,0,0,0-.908-.4c-3.033.015-6.067.009-9.1.008-1.311,0-2.623.007-3.934,0a.948.948,0,0,1-1.062-.99c-.01-.121-.023-.241-.021-.218l-2.187,2.184,2.156,2.238c.17-1.2.324-1.331,1.564-1.331h14.9Z" transform="translate(0 -338.066)" fill="#4286f5"/>
    <path id="Path_7634" data-name="Path 7634" d="M321.5,391.648H305.053a1.179,1.179,0,0,1-.465-.011c-.316-.151-.765-.292-.866-.551a1.213,1.213,0,0,1,.19-1.049c1.14-1.263,2.328-2.486,3.544-3.676a1.56,1.56,0,0,1,1-.338c4.111-.022,8.221-.014,12.332-.015h.711c0-.6.008-1.159,0-1.718a.972.972,0,0,1,.612-1.032.96.96,0,0,1,1.107.315c1.494,1.5,2.994,2.985,4.482,4.487a.945.945,0,0,1,0,1.534c-1.487,1.5-2.987,2.992-4.482,4.487a.964.964,0,0,1-1.721-.714c.01-.546,0-1.091,0-1.718m-14.71-1.88h14c.509,0,1.018-.008,1.526,0a.952.952,0,0,1,1.058.994c.01.121.024.241.023.225l2.2-2.2-2.167-2.227c-.185,1.206-.324,1.322-1.62,1.322q-6.37,0-12.74.007a1.015,1.015,0,0,0-.642.164c-.537.506-1.028,1.061-1.641,1.709" transform="translate(-267.923 -338.076)" fill="#4286f5"/>
    <path id="Path_7635" data-name="Path 7635" d="M181.7,109.866h-7.52c0,.588.008,1.151,0,1.713a.961.961,0,0,1-1.094,1.076q-2.2.013-4.406,0a.955.955,0,0,1-1.075-1.093c-.006-2.467-.031-4.934.011-7.4a4.4,4.4,0,0,1,1.79-3.542,7.3,7.3,0,0,0,2.049-2.459,4.2,4.2,0,0,1,3.978-2.419c1.723,0,3.446-.02,5.169,0a4.091,4.091,0,0,1,3.759,2.288,8.176,8.176,0,0,0,2.189,2.642,4.337,4.337,0,0,1,1.718,3.458c.044,2.466.017,4.934.011,7.4,0,.77-.345,1.116-1.109,1.12q-2.173.012-4.347,0c-.771,0-1.109-.344-1.12-1.109-.008-.545,0-1.09,0-1.681m-3.824-1.907q3.668,0,7.336,0c.849,0,1.18-.328,1.186-1.161s.047-1.646-.016-2.463A5.743,5.743,0,0,0,186,102.88a.868.868,0,0,0-.956-.575c-4.636.023-9.272.014-13.908.014-.984,0-1.2.14-1.5,1.085a3.3,3.3,0,0,0-.149.919c-.02.8-.009,1.6-.006,2.406,0,.917.315,1.228,1.236,1.229q3.58,0,7.159,0m-5.555-7.557h11.239c-.351-.611-.649-1.2-1.015-1.748a2.2,2.2,0,0,0-1.877-1.028q-2.729-.019-5.459,0a2.2,2.2,0,0,0-1.877,1.03c-.366.545-.663,1.138-1.012,1.747m-.045,9.394h-2.757v.943h2.757Zm14.094.018h-2.755v.944h2.755Z" transform="translate(-147.857 -84.462)" fill="#4286f5"/>
    <path id="Path_7636" data-name="Path 7636" d="M195.3,169.253c.023.811-.6,1.328-1.185,1.091a16.477,16.477,0,0,1-2.147-1.066.92.92,0,0,1,.834-1.624,18.235,18.235,0,0,1,2.04,1.02c.238.139.369.46.459.579" transform="translate(-168.993 -147.845)" fill="#4286f5"/>
    <path id="Path_7637" data-name="Path 7637" d="M291.212,168.852a1.968,1.968,0,0,1-.493.606,18.48,18.48,0,0,1-1.932.975.925.925,0,0,1-.841-1.648c.651-.354,1.312-.695,1.993-.986.617-.264,1.271.2,1.273,1.053" transform="translate(-253.617 -147.98)" fill="#4286f5"/>
    <path id="Path_7638" data-name="Path 7638" d="M241.443,177.431c-.333,0-.667.023-1-.005a.924.924,0,0,1-.873-.933.909.909,0,0,1,.881-.923c.664-.03,1.332-.031,2,0a.909.909,0,0,1,.874.93.944.944,0,0,1-.881.93,1,1,0,0,1-.117,0h-.881v0" transform="translate(-211.368 -154.881)" fill="#4286f5"/>
  </g>
</svg>
