<svg xmlns="http://www.w3.org/2000/svg" xmlns:xlink="http://www.w3.org/1999/xlink" width="92.512" height="45.41" viewBox="0 0 92.512 45.41">
  <defs>
    <clipPath id="clip-path">
      <rect id="Rectangle_1722" data-name="Rectangle 1722" width="92.512" height="45.41" fill="#4286f5"/>
    </clipPath>
  </defs>
  <g id="Group_8626" data-name="Group 8626" transform="translate(-249 -19)">
    <g id="Group_8625" data-name="Group 8625" transform="translate(249 19)" clip-path="url(#clip-path)">
      <path id="Path_7674" data-name="Path 7674" d="M92.512,29.565c-.732,1.59-1.991,2.065-3.7,2.062Q58.284,31.571,27.76,31.6H26.4c.736.656,1.262,1.15,1.815,1.611a1.5,1.5,0,0,1,.656,1.725c-.255.729-.884.9-1.6.933-1.738.068-3.474.16-5.338.248.158.386.269.684.4.972Q23.668,40,25,42.9a5.058,5.058,0,0,1,.285.66,1.331,1.331,0,0,1-.739,1.721,1.26,1.26,0,0,1-1.73-.686c-.759-1.566-1.462-3.158-2.189-4.739-.384-.835-.77-1.669-1.2-2.6-1.271,1.33-2.455,2.6-3.686,3.831a2.5,2.5,0,0,1-1.2.708c-.858.16-1.451-.529-1.46-1.622-.022-2.493-.016-4.987-.02-7.48,0-.325,0-.65,0-1.09H11.831c-2.83,0-5.659.005-8.489,0C1.068,31.6.026,30.557.025,28.3.023,20.072.054,11.84,0,3.609A3.4,3.4,0,0,1,2.192,0H90.344a3.645,3.645,0,0,1,2.168,2.163ZM60.8,2.782h-58V28.848H13.048c0-1.813.01-3.577,0-5.341a1.588,1.588,0,0,1,.8-1.672c.712-.339,1.259.008,1.788.47,2.243,1.958,4.511,3.886,6.736,5.863a2.672,2.672,0,0,0,1.924.747q17.7-.036,35.4-.016h1.167v-1.16q0-8.426,0-16.852c0-1.539.431-2.225,1.373-2.2.914.028,1.336.713,1.337,2.174q0,8.471,0,16.942V28.82H89.727V2.784H63.615c-.161,1.127.325,2.7-1.355,2.747-1.874.056-1.243-1.654-1.455-2.749M24.165,33.289,15.84,26.074V36.657c.863-.768,1.768-1.642,2.752-2.416a3.378,3.378,0,0,1,1.567-.7c1.239-.159,2.5-.166,4.005-.249" transform="translate(0)" fill="#4286f5"/>
      <path id="Path_7675" data-name="Path 7675" d="M389.246,51.3c1.138,1.121,2.26,2.206,3.352,3.319.287.292.675.675.673,1.014a2.107,2.107,0,0,1-.546,1.382,1.129,1.129,0,0,1-1.628-.123c-1.086-1.038-2.162-2.088-3.2-3.172a.84.84,0,0,0-1.217-.187,7.027,7.027,0,0,1-7.71-.661,7.083,7.083,0,0,1,3.468-12.621,6.676,6.676,0,0,1,6.772,3.034,6.811,6.811,0,0,1,.369,7.415c-.083.159-.174.315-.331.6m-5.912.377a4.437,4.437,0,0,0,4.433-4.408,4.5,4.5,0,0,0-4.439-4.429,4.448,4.448,0,0,0-4.412,4.434,4.4,4.4,0,0,0,4.418,4.4" transform="translate(-308.103 -32.904)" fill="#4286f5"/>
      <path id="Path_7676" data-name="Path 7676" d="M34.8,42.006c0,2.821.01,5.642-.005,8.463-.006,1.123-.767,1.8-1.7,1.524a1.445,1.445,0,0,1-1-1.617c0-1.921,0-3.841,0-5.762q0-5.177,0-10.354c0-.24-.01-.481,0-.72a1.409,1.409,0,0,1,1.357-1.5,1.376,1.376,0,0,1,1.341,1.507c.023,1.59.008,3.181.008,4.772q0,1.846,0,3.691" transform="translate(-26.277 -26.238)" fill="#4286f5"/>
    </g>
  </g>
</svg>
