<svg id="Group_8835" data-name="Group 8835" xmlns="http://www.w3.org/2000/svg" xmlns:xlink="http://www.w3.org/1999/xlink" width="16.936" height="21.061" viewBox="0 0 16.936 21.061">
  <defs>
    <clipPath id="clip-path">
      <rect id="Rectangle_1762" data-name="Rectangle 1762" width="16.936" height="21.061" fill="#4286f5"/>
    </clipPath>
  </defs>
  <g id="Group_8834" data-name="Group 8834" clip-path="url(#clip-path)">
    <path id="Path_7694" data-name="Path 7694" d="M15.464,0a1.956,1.956,0,0,1,.948.452,1.492,1.492,0,0,1,.522,1.142c-.021.51-.115,1.016-.172,1.525q-.24,2.133-.476,4.267c-.148,1.362-.291,2.724-.435,4.087s-.284,2.7-.429,4.046-.266,2.728-.453,4.084a1.68,1.68,0,0,1-1.764,1.456q-3.679,0-7.358,0c-.959,0-1.918,0-2.878,0a2,2,0,0,1-1.961-1.435C.656,18.345.337,17.055.036,15.763a1.046,1.046,0,0,1,1.079-1.348c.656,0,1.312.075,1.968.121q1.9.134,3.791.273l2.357.168c.054,0,.108,0,.183,0q.167-.781.334-1.561.685-3.234,1.37-6.468a1.96,1.96,0,0,1,1.985-1.6c.486,0,.973-.007,1.459,0,.306.006.611.037.945.058l.174-1.478a9.989,9.989,0,0,1-2.538.086,1.438,1.438,0,0,1-1.385-1.629A2.533,2.533,0,0,1,12.514.581,2.474,2.474,0,0,1,13.738,0Z" transform="translate(0)" fill="#4286f5"/>
  </g>
</svg>
