<svg id="Group_8454" data-name="Group 8454" xmlns="http://www.w3.org/2000/svg" xmlns:xlink="http://www.w3.org/1999/xlink" width="61.023" height="61.029" viewBox="0 0 61.023 61.029">
  <defs>
    <clipPath id="clip-path">
      <rect id="Rectangle_1670" data-name="Rectangle 1670" width="61.023" height="61.029" fill="#4286f5"/>
    </clipPath>
  </defs>
  <g id="Group_8454-2" data-name="Group 8454" clip-path="url(#clip-path)">
    <path id="Path_7560" data-name="Path 7560" d="M30.43,0A30.714,30.714,0,0,1,61.02,30.9,30.512,30.512,0,1,1,30.43,0M2.111,30.526a28.4,28.4,0,1,0,28.432-28.4,28.417,28.417,0,0,0-28.432,28.4" transform="translate(0 -0.001)" fill="#4286f5"/>
    <path id="Path_7561" data-name="Path 7561" d="M85.112,60.877a24.342,24.342,0,1,1-24.33-24.371,24.385,24.385,0,0,1,24.33,24.371m-46.54,2.006c1.1,0,2.177-.012,3.251,0A17.272,17.272,0,0,1,57.751,74.379a17.649,17.649,0,0,1,.991,5.967c-.005.9,0,1.8,0,2.724h4.165a38.232,38.232,0,0,1,.029-4.774c.909-7.041,4.755-11.837,11.358-14.411a16.07,16.07,0,0,1,6.024-1.006c.879.007,1.759,0,2.828,0-.1-1.769-.184-3.45-.307-5.128a.731.731,0,0,0-.4-.464,52.74,52.74,0,0,0-18.1-4.431,53.806,53.806,0,0,0-11.876.52A51.524,51.524,0,0,0,39.08,57.3a.7.7,0,0,0-.378.419,18.642,18.642,0,0,0-.131,5.164m.766-7.929a56.252,56.252,0,0,1,42.857-.006,22.2,22.2,0,0,0-42.857.006M56.65,82.741C57.85,71.41,49.05,63.712,38.872,65A22.207,22.207,0,0,0,56.65,82.741m8.243.006a22.117,22.117,0,0,0,17.743-17.8c-11.416-1.073-18.895,7.525-17.743,17.8" transform="translate(-30.26 -30.324)" fill="#4286f5"/>
    <path id="Path_7562" data-name="Path 7562" d="M150.357,144.332a6.086,6.086,0,1,1-6.112,6.056,6.1,6.1,0,0,1,6.112-6.056m4.027,6.113a4.056,4.056,0,1,0-4.1,4.029,4.061,4.061,0,0,0,4.1-4.029" transform="translate(-119.819 -119.891)" fill="#4286f5"/>
    <rect id="Rectangle_1664" data-name="Rectangle 1664" width="1.957" height="1.946" transform="translate(18.38 26.504)" fill="#4286f5"/>
    <rect id="Rectangle_1665" data-name="Rectangle 1665" width="1.951" height="1.962" transform="translate(40.698 26.508)" fill="#4286f5"/>
    <rect id="Rectangle_1666" data-name="Rectangle 1666" width="1.95" height="1.952" transform="translate(14.311 28.53)" fill="#4286f5"/>
    <rect id="Rectangle_1667" data-name="Rectangle 1667" width="1.951" height="1.962" transform="translate(44.754 28.537)" fill="#4286f5"/>
    <rect id="Rectangle_1668" data-name="Rectangle 1668" width="1.968" height="1.957" transform="translate(18.364 30.568)" fill="#4286f5"/>
    <rect id="Rectangle_1669" data-name="Rectangle 1669" width="1.972" height="1.942" transform="translate(40.685 30.575)" fill="#4286f5"/>
  </g>
</svg>
