<?xml version="1.0" standalone="no"?>
<!DOCTYPE svg PUBLIC "-//W3C//DTD SVG 1.1//EN" "http://www.w3.org/Graphics/SVG/1.1/DTD/svg11.dtd" >
<svg xmlns="http://www.w3.org/2000/svg" xmlns:xlink="http://www.w3.org/1999/xlink" version="1.1">
<metadata>
Created by FontForge 20170731 at Thu May 19 13:24:09 2022
 By Aleksey,,,
Copyright (c) 2016 by Greg Lindy. All rights reserved.
</metadata>
<defs>
<font id="Fabriga-Italic" horiz-adv-x="1015" >
  <font-face 
    font-family="Fabriga"
    font-weight="400"
    font-style="italic"
    font-stretch="normal"
    units-per-em="2048"
    panose-1="2 11 5 3 3 2 2 11 2 4"
    ascent="1638"
    descent="-410"
    x-height="1024"
    cap-height="1331"
    bbox="-360 -473 2722 1999"
    underline-thickness="102"
    underline-position="-307"
    slope="-9"
    unicode-range="U+000D-FF3F"
  />
<missing-glyph horiz-adv-x="360" 
 />
    <glyph glyph-name="fi" unicode="fi" horiz-adv-x="1265" 
d="M1290 1362q0 -64 -39 -104q-38 -39 -110 -39q-50 0 -85 31q-36 32 -36 73q0 35 11 57q13 26 30 43q41 41 110 41q48 0 83 -29q36 -30 36 -73zM1010 1024h186l-162 -1024h-186zM317 1018l19 110q29 176 122 256q94 80 255 80q45 0 80 -6q40 -7 79 -20l-24 -154h-33
q-34 14 -58 18q-33 5 -59 5q-78 0 -119 -41q-40 -40 -55 -133l-18 -109h295l-25 -152h-295l-137 -872h-186l137 872h-154l17 103z" />
    <glyph glyph-name="fl" unicode="fl" horiz-adv-x="1390" 
d="M317 1018l19 110q29 176 122 256q94 80 255 80q45 0 80 -6q40 -7 79 -20l-24 -154h-33q-34 14 -58 18q-33 5 -59 5q-78 0 -119 -41q-40 -40 -55 -133l-18 -109h295l-25 -152h-295l-137 -872h-186l137 872h-154l17 103zM1090 305q-15 -92 16 -123q30 -30 135 -18h33
l-25 -158q-23 -6 -56 -9q-35 -3 -50 -3q-289 0 -238 319l176 1121h187z" />
    <glyph glyph-name="f_dotlessi" unicode="f&#x131;" horiz-adv-x="1265" 
d="M317 1018l19 110q29 176 122 256q94 80 255 80q45 0 80 -6q40 -7 79 -20l-24 -154h-33q-34 14 -58 18q-33 5 -59 5q-78 0 -119 -41q-40 -40 -55 -133l-18 -109h295l-25 -152h-295l-137 -872h-186l137 872h-154l17 103zM1010 1024h186l-162 -1024h-186z" />
    <glyph glyph-name=".notdef" horiz-adv-x="360" 
 />
    <glyph glyph-name=".null" horiz-adv-x="0" 
 />
    <glyph glyph-name=".null" horiz-adv-x="0" 
 />
    <glyph glyph-name="nonmarkingreturn" unicode="&#xd;" horiz-adv-x="512" 
 />
    <glyph glyph-name="space" unicode=" " horiz-adv-x="360" 
 />
    <glyph glyph-name="exclam" unicode="!" horiz-adv-x="626" 
d="M217 410l123 921h207l-4 -31l-166 -890h-160zM385 137q0 -70 -47 -111q-46 -40 -109 -40q-50 0 -82 26t-32 74q0 72 47 111q46 39 108 39q48 0 82 -26q33 -26 33 -73z" />
    <glyph glyph-name="quotedbl" unicode="&#x22;" horiz-adv-x="780" 
d="M578 1331h182l-4 -31l-99 -436h-125l41 436zM279 1331h182l-4 -31l-99 -436h-125l41 436z" />
    <glyph glyph-name="numbersign" unicode="#" horiz-adv-x="1337" 
d="M870 821h-270l-78 -274h273zM756 410h-271l-114 -410h-144l4 31l107 379h-209l23 137h225l76 274h-209l20 135h228l104 375h141l-4 -31l-96 -344h272l105 375h139l-4 -31l-96 -344h209l-21 -135h-225l-78 -274h211l-23 -137h-225l-115 -410h-141l4 31z" />
    <glyph glyph-name="dollar" unicode="$" horiz-adv-x="1081" 
d="M399 858q33 -32 101 -55l57 360q-88 -12 -142 -63q-55 -52 -55 -131q0 -46 12 -70q14 -28 27 -41zM729 518q-22 23 -47 36q-27 14 -57 24l-64 -404q100 15 156 76q57 62 57 153q0 40 -12 67t-33 48zM344 -215l37 238q-76 17 -134 52q-61 37 -103 86t-60 111
q-18 60 -10 129l2 17h184q-10 -77 28 -143q37 -64 120 -91l69 435q-64 17 -121 40t-106 72q-38 35 -60 84q-22 48 -22 113q0 90 33 159q35 73 89 120q60 52 132 79q77 29 160 33l28 178h152l-29 -190q134 -28 210 -116q75 -88 65 -216v-17h-172q4 65 -25 119t-104 76
l-62 -393q62 -20 128 -48q61 -26 110 -75q41 -41 62 -92q22 -53 22 -123q0 -84 -31 -158q-30 -72 -87 -126q-58 -55 -136 -86q-81 -32 -178 -38l-35 -229h-156z" />
    <glyph glyph-name="percent" unicode="%" horiz-adv-x="1302" 
d="M272 1249q44 46 102 68q57 22 124 22q97 0 164 -58t67 -163q0 -75 -28 -145q-27 -68 -74 -113q-44 -41 -100 -60q-58 -20 -119 -20q-96 0 -164 59t-68 162q0 73 26 139q26 65 70 109zM139 31l936 1300h142l-5 -31l-942 -1300h-135zM315 1026q0 -52 28 -88q27 -35 85 -35
q74 0 118 58t44 135q0 51 -28 87q-27 34 -83 34q-74 0 -119 -57t-45 -134zM717 459q43 45 101 67q60 23 124 23q96 0 164 -59t68 -162q0 -76 -28 -146q-26 -64 -75 -112q-46 -43 -99 -61q-56 -19 -120 -19q-97 0 -164 58t-67 163q0 75 25 138q26 65 71 110zM760 236
q0 -54 27 -89q27 -34 85 -34q75 0 118 57q44 58 44 135q0 53 -27 87t-83 34q-75 0 -119 -56q-45 -57 -45 -134z" />
    <glyph glyph-name="ampersand" unicode="&#x26;" horiz-adv-x="1452" 
d="M784 1274q-43 0 -81 -19q-36 -18 -60 -51q-25 -35 -38 -76q-13 -42 -13 -90q0 -51 11 -95q12 -49 30 -95q59 31 99 55q48 28 86 65q39 38 61 81q22 44 22 100q0 49 -31 88q-30 37 -86 37zM324 338q0 -116 74 -163q75 -48 192 -48q68 0 132 16q67 17 120 50
q-90 90 -168 197q-72 99 -142 237q-95 -56 -151 -134q-57 -79 -57 -155zM1110 -25q-56 35 -139 103q-81 -50 -185 -80q-108 -31 -227 -31q-86 0 -168 19q-78 18 -136 58t-91 103t-33 154q0 146 91 267q92 122 239 206q-25 70 -41 126q-19 66 -19 124q0 88 29 161
q29 74 80 126q51 53 124 83q70 29 159 29q75 0 126 -20q55 -21 90 -55q34 -33 53 -80q17 -42 17 -94q0 -94 -31 -162q-31 -69 -85 -124q-51 -53 -123 -98q-71 -45 -144 -85q63 -120 132 -216q67 -94 157 -190q50 64 72 121q24 61 24 137q0 59 -11 102q-12 48 -30 86l7 31
h174q19 -42 29 -96q10 -57 10 -102q0 -112 -36 -204t-112 -177q58 -51 100 -83q45 -34 97 -71l-6 -31z" />
    <glyph glyph-name="quotesingle" unicode="'" horiz-adv-x="481" 
d="M279 1331h182l-4 -31l-99 -436h-125l41 436z" />
    <glyph glyph-name="parenleft" unicode="(" horiz-adv-x="630" 
d="M655 1399q-143 -249 -233 -536q-88 -280 -88 -587q0 -122 15 -248q15 -123 50 -255l-4 -27h-145q-59 155 -82 293q-25 150 -25 283q0 291 95 570q94 277 268 533h153z" />
    <glyph glyph-name="parenright" unicode=")" horiz-adv-x="630" 
d="M0 -227q144 250 233 535q89 284 89 587q0 115 -16 249q-15 123 -50 255l4 26h146q58 -152 81 -292q25 -150 25 -283q0 -294 -94 -570q-95 -279 -268 -534h-154z" />
    <glyph glyph-name="asterisk" unicode="*" horiz-adv-x="845" 
d="M649 1423l-59 -194l190 94l29 -168l-203 -29l115 -141l-152 -102l-57 180l-117 -180l-125 100l166 141l-194 33l84 166l161 -94l-2 194h164z" />
    <glyph glyph-name="plus" unicode="+" horiz-adv-x="1239" 
d="M565 758l70 438h184l-69 -438h426l-27 -170h-426l-70 -438h-184l70 438h-424l26 170h424z" />
    <glyph glyph-name="comma" unicode="," horiz-adv-x="626" 
d="M434 270l-2 -24l-285 -506h-133l185 530h235z" />
    <glyph glyph-name="hyphen" unicode="-" horiz-adv-x="884" 
d="M766 684l-27 -168h-594l27 168h594z" />
    <glyph glyph-name="period" unicode="." horiz-adv-x="626" 
d="M336 23q-23 -20 -48 -28q-27 -9 -57 -9q-49 0 -83 30q-33 29 -33 72q0 32 12 58q12 25 31 44q46 46 112 46q45 0 81 -28q34 -27 34 -71q0 -75 -49 -114z" />
    <glyph glyph-name="slash" unicode="/" horiz-adv-x="1009" 
d="M-51 -254l4 29l950 1650h182l-4 -28l-950 -1651h-182z" />
    <glyph glyph-name="zero" unicode="0" horiz-adv-x="1212" 
d="M864 86q-68 -59 -153 -88t-170 -29q-111 0 -192 36t-133 100q-52 65 -78 156q-25 90 -25 202q0 109 15 215q15 104 47 204q29 91 79 182q46 84 108 148q75 75 167 112q94 38 192 38q109 0 190 -35t133 -99q54 -66 79 -156q26 -93 26 -202q0 -108 -19 -228
q-17 -110 -53 -217q-34 -101 -88 -191q-51 -85 -125 -148zM547 141q103 0 180 65q75 63 125 168q50 106 74 232q24 129 24 258q0 146 -53 235t-184 89q-104 0 -181 -65q-74 -62 -124 -169q-49 -104 -73 -233t-24 -258q0 -142 54 -233q53 -89 182 -89z" />
    <glyph glyph-name="one" unicode="1" horiz-adv-x="643" 
d="M332 1008h-230l23 131q116 6 200 46q83 39 121 154h134l-211 -1339h-195z" />
    <glyph glyph-name="two" unicode="2" horiz-adv-x="1132" 
d="M379 168h582l-27 -168h-889l18 121q73 57 156 126q86 72 164 140q52 45 158 141q61 55 135 129q56 55 93 102q40 50 62 88q25 44 35 84q11 44 11 89q0 78 -57 126t-161 48q-62 0 -110 -19t-85 -53t-57 -72q-22 -43 -28 -81q-3 -17 -5 -51q-1 -17 1 -48l-4 -28h-181
q0 5 -1 16t-2 16q-1 11 -1 33q0 101 36 185q35 82 101 143q62 58 152 93q87 34 191 34q91 0 167 -26q73 -25 126 -70q53 -46 80 -108q28 -65 28 -138q0 -137 -69 -245t-183 -222q-85 -85 -204 -187q-134 -115 -232 -194v-4z" />
    <glyph glyph-name="three" unicode="3" horiz-adv-x="1093" 
d="M784 1167v4h-557l25 160h801l-19 -119l-373 -389q61 -11 120 -39q61 -30 104 -74t71 -110q27 -63 27 -141q0 -106 -38 -196q-37 -88 -105 -154q-66 -65 -161 -103q-92 -37 -202 -37q-207 0 -322 92q-114 91 -114 240v33q0 14 4 33h191q0 -2 -1.5 -8.5t-1.5 -9.5v-15
q0 -92 62 -148q61 -55 190 -55q131 0 216 82t85 233q0 97 -66 160q-67 64 -200 64q-31 0 -54 -4q-26 -4 -42 -9l-27 21v98z" />
    <glyph glyph-name="four" unicode="4" horiz-adv-x="1198" 
d="M848 1331h211l-131 -835h190l-26 -172h-191l-51 -324h-195l52 324h-672l-2 149zM272 487q30 2 56 2h45h364l88 486q5 29 12 75q8 52 13 74h-4q-28 -38 -52 -65q-33 -38 -53 -58l-393 -430q-19 -19 -36 -37q-34 -36 -40 -42v-5z" />
    <glyph glyph-name="five" unicode="5" horiz-adv-x="1081" 
d="M367 1331h690l-27 -160h-522l-94 -376q29 5 61 6q44 2 66 2q65 0 146 -19q77 -18 140 -60q65 -43 105 -110q41 -68 41 -165q0 -105 -44 -195q-44 -89 -120 -152q-78 -64 -178 -98q-103 -35 -219 -35q-99 0 -201 24t-180 81l30 184h33q68 -54 146 -85q81 -32 176 -32
q82 0 148 24q72 26 114 63q48 42 73 93t25 109q0 55 -24 94q-24 38 -66 65q-39 24 -94 37q-48 11 -111 11q-78 0 -148 -12q-71 -12 -128 -33l-25 26z" />
    <glyph glyph-name="six" unicode="6" horiz-adv-x="1134" 
d="M76 352q0 76 19 149q20 79 53 148q38 80 80 143q41 61 100 130q110 124 204 218q113 113 228 191h237l-4 -31l-143 -106q-70 -51 -141 -119q-26 -23 -65 -59q-38 -34 -75 -72q-3 -3 -69 -72q-34 -36 -51 -61l2 -2q48 29 105 41q58 12 128 12q65 0 131 -24q63 -23 118 -70
q53 -45 84 -111q32 -67 32 -149q0 -114 -37 -212q-38 -100 -107 -172q-70 -73 -169 -115t-224 -42q-103 0 -188 31q-82 30 -138 83t-83 122t-27 149zM604 698q-80 0 -139 -26q-62 -27 -104 -72q-41 -44 -64 -106q-23 -63 -23 -132q0 -42 16 -87q14 -40 46 -73q29 -31 79 -51
q49 -20 113 -20q76 0 136 30q58 29 101 78t63 107q22 63 22 121q0 100 -58 165q-59 66 -188 66z" />
    <glyph glyph-name="seven" unicode="7" horiz-adv-x="1103" 
d="M1188 1331l-27 -168q-143 -109 -279 -254q-130 -139 -235 -289q-100 -144 -184 -309q-80 -159 -131 -311h-199l4 31q38 121 103 258q64 137 139 260q78 130 172 250q91 117 199 225q36 36 87 80q39 34 85 61v4h-709l23 162h952z" />
    <glyph glyph-name="eight" unicode="8" horiz-adv-x="1157" 
d="M1030 418q0 -111 -43 -196q-43 -84 -115 -141q-71 -56 -166 -85q-96 -29 -200 -29q-202 0 -316 90t-114 246q0 63 19 120q18 55 55 111q34 52 83 95q45 40 107 69l2 4q-46 34 -83 93q-38 61 -38 149q0 87 38 165q37 75 101 133q61 56 148 88q85 32 176 32q87 0 162 -23
t126 -65q52 -43 82 -105q29 -59 29 -137q0 -116 -60 -208q-59 -90 -153 -144l-2 -4q67 -38 114 -103q48 -66 48 -155zM893 1020q0 82 -51 135t-156 53q-62 0 -112 -21q-49 -21 -86 -58q-36 -35 -55 -82q-19 -45 -19 -99q0 -73 50 -131q50 -57 154 -57q62 0 112 21
q48 20 87 58q35 34 56 83q20 48 20 98zM840 395q0 92 -67 145q-65 52 -183 52q-70 0 -128 -21q-61 -22 -102 -56t-66 -85q-24 -50 -24 -108q0 -82 63 -139q62 -56 185 -56q75 0 135 21q59 21 102 59q42 38 63 85q22 50 22 103z" />
    <glyph glyph-name="nine" unicode="9" horiz-adv-x="1134" 
d="M1108 979q0 -76 -19 -149q-19 -74 -54 -148q-36 -77 -80 -142q-45 -67 -99 -130q-110 -124 -205 -219q-115 -115 -227 -191h-238l4 31l144 106q70 51 141 119q22 19 66 59q12 11 73 72q26 26 70 72q34 36 51 61l-2 2q-48 -29 -105 -41q-58 -12 -128 -12q-62 0 -131 25
q-65 24 -118 69q-52 44 -84 112q-32 67 -32 148q0 115 37 213t107 171q71 74 168 115q99 42 225 42q108 0 189 -30t136 -82q56 -53 83 -123q28 -73 28 -150zM580 633q80 0 139 26q61 27 103 72q43 46 65 107q22 60 22 131q0 45 -15 87q-14 40 -46 73q-31 32 -79 52
q-47 19 -114 19q-75 0 -135 -30q-61 -30 -100 -77q-42 -50 -64 -108q-22 -59 -22 -121q0 -100 58 -165q58 -66 188 -66z" />
    <glyph glyph-name="colon" unicode=":" horiz-adv-x="626" 
d="M336 23q-23 -20 -48 -28q-27 -9 -57 -9q-49 0 -83 30q-33 29 -33 72q0 32 12 58q12 25 31 44q46 46 112 46q45 0 81 -28q34 -27 34 -71q0 -75 -49 -114zM449 733q-20 -17 -49 -27q-30 -10 -56 -10q-47 0 -83 31q-34 30 -34 72q0 30 13 58q12 26 30 44q45 45 113 45
q47 0 81 -27t34 -71q0 -76 -49 -115z" />
    <glyph glyph-name="semicolon" unicode=";" horiz-adv-x="626" 
d="M393 270l-2 -24l-285 -506h-133l185 530h235zM463 733q-21 -18 -48 -27q-30 -10 -57 -10q-47 0 -83 31q-33 29 -33 72q0 33 12 58t31 44q45 45 112 45q47 0 81 -27t34 -71q0 -76 -49 -115z" />
    <glyph glyph-name="less" unicode="&#x3c;" horiz-adv-x="1300" 
d="M418 662l688 -365l-35 -195l-913 502l22 141l1071 498l-32 -215l-801 -362v-4z" />
    <glyph glyph-name="equal" unicode="=" horiz-adv-x="1320" 
d="M1245 932l-26 -166h-1035l27 166h1034zM1188 573l-27 -165h-1034l27 165h1034z" />
    <glyph glyph-name="greater" unicode="&#x3e;" horiz-adv-x="1300" 
d="M936 688l-686 363l33 192l911 -498l-23 -141l-1073 -502l35 217l803 365v4z" />
    <glyph glyph-name="question" unicode="?" horiz-adv-x="985" 
d="M442 766l17 14q138 10 223 74q84 63 86 188q0 68 -45 113t-127 45q-113 0 -164 -53q-51 -52 -63 -127h-174v16q12 91 57 157t108 105q58 36 123 49t129 13q75 0 138 -21q67 -22 110 -60q49 -42 74 -96q27 -57 27 -128q0 -140 -90 -250q-89 -109 -269 -148l-45 -243h-160z
M565 137q0 -65 -45 -108q-44 -43 -110 -43q-51 0 -84 27t-33 75q0 66 45 107q46 41 113 41q47 0 81 -26q33 -26 33 -73z" />
    <glyph glyph-name="at" unicode="@" horiz-adv-x="1593" 
d="M989 657q12 91 -24 119q-37 28 -138 33q-51 0 -105 -12q-53 -12 -104 -41h-24l18 114q103 56 256 56q115 0 188 -47q72 -47 72 -164q0 -29 -6 -66l-26 -168q-3 -11 -5 -34q-1 -12 -1 -29q0 -40 21 -62t56 -22q56 0 97 35q39 33 67 88q27 53 39 118q12 66 12 127
q0 104 -36 179q-37 78 -100 130t-147 79q-82 26 -184 26q-139 0 -259 -49q-123 -50 -213 -137q-91 -88 -144 -207q-53 -120 -53 -258q0 -110 38 -201q38 -90 105 -153q70 -65 162 -99q96 -35 209 -35q100 0 197 22q92 21 182 62h28l-18 -124q-100 -47 -187 -64
q-92 -18 -221 -18q-144 0 -261 43q-119 44 -200 120q-83 78 -128 188q-46 112 -46 243q0 191 83 355q82 162 227 271q108 83 241 123q135 41 279 41q123 0 228 -39q108 -40 183 -109q76 -70 120 -166t44 -210q0 -124 -40 -237q-41 -115 -111 -185q-80 -78 -203 -78
q-126 0 -172 104q-60 -79 -134 -106q-75 -27 -144 -27q-93 0 -161 54q-67 53 -67 139q0 59 25 117q24 56 67 90q40 34 97 51q54 16 118 16q61 0 106 -14q52 -16 89 -41zM619 401q0 -51 37 -76q38 -26 92 -26q38 0 71 13q37 14 65 37q30 24 49 52q18 26 23 60l5 24
q-32 27 -71 46q-36 18 -102 18q-76 0 -122 -42q-47 -42 -47 -106z" />
    <glyph glyph-name="A" unicode="A" horiz-adv-x="1347" 
d="M776 1092q-2 -3 -7 -14.5t-9 -19.5l-21 -43q-16 -33 -20 -39q-4 -7 -8.5 -15.5t-5.5 -10.5l-261 -463h476l-115 467q-4 20 -5 26q-4 24 -7 38l-9 41q-4 19 -4 33h-4zM350 315l-176 -315h-209l4 31l754 1300h168l346 -1300l-4 -31h-193l-77 315h-613z" />
    <glyph glyph-name="B" unicode="B" horiz-adv-x="1234" 
d="M952 680q71 -28 123 -93q53 -67 53 -165q0 -183 -116 -299q-68 -68 -165 -96q-95 -27 -194 -27h-553l209 1331h492q80 0 144 -16q69 -17 115 -53q49 -38 76 -95t27 -139q0 -49 -13 -98q-14 -52 -40 -97q-27 -46 -67 -85q-43 -41 -91 -64v-4zM412 762h336q49 0 88 21
q37 20 67 56q31 37 44 76q16 46 16 89q0 22 -9 54q-8 27 -24 51q-15 22 -44 38q-25 14 -69 14h-342zM319 170h357q125 0 191 71q67 72 67 181q0 29 -8 61q-8 30 -30 56q-23 26 -58 40q-37 15 -95 15h-358z" />
    <glyph glyph-name="C" unicode="C" horiz-adv-x="1394" 
d="M360 1153q104 104 232 156q130 53 276 53q128 0 219 -36q95 -38 153 -98q61 -64 89 -147q29 -85 29 -182l-2 -16h-187q-1 58 -18 114q-17 58 -53 98q-38 42 -100 66q-66 25 -156 25q-118 0 -213 -52q-96 -52 -165 -141q-70 -90 -107 -199q-38 -112 -38 -233
q0 -91 24 -168q23 -75 69 -131t111 -86q68 -31 155 -31q84 0 153 27q71 28 123 71q57 47 92 103q37 59 58 127h190l-2 -16q-28 -110 -86 -201q-59 -93 -139 -154q-84 -64 -187 -98q-107 -35 -229 -35q-117 0 -217 38q-97 37 -168 109q-69 70 -108 171t-39 225q0 92 14 173
q16 93 44 170q32 87 76 160q48 79 107 138z" />
    <glyph glyph-name="D" unicode="D" horiz-adv-x="1402" 
d="M774 1331q134 0 240 -38q104 -37 176 -106q70 -67 108 -166q37 -96 37 -218q0 -182 -58 -338q-59 -158 -173 -272q-103 -103 -244 -148t-295 -45h-465l209 1331h465zM319 172h256q138 0 242 46q105 46 175 127t108 194q37 111 37 245q0 180 -102 278q-101 97 -308 97
h-252z" />
    <glyph glyph-name="E" unicode="E" horiz-adv-x="1134" 
d="M1102 1159h-627l-61 -395h538l-28 -172h-539l-66 -420h627l-26 -172h-820l209 1331h819z" />
    <glyph glyph-name="F" unicode="F" horiz-adv-x="1116" 
d="M1122 1159h-647l-69 -436h559l-27 -172h-559l-86 -551h-193l209 1331h840z" />
    <glyph glyph-name="G" unicode="G" horiz-adv-x="1499" 
d="M1311 233q-45 -53 -113 -103q-68 -49 -143 -84q-74 -34 -168 -56q-90 -21 -187 -21q-140 0 -247 40q-110 41 -184 111q-74 69 -113 169q-39 99 -39 217q0 199 63 365q63 167 174 278q105 105 241 159q137 54 294 54q97 0 186 -27t155 -81t105 -134t39 -188l-2 -19h-190
q0 137 -90 205q-91 68 -238 68q-126 0 -224 -52q-99 -53 -169 -142q-71 -91 -108 -204q-38 -116 -38 -241q0 -85 25 -163q24 -74 76 -128q51 -53 131 -83q79 -30 188 -30q103 0 208 41q104 41 190 113l36 233h-391l27 172h581z" />
    <glyph glyph-name="H" unicode="H" horiz-adv-x="1480" 
d="M309 1331h193l-88 -567h735l88 567h193l-209 -1331h-193l92 592h-735l-92 -592h-193z" />
    <glyph glyph-name="I" unicode="I" horiz-adv-x="552" 
d="M309 1331h193l-209 -1331h-193z" />
    <glyph glyph-name="J" unicode="J" horiz-adv-x="839" 
d="M57 178q29 -15 70 -26q39 -11 80 -11q116 0 172 65t74 185l147 940h188l-153 -977q-15 -85 -45 -157q-29 -70 -82 -123t-126 -79q-78 -28 -177 -28q-43 0 -106 13q-59 12 -99 36l25 162h32z" />
    <glyph glyph-name="K" unicode="K" horiz-adv-x="1261" 
d="M395 649l-102 -649h-193l209 1331h193l-92 -581l659 581h229l-4 -31l-692 -608l512 -661l-4 -31h-213z" />
    <glyph glyph-name="L" unicode="L" horiz-adv-x="1073" 
d="M502 1331l-183 -1159h607l-27 -172h-799l209 1331h193z" />
    <glyph glyph-name="M" unicode="M" horiz-adv-x="1863" 
d="M797 20l-199 754q-19 75 -29 134q-12 69 -18 132h-4q-20 -78 -34 -130q-21 -75 -40 -136l-231 -774h-195l4 31l404 1300h190l256 -1016l578 1016h198l-6 -1300l-4 -31h-192l8 774q1 52 5 136q4 86 7 130h-4q-29 -63 -63 -132q-45 -90 -70 -134l-434 -754h-127z" />
    <glyph glyph-name="N" unicode="N" horiz-adv-x="1470" 
d="M309 1331h205l416 -774q4 -6 29 -55q26 -50 39 -77q26 -54 37 -76q21 -42 26 -54h6q5 23 9 60q1 10 11 81q2 17 7 45.5t6 36.5q7 44 8 62l119 751h192l-209 -1331h-194l-420 774q-13 22 -30 55q-6 12 -20 38t-21 40q-34 66 -40 78q-23 49 -26 55h-6q-1 -7 -4 -26.5
t-4 -32.5q-2 -14 -11 -82q-4 -29 -12 -83q-7 -46 -10 -62l-119 -754h-193z" />
    <glyph glyph-name="O" unicode="O" horiz-adv-x="1517" 
d="M1200 172q-105 -105 -237 -154t-289 -49q-123 0 -224 40q-102 40 -176 113q-73 71 -115 174q-42 102 -42 224q0 188 64 353q65 168 171 274q116 116 252 166q134 49 291 49q124 0 225 -40q104 -41 176 -112q74 -72 114 -174q40 -101 40 -227q0 -185 -65 -351t-185 -286z
M702 145q120 0 222 52q101 51 173 138q71 85 112 202q40 113 40 241q0 89 -23 161q-24 74 -72 130q-49 56 -120 86q-74 31 -170 31q-122 0 -224 -51q-98 -49 -173 -138q-72 -86 -111 -199q-39 -114 -39 -239q0 -87 24 -164q24 -75 72 -131q47 -55 121 -87q73 -32 168 -32z
" />
    <glyph glyph-name="P" unicode="P" horiz-adv-x="1232" 
d="M356 403l-63 -403h-193l209 1331h535q84 0 154 -27q69 -26 122 -78q51 -49 80 -120q29 -70 29 -154q-1 -109 -40 -217q-37 -103 -116 -182q-81 -81 -181 -116q-98 -34 -220 -34h-316zM709 575q71 0 133 28q56 25 101 75q43 48 65 109q22 62 22 133q0 107 -50 174
q-49 65 -165 65h-340l-92 -584h326z" />
    <glyph glyph-name="Q" unicode="Q" horiz-adv-x="1517" 
d="M979 -233l-148 217q-53 -10 -77 -12q-39 -3 -80 -3q-123 0 -224 40q-102 40 -176 113q-73 71 -115 174q-42 102 -42 224q0 188 64 353q65 168 171 274q116 116 252 166q134 49 291 49q124 0 225 -40q104 -41 176 -112q74 -72 114 -174q40 -101 40 -227q0 -185 -65 -351
t-185 -286q-81 -81 -184 -131l178 -248l-6 -26h-209zM702 145q120 0 222 52q101 51 173 138q71 85 112 202q40 113 40 241q0 89 -23 161q-24 74 -72 130q-49 56 -120 86q-74 31 -170 31q-122 0 -224 -51q-98 -49 -173 -138q-72 -86 -111 -199q-39 -114 -39 -239
q0 -87 24 -164q24 -75 72 -131q47 -55 121 -87q73 -32 168 -32z" />
    <glyph glyph-name="R" unicode="R" horiz-adv-x="1245" 
d="M702 680q129 0 210 81q82 82 83 210q0 83 -46 135q-47 53 -156 53h-318l-76 -479h303zM100 0l209 1331h512q82 0 149 -22q66 -21 117 -65q50 -42 78 -100q29 -60 29 -130q0 -226 -141 -367q-45 -45 -115 -81q-63 -32 -145 -48l299 -487l-5 -31h-196l-309 504h-211
l-78 -504h-193z" />
    <glyph glyph-name="S" unicode="S" horiz-adv-x="1165" 
d="M201 940q0 97 38 176t103 131q69 55 152 81q89 28 180 28q98 0 179 -27q79 -26 136 -74q56 -47 83 -114q28 -70 22 -152l-2 -16h-183q5 44 -7 83q-12 41 -40 70q-31 33 -76 50q-46 18 -116 18q-119 0 -191 -56q-73 -57 -73 -155q0 -50 11 -73q13 -28 29 -44
q33 -33 100 -55q64 -21 138 -42q65 -19 147 -52q74 -30 130 -86q40 -40 64 -96q24 -55 24 -132q0 -97 -36 -176t-102 -138q-67 -59 -158 -90q-94 -32 -208 -32q-105 0 -191 33q-88 34 -146 89q-62 59 -89 132q-29 78 -19 160l2 16h197q-8 -54 5 -98q14 -48 47 -84
q34 -37 86 -58q55 -22 122 -22q129 0 207 69t78 179q0 39 -13 71q-12 30 -34 52q-40 40 -106 60q-76 23 -136 38q-71 18 -142 45t-126 82q-39 39 -63 91q-23 50 -23 118z" />
    <glyph glyph-name="T" unicode="T" horiz-adv-x="1159" 
d="M1200 1331l-26 -172h-386l-182 -1159h-194l182 1159h-404l27 172h983z" />
    <glyph glyph-name="U" unicode="U" horiz-adv-x="1374" 
d="M1196 465q-40 -256 -180 -376t-408 -120q-116 0 -207 30t-151 91t-84 155q-25 95 -4 220l137 866h193l-140 -891q-27 -162 51 -231q79 -70 230 -70q138 0 241 71t130 230l139 891h190z" />
    <glyph glyph-name="V" unicode="V" horiz-adv-x="1359" 
d="M631 240q2 3 7 14t9 19q18 36 22 43t20 39q2 4 4 8.5t3.5 7.5t3 5.5t2.5 4.5l535 950h207l-4 -31l-756 -1300h-168l-346 1300l4 31h188l240 -954q4 -20 5 -26q4 -24 7 -38l9 -41q4 -19 4 -32h4z" />
    <glyph glyph-name="W" unicode="W" horiz-adv-x="1855" 
d="M1257 422q0 -2 2 -16t3 -24q0 -8 1.5 -25.5t2.5 -26.5q1 -10 2.5 -26.5t1.5 -23.5q2 -32 2 -38h4q12 30 15 38q7 18 21 50q5 10 12 28.5t9 23.5q4 9 9.5 22t7.5 18l405 909h197l-4 -31l-596 -1300h-209l-125 1079h-4l-461 -1079h-209l-186 1300l4 31h188l119 -909
q1 -5 2.5 -18.5t2.5 -21.5q4 -34 5 -52q1 -10 2.5 -26.5t1.5 -23.5q2 -32 2 -38h4q1 3 7 16t9 22q12 32 19 50t21 52q3 8 6 15t6 14.5t4 10.5l383 909h217z" />
    <glyph glyph-name="X" unicode="X" horiz-adv-x="1282" 
d="M555 707l-283 593l4 31h191l213 -471l373 471h209l-5 -31l-481 -589l350 -680l-4 -31h-188l-281 559l-475 -559h-211l4 31z" />
    <glyph glyph-name="Y" unicode="Y" horiz-adv-x="1245" 
d="M528 520l-366 780l4 31h194l281 -629l479 629h217l-4 -31l-610 -780l-82 -520h-195z" />
    <glyph glyph-name="Z" unicode="Z" horiz-adv-x="1220" 
d="M1243 1331l-18 -119l-871 -1036v-4h688l-26 -172h-959l19 121l868 1034v4h-670l27 172h942z" />
    <glyph glyph-name="bracketleft" unicode="[" horiz-adv-x="696" 
d="M694 1425l-24 -155h-195l-217 -1368h195l-25 -156h-371l267 1679h370z" />
    <glyph glyph-name="backslash" unicode="\" horiz-adv-x="1009" 
d="M637 -254l-426 1651l4 28h182l426 -1650l-4 -29h-182z" />
    <glyph glyph-name="bracketright" unicode="]" horiz-adv-x="696" 
d="M2 -254l25 156h194l217 1368h-194l24 155h371l-266 -1679h-371z" />
    <glyph glyph-name="asciicircum" unicode="^" horiz-adv-x="907" 
d="M713 795l-150 366l-258 -366h-194l389 536h162l225 -536h-174z" />
    <glyph glyph-name="underscore" unicode="_" horiz-adv-x="598" 
d="M489 -207l-26 -162h-604l26 162h604z" />
    <glyph glyph-name="grave" unicode="`" 
d="M383 1348l115 161l405 -290l-67 -103z" />
    <glyph glyph-name="a" unicode="a" horiz-adv-x="1095" 
d="M266 276q0 -76 45 -113q46 -38 119 -38q46 0 99 18q51 18 99 53q46 34 80 80t42 103l12 82q-44 16 -102 22q-54 6 -107 6q-51 0 -102 -12q-52 -12 -93 -38q-42 -26 -66 -65q-26 -41 -26 -98zM172 498q77 77 184 107q106 30 211 30q52 0 109 -7q64 -8 108 -22l7 33
q3 19 7 57q3 28 3 39q0 81 -46 124q-47 44 -147 44q-88 0 -150 -40t-79 -126h-174v17q22 82 62 137q41 56 100 93q54 34 126 53q69 18 144 18q74 0 146 -24q73 -25 126 -77q60 -60 70 -144q10 -83 -2 -167l-100 -643h-140l-16 98h-4q-62 -61 -154 -96q-91 -35 -182 -35
q-60 0 -118 20q-55 19 -98 57q-43 39 -67 92q-24 54 -24 124q0 140 98 238z" />
    <glyph glyph-name="b" unicode="b" horiz-adv-x="1284" 
d="M997 119q-79 -79 -180 -113q-102 -34 -217 -39q-114 0 -200 45q-85 45 -126 107h-6l-57 -119h-131l225 1434h187l-80 -516h4q81 76 174 107q92 30 190 30q79 0 155 -29q73 -28 131 -84q55 -53 90 -133q34 -77 34 -176q0 -151 -50 -287q-49 -133 -143 -227zM598 125
q94 0 169 39q76 40 126 104q51 66 78 153q26 84 26 181q0 129 -65 210q-66 83 -211 83q-94 0 -165 -40q-74 -41 -122 -106q-48 -64 -76 -154q-26 -84 -26 -181q0 -63 16 -114q16 -52 48 -91t82 -62q48 -22 120 -22z" />
    <glyph glyph-name="c" unicode="c" horiz-adv-x="1138" 
d="M291 905q79 79 175 113q100 36 214 37q85 0 162 -25q73 -24 127 -73t83 -116t29 -155l-4 -16h-168q0 117 -67 172t-174 55q-92 0 -163 -41t-119 -108q-49 -68 -74 -155q-25 -85 -25 -179q0 -129 64 -208t200 -79q116 0 195 58q80 59 114 171h172l-2 -16
q-47 -180 -175 -277q-127 -96 -339 -96q-91 0 -172 31q-77 30 -133 87q-55 56 -85 133q-30 76 -30 169q0 145 46 280t149 238z" />
    <glyph glyph-name="d" unicode="d" horiz-adv-x="1284" 
d="M686 897q-94 0 -169 -39q-76 -40 -126 -104q-51 -66 -78 -152q-26 -82 -26 -182q0 -125 66 -209t210 -84q80 0 148 31q64 29 112 83q50 56 78 121q31 72 43 148q12 80 5 147q-8 70 -38 123q-31 54 -86 85q-56 32 -139 32zM270 883q79 79 185 126q104 46 219 46
q109 0 192 -37q85 -38 131 -100h4l84 516h187l-228 -1434h-131l-20 123h-4q-77 -85 -176 -120q-101 -36 -207 -36q-74 0 -150 28q-72 26 -133 83q-59 54 -95 136q-36 80 -34 185q1 140 44 268q42 126 132 216z" />
    <glyph glyph-name="e" unicode="e" horiz-adv-x="1165" 
d="M668 897q-135 0 -224 -83q-88 -82 -127 -206h568q1 9 3 26q1 10 1 32q0 98 -54 164q-55 67 -167 67zM1014 287q-53 -155 -177 -237q-125 -83 -321 -83q-93 0 -172 32q-78 31 -133 88t-85 134q-30 78 -30 170q0 146 49 281q49 137 142 229q80 80 178 117t213 37
q96 0 170 -33q77 -34 124 -89q51 -59 76 -133q25 -75 25 -165q0 -47 -6 -90q-7 -49 -16 -90h-762q-2 -14 -2 -21v-20q0 -129 64 -208t200 -79q195 0 280 160h183z" />
    <glyph glyph-name="f" unicode="f" horiz-adv-x="811" 
d="M317 1018l19 110q29 176 122 256q94 80 255 80q98 0 180 -26l-25 -154h-32q-33 14 -69 18q-45 5 -69 5q-78 0 -119 -41q-40 -40 -55 -133l-18 -109h315l-24 -152h-316l-137 -872h-186l137 872h-154l17 103z" />
    <glyph glyph-name="g" unicode="g" horiz-adv-x="1118" 
d="M631 903q-119 0 -195 -64t-76 -182q0 -77 56 -118t151 -41q130 0 201 67q72 67 72 176q0 78 -56 120t-153 42zM979 -45q0 -93 -45 -160q-44 -65 -122 -110q-75 -43 -179 -64q-97 -20 -217 -20q-94 0 -168 14q-80 15 -139 46q-60 31 -96 81q-36 49 -36 121q0 70 46 137
q44 65 131 109q-18 23 -33 54t-15 70q0 71 41 124q38 49 103 89q-33 33 -55 86q-21 51 -21 117q0 91 34 166q35 79 96 129q64 53 150 83q87 30 193 30q77 0 148 -19l196 193h191l-4 -27l-242 -239q40 -37 64 -93t24 -127q0 -196 -128 -295q-129 -100 -349 -100q-51 0 -98 6
q-48 6 -89 23q-40 -16 -61 -51q-20 -33 -20 -66q0 -32 21 -53t69 -21h295q70 0 124 -17q58 -18 101 -48q41 -28 66 -74q24 -43 24 -94zM287 27q-47 -16 -86 -56q-37 -38 -37 -92q0 -59 70 -92t212 -33q44 0 102 6t111 27q57 23 92 55q37 34 37 95q0 42 -39 65
q-42 25 -126 25h-336z" />
    <glyph glyph-name="h" unicode="h" horiz-adv-x="1163" 
d="M80 0l227 1434h187l-82 -519h4q62 77 147 108q87 32 164 32q86 0 152 -30q65 -29 106 -83q40 -52 57 -126t5 -159l-103 -657h-184l98 625q8 53 4 97q-5 52 -24 86q-21 38 -63 60q-43 23 -109 23q-48 0 -97 -18t-92 -58t-76 -108q-32 -66 -49 -170l-86 -537h-186z" />
    <glyph glyph-name="i" unicode="i" horiz-adv-x="489" 
d="M514 1362q0 -64 -39 -104q-38 -39 -110 -39q-50 0 -85 31q-36 32 -36 73q0 35 11 57q13 26 30 43q41 41 110 41q48 0 83 -29q36 -30 36 -73zM233 1024h187l-162 -1024h-186z" />
    <glyph glyph-name="j" unicode="j" horiz-adv-x="491" 
d="M514 1362q0 -64 -39 -104q-38 -39 -110 -39q-50 0 -85 31q-36 32 -36 73q0 35 11 57q13 26 30 43q41 41 110 41q48 0 83 -29q36 -30 36 -73zM-178 -342q60 32 107 84q46 50 78 113q31 60 52 127q22 70 29 124l145 918h189l-152 -952q-24 -156 -99 -273
q-75 -118 -173 -168h-180z" />
    <glyph glyph-name="k" unicode="k" horiz-adv-x="1042" 
d="M346 508l-80 -508h-186l227 1434h187l-134 -834l449 424h223l-4 -25l-475 -454l391 -518l-4 -27h-205z" />
    <glyph glyph-name="l" unicode="l" horiz-adv-x="604" 
d="M303 305q-15 -92 16 -123q30 -30 136 -18h32l-24 -158q-23 -6 -56 -9q-35 -3 -51 -3q-288 0 -237 319l176 1121h186z" />
    <glyph glyph-name="m" unicode="m" horiz-adv-x="1744" 
d="M80 0l162 1024h129l16 -121h4q33 47 74 77q38 28 82 46q43 17 78 23q37 6 59 6q124 0 184 -48q59 -47 97 -126h4q67 98 163 136t191 38q170 0 253 -106q82 -105 54 -285l-104 -664h-187l99 625q22 138 -17 202q-40 64 -141 64q-109 0 -189 -74q-79 -73 -102 -225
l-94 -592h-184l98 625q22 139 -21 202q-44 64 -145 64q-113 0 -186 -75q-75 -76 -97 -216l-94 -600h-186z" />
    <glyph glyph-name="n" unicode="n" horiz-adv-x="1163" 
d="M381 1024l16 -121h4q72 89 156 120q85 32 170 32q86 0 152 -33t106 -89q41 -57 57 -133q17 -78 2 -163l-100 -637h-184l98 625q8 55 5 101q-3 47 -24 85q-20 36 -64 58t-109 22q-48 0 -97 -18t-92 -58t-76 -108q-32 -66 -49 -170l-86 -537h-186l162 1024h139z" />
    <glyph glyph-name="o" unicode="o" horiz-adv-x="1234" 
d="M279 891q91 91 192 125q102 34 227 39q90 0 172 -31q81 -31 141 -86t94 -134q34 -78 34 -175q-1 -148 -50 -280q-47 -128 -143 -224q-80 -80 -185 -119t-231 -39q-92 0 -172 30t-138 85t-91 133t-33 172q0 154 49 286q49 134 134 218zM555 127q94 0 165 40q75 42 123 106
q50 66 77 153q26 82 26 180q0 130 -64 210q-64 81 -204 81q-93 0 -165 -39q-75 -40 -123 -105q-50 -66 -77 -153q-26 -82 -26 -180q0 -129 64 -211t204 -82z" />
    <glyph glyph-name="p" unicode="p" horiz-adv-x="1284" 
d="M598 127q96 0 170 39q76 40 125 104q51 66 78 153q26 84 26 181q0 129 -65 210q-66 83 -211 83q-94 0 -165 -40q-74 -41 -122 -106q-48 -64 -76 -153q-26 -82 -26 -180q0 -62 15 -115q15 -52 47 -92q31 -38 83 -61t121 -23zM1010 137q-80 -80 -183 -124t-217 -44
q-109 0 -192 37q-85 38 -131 100h-4l-76 -475h-187l220 1393h131l20 -123h4q77 85 176 120q101 36 207 36q74 0 150 -28q71 -26 133 -82q58 -52 95 -134q36 -78 34 -182q-2 -147 -45 -274q-44 -129 -135 -220z" />
    <glyph glyph-name="q" unicode="q" horiz-adv-x="1284" 
d="M289 905q79 79 180 113q102 34 217 39q114 0 200 -45q85 -45 126 -107h6l57 119h131l-221 -1393h-186l75 475h-4q-81 -76 -174 -107q-92 -30 -190 -30q-79 0 -155 29q-72 28 -131 83q-54 51 -90 131q-34 75 -34 173q0 160 49 292q49 133 144 228zM688 899q-94 0 -169 -39
q-76 -40 -126 -104q-51 -66 -78 -152q-26 -82 -26 -182q0 -125 66 -209t210 -84q94 0 165 40q75 42 122 105q49 65 76 153q26 84 26 179q0 62 -15 115q-15 51 -47 93q-31 40 -82 63q-48 22 -122 22z" />
    <glyph glyph-name="r" unicode="r" horiz-adv-x="753" 
d="M80 0l162 1024h125l16 -164h4q50 85 143 128q96 44 189 44q18 0 32 -1q20 -1 31 -3l-28 -184h-58q-102 0 -167 -30t-102 -79q-39 -51 -56 -113q-19 -67 -29 -135l-76 -487h-186z" />
    <glyph glyph-name="s" unicode="s" horiz-adv-x="1009" 
d="M156 745q0 76 31 132q30 55 85 97q48 37 123 60q69 21 146 21q78 0 144 -18q68 -19 116 -49q49 -31 78 -77q28 -44 28 -98q0 -18 -1 -29q-2 -20 -5 -32h-172q2 14 2 15v9q0 58 -48 96q-47 37 -132 37q-83 0 -144 -35t-61 -110q0 -41 27 -68q35 -35 89 -53q50 -17 116 -36
q58 -17 122 -42q62 -24 109 -71q34 -34 51 -80t17 -88q0 -92 -35 -159q-36 -68 -93 -111q-60 -44 -135 -65q-80 -22 -157 -22q-87 0 -157 21q-73 22 -121 58q-51 39 -79 90q-28 52 -28 116q0 17 1 26q0 3 0.5 6.5t1 6.5t1 7t0.5 7l4 17h174q-4 -15 -4 -28v-22q0 -62 51 -108
q52 -47 156 -47q107 0 170 45t63 131q0 21 -7 41t-24 37q-35 35 -90 53q-65 21 -116 36q-58 17 -121 39q-60 21 -103 64q-73 73 -73 180z" />
    <glyph glyph-name="t" unicode="t" horiz-adv-x="770" 
d="M719 872h-285l-94 -596q-12 -76 22 -105q34 -30 82 -30q36 0 82 11q48 12 90 36h33l-26 -161q-40 -18 -92 -32q-48 -13 -109 -13q-152 0 -221 87q-70 88 -43 250l88 553h-148l15 91q62 21 107 53q49 35 81 71q35 40 59 83q24 44 41 85h95l-37 -231h284z" />
    <glyph glyph-name="u" unicode="u" horiz-adv-x="1118" 
d="M299 395q-7 -55 -3 -103q4 -47 29 -84q24 -36 66 -56q43 -21 109 -21q107 0 182 56q76 57 100 208l101 629h184l-106 -651q-38 -223 -163 -314q-127 -92 -321 -92q-84 0 -160 31q-72 29 -123 85t-73 130q-23 77 -8 166l102 645h184z" />
    <glyph glyph-name="v" unicode="v" horiz-adv-x="1048" 
d="M1110 1024l-4 -27l-571 -997h-181l-256 997l4 27h185l151 -678q3 -6 8 -31q1 -5 4.5 -20t5.5 -24q7 -35 8 -45q1 -7 2.5 -18t2.5 -15h4q2 3 7 14t9 19q2 5 6.5 13.5t8 16t7.5 14.5l21 43l17 33l364 678h197z" />
    <glyph glyph-name="w" unicode="w" horiz-adv-x="1648" 
d="M868 793l-379 -793h-192l-160 997l4 27h172l93 -649q1 -5 2.5 -16.5t2.5 -15.5q3 -19 6 -42q4 -31 5 -42q2 -26 2 -32h4q1 3 4.5 14t6.5 18q5 13 17 41t17 41q7 17 14 32l306 651h211l98 -653q1 -5 2.5 -16.5t2.5 -15.5q4 -26 5 -40q1 -7 2.5 -20.5t1.5 -19.5
q2 -26 2 -32h4q8 22 12 31q2 5 7.5 18.5t8.5 21.5q12 28 17 40q2 6 15 31l303 655h186l-4 -27l-477 -997h-193l-129 788v5z" />
    <glyph glyph-name="x" unicode="x" horiz-adv-x="1017" 
d="M629 539l297 -512l-4 -27h-181l-231 399l-360 -399h-207l4 27l456 516l-249 454l4 27h190l182 -350l293 350h207l-4 -27z" />
    <glyph glyph-name="y" unicode="y" horiz-adv-x="1048" 
d="M1110 1024l-4 -27l-780 -1366h-187l4 27l224 389l-269 950l4 27h183l170 -643q3 -10 16 -71q8 -35 16 -83h5q2 3 7 14.5t9 19.5t10.5 23.5t9.5 20.5q7 15 21 43l16 33l346 643h199z" />
    <glyph glyph-name="z" unicode="z" horiz-adv-x="989" 
d="M954 1024l-18 -119l-639 -749l-2 -4h524l-22 -152h-768l16 115l641 753v4h-502l25 152h745z" />
    <glyph glyph-name="braceleft" unicode="{" horiz-adv-x="802" 
d="M150 604q92 38 138 112q45 73 62 189l47 293q18 114 87 171q68 56 200 56h86l-25 -155h-92q-47 0 -62 -41q-16 -42 -26 -94l-43 -277q-12 -78 -33 -126q-23 -52 -44 -77q-24 -29 -49 -42q-12 -6 -50 -23v-4q23 -12 42 -25q21 -15 36 -43q14 -27 19 -78t-7 -127l-45 -276
q-8 -55 -5 -94q3 -41 50 -41h92l-24 -156h-86q-130 0 -179 70q-48 69 -30 184l45 295q18 116 -5 176q-24 61 -104 100z" />
    <glyph glyph-name="bar" unicode="|" horiz-adv-x="1062" 
d="M496 -258h-170l290 1843h170z" />
    <glyph glyph-name="braceright" unicode="}" horiz-adv-x="802" 
d="M653 567q-93 -38 -138 -111t-62 -190l-47 -293q-18 -113 -88 -171q-68 -56 -199 -56h-86l24 156h93q47 0 62 41q16 42 26 94l43 276q13 82 32 126q23 52 44 77q23 27 50 43t50 23v4q-28 14 -42 24q-21 15 -36 43q-16 30 -20 78q-4 47 8 127l45 277q8 55 5 94
q-3 41 -50 41h-93l25 155h86q131 0 179 -69t30 -185l-45 -294q-18 -117 5 -177q24 -61 103 -100z" />
    <glyph glyph-name="asciitilde" unicode="~" horiz-adv-x="1136" 
d="M166 637q61 35 127 54q61 18 115 18q47 0 97 -13q55 -14 91 -25q60 -18 90 -26q45 -12 96 -12q110 0 240 78l-25 -160q-60 -36 -123 -53q-62 -17 -112 -17t-97 12q-13 3 -44.5 11t-47.5 12q-60 16 -91 24q-43 11 -97 11q-52 0 -117 -20q-63 -19 -129 -54z" />
    <glyph glyph-name="uni00A0" unicode="&#xa0;" horiz-adv-x="360" 
 />
    <glyph glyph-name="exclamdown" unicode="&#xa1;" horiz-adv-x="626" 
d="M410 631l-123 -922h-207l4 31l166 891h160zM242 903q0 71 47 112q46 40 108 40q49 0 82 -27t33 -74q0 -71 -47 -110t-109 -39q-50 0 -82 25t-32 73z" />
    <glyph glyph-name="cent" unicode="&#xa2;" horiz-adv-x="1138" 
d="M1030 340q-44 -169 -159 -263q-118 -96 -304 -108l-35 -227h-149l37 233q-146 28 -236 141q-88 110 -88 271q0 145 46 280t149 238q62 62 136 96q80 37 163 48l39 251h149l-39 -247q152 -16 248 -112q94 -94 94 -255l-4 -16h-168q0 103 -53 159q-52 55 -141 66l-121 -766
q97 10 167 68q69 57 99 159h172zM287 414q0 -100 39 -171q40 -72 120 -100l117 738q-67 -21 -119 -68q-51 -47 -86 -110q-36 -65 -53 -137q-18 -75 -18 -152z" />
    <glyph glyph-name="sterling" unicode="&#xa3;" horiz-adv-x="1161" 
d="M1051 266q-10 -52 -32 -103q-21 -50 -58 -90q-38 -41 -93 -65q-56 -24 -135 -24q-72 0 -128 19q-55 19 -103 42q-18 8 -48 21t-37 16q-36 16 -93 16q-119 0 -134 -98h-176q11 115 84 188t211 78h15q18 38 24 86q6 50 6 78q0 65 -22 127h-205l25 158h122q-15 41 -28 98
q-13 55 -13 107q0 86 29 173q28 84 90 146q68 68 161 95q96 28 196 28q72 0 138 -22q62 -21 107 -61q48 -43 70 -96q25 -59 25 -126q0 -9 -2 -39q0 -7 -7 -57h-180q8 46 8 73q0 77 -44 123q-44 45 -142 45q-125 0 -188 -72q-64 -73 -64 -182q0 -50 15 -110t36 -123h381
l-24 -158h-312q13 -54 13 -94q0 -71 -11 -129q-12 -63 -30 -103q31 -12 119 -52q60 -27 128 -27q66 0 100 37t42 102h168z" />
    <glyph glyph-name="currency" unicode="&#xa4;" horiz-adv-x="1476" 
d="M1075 264q-72 -50 -144 -75q-79 -27 -167 -27t-168 27q-74 25 -145 75l-201 -201l-115 115l201 201q-48 69 -74 144q-26 77 -26 167t26 167q26 78 76 144l-203 203l115 115l201 -203q71 50 145 75q82 28 168 28q88 0 167 -27q75 -26 144 -74l201 201l115 -115l-201 -200
q49 -70 75 -146q27 -80 27 -168t-27 -167q-25 -72 -75 -144l201 -201l-115 -115zM764 1055q-75 0 -142 -29t-116 -78q-50 -50 -78 -115q-29 -67 -29 -143q0 -75 29 -142t78 -116t116 -78q65 -28 142 -28t142 28q67 29 116 78t78 116q28 65 28 142q0 78 -28 143t-78 115
q-49 49 -116 78t-142 29z" />
    <glyph glyph-name="yen" unicode="&#xa5;" horiz-adv-x="1245" 
d="M715 465l-74 -465h-195l74 465h-383l25 145h323l-53 115h-252l23 145h162l-203 430l4 31h194l281 -629l479 629h217l-4 -31l-336 -430h158l-22 -145h-250l-90 -115h321l-24 -145h-375z" />
    <glyph glyph-name="brokenbar" unicode="&#xa6;" horiz-adv-x="1062" 
d="M659 786h-170l127 799h170zM496 -258h-170l141 899h170z" />
    <glyph glyph-name="section" unicode="&#xa7;" horiz-adv-x="1075" 
d="M578 403q49 -14 70 -21q40 -14 63 -26q29 27 45 61q16 33 16 75q0 50 -24 82q-24 31 -64 53q-33 18 -88 31q-39 9 -100 22q-55 11 -93 27q-71 -55 -71 -138q0 -44 20 -68q21 -25 55 -43q32 -17 78 -29q72 -19 93 -26zM438 -324q-77 0 -151 23q-72 23 -127 64
q-55 42 -87 104t-32 139q0 27 1 36q2 20 5 30h191q-2 -14 -2 -18v-17q0 -80 49 -138q50 -59 168 -59q111 0 180 57t69 158q0 53 -23 82q-25 31 -63 50q-40 20 -89 32q-13 3 -47.5 12t-53.5 13q-67 18 -115 40q-55 25 -93 59q-37 33 -63 86q-24 49 -24 118q0 155 129 260
q-29 35 -44 80t-15 100q0 96 36 165t95 115q60 46 138 67q83 22 165 22q68 0 139 -19q70 -19 121 -55q54 -39 85 -90q32 -53 32 -125q0 -27 -1 -36q-2 -20 -5 -30h-179q4 36 -4 74q-8 37 -30 63q-23 27 -64 44q-39 16 -104 16q-121 0 -172 -58q-52 -60 -52 -134
q0 -44 21 -71q23 -30 54 -46q34 -18 78 -30q9 -2 91 -21q72 -16 133 -42q60 -26 102 -63q41 -36 65 -88q24 -51 24 -123t-29 -145q-28 -71 -86 -129q22 -32 34 -72q11 -36 11 -88q0 -106 -36 -184q-36 -79 -99 -128q-65 -51 -147 -75q-86 -25 -179 -25z" />
    <glyph glyph-name="dieresis" unicode="&#xa8;" 
d="M842 1391q48 0 82 -32q32 -31 32 -79q0 -57 -47 -96t-106 -39q-47 0 -79 30t-32 76q0 60 43 100t107 40zM461 1391q48 0 82 -32q32 -31 32 -79q0 -57 -47 -96q-46 -39 -106 -39q-48 0 -79 30q-32 30 -32 76q0 60 43 100t107 40z" />
    <glyph glyph-name="copyright" unicode="&#xa9;" horiz-adv-x="1591" 
d="M819 -23q-145 0 -273 55t-218 148q-94 97 -145 220q-52 125 -52 270q0 144 52 269q51 123 145 220q92 95 218 149t273 54q148 0 274 -54t218 -149q94 -97 145 -220q53 -127 53 -269q0 -143 -53 -270q-51 -123 -145 -220q-90 -93 -218 -148t-274 -55zM819 1241
q-116 0 -218 -45q-101 -45 -175 -123q-75 -79 -116 -181q-42 -104 -42 -222q0 -119 42 -224q41 -102 116 -182q74 -78 175 -123q102 -45 218 -45t218 45q100 44 176 123t117 182q42 105 42 224q0 118 -42 222q-42 103 -117 181q-76 79 -176 123q-102 45 -218 45zM827 930
q-101 0 -158 -75t-57 -181q0 -52 15 -99t43 -81q30 -36 70 -56t98 -20q87 0 130 49t58 121h133v-13q-18 -126 -110 -203t-224 -77q-71 0 -136 27t-112 74q-49 49 -76 116q-28 70 -28 150v26q0 80 28 150q26 65 76 115q48 48 112 75q65 27 136 27q131 0 223 -77
q91 -76 109 -206v-12h-131q-15 73 -60 121q-46 49 -139 49z" />
    <glyph glyph-name="ordfeminine" unicode="&#xaa;" horiz-adv-x="886" 
d="M348 788q0 -46 32 -70t81 -24q72 0 123 48q50 47 61 120l6 31q-29 11 -65 15q-42 5 -72 5q-31 0 -70 -9q-38 -9 -65 -36q-31 -31 -31 -80zM408 569q-91 0 -157 55q-65 54 -65 140q0 57 18 99q19 44 46 71q58 58 135 76q78 18 141 18q33 0 68 -4q40 -5 74 -12q3 13 7 41
q3 23 3 39q0 102 -119 102q-51 0 -90 -25q-36 -23 -47 -77h-154l2 10q23 109 107 160t184 51q60 0 105 -11q49 -12 86 -37q35 -24 59 -67q23 -41 23 -102q0 -23 -1 -37q-1 -20 -6 -37l-69 -428h-115l-20 65q-85 -90 -215 -90z" />
    <glyph glyph-name="guillemotleft" unicode="&#xab;" horiz-adv-x="1126" 
d="M457 911h215l-4 -28l-379 -381l237 -350l-4 -29h-190l-260 385l2 18zM887 911h215l-4 -28l-379 -381l237 -350l-4 -29h-190l-260 385l2 18z" />
    <glyph glyph-name="logicalnot" unicode="&#xac;" horiz-adv-x="1099" 
d="M150 991l24 156h922l-92 -588h-158l67 432h-763z" />
    <glyph glyph-name="registered" unicode="&#xae;" horiz-adv-x="1591" 
d="M819 -23q-145 0 -273 55t-218 148q-94 97 -145 220q-52 125 -52 270q0 144 52 269q51 123 145 220q92 95 218 149t273 54q148 0 274 -54t218 -149q94 -97 145 -220q53 -127 53 -269q0 -143 -53 -270q-51 -123 -145 -220q-90 -93 -218 -148t-274 -55zM819 1241
q-116 0 -218 -45q-101 -45 -175 -123q-75 -79 -116 -181q-42 -104 -42 -222q0 -119 42 -224q41 -102 116 -182q74 -78 175 -123q102 -45 218 -45t218 45q100 44 176 123t117 182q42 105 42 224q0 118 -42 222q-42 103 -117 181q-76 79 -176 123q-102 45 -218 45zM698 684
h150q69 0 99 38t30 85q0 41 -27 80t-92 39h-160v-242zM1108 797q0 -79 -40 -131q-42 -55 -105 -82l176 -240v-37h-129l-189 258h-123v-258h-131v737h287q50 0 97 -15q46 -15 81 -44q34 -28 55 -72t21 -98v-18z" />
    <glyph glyph-name="macron" unicode="&#xaf;" 
d="M942 1346l-29 -158h-606l29 158h606z" />
    <glyph glyph-name="degree" unicode="&#xb0;" horiz-adv-x="923" 
d="M203 971q0 83 28 151q29 70 80 121t124 80t159 29q54 0 107 -18q55 -19 94 -52q41 -35 65 -86q25 -53 25 -119q0 -79 -29 -149q-30 -71 -81 -120q-53 -50 -125 -80t-158 -30q-56 0 -108 18q-54 18 -92 51q-42 36 -65 85q-24 51 -24 119zM569 1196q-83 0 -135 -61
q-53 -62 -53 -150q0 -62 41 -97q40 -34 94 -34q82 0 136 60q55 61 55 151q0 63 -42 97q-41 34 -96 34z" />
    <glyph glyph-name="plusminus" unicode="&#xb1;" horiz-adv-x="1239" 
d="M594 932l53 336h184l-53 -336h385l-28 -170h-385l-54 -336h-184l53 336h-383l29 170h383zM1055 252l-27 -170h-952l26 170h953z" />
    <glyph glyph-name="uni00B2" unicode="&#xb2;" horiz-adv-x="604" 
d="M332 729h256l-19 -121h-499l12 84q85 60 196 145q88 68 146 140q49 61 64 95q16 37 16 73q0 38 -25 61t-65 23q-59 0 -96 -35q-34 -33 -39 -80q-4 -16 -3 -28q1 -11 0 -21l-2 -16h-124q-5 18 -5 34q0 60 23 111q23 50 59 82t86 50q47 17 105 17q106 0 169 -56
q64 -57 64 -144q0 -67 -36 -129q-35 -60 -93 -121q-37 -40 -89 -82q-51 -41 -101 -80v-2z" />
    <glyph glyph-name="uni00B3" unicode="&#xb3;" horiz-adv-x="614" 
d="M453 1214l2 3q-14 0 -52 -2q-19 -1 -51 -1h-170l19 117h448l-12 -84l-168 -180q58 -17 101 -68q42 -50 42 -127q0 -119 -75 -197q-76 -79 -218 -79q-99 0 -166 47t-67 133v19q0 4 2 18l2 10h133q-6 -112 107 -112q58 0 101 38q42 37 42 113q0 39 -26 70t-95 31
q-28 0 -63 -7l-13 11l-6 61z" />
    <glyph glyph-name="acute" unicode="&#xb4;" 
d="M836 1509l77 -170l-505 -231l-56 111z" />
    <glyph glyph-name="uni00B5" unicode="&#xb5;" horiz-adv-x="1245" 
d="M1206 1147l-180 -1147h-129l-18 121h-4q-35 -39 -80 -68q-45 -28 -93 -47q-46 -18 -93 -27q-52 -10 -83 -10q-34 0 -77 5q-28 3 -75 15q-38 9 -63 22t-41 30l-65 -410h-185l240 1516h184l-114 -731q-10 -59 -1 -111q9 -51 39 -90t79 -60q52 -22 122 -22q59 0 117 23
q60 24 105 66q44 41 79 111q33 66 45 152l105 662h186z" />
    <glyph glyph-name="paragraph" unicode="&#xb6;" horiz-adv-x="1134" 
d="M1004 1331l-209 -1331h-168l186 1184h-151l-80 -500h-37q-67 0 -119 17q-55 18 -96 53q-42 36 -66 88t-24 123q0 73 27 139q27 65 77 117q50 51 118 81q67 29 150 29h392z" />
    <glyph glyph-name="periodcentered" unicode="&#xb7;" horiz-adv-x="626" 
d="M336 512q-23 -20 -48 -28q-27 -9 -57 -9q-47 0 -83 31q-33 29 -33 72q0 32 12 58q12 25 31 44q45 45 112 45q45 0 81 -28q34 -27 34 -70q0 -76 -49 -115z" />
    <glyph glyph-name="cedilla" unicode="&#xb8;" 
d="M307 -127l76 127h131l-47 -90q34 -12 57 -41t23 -70q0 -44 -25 -78q-23 -32 -63 -55q-38 -22 -88 -34q-45 -11 -101 -11q-90 0 -153 25l20 116h21q33 -14 63 -19q32 -5 51 -5q8 0 36 2q20 1 41 8q19 6 33 20q13 13 13 37q0 49 -84 54z" />
    <glyph glyph-name="uni00B9" unicode="&#xb9;" horiz-adv-x="428" 
d="M301 1112h-168l14 98q81 7 137 28q52 19 85 93h106l-113 -723h-141z" />
    <glyph glyph-name="ordmasculine" unicode="&#xba;" horiz-adv-x="919" 
d="M295 1202q57 57 131 84q73 27 158 27q55 0 112 -20t99 -56t68 -90t26 -123q0 -98 -30 -183q-30 -86 -89 -145q-57 -60 -136 -88q-78 -28 -167 -28q-56 0 -110 18q-55 18 -96 55q-42 37 -67 91q-26 55 -26 124q0 102 34 188q35 88 93 146zM565 1186q-55 0 -99 -24
q-47 -26 -75 -64q-30 -41 -47 -96q-16 -52 -16 -115q0 -79 40 -128q41 -50 121 -50q59 0 102 24q45 25 75 67q31 43 47 95q16 51 16 109q0 80 -39 131t-125 51z" />
    <glyph glyph-name="guillemotright" unicode="&#xbb;" horiz-adv-x="1126" 
d="M260 123h-215l4 29l379 380l-238 351l5 28h190l260 -385l-2 -18zM690 123h-215l4 29l379 380l-237 351l4 28h190l260 -385l-2 -18z" />
    <glyph glyph-name="uni00BC" unicode="&#xbc;" horiz-adv-x="1394" 
d="M301 1112h-168l14 98q81 7 137 28q52 19 85 93h106l-113 -723h-141zM1120 723h152l-66 -422h101l-21 -123h-100l-27 -178h-141l26 178h-350v92zM1100 471q2 8 4.5 23.5t3.5 20.5q1 8 3.5 24t4.5 24h-4q-17 -23 -53 -65l-131 -148q-29 -32 -54 -53l-2 -2q14 2 25 2h29h145
zM98 31l1008 1300h145l-4 -33l-1009 -1298h-146z" />
    <glyph glyph-name="uni00BD" unicode="&#xbd;" horiz-adv-x="1384" 
d="M301 1112h-168l14 98q81 7 137 28q52 19 85 93h106l-113 -723h-141zM98 31l1008 1300h145l-4 -33l-1009 -1298h-146zM1016 121h256l-19 -121h-499l12 84q100 70 196 144q86 66 146 141q49 61 64 95q16 37 16 73q0 38 -25 61t-65 23q-59 0 -96 -35q-34 -33 -39 -80
q-4 -14 -2 -28q1 -11 0 -21l-3 -17h-124q-5 18 -5 35q0 60 23 111q23 50 59 82t86 50q47 17 105 17q106 0 169 -56q64 -57 64 -144q0 -67 -36 -129q-35 -60 -93 -121q-37 -40 -89 -82q-51 -41 -101 -80v-2z" />
    <glyph glyph-name="uni00BE" unicode="&#xbe;" horiz-adv-x="1552" 
d="M1278 723h152l-66 -422h100l-20 -123h-101l-26 -178h-141l26 178h-350v92zM1257 471q6 28 9 44q1 8 3.5 24t4.5 24h-4q-17 -23 -53 -65l-132 -148q-32 -35 -53 -53l-2 -2q14 2 25 2h28h146zM258 31l1008 1300h145l-4 -33l-1010 -1298h-145zM453 1214l2 3q-14 0 -52 -2
q-19 -1 -51 -1h-170l19 117h448l-12 -84l-168 -180q58 -17 101 -68q42 -50 42 -127q0 -119 -75 -197q-76 -79 -218 -79q-99 0 -166 47t-67 133v19q0 4 2 18l2 10h133q-6 -112 107 -112q58 0 101 38q42 37 42 113q0 39 -26 70t-95 31q-28 0 -63 -7l-13 11l-6 61z" />
    <glyph glyph-name="questiondown" unicode="&#xbf;" horiz-adv-x="944" 
d="M543 274l-17 -14q-138 -10 -223 -74q-84 -63 -86 -188q0 -68 45 -113t127 -45q112 0 164 54q51 52 63 126h175v-16q-12 -89 -58 -157q-45 -66 -108 -105q-55 -34 -123 -48q-65 -13 -129 -13q-77 0 -137 20q-68 23 -111 60q-48 42 -74 97t-26 128q0 141 89 250
q88 108 269 147l45 244h160zM420 903q0 65 45 109q44 43 110 43q50 0 84 -28q33 -27 33 -75q0 -66 -45 -106q-46 -41 -112 -41q-50 0 -82 25q-33 26 -33 73z" />
    <glyph glyph-name="Agrave" unicode="&#xc0;" horiz-adv-x="1347" 
d="M776 1092q-2 -3 -7 -14.5t-9 -19.5l-21 -43q-16 -33 -20 -39q-4 -7 -8.5 -15.5t-5.5 -10.5l-261 -463h476l-115 467q-4 20 -5 26q-4 24 -7 38l-9 41q-4 19 -4 33h-4zM350 315l-176 -315h-209l4 31l754 1300h168l346 -1300l-4 -31h-193l-77 315h-613zM598 1655l115 162
l405 -291l-67 -103z" />
    <glyph glyph-name="Aacute" unicode="&#xc1;" horiz-adv-x="1347" 
d="M776 1092q-2 -3 -7 -14.5t-9 -19.5l-21 -43q-16 -33 -20 -39q-4 -7 -8.5 -15.5t-5.5 -10.5l-261 -463h476l-115 467q-4 20 -5 26q-4 24 -7 38l-9 41q-4 19 -4 33h-4zM350 315l-176 -315h-209l4 31l754 1300h168l346 -1300l-4 -31h-193l-77 315h-613zM1061 1817l78 -170
l-506 -232l-55 111z" />
    <glyph glyph-name="Acircumflex" unicode="&#xc2;" horiz-adv-x="1347" 
d="M776 1092q-2 -3 -7 -14.5t-9 -19.5l-21 -43q-16 -33 -20 -39q-4 -7 -8.5 -15.5t-5.5 -10.5l-261 -463h476l-115 467q-4 20 -5 26q-4 24 -7 38l-9 41q-4 19 -4 33h-4zM350 315l-176 -315h-209l4 31l754 1300h168l346 -1300l-4 -31h-193l-77 315h-613zM858 1778l299 -236
l-74 -110l-245 155l-287 -155l-59 110z" />
    <glyph glyph-name="Atilde" unicode="&#xc3;" horiz-adv-x="1347" 
d="M776 1092q-2 -3 -7 -14.5t-9 -19.5l-21 -43q-16 -33 -20 -39q-4 -7 -8.5 -15.5t-5.5 -10.5l-261 -463h476l-115 467q-4 20 -5 26q-4 24 -7 38l-9 41q-4 19 -4 33h-4zM350 315l-176 -315h-209l4 31l754 1300h168l346 -1300l-4 -31h-193l-77 315h-613zM489 1434q7 42 27 91
q17 42 49 80q29 35 73 57q42 21 93 21q50 0 79 -14q38 -18 59 -32q11 -7 30.5 -18t23.5 -13q26 -15 58 -15q28 0 59 17t41 82h142q-7 -40 -27 -91q-16 -41 -49 -80q-30 -36 -72 -58q-41 -21 -94 -21q-47 0 -78 14q-38 17 -60 32q-3 2 -54 32q-24 14 -60 14q-29 0 -58 -16
q-30 -16 -40 -82h-142z" />
    <glyph glyph-name="Adieresis" unicode="&#xc4;" horiz-adv-x="1347" 
d="M776 1092q-2 -3 -7 -14.5t-9 -19.5l-21 -43q-16 -33 -20 -39q-4 -7 -8.5 -15.5t-5.5 -10.5l-261 -463h476l-115 467q-4 20 -5 26q-4 24 -7 38l-9 41q-4 19 -4 33h-4zM350 315l-176 -315h-209l4 31l754 1300h168l346 -1300l-4 -31h-193l-77 315h-613zM1061 1698
q48 0 82 -32q33 -32 33 -79q0 -56 -48 -96q-46 -39 -106 -39q-48 0 -79 30q-32 30 -32 77q0 59 43 99t107 40zM680 1698q48 0 82 -32q33 -32 33 -79q0 -57 -47 -96q-46 -39 -107 -39q-47 0 -79 30t-32 77q0 59 43 99t107 40z" />
    <glyph glyph-name="Aring" unicode="&#xc5;" horiz-adv-x="1347" 
d="M924 1468q0 33 -21 54q-20 20 -55 20q-42 0 -73 -33q-32 -34 -32 -73q0 -34 21 -55t55 -21q41 0 73 33q32 34 32 75zM776 1092q-2 -3 -7 -14.5t-9 -19.5l-21 -43q-16 -33 -20 -39q-4 -7 -8.5 -15.5t-5.5 -10.5l-261 -463h476l-115 467q-4 20 -5 26q-4 24 -7 38l-9 41
q-4 19 -4 33h-4zM174 0h-209l4 31l729 1257q-32 22 -51 61q-18 37 -18 81q0 45 19 83q20 40 51 68q30 28 75 46q45 19 90 20q77 0 126 -55q48 -54 48 -124q0 -66 -37 -116q-38 -52 -96 -78l332 -1243l-4 -31h-193l-77 315h-613z" />
    <glyph glyph-name="AE" unicode="&#xc6;" horiz-adv-x="1884" 
d="M504 487h426l110 695h-6zM903 315h-530l-242 -315h-215l4 31l1014 1300h944l-27 -172h-626l-62 -395h539l-29 -172h-538l-66 -420h627l-27 -172h-815z" />
    <glyph glyph-name="Ccedilla" unicode="&#xc7;" horiz-adv-x="1394" 
d="M498 -379q-92 0 -154 25l21 116h20q32 -14 64 -19t51 -5q8 0 36 2q20 1 41 8q17 5 32 20q14 14 14 37q0 49 -84 54l-4 14l59 98q-103 7 -195 51q-87 41 -150 112q-60 67 -96 166q-34 93 -34 212q0 92 14 173q16 93 44 170q32 87 76 160q48 79 107 138q104 104 232 156
q130 53 276 53q128 0 219 -36q95 -38 153 -98q61 -64 89 -147q29 -85 29 -182l-2 -16h-187q-1 58 -18 114q-17 58 -53 98q-38 42 -100 66q-66 25 -156 25q-118 0 -213 -52q-96 -52 -165 -141q-70 -90 -107 -199q-38 -112 -38 -233q0 -91 24 -168q23 -75 69 -131t111 -86
q68 -31 155 -31q84 0 153 27q71 28 123 71q57 47 92 103q37 59 58 127h190l-2 -16q-53 -208 -199 -335q-148 -128 -366 -149l-33 -63q35 -12 58 -41q22 -28 22 -70q0 -45 -24 -78q-23 -31 -64 -55q-38 -22 -88 -34q-45 -11 -100 -11z" />
    <glyph glyph-name="Egrave" unicode="&#xc8;" horiz-adv-x="1134" 
d="M1102 1159h-627l-61 -395h538l-28 -172h-539l-66 -420h627l-26 -172h-820l209 1331h819zM487 1655l115 162l406 -291l-68 -103z" />
    <glyph glyph-name="Eacute" unicode="&#xc9;" horiz-adv-x="1134" 
d="M1102 1159h-627l-61 -395h538l-28 -172h-539l-66 -420h627l-26 -172h-820l209 1331h819zM950 1817l78 -170l-506 -232l-55 111z" />
    <glyph glyph-name="Ecircumflex" unicode="&#xca;" horiz-adv-x="1134" 
d="M1102 1159h-627l-61 -395h538l-28 -172h-539l-66 -420h627l-26 -172h-820l209 1331h819zM748 1778l299 -236l-74 -110l-246 155l-287 -155l-59 110z" />
    <glyph glyph-name="Edieresis" unicode="&#xcb;" horiz-adv-x="1134" 
d="M1102 1159h-627l-61 -395h538l-28 -172h-539l-66 -420h627l-26 -172h-820l209 1331h819zM948 1698q48 0 82 -32q33 -32 33 -79q0 -57 -47 -96q-46 -39 -107 -39q-47 0 -79 30q-31 30 -31 77q0 59 43 99t106 40zM567 1698q48 0 82 -32q33 -32 33 -79q0 -57 -47 -96
t-107 -39q-46 0 -78 30t-32 77q0 59 43 99t106 40z" />
    <glyph glyph-name="Igrave" unicode="&#xcc;" horiz-adv-x="552" 
d="M309 1331h193l-209 -1331h-193zM197 1655l114 162l406 -291l-68 -103z" />
    <glyph glyph-name="Iacute" unicode="&#xcd;" horiz-adv-x="552" 
d="M309 1331h193l-209 -1331h-193zM659 1817l78 -170l-506 -232l-55 111z" />
    <glyph glyph-name="Icircumflex" unicode="&#xce;" horiz-adv-x="552" 
d="M309 1331h193l-209 -1331h-193zM457 1778l299 -236l-74 -110l-246 155l-286 -155l-60 110z" />
    <glyph glyph-name="Idieresis" unicode="&#xcf;" horiz-adv-x="552" 
d="M309 1331h193l-209 -1331h-193zM657 1698q48 0 82 -32q33 -32 33 -79q0 -57 -47 -96t-107 -39q-46 0 -78 30t-32 77q0 59 43 99t106 40zM276 1698q48 0 82 -32q33 -32 33 -79q0 -57 -47 -96t-106 -39q-48 0 -79 30q-32 30 -32 77q0 59 43 99t106 40z" />
    <glyph glyph-name="Eth" unicode="&#xd0;" horiz-adv-x="1423" 
d="M121 0l94 596h-184l24 162h185l90 573h465q133 0 239 -38q104 -37 176 -106t109 -166q37 -96 37 -218q0 -179 -59 -338q-59 -158 -173 -272q-103 -103 -243 -148q-141 -45 -295 -45h-465zM596 172q138 0 242 46q105 46 175 127q69 79 107 194q37 111 37 245
q0 181 -101 278t-308 97h-252l-64 -401h352l-24 -162h-352l-68 -424h256z" />
    <glyph glyph-name="Ntilde" unicode="&#xd1;" horiz-adv-x="1470" 
d="M309 1331h205l416 -774q4 -6 29 -55q26 -50 39 -77q26 -54 37 -76q21 -42 26 -54h6q5 23 9 60q1 10 11 81q2 17 7 45.5t6 36.5q7 44 8 62l119 751h192l-209 -1331h-194l-420 774q-13 22 -30 55q-6 12 -20 38t-21 40q-34 66 -40 78q-23 49 -26 55h-6q-1 -7 -4 -26.5
t-4 -32.5q-2 -14 -11 -82q-4 -29 -12 -83q-7 -46 -10 -62l-119 -754h-193zM547 1434q7 46 26 91q16 40 50 80q30 36 72 57t93 21q50 0 79 -14q42 -20 60 -32q8 -5 17 -10.5t19.5 -11.5t16.5 -9q26 -15 58 -15q29 0 60 17t41 82h141q-7 -40 -27 -91q-16 -41 -49 -80
q-31 -37 -71 -58q-41 -21 -95 -21q-46 0 -77 14q-41 19 -61 32q-10 7 -53 32q-24 14 -61 14q-29 0 -58 -16q-30 -16 -40 -82h-141z" />
    <glyph glyph-name="Ograve" unicode="&#xd2;" horiz-adv-x="1517" 
d="M1200 172q-105 -105 -237 -154t-289 -49q-123 0 -224 40q-102 40 -176 113q-73 71 -115 174q-42 102 -42 224q0 188 64 353q65 168 171 274q116 116 252 166q134 49 291 49q124 0 225 -40q104 -41 176 -112q74 -72 114 -174q40 -101 40 -227q0 -185 -65 -351t-185 -286z
M702 145q120 0 222 52q101 51 173 138q71 85 112 202q40 113 40 241q0 89 -23 161q-24 74 -72 130q-49 56 -120 86q-74 31 -170 31q-122 0 -224 -51q-98 -49 -173 -138q-72 -86 -111 -199q-39 -114 -39 -239q0 -87 24 -164q24 -75 72 -131q47 -55 121 -87q73 -32 168 -32z
M678 1655l115 162l405 -291l-68 -103z" />
    <glyph glyph-name="Oacute" unicode="&#xd3;" horiz-adv-x="1517" 
d="M1200 172q-105 -105 -237 -154t-289 -49q-123 0 -224 40q-102 40 -176 113q-73 71 -115 174q-42 102 -42 224q0 188 64 353q65 168 171 274q116 116 252 166q134 49 291 49q124 0 225 -40q104 -41 176 -112q74 -72 114 -174q40 -101 40 -227q0 -185 -65 -351t-185 -286z
M702 145q120 0 222 52q101 51 173 138q71 85 112 202q40 113 40 241q0 89 -23 161q-24 74 -72 130q-49 56 -120 86q-74 31 -170 31q-122 0 -224 -51q-98 -49 -173 -138q-72 -86 -111 -199q-39 -114 -39 -239q0 -87 24 -164q24 -75 72 -131q47 -55 121 -87q73 -32 168 -32z
M1141 1817l78 -170l-506 -232l-56 111z" />
    <glyph glyph-name="Ocircumflex" unicode="&#xd4;" horiz-adv-x="1517" 
d="M1200 172q-105 -105 -237 -154t-289 -49q-123 0 -224 40q-102 40 -176 113q-73 71 -115 174q-42 102 -42 224q0 188 64 353q65 168 171 274q116 116 252 166q134 49 291 49q124 0 225 -40q104 -41 176 -112q74 -72 114 -174q40 -101 40 -227q0 -185 -65 -351t-185 -286z
M702 145q120 0 222 52q101 51 173 138q71 85 112 202q40 113 40 241q0 89 -23 161q-24 74 -72 130q-49 56 -120 86q-74 31 -170 31q-122 0 -224 -51q-98 -49 -173 -138q-72 -86 -111 -199q-39 -114 -39 -239q0 -87 24 -164q24 -75 72 -131q47 -55 121 -87q73 -32 168 -32z
M940 1778l299 -236l-74 -110l-245 155l-287 -155l-60 110z" />
    <glyph glyph-name="Otilde" unicode="&#xd5;" horiz-adv-x="1517" 
d="M1200 172q-105 -105 -237 -154t-289 -49q-123 0 -224 40q-102 40 -176 113q-73 71 -115 174q-42 102 -42 224q0 188 64 353q65 168 171 274q116 116 252 166q134 49 291 49q124 0 225 -40q104 -41 176 -112q74 -72 114 -174q40 -101 40 -227q0 -185 -65 -351t-185 -286z
M702 145q120 0 222 52q101 51 173 138q71 85 112 202q40 113 40 241q0 89 -23 161q-24 74 -72 130q-49 56 -120 86q-74 31 -170 31q-122 0 -224 -51q-98 -49 -173 -138q-72 -86 -111 -199q-39 -114 -39 -239q0 -87 24 -164q24 -75 72 -131q47 -55 121 -87q73 -32 168 -32z
M569 1434q7 42 27 91q17 42 49 80q29 35 73 57q42 21 93 21q50 0 79 -14q38 -18 59 -32q8 -5 17 -10.5t19.5 -11.5t16.5 -9q26 -15 59 -15q28 0 59 17t41 82h142q-7 -40 -27 -91q-16 -41 -49 -80q-30 -36 -72 -58q-41 -21 -94 -21q-47 0 -78 14q-38 17 -60 32q-3 2 -54 32
q-24 14 -60 14q-29 0 -58 -16q-30 -16 -40 -82h-142z" />
    <glyph glyph-name="Odieresis" unicode="&#xd6;" horiz-adv-x="1517" 
d="M1200 172q-105 -105 -237 -154t-289 -49q-123 0 -224 40q-102 40 -176 113q-73 71 -115 174q-42 102 -42 224q0 188 64 353q65 168 171 274q116 116 252 166q134 49 291 49q124 0 225 -40q104 -41 176 -112q74 -72 114 -174q40 -101 40 -227q0 -185 -65 -351t-185 -286z
M702 145q120 0 222 52q101 51 173 138q71 85 112 202q40 113 40 241q0 89 -23 161q-24 74 -72 130q-49 56 -120 86q-74 31 -170 31q-122 0 -224 -51q-98 -49 -173 -138q-72 -86 -111 -199q-39 -114 -39 -239q0 -87 24 -164q24 -75 72 -131q47 -55 121 -87q73 -32 168 -32z
M1141 1698q48 0 82 -32q32 -31 32 -79q0 -57 -47 -96q-46 -39 -106 -39q-48 0 -79 30q-32 30 -32 77q0 59 43 99t107 40zM760 1698q48 0 82 -32q32 -31 32 -79q0 -57 -47 -96t-106 -39q-47 0 -79 30t-32 77q0 59 43 99t107 40z" />
    <glyph glyph-name="multiply" unicode="&#xd7;" horiz-adv-x="1275" 
d="M676 797l428 368l113 -123l-435 -372l316 -371l-131 -121l-318 377l-436 -377l-113 123l443 381l-301 358l127 121z" />
    <glyph glyph-name="Oslash" unicode="&#xd8;" horiz-adv-x="1517" 
d="M317 559q-1 -99 27 -178q29 -80 88 -135l545 928q-51 12 -113 12q-122 0 -224 -51q-98 -49 -173 -138q-72 -86 -111 -199q-39 -114 -39 -239zM702 145q120 0 222 52q101 51 173 138q71 85 112 202q40 113 40 241q0 108 -32 189q-33 85 -99 137l-553 -938q60 -21 137 -21z
M674 -31q-53 0 -107 8q-47 7 -98 25l-80 -135h-168l6 31l103 176q-97 71 -155 186q-56 113 -58 260q0 188 64 353q65 168 171 274q116 116 252 166q134 49 291 49q92 0 178 -25l74 127h170l-6 -30l-94 -160q109 -71 173 -191q62 -116 60 -274q0 -185 -65 -351t-185 -286
q-105 -105 -237 -154t-289 -49z" />
    <glyph glyph-name="Ugrave" unicode="&#xd9;" horiz-adv-x="1374" 
d="M1196 465q-40 -256 -180 -376t-408 -120q-116 0 -207 30t-151 91t-84 155q-25 95 -4 220l137 866h193l-140 -891q-27 -162 51 -231q79 -70 230 -70q138 0 241 71t130 230l139 891h190zM606 1655l115 162l405 -291l-67 -103z" />
    <glyph glyph-name="Uacute" unicode="&#xda;" horiz-adv-x="1374" 
d="M1196 465q-40 -256 -180 -376t-408 -120q-116 0 -207 30t-151 91t-84 155q-25 95 -4 220l137 866h193l-140 -891q-27 -162 51 -231q79 -70 230 -70q138 0 241 71t130 230l139 891h190zM1069 1817l78 -170l-506 -232l-55 111z" />
    <glyph glyph-name="Ucircumflex" unicode="&#xdb;" horiz-adv-x="1374" 
d="M1196 465q-40 -256 -180 -376t-408 -120q-116 0 -207 30t-151 91t-84 155q-25 95 -4 220l137 866h193l-140 -891q-27 -162 51 -231q79 -70 230 -70q138 0 241 71t130 230l139 891h190zM868 1778l299 -236l-73 -110l-246 155l-287 -155l-59 110z" />
    <glyph glyph-name="Udieresis" unicode="&#xdc;" horiz-adv-x="1374" 
d="M1196 465q-40 -256 -180 -376t-408 -120q-116 0 -207 30t-151 91t-84 155q-25 95 -4 220l137 866h193l-140 -891q-27 -162 51 -231q79 -70 230 -70q138 0 241 71t130 230l139 891h190zM1069 1698q48 0 82 -32q33 -32 33 -79q0 -57 -47 -96t-107 -39q-48 0 -79 30t-31 77
q0 59 43 99t106 40zM688 1698q48 0 82 -32q33 -32 33 -79q0 -57 -47 -96q-46 -39 -107 -39q-47 0 -79 30q-31 30 -31 77q0 59 43 99t106 40z" />
    <glyph glyph-name="Yacute" unicode="&#xdd;" horiz-adv-x="1245" 
d="M528 520l-366 780l4 31h194l281 -629l479 629h217l-4 -31l-610 -780l-82 -520h-195zM1006 1821l77 -170l-505 -232l-56 111z" />
    <glyph glyph-name="Thorn" unicode="&#xde;" horiz-adv-x="1232" 
d="M100 0l209 1331h193l-33 -205h344q82 0 148 -23q71 -25 122 -70q56 -49 84 -113q31 -70 31 -156q-1 -129 -41 -241q-39 -110 -117 -187q-72 -72 -176 -105q-102 -32 -225 -32l-315 -2l-31 -197h-193zM442 954l-92 -583h326q85 0 144 28q60 29 100 79q38 48 58 116
q19 64 19 139q0 96 -49 158q-50 63 -166 63h-340z" />
    <glyph glyph-name="germandbls" unicode="&#xdf;" horiz-adv-x="1232" 
d="M918 770q46 -15 83 -46q38 -32 65 -77t42 -98q14 -49 14 -109q0 -105 -35 -193t-99 -149q-63 -60 -157 -94q-91 -33 -206 -33q-43 0 -102 7q-62 7 -103 24l26 172h33q29 -16 72 -27q41 -10 96 -10q71 0 125 23t87 62q32 38 51 94q18 54 18 116q0 42 -16 87q-15 41 -45 76
q-28 32 -73 54q-43 21 -102 21h-129l27 164h69q63 0 109 24q45 23 80 63q33 37 51 86q19 51 19 93q-1 95 -51 146q-48 50 -152 50q-98 0 -153 -35q-57 -36 -87 -89t-42 -112q-10 -48 -19 -112l-148 -948h-186l168 1077q30 183 152 286q120 101 315 101q76 0 148 -18
q70 -17 129 -61q55 -41 90 -107q34 -65 34 -158q0 -42 -10 -86q-11 -50 -34 -94q-27 -51 -62 -91q-41 -46 -95 -75z" />
    <glyph glyph-name="agrave" unicode="&#xe0;" horiz-adv-x="1095" 
d="M266 276q0 -76 45 -113q46 -38 119 -38q46 0 99 18q51 18 99 53q46 34 80 80t42 103l12 82q-44 16 -102 22q-54 6 -107 6q-51 0 -102 -12q-52 -12 -93 -38q-42 -26 -66 -65q-26 -41 -26 -98zM172 498q77 77 184 107q106 30 211 30q52 0 109 -7q64 -8 108 -22l7 33
q3 19 7 57q3 28 3 39q0 81 -46 124q-47 44 -147 44q-88 0 -150 -40t-79 -126h-174v17q22 82 62 137q41 56 100 93q54 34 126 53q69 18 144 18q74 0 146 -24q73 -25 126 -77q60 -60 70 -144q10 -83 -2 -167l-100 -643h-140l-16 98h-4q-62 -61 -154 -96q-91 -35 -182 -35
q-60 0 -118 20q-55 19 -98 57q-43 39 -67 92q-24 54 -24 124q0 140 98 238zM485 1348l115 161l406 -290l-68 -103z" />
    <glyph glyph-name="aacute" unicode="&#xe1;" horiz-adv-x="1095" 
d="M266 276q0 -76 45 -113q46 -38 119 -38q46 0 99 18q51 18 99 53q46 34 80 80t42 103l12 82q-44 16 -102 22q-54 6 -107 6q-51 0 -102 -12q-52 -12 -93 -38q-42 -26 -66 -65q-26 -41 -26 -98zM172 498q77 77 184 107q106 30 211 30q52 0 109 -7q64 -8 108 -22l7 33
q3 19 7 57q3 28 3 39q0 81 -46 124q-47 44 -147 44q-88 0 -150 -40t-79 -126h-174v17q22 82 62 137q41 56 100 93q54 34 126 53q69 18 144 18q74 0 146 -24q73 -25 126 -77q60 -60 70 -144q10 -83 -2 -167l-100 -643h-140l-16 98h-4q-62 -61 -154 -96q-91 -35 -182 -35
q-60 0 -118 20q-55 19 -98 57q-43 39 -67 92q-24 54 -24 124q0 140 98 238zM948 1509l78 -170l-506 -231l-55 111z" />
    <glyph glyph-name="acircumflex" unicode="&#xe2;" horiz-adv-x="1095" 
d="M266 276q0 -76 45 -113q46 -38 119 -38q46 0 99 18q51 18 99 53q46 34 80 80t42 103l12 82q-44 16 -102 22q-54 6 -107 6q-51 0 -102 -12q-52 -12 -93 -38q-42 -26 -66 -65q-26 -41 -26 -98zM172 498q77 77 184 107q106 30 211 30q52 0 109 -7q64 -8 108 -22l7 33
q3 19 7 57q3 28 3 39q0 81 -46 124q-47 44 -147 44q-88 0 -150 -40t-79 -126h-174v17q22 82 62 137q41 56 100 93q54 34 126 53q69 18 144 18q74 0 146 -24q73 -25 126 -77q60 -60 70 -144q10 -83 -2 -167l-100 -643h-140l-16 98h-4q-62 -61 -154 -96q-91 -35 -182 -35
q-60 0 -118 20q-55 19 -98 57q-43 39 -67 92q-24 54 -24 124q0 140 98 238zM748 1470l299 -235l-74 -111l-246 156l-287 -156l-59 111z" />
    <glyph glyph-name="atilde" unicode="&#xe3;" horiz-adv-x="1095" 
d="M266 276q0 -76 45 -113q46 -38 119 -38q46 0 99 18q51 18 99 53q46 34 80 80t42 103l12 82q-44 16 -102 22q-54 6 -107 6q-51 0 -102 -12q-52 -12 -93 -38q-42 -26 -66 -65q-26 -41 -26 -98zM172 498q77 77 184 107q106 30 211 30q52 0 109 -7q64 -8 108 -22l7 33
q3 19 7 57q3 28 3 39q0 81 -46 124q-47 44 -147 44q-88 0 -150 -40t-79 -126h-174v17q22 82 62 137q41 56 100 93q54 34 126 53q69 18 144 18q74 0 146 -24q73 -25 126 -77q60 -60 70 -144q10 -83 -2 -167l-100 -643h-140l-16 98h-4q-62 -61 -154 -96q-91 -35 -182 -35
q-60 0 -118 20q-55 19 -98 57q-43 39 -67 92q-24 54 -24 124q0 140 98 238zM377 1126q8 48 26 92q16 38 50 79q31 38 72 58q42 21 93 21q50 0 79 -14q42 -20 60 -32q10 -7 53 -32q24 -14 58 -14q31 0 60 16q31 17 41 82h141q-6 -39 -27 -90q-17 -43 -49 -81q-30 -36 -71 -57
t-95 -21q-46 0 -77 14q-41 19 -61 32q-8 5 -17 10.5t-19.5 11.5t-16.5 9q-25 15 -61 15q-27 0 -58 -17q-30 -16 -40 -82h-141z" />
    <glyph glyph-name="adieresis" unicode="&#xe4;" horiz-adv-x="1095" 
d="M266 276q0 -76 45 -113q46 -38 119 -38q46 0 99 18q51 18 99 53q46 34 80 80t42 103l12 82q-44 16 -102 22q-54 6 -107 6q-51 0 -102 -12q-52 -12 -93 -38q-42 -26 -66 -65q-26 -41 -26 -98zM172 498q77 77 184 107q106 30 211 30q52 0 109 -7q64 -8 108 -22l7 33
q3 19 7 57q3 28 3 39q0 81 -46 124q-47 44 -147 44q-88 0 -150 -40t-79 -126h-174v17q22 82 62 137q41 56 100 93q54 34 126 53q69 18 144 18q74 0 146 -24q73 -25 126 -77q60 -60 70 -144q10 -83 -2 -167l-100 -643h-140l-16 98h-4q-62 -61 -154 -96q-91 -35 -182 -35
q-60 0 -118 20q-55 19 -98 57q-43 39 -67 92q-24 54 -24 124q0 140 98 238zM948 1391q48 0 82 -32q33 -31 33 -79q0 -57 -47 -96q-46 -39 -107 -39q-47 0 -79 30q-31 30 -31 76q0 60 43 100t106 40zM567 1391q48 0 82 -32q33 -31 33 -79q0 -57 -47 -96t-107 -39
q-46 0 -78 30t-32 76q0 60 43 100t106 40z" />
    <glyph glyph-name="aring" unicode="&#xe5;" horiz-adv-x="1095" 
d="M811 1202q0 33 -20 53q-21 21 -56 21q-41 0 -72 -33q-32 -34 -32 -74q0 -34 20 -54q21 -21 56 -21q41 0 72 32q32 34 32 76zM266 276q0 -76 45 -113q46 -38 119 -38q46 0 99 18q51 18 99 53q46 34 80 80t42 103l12 82q-44 16 -102 22q-54 6 -107 6q-51 0 -102 -12
q-52 -12 -93 -38q-42 -26 -66 -65q-26 -41 -26 -98zM717 98q-62 -61 -154 -96q-91 -35 -182 -35q-60 0 -118 20q-55 19 -98 57q-43 39 -67 92q-24 54 -24 124q0 140 98 238q77 77 184 107q106 30 211 30q52 0 109 -7q64 -8 108 -22l7 33q3 19 7 57q3 28 3 39q0 81 -46 124
q-47 44 -147 44q-88 0 -150 -40t-79 -126h-174v17q34 139 130 209q95 69 220 86q-39 49 -39 114q0 44 20 84t51 68q30 28 75 46q42 17 90 19q78 0 126 -54t48 -124q0 -58 -31 -106t-80 -76q52 -24 94 -66q60 -60 70 -144q10 -83 -2 -167l-100 -643h-140l-16 98h-4z" />
    <glyph glyph-name="ae" unicode="&#xe6;" horiz-adv-x="1767" 
d="M1487 608q4 49 -4 105q-7 49 -32 91q-23 38 -65 65q-41 26 -104 26q-129 0 -201 -79q-71 -78 -110 -208h516zM1135 -33q-120 0 -205 49q-87 50 -133 140q-91 -110 -192 -150q-99 -39 -204 -39q-72 0 -138 23q-65 23 -109 64q-46 43 -67 101t-9 130l2 14q10 70 41 124
q29 50 78 93q68 62 169 90q104 29 189 29q57 0 112 -7q60 -8 107 -22l10 76q16 105 -30 163t-158 58q-84 0 -143 -40t-76 -126h-176l2 17q22 82 62 137q42 57 99 93q55 35 123 53q67 18 142 18q107 0 189 -35q81 -34 122 -115q72 72 163 111t195 39q111 0 188 -41t122 -113
q44 -71 58 -167q14 -95 -3 -204q-2 -8 -4 -20.5t-3 -16.5t-3 -17t-4 -21h-709q-6 -70 3 -130q9 -61 35 -105t71 -68q47 -25 112 -25q94 0 158 41q63 41 104 119h185q-61 -155 -186 -237q-127 -83 -289 -83zM440 125q50 0 97 17q49 18 91 51t71 78q31 47 38 102l15 82
q-43 15 -103 25q-56 9 -106 9q-47 0 -91 -10q-46 -11 -84 -33q-39 -23 -65 -58q-28 -37 -35 -85q-15 -84 36 -132q49 -46 136 -46z" />
    <glyph glyph-name="ccedilla" unicode="&#xe7;" horiz-adv-x="1138" 
d="M383 -379q-91 0 -154 25l21 116h20q32 -14 64 -19t51 -5q8 0 36 2q20 1 41 8q19 6 33 20q13 13 13 37q0 49 -84 54l-4 14l57 96q-85 6 -156 39t-120 88q-50 56 -77 129q-28 76 -28 162q0 145 46 280t149 238q79 79 175 113q100 36 214 37q85 0 162 -25q73 -24 127 -73
t83 -116t29 -155l-4 -16h-168q0 117 -67 172t-174 55q-92 0 -163 -41t-119 -108q-49 -68 -74 -155q-25 -85 -25 -179q0 -129 64 -208t200 -79q116 0 195 58q80 59 114 171h172l-2 -16q-41 -159 -145 -251q-106 -94 -273 -116l-32 -63q34 -12 57 -41q22 -28 22 -70
q0 -45 -24 -78q-23 -31 -64 -55q-38 -22 -88 -34q-45 -11 -100 -11z" />
    <glyph glyph-name="egrave" unicode="&#xe8;" horiz-adv-x="1165" 
d="M668 897q-135 0 -224 -83q-88 -82 -127 -206h568q1 9 3 26q1 10 1 32q0 98 -54 164q-55 67 -167 67zM1014 287q-53 -155 -177 -237q-125 -83 -321 -83q-93 0 -172 32q-78 31 -133 88t-85 134q-30 78 -30 170q0 146 49 281q49 137 142 229q80 80 178 117t213 37
q96 0 170 -33q77 -34 124 -89q51 -59 76 -133q25 -75 25 -165q0 -47 -6 -90q-7 -49 -16 -90h-762q-2 -14 -2 -21v-20q0 -129 64 -208t200 -79q195 0 280 160h183zM457 1348l114 161l406 -290l-68 -103z" />
    <glyph glyph-name="eacute" unicode="&#xe9;" horiz-adv-x="1165" 
d="M668 897q-135 0 -224 -83q-88 -82 -127 -206h568q1 9 3 26q1 10 1 32q0 98 -54 164q-55 67 -167 67zM1014 287q-53 -155 -177 -237q-125 -83 -321 -83q-93 0 -172 32q-78 31 -133 88t-85 134q-30 78 -30 170q0 146 49 281q49 137 142 229q80 80 178 117t213 37
q96 0 170 -33q77 -34 124 -89q51 -59 76 -133q25 -75 25 -165q0 -47 -6 -90q-7 -49 -16 -90h-762q-2 -14 -2 -21v-20q0 -129 64 -208t200 -79q195 0 280 160h183zM920 1509l77 -170l-505 -231l-56 111z" />
    <glyph glyph-name="ecircumflex" unicode="&#xea;" horiz-adv-x="1165" 
d="M668 897q-135 0 -224 -83q-88 -82 -127 -206h568q1 9 3 26q1 10 1 32q0 98 -54 164q-55 67 -167 67zM1014 287q-53 -155 -177 -237q-125 -83 -321 -83q-93 0 -172 32q-78 31 -133 88t-85 134q-30 78 -30 170q0 146 49 281q49 137 142 229q80 80 178 117t213 37
q96 0 170 -33q77 -34 124 -89q51 -59 76 -133q25 -75 25 -165q0 -47 -6 -90q-7 -49 -16 -90h-762q-2 -14 -2 -21v-20q0 -129 64 -208t200 -79q195 0 280 160h183zM719 1470l299 -235l-74 -111l-246 156l-286 -156l-60 111z" />
    <glyph glyph-name="edieresis" unicode="&#xeb;" horiz-adv-x="1165" 
d="M668 897q-135 0 -224 -83q-88 -82 -127 -206h568q1 9 3 26q1 10 1 32q0 98 -54 164q-55 67 -167 67zM1014 287q-53 -155 -177 -237q-125 -83 -321 -83q-93 0 -172 32q-78 31 -133 88t-85 134q-30 78 -30 170q0 146 49 281q49 137 142 229q80 80 178 117t213 37
q96 0 170 -33q77 -34 124 -89q51 -59 76 -133q25 -75 25 -165q0 -47 -6 -90q-7 -49 -16 -90h-762q-2 -14 -2 -21v-20q0 -129 64 -208t200 -79q195 0 280 160h183zM911 1391q48 0 82 -32q33 -31 33 -79q0 -57 -47 -96t-107 -39q-46 0 -78 30t-32 76q0 60 43 100t106 40z
M530 1391q48 0 82 -32q33 -31 33 -79q0 -57 -47 -96t-106 -39q-48 0 -79 30q-32 30 -32 76q0 60 43 100t106 40z" />
    <glyph glyph-name="igrave" unicode="&#xec;" horiz-adv-x="489" 
d="M233 1024h187l-162 -1024h-186zM117 1348l114 161l406 -290l-68 -103z" />
    <glyph glyph-name="iacute" unicode="&#xed;" horiz-adv-x="489" 
d="M233 1024h187l-162 -1024h-186zM580 1509l77 -170l-505 -231l-56 111z" />
    <glyph glyph-name="icircumflex" unicode="&#xee;" horiz-adv-x="489" 
d="M233 1024h187l-162 -1024h-186zM377 1470l299 -235l-74 -111l-246 156l-286 -156l-60 111z" />
    <glyph glyph-name="idieresis" unicode="&#xef;" horiz-adv-x="489" 
d="M233 1024h187l-162 -1024h-186zM580 1391q48 0 82 -32q32 -31 32 -79q0 -57 -47 -96t-106 -39q-47 0 -79 30t-32 76q0 60 43 100t107 40zM199 1391q48 0 82 -32q32 -31 32 -79q0 -57 -47 -96q-46 -39 -106 -39q-48 0 -79 30q-32 30 -32 76q0 60 43 100t107 40z" />
    <glyph glyph-name="eth" unicode="&#xf0;" horiz-adv-x="1228" 
d="M524 -33q-95 0 -179 31q-79 29 -139 86q-59 56 -90 131q-32 78 -32 166q0 120 39 234t129 204q78 78 184 126t228 48q64 0 119 -17q63 -19 100 -40h4q-27 62 -77 131q-45 62 -108 125l-217 -107l-45 127l162 80q-36 34 -70 61q-38 30 -65 50l6 31h205q37 -29 76 -68
l176 86l47 -125l-125 -61q118 -133 200 -304q78 -163 78 -350q0 -150 -41 -267q-41 -118 -147 -224q-79 -79 -186 -116q-109 -38 -232 -38zM549 127q89 0 162 35q70 34 120 94t76 138q27 79 27 167q0 121 -66 198t-206 77q-89 0 -162 -35q-72 -34 -121 -94q-50 -60 -75 -139
q-25 -78 -25 -169q-2 -114 64 -193t206 -79z" />
    <glyph glyph-name="ntilde" unicode="&#xf1;" horiz-adv-x="1163" 
d="M381 1024l16 -121h4q72 89 156 120q85 32 170 32q86 0 152 -33t106 -89q41 -57 57 -133q17 -78 2 -163l-100 -637h-184l98 625q8 55 5 101q-3 47 -24 85q-20 36 -64 58t-109 22q-48 0 -97 -18t-92 -58t-76 -108q-32 -66 -49 -170l-86 -537h-186l162 1024h139zM344 1126
q7 44 27 92q17 40 49 79q31 37 73 58t93 21q50 0 79 -14q39 -18 59 -32q10 -7 53 -32q24 -14 59 -14q30 0 59 16q31 17 41 82h141q-7 -43 -26 -90q-16 -40 -50 -81q-30 -36 -71 -57q-40 -21 -94 -21q-47 0 -78 14q-41 19 -61 32q-8 5 -17 10.5t-19.5 11.5t-16.5 9
q-26 15 -60 15q-28 0 -59 -17q-30 -16 -40 -82h-141z" />
    <glyph glyph-name="ograve" unicode="&#xf2;" horiz-adv-x="1234" 
d="M279 891q91 91 192 125q102 34 227 39q90 0 172 -31q81 -31 141 -86t94 -134q34 -78 34 -175q-1 -148 -50 -280q-47 -128 -143 -224q-80 -80 -185 -119t-231 -39q-92 0 -172 30t-138 85t-91 133t-33 172q0 154 49 286q49 134 134 218zM555 127q94 0 165 40q75 42 123 106
q50 66 77 153q26 82 26 180q0 130 -64 210q-64 81 -204 81q-93 0 -165 -39q-75 -40 -123 -105q-50 -66 -77 -153q-26 -82 -26 -180q0 -129 64 -211t204 -82zM487 1348l115 161l406 -290l-68 -103z" />
    <glyph glyph-name="oacute" unicode="&#xf3;" horiz-adv-x="1234" 
d="M279 891q91 91 192 125q102 34 227 39q90 0 172 -31q81 -31 141 -86t94 -134q34 -78 34 -175q-1 -148 -50 -280q-47 -128 -143 -224q-80 -80 -185 -119t-231 -39q-92 0 -172 30t-138 85t-91 133t-33 172q0 154 49 286q49 134 134 218zM555 127q94 0 165 40q75 42 123 106
q50 66 77 153q26 82 26 180q0 130 -64 210q-64 81 -204 81q-93 0 -165 -39q-75 -40 -123 -105q-50 -66 -77 -153q-26 -82 -26 -180q0 -129 64 -211t204 -82zM950 1509l78 -170l-506 -231l-55 111z" />
    <glyph glyph-name="ocircumflex" unicode="&#xf4;" horiz-adv-x="1234" 
d="M279 891q91 91 192 125q102 34 227 39q90 0 172 -31q81 -31 141 -86t94 -134q34 -78 34 -175q-1 -148 -50 -280q-47 -128 -143 -224q-80 -80 -185 -119t-231 -39q-92 0 -172 30t-138 85t-91 133t-33 172q0 154 49 286q49 134 134 218zM555 127q94 0 165 40q75 42 123 106
q50 66 77 153q26 82 26 180q0 130 -64 210q-64 81 -204 81q-93 0 -165 -39q-75 -40 -123 -105q-50 -66 -77 -153q-26 -82 -26 -180q0 -129 64 -211t204 -82zM750 1470l299 -235l-74 -111l-246 156l-287 -156l-59 111z" />
    <glyph glyph-name="otilde" unicode="&#xf5;" horiz-adv-x="1234" 
d="M279 891q91 91 192 125q102 34 227 39q90 0 172 -31q81 -31 141 -86t94 -134q34 -78 34 -175q-1 -148 -50 -280q-47 -128 -143 -224q-80 -80 -185 -119t-231 -39q-92 0 -172 30t-138 85t-91 133t-33 172q0 154 49 286q49 134 134 218zM555 127q94 0 165 40q75 42 123 106
q50 66 77 153q26 82 26 180q0 130 -64 210q-64 81 -204 81q-93 0 -165 -39q-75 -40 -123 -105q-50 -66 -77 -153q-26 -82 -26 -180q0 -129 64 -211t204 -82zM379 1126q7 44 27 92q17 40 49 79q31 38 72 58q42 21 94 21q49 0 78 -14q42 -20 60 -32q11 -7 53 -32
q24 -14 58 -14q31 0 60 16q31 17 41 82h141q-6 -39 -27 -90q-17 -43 -49 -81q-30 -36 -71 -57t-95 -21q-46 0 -77 14q-41 19 -61 32q-8 5 -17 10.5t-19.5 11.5t-16.5 9q-25 15 -60 15q-28 0 -59 -17q-30 -16 -40 -82h-141z" />
    <glyph glyph-name="odieresis" unicode="&#xf6;" horiz-adv-x="1234" 
d="M279 891q91 91 192 125q102 34 227 39q90 0 172 -31q81 -31 141 -86t94 -134q34 -78 34 -175q-1 -148 -50 -280q-47 -128 -143 -224q-80 -80 -185 -119t-231 -39q-92 0 -172 30t-138 85t-91 133t-33 172q0 154 49 286q49 134 134 218zM555 127q94 0 165 40q75 42 123 106
q50 66 77 153q26 82 26 180q0 130 -64 210q-64 81 -204 81q-93 0 -165 -39q-75 -40 -123 -105q-50 -66 -77 -153q-26 -82 -26 -180q0 -129 64 -211t204 -82zM950 1391q48 0 82 -32q33 -31 33 -79q0 -57 -47 -96q-46 -39 -107 -39q-47 0 -78 30q-32 30 -32 76q0 60 43 100
t106 40zM569 1391q48 0 82 -32q33 -31 33 -79q0 -57 -47 -96t-107 -39q-46 0 -78 30t-32 76q0 60 43 100t106 40z" />
    <glyph glyph-name="divide" unicode="&#xf7;" horiz-adv-x="1239" 
d="M715 1122q50 0 81 -28t31 -76q0 -64 -46 -103q-45 -38 -105 -38q-50 0 -81 27q-32 27 -32 75q0 63 46 103t106 40zM1176 756l-27 -166h-1034l26 166h1035zM612 469q46 0 80 -28q33 -27 33 -74q0 -63 -46 -103q-47 -41 -106 -41q-48 0 -80 29t-32 76q0 60 46 100
q47 41 105 41z" />
    <glyph glyph-name="oslash" unicode="&#xf8;" horiz-adv-x="1234" 
d="M287 420q0 -71 17 -123q19 -58 54 -96l404 686q-39 10 -84 10q-93 0 -165 -39q-75 -40 -123 -105q-50 -66 -77 -153q-26 -82 -26 -180zM555 127q94 0 165 40q75 42 123 106q50 66 77 153q26 82 26 180q0 124 -57 201l-397 -674q30 -6 63 -6zM530 -33q-38 0 -65 4
q-25 4 -62 13l-67 -117h-162l4 27l88 151q-77 52 -124 141q-46 88 -46 201q0 154 49 286q49 134 134 218q91 91 192 125q102 34 227 39q75 0 150 -23l74 125h159l-4 -29l-96 -163q72 -57 116 -142q43 -84 42 -194q-1 -148 -50 -280q-47 -128 -143 -224q-80 -80 -185 -119
t-231 -39z" />
    <glyph glyph-name="ugrave" unicode="&#xf9;" horiz-adv-x="1118" 
d="M299 395q-7 -55 -3 -103q4 -47 29 -84q24 -36 66 -56q43 -21 109 -21q107 0 182 56q76 57 100 208l101 629h184l-106 -651q-38 -223 -163 -314q-127 -92 -321 -92q-84 0 -160 31q-72 29 -123 85t-73 130q-23 77 -8 166l102 645h184zM430 1348l115 161l405 -290l-67 -103z
" />
    <glyph glyph-name="uacute" unicode="&#xfa;" horiz-adv-x="1118" 
d="M299 395q-7 -55 -3 -103q4 -47 29 -84q24 -36 66 -56q43 -21 109 -21q107 0 182 56q76 57 100 208l101 629h184l-106 -651q-38 -223 -163 -314q-127 -92 -321 -92q-84 0 -160 31q-72 29 -123 85t-73 130q-23 77 -8 166l102 645h184zM893 1509l78 -170l-506 -231l-55 111z
" />
    <glyph glyph-name="ucircumflex" unicode="&#xfb;" horiz-adv-x="1118" 
d="M299 395q-7 -55 -3 -103q4 -47 29 -84q24 -36 66 -56q43 -21 109 -21q107 0 182 56q76 57 100 208l101 629h184l-106 -651q-38 -223 -163 -314q-127 -92 -321 -92q-84 0 -160 31q-72 29 -123 85t-73 130q-23 77 -8 166l102 645h184zM690 1470l299 -235l-74 -111l-245 156
l-287 -156l-59 111z" />
    <glyph glyph-name="udieresis" unicode="&#xfc;" horiz-adv-x="1118" 
d="M299 395q-7 -55 -3 -103q4 -47 29 -84q24 -36 66 -56q43 -21 109 -21q107 0 182 56q76 57 100 208l101 629h184l-106 -651q-38 -223 -163 -314q-127 -92 -321 -92q-84 0 -160 31q-72 29 -123 85t-73 130q-23 77 -8 166l102 645h184zM893 1391q48 0 82 -32q33 -31 33 -79
q0 -56 -48 -96q-46 -39 -106 -39q-48 0 -79 30q-32 30 -32 76q0 60 43 100t107 40zM512 1391q48 0 82 -32q33 -31 33 -79q0 -57 -47 -96q-46 -39 -107 -39q-47 0 -79 30t-32 76q0 60 43 100t107 40z" />
    <glyph glyph-name="yacute" unicode="&#xfd;" horiz-adv-x="1048" 
d="M1110 1024l-4 -27l-780 -1366h-187l4 27l224 389l-269 950l4 27h183l170 -643q3 -10 16 -71q8 -35 16 -83h5q2 3 7 14.5t9 19.5t10.5 23.5t9.5 20.5q7 15 21 43l16 33l346 643h199zM858 1509l78 -170l-506 -231l-55 111z" />
    <glyph glyph-name="thorn" unicode="&#xfe;" horiz-adv-x="1284" 
d="M598 127q96 0 170 39q76 40 125 104q51 66 78 153q26 84 26 181q0 129 -65 210q-66 83 -211 83q-94 0 -165 -40q-74 -41 -122 -106q-48 -64 -76 -153q-26 -82 -26 -180q0 -62 15 -115q15 -52 47 -92q31 -38 83 -61t121 -23zM207 -369h-187l285 1803h187l-82 -519
q73 75 170 109q96 33 198 33q74 0 150 -28q71 -26 133 -82q58 -52 95 -134q36 -78 34 -182q-2 -147 -45 -274q-44 -129 -135 -220q-80 -80 -183 -124t-217 -44q-109 0 -192 37q-85 38 -131 100h-4z" />
    <glyph glyph-name="ydieresis" unicode="&#xff;" horiz-adv-x="1048" 
d="M1110 1024l-4 -27l-780 -1366h-187l4 27l224 389l-269 950l4 27h183l170 -643q3 -10 16 -71q8 -35 16 -83h5q2 3 7 14.5t9 19.5t10.5 23.5t9.5 20.5q7 15 21 43l16 33l346 643h199zM858 1391q48 0 82 -32q33 -31 33 -79q0 -57 -47 -96q-46 -39 -107 -39q-47 0 -79 30
q-31 30 -31 76q0 60 43 100t106 40zM477 1391q48 0 82 -32q33 -31 33 -79q0 -57 -47 -96t-107 -39q-48 0 -79 30t-31 76q0 60 43 100t106 40z" />
    <glyph glyph-name="Amacron" unicode="&#x100;" horiz-adv-x="1347" 
d="M776 1092q-2 -3 -7 -14.5t-9 -19.5l-21 -43q-16 -33 -20 -39q-4 -7 -8.5 -15.5t-5.5 -10.5l-261 -463h476l-115 467q-4 20 -5 26q-4 24 -7 38l-9 41q-4 19 -4 33h-4zM350 315l-176 -315h-209l4 31l754 1300h168l346 -1300l-4 -31h-193l-77 315h-613zM1153 1606l-29 -158
h-606l29 158h606z" />
    <glyph glyph-name="amacron" unicode="&#x101;" horiz-adv-x="1095" 
d="M266 276q0 -76 45 -113q46 -38 119 -38q46 0 99 18q51 18 99 53q46 34 80 80t42 103l12 82q-44 16 -102 22q-54 6 -107 6q-51 0 -102 -12q-52 -12 -93 -38q-42 -26 -66 -65q-26 -41 -26 -98zM172 498q77 77 184 107q106 30 211 30q52 0 109 -7q64 -8 108 -22l7 33
q3 19 7 57q3 28 3 39q0 81 -46 124q-47 44 -147 44q-88 0 -150 -40t-79 -126h-174v17q22 82 62 137q41 56 100 93q54 34 126 53q69 18 144 18q74 0 146 -24q73 -25 126 -77q60 -60 70 -144q10 -83 -2 -167l-100 -643h-140l-16 98h-4q-62 -61 -154 -96q-91 -35 -182 -35
q-60 0 -118 20q-55 19 -98 57q-43 39 -67 92q-24 54 -24 124q0 140 98 238zM1034 1346l-28 -158h-607l29 158h606z" />
    <glyph glyph-name="Abreve" unicode="&#x102;" horiz-adv-x="1347" 
d="M776 1092q-2 -3 -7 -14.5t-9 -19.5l-21 -43q-16 -33 -20 -39q-4 -7 -8.5 -15.5t-5.5 -10.5l-261 -463h476l-115 467q-4 20 -5 26q-4 24 -7 38l-9 41q-4 19 -4 33h-4zM350 315l-176 -315h-209l4 31l754 1300h168l346 -1300l-4 -31h-193l-77 315h-613zM711 1681
q5 -66 41 -94q37 -28 98 -28t107 28q47 29 69 94h193q-35 -125 -140 -191q-107 -67 -237 -67q-66 0 -124 18q-61 19 -102 50t-66 81q-24 48 -24 109h185z" />
    <glyph glyph-name="abreve" unicode="&#x103;" horiz-adv-x="1095" 
d="M266 276q0 -76 45 -113q46 -38 119 -38q46 0 99 18q51 18 99 53q46 34 80 80t42 103l12 82q-44 16 -102 22q-54 6 -107 6q-51 0 -102 -12q-52 -12 -93 -38q-42 -26 -66 -65q-26 -41 -26 -98zM172 498q77 77 184 107q106 30 211 30q52 0 109 -7q64 -8 108 -22l7 33
q3 19 7 57q3 28 3 39q0 81 -46 124q-47 44 -147 44q-88 0 -150 -40t-79 -126h-174v17q22 82 62 137q41 56 100 93q54 34 126 53q69 18 144 18q74 0 146 -24q73 -25 126 -77q60 -60 70 -144q10 -83 -2 -167l-100 -643h-140l-16 98h-4q-62 -61 -154 -96q-91 -35 -182 -35
q-60 0 -118 20q-55 19 -98 57q-43 39 -67 92q-24 54 -24 124q0 140 98 238zM602 1399q5 -66 41 -94q38 -29 98 -29q61 0 108 29t69 94h192q-35 -127 -139 -192q-105 -66 -238 -66q-69 0 -124 17q-59 18 -101 50q-43 32 -67 81q-23 46 -23 110h184z" />
    <glyph glyph-name="Aogonek" unicode="&#x104;" horiz-adv-x="1347" 
d="M776 1092q-2 -3 -7 -14.5t-9 -19.5l-21 -43q-16 -33 -20 -39q-4 -7 -8.5 -15.5t-5.5 -10.5l-261 -463h476l-115 467q-4 20 -5 26q-4 24 -7 38l-9 41q-4 19 -4 33h-4zM1235 -352q-35 -15 -81 -21q-47 -6 -83 -6q-97 0 -141 48q-43 47 -43 108q0 77 50 133q48 54 120 90
h-17l-77 315h-613l-176 -315h-209l4 31l754 1300h168l346 -1300l-4 -31q-97 -40 -141 -90q-43 -49 -43 -107q0 -57 71 -57q27 0 54 5q21 4 61 20h20z" />
    <glyph glyph-name="aogonek" unicode="&#x105;" horiz-adv-x="1095" 
d="M266 276q0 -76 45 -113q46 -38 119 -38q46 0 99 18q51 18 99 53q46 34 80 80t42 103l12 82q-44 16 -102 22q-54 6 -107 6q-51 0 -102 -12q-52 -12 -93 -38q-42 -26 -66 -65q-26 -41 -26 -98zM879 -352q-35 -15 -81 -21t-83 -6q-99 0 -142 48q-43 47 -43 108q0 85 63 145
q62 59 142 94l-14 82h-4q-62 -61 -154 -96q-91 -35 -182 -35q-60 0 -118 20q-55 19 -98 57q-43 39 -67 92q-24 54 -24 124q0 140 98 238q77 77 184 107q106 30 211 30q52 0 109 -7q64 -8 108 -22l7 33q3 19 7 57q3 28 3 39q0 81 -46 124q-47 44 -147 44q-88 0 -150 -40
t-79 -126h-174v17q22 82 62 137q41 56 100 93q54 34 126 53q69 18 144 18q74 0 146 -24q73 -25 126 -77q60 -60 70 -144q10 -83 -2 -167l-100 -643q-98 -40 -142 -90q-43 -49 -43 -107q0 -57 72 -57q26 0 53 5q23 4 62 20h20z" />
    <glyph glyph-name="Cacute" unicode="&#x106;" horiz-adv-x="1394" 
d="M360 1153q104 104 232 156q130 53 276 53q128 0 219 -36q95 -38 153 -98q61 -64 89 -147q29 -85 29 -182l-2 -16h-187q-1 58 -18 114q-17 58 -53 98q-38 42 -100 66q-66 25 -156 25q-118 0 -213 -52q-96 -52 -165 -141q-70 -90 -107 -199q-38 -112 -38 -233
q0 -91 24 -168q23 -75 69 -131t111 -86q68 -31 155 -31q84 0 153 27q71 28 123 71q57 47 92 103q37 59 58 127h190l-2 -16q-28 -110 -86 -201q-59 -93 -139 -154q-84 -64 -187 -98q-107 -35 -229 -35q-117 0 -217 38q-97 37 -168 109q-69 70 -108 171t-39 225q0 92 14 173
q16 93 44 170q32 87 76 160q48 79 107 138zM1083 1817l78 -170l-506 -232l-55 111z" />
    <glyph glyph-name="cacute" unicode="&#x107;" horiz-adv-x="1138" 
d="M291 905q79 79 175 113q100 36 214 37q85 0 162 -25q73 -24 127 -73t83 -116t29 -155l-4 -16h-168q0 117 -67 172t-174 55q-92 0 -163 -41t-119 -108q-49 -68 -74 -155q-25 -85 -25 -179q0 -129 64 -208t200 -79q116 0 195 58q80 59 114 171h172l-2 -16
q-47 -180 -175 -277q-127 -96 -339 -96q-91 0 -172 31q-77 30 -133 87q-55 56 -85 133q-30 76 -30 169q0 145 46 280t149 238zM915 1509l78 -170l-506 -231l-55 111z" />
    <glyph glyph-name="Ccircumflex" unicode="&#x108;" horiz-adv-x="1394" 
d="M360 1153q104 104 232 156q130 53 276 53q128 0 219 -36q95 -38 153 -98q61 -64 89 -147q29 -85 29 -182l-2 -16h-187q-1 58 -18 114q-17 58 -53 98q-38 42 -100 66q-66 25 -156 25q-118 0 -213 -52q-96 -52 -165 -141q-70 -90 -107 -199q-38 -112 -38 -233
q0 -91 24 -168q23 -75 69 -131t111 -86q68 -31 155 -31q84 0 153 27q71 28 123 71q57 47 92 103q37 59 58 127h190l-2 -16q-28 -110 -86 -201q-59 -93 -139 -154q-84 -64 -187 -98q-107 -35 -229 -35q-117 0 -217 38q-97 37 -168 109q-69 70 -108 171t-39 225q0 92 14 173
q16 93 44 170q32 87 76 160q48 79 107 138zM885 1778l299 -236l-74 -110l-246 155l-286 -155l-60 110z" />
    <glyph glyph-name="ccircumflex" unicode="&#x109;" horiz-adv-x="1138" 
d="M291 905q79 79 175 113q100 36 214 37q85 0 162 -25q73 -24 127 -73t83 -116t29 -155l-4 -16h-168q0 117 -67 172t-174 55q-92 0 -163 -41t-119 -108q-49 -68 -74 -155q-25 -85 -25 -179q0 -129 64 -208t200 -79q116 0 195 58q80 59 114 171h172l-2 -16
q-47 -180 -175 -277q-127 -96 -339 -96q-91 0 -172 31q-77 30 -133 87q-55 56 -85 133q-30 76 -30 169q0 145 46 280t149 238zM715 1470l299 -235l-74 -111l-246 156l-286 -156l-60 111z" />
    <glyph glyph-name="Cdotaccent" unicode="&#x10a;" horiz-adv-x="1394" 
d="M360 1153q104 104 232 156q130 53 276 53q128 0 219 -36q95 -38 153 -98q61 -64 89 -147q29 -85 29 -182l-2 -16h-187q-1 58 -18 114q-17 58 -53 98q-38 42 -100 66q-66 25 -156 25q-118 0 -213 -52q-96 -52 -165 -141q-70 -90 -107 -199q-38 -112 -38 -233
q0 -91 24 -168q23 -75 69 -131t111 -86q68 -31 155 -31q84 0 153 27q71 28 123 71q57 47 92 103q37 59 58 127h190l-2 -16q-28 -110 -86 -201q-59 -93 -139 -154q-84 -64 -187 -98q-107 -35 -229 -35q-117 0 -217 38q-97 37 -168 109q-69 70 -108 171t-39 225q0 92 14 173
q16 93 44 170q32 87 76 160q48 79 107 138zM897 1708q56 0 90 -34q35 -35 25 -91q-10 -59 -56 -94t-100 -35q-55 0 -90 35t-25 94q10 55 55 90q44 35 101 35z" />
    <glyph glyph-name="cdotaccent" unicode="&#x10b;" horiz-adv-x="1138" 
d="M291 905q79 79 175 113q100 36 214 37q85 0 162 -25q73 -24 127 -73t83 -116t29 -155l-4 -16h-168q0 117 -67 172t-174 55q-92 0 -163 -41t-119 -108q-49 -68 -74 -155q-25 -85 -25 -179q0 -129 64 -208t200 -79q116 0 195 58q80 59 114 171h172l-2 -16
q-47 -180 -175 -277q-127 -96 -339 -96q-91 0 -172 31q-77 30 -133 87q-55 56 -85 133q-30 76 -30 169q0 145 46 280t149 238zM729 1407q56 0 90 -34q35 -35 25 -91q-10 -59 -56 -94t-100 -35q-55 0 -90 35t-25 94q10 55 55 90q44 35 101 35z" />
    <glyph glyph-name="Ccaron" unicode="&#x10c;" horiz-adv-x="1394" 
d="M360 1153q104 104 232 156q130 53 276 53q128 0 219 -36q95 -38 153 -98q61 -64 89 -147q29 -85 29 -182l-2 -16h-187q-1 58 -18 114q-17 58 -53 98q-38 42 -100 66q-66 25 -156 25q-118 0 -213 -52q-96 -52 -165 -141q-70 -90 -107 -199q-38 -112 -38 -233
q0 -91 24 -168q23 -75 69 -131t111 -86q68 -31 155 -31q84 0 153 27q71 28 123 71q57 47 92 103q37 59 58 127h190l-2 -16q-28 -110 -86 -201q-59 -93 -139 -154q-84 -64 -187 -98q-107 -35 -229 -35q-117 0 -217 38q-97 37 -168 109q-69 70 -108 171t-39 225q0 92 14 173
q16 93 44 170q32 87 76 160q48 79 107 138zM862 1434l-299 235l74 111l246 -156l286 156l60 -111z" />
    <glyph glyph-name="ccaron" unicode="&#x10d;" horiz-adv-x="1138" 
d="M291 905q79 79 175 113q100 36 214 37q85 0 162 -25q73 -24 127 -73t83 -116t29 -155l-4 -16h-168q0 117 -67 172t-174 55q-92 0 -163 -41t-119 -108q-49 -68 -74 -155q-25 -85 -25 -179q0 -129 64 -208t200 -79q116 0 195 58q80 59 114 171h172l-2 -16
q-47 -180 -175 -277q-127 -96 -339 -96q-91 0 -172 31q-77 30 -133 87q-55 56 -85 133q-30 76 -30 169q0 145 46 280t149 238zM692 1126l-299 236l74 111l246 -156l286 156l60 -111z" />
    <glyph glyph-name="Dcaron" unicode="&#x10e;" horiz-adv-x="1402" 
d="M774 1331q134 0 240 -38q104 -37 176 -106q70 -67 108 -166q37 -96 37 -218q0 -182 -58 -338q-59 -158 -173 -272q-103 -103 -244 -148t-295 -45h-465l209 1331h465zM319 172h256q138 0 242 46q105 46 175 127t108 194q37 111 37 245q0 180 -102 278q-101 97 -308 97
h-252zM776 1434l-299 235l74 111l246 -156l286 156l60 -111z" />
    <glyph glyph-name="dcaron" unicode="&#x10f;" horiz-adv-x="1366" 
d="M686 897q-94 0 -169 -39q-76 -40 -126 -104q-51 -66 -78 -152q-26 -82 -26 -182q0 -125 66 -209t210 -84q80 0 148 31q64 29 112 83q50 56 78 121q31 72 43 148q12 80 5 147q-8 70 -38 123q-31 54 -86 85q-56 32 -139 32zM270 883q79 79 185 126q104 46 219 46
q109 0 192 -37q85 -38 131 -100h4l84 516h187l-228 -1434h-131l-20 123h-4q-77 -85 -176 -120q-101 -36 -207 -36q-74 0 -150 28q-72 26 -133 83q-59 54 -95 136q-36 80 -34 185q1 140 44 268q42 126 132 216zM1681 1434l-4 -25l-217 -397h-133l156 422h198z" />
    <glyph glyph-name="Dcroat" unicode="&#x110;" horiz-adv-x="1423" 
d="M121 0l94 596h-184l24 162h185l90 573h465q133 0 239 -38q104 -37 176 -106t109 -166q37 -96 37 -218q0 -179 -59 -338q-59 -158 -173 -272q-103 -103 -243 -148q-141 -45 -295 -45h-465zM596 172q138 0 242 46q105 46 175 127q69 79 107 194q37 111 37 245
q0 181 -101 278t-308 97h-252l-64 -401h352l-24 -162h-352l-68 -424h256z" />
    <glyph glyph-name="dcroat" unicode="&#x111;" horiz-adv-x="1284" 
d="M686 897q-94 0 -169 -39q-76 -40 -126 -104q-51 -66 -78 -152q-26 -82 -26 -182q0 -125 66 -209t210 -84q80 0 148 31q64 29 112 83q50 56 78 121q31 72 43 148q12 80 5 147q-8 70 -38 123q-31 54 -86 85q-56 32 -139 32zM889 123q-77 -85 -176 -120q-101 -36 -207 -36
q-74 0 -150 28q-72 26 -133 83q-59 54 -95 136q-36 80 -34 185q1 140 44 268q42 126 132 216q79 79 185 126q104 46 219 46q109 0 192 -37q85 -38 131 -100h4l37 229h-293l29 158h291l20 129h187l-21 -129h129l-28 -158h-125l-183 -1147h-131l-20 123h-4z" />
    <glyph glyph-name="Emacron" unicode="&#x112;" horiz-adv-x="1134" 
d="M1102 1159h-627l-61 -395h538l-28 -172h-539l-66 -420h627l-26 -172h-820l209 1331h819zM1065 1606l-29 -158h-606l29 158h606z" />
    <glyph glyph-name="emacron" unicode="&#x113;" horiz-adv-x="1165" 
d="M668 897q-135 0 -224 -83q-88 -82 -127 -206h568q1 9 3 26q1 10 1 32q0 98 -54 164q-55 67 -167 67zM1014 287q-53 -155 -177 -237q-125 -83 -321 -83q-93 0 -172 32q-78 31 -133 88t-85 134q-30 78 -30 170q0 146 49 281q49 137 142 229q80 80 178 117t213 37
q96 0 170 -33q77 -34 124 -89q51 -59 76 -133q25 -75 25 -165q0 -47 -6 -90q-7 -49 -16 -90h-762q-2 -14 -2 -21v-20q0 -129 64 -208t200 -79q195 0 280 160h183zM1008 1346l-29 -158h-606l28 158h607z" />
    <glyph glyph-name="Edotaccent" unicode="&#x116;" horiz-adv-x="1134" 
d="M1102 1159h-627l-61 -395h538l-28 -172h-539l-66 -420h627l-26 -172h-820l209 1331h819zM784 1708q56 0 90 -34q35 -35 25 -91q-10 -60 -55 -94q-46 -35 -101 -35t-90 35q-34 34 -24 94q11 55 54 90q44 35 101 35z" />
    <glyph glyph-name="edotaccent" unicode="&#x117;" horiz-adv-x="1165" 
d="M668 897q-135 0 -224 -83q-88 -82 -127 -206h568q1 9 3 26q1 10 1 32q0 98 -54 164q-55 67 -167 67zM1014 287q-53 -155 -177 -237q-125 -83 -321 -83q-93 0 -172 32q-78 31 -133 88t-85 134q-30 78 -30 170q0 146 49 281q49 137 142 229q80 80 178 117t213 37
q96 0 170 -33q77 -34 124 -89q51 -59 76 -133q25 -75 25 -165q0 -47 -6 -90q-7 -49 -16 -90h-762q-2 -14 -2 -21v-20q0 -129 64 -208t200 -79q195 0 280 160h183zM733 1407q56 0 90 -34q35 -35 25 -91q-10 -60 -55 -94q-46 -35 -101 -35t-90 35q-34 34 -24 94q10 56 54 90
q44 35 101 35z" />
    <glyph glyph-name="Eogonek" unicode="&#x118;" horiz-adv-x="1134" 
d="M922 -352q-34 -15 -81 -21t-83 -6q-98 0 -142 48q-43 47 -43 108q0 76 51 133q49 55 119 90h-643l209 1331h819l-26 -172h-627l-61 -395h538l-28 -172h-539l-66 -420h627l-26 -172q-98 -40 -142 -90q-43 -49 -43 -107q0 -57 72 -57q26 0 53 5q23 4 62 20h20z" />
    <glyph glyph-name="eogonek" unicode="&#x119;" horiz-adv-x="1165" 
d="M547 -379q-97 0 -141 48q-44 49 -44 108q0 61 33 109q34 49 84 83q-87 6 -156 40q-74 36 -121 89q-52 59 -78 130q-28 78 -28 163q0 146 49 281q49 137 142 229q80 80 178 117t213 37q96 0 170 -33q77 -34 124 -89q51 -59 76 -133q25 -75 25 -165q0 -47 -6 -90
q-7 -49 -16 -90h-762q-2 -14 -2 -21v-20q0 -129 64 -208t200 -79q195 0 280 160h183q-41 -119 -126 -197q-85 -77 -214 -106q-78 -39 -114 -84t-36 -97q0 -57 72 -57q26 0 53 5q23 4 62 20h20l-20 -123q-35 -15 -81 -21q-47 -6 -83 -6zM668 897q-135 0 -224 -83
q-88 -82 -127 -206h568q1 9 3 26q1 10 1 32q0 98 -54 164q-55 67 -167 67z" />
    <glyph glyph-name="Ecaron" unicode="&#x11a;" horiz-adv-x="1134" 
d="M1102 1159h-627l-61 -395h538l-28 -172h-539l-66 -420h627l-26 -172h-820l209 1331h819zM750 1434l-299 235l73 111l246 -156l287 156l59 -111z" />
    <glyph glyph-name="ecaron" unicode="&#x11b;" horiz-adv-x="1165" 
d="M668 897q-135 0 -224 -83q-88 -82 -127 -206h568q1 9 3 26q1 10 1 32q0 98 -54 164q-55 67 -167 67zM1014 287q-53 -155 -177 -237q-125 -83 -321 -83q-93 0 -172 32q-78 31 -133 88t-85 134q-30 78 -30 170q0 146 49 281q49 137 142 229q80 80 178 117t213 37
q96 0 170 -33q77 -34 124 -89q51 -59 76 -133q25 -75 25 -165q0 -47 -6 -90q-7 -49 -16 -90h-762q-2 -14 -2 -21v-20q0 -129 64 -208t200 -79q195 0 280 160h183zM696 1126l-299 236l74 111l246 -156l287 156l59 -111z" />
    <glyph glyph-name="Gcircumflex" unicode="&#x11c;" horiz-adv-x="1499" 
d="M1311 233q-45 -53 -113 -103q-68 -49 -143 -84q-74 -34 -168 -56q-90 -21 -187 -21q-140 0 -247 40q-110 41 -184 111q-74 69 -113 169q-39 99 -39 217q0 199 63 365q63 167 174 278q105 105 241 159q137 54 294 54q97 0 186 -27t155 -81t105 -134t39 -188l-2 -19h-190
q0 137 -90 205q-91 68 -238 68q-126 0 -224 -52q-99 -53 -169 -142q-71 -91 -108 -204q-38 -116 -38 -241q0 -85 25 -163q24 -74 76 -128q51 -53 131 -83q79 -30 188 -30q103 0 208 41q104 41 190 113l36 233h-391l27 172h581zM895 1778l299 -236l-74 -110l-246 155
l-286 -155l-60 110z" />
    <glyph glyph-name="gcircumflex" unicode="&#x11d;" horiz-adv-x="1118" 
d="M631 903q-119 0 -195 -64t-76 -182q0 -77 56 -118t151 -41q130 0 201 67q72 67 72 176q0 78 -56 120t-153 42zM979 -45q0 -93 -45 -160q-44 -65 -122 -110q-75 -43 -179 -64q-97 -20 -217 -20q-94 0 -168 14q-80 15 -139 46q-60 31 -96 81q-36 49 -36 121q0 70 46 137
q44 65 131 109q-18 23 -33 54t-15 70q0 71 41 124q38 49 103 89q-33 33 -55 86q-21 51 -21 117q0 91 34 166q35 79 96 129q64 53 150 83q87 30 193 30q77 0 148 -19l196 193h191l-4 -27l-242 -239q40 -37 64 -93t24 -127q0 -196 -128 -295q-129 -100 -349 -100q-51 0 -98 6
q-48 6 -89 23q-40 -16 -61 -51q-20 -33 -20 -66q0 -32 21 -53t69 -21h295q70 0 124 -17q58 -18 101 -48q41 -28 66 -74q24 -43 24 -94zM287 27q-47 -16 -86 -56q-37 -38 -37 -92q0 -59 70 -92t212 -33q44 0 102 6t111 27q57 23 92 55q37 34 37 95q0 42 -39 65
q-42 25 -126 25h-336zM643 1470l266 -231l-65 -109l-219 154l-256 -154l-54 109z" />
    <glyph glyph-name="Gbreve" unicode="&#x11e;" horiz-adv-x="1499" 
d="M1311 233q-45 -53 -113 -103q-68 -49 -143 -84q-74 -34 -168 -56q-90 -21 -187 -21q-140 0 -247 40q-110 41 -184 111q-74 69 -113 169q-39 99 -39 217q0 199 63 365q63 167 174 278q105 105 241 159q137 54 294 54q97 0 186 -27t155 -81t105 -134t39 -188l-2 -19h-190
q0 137 -90 205q-91 68 -238 68q-126 0 -224 -52q-99 -53 -169 -142q-71 -91 -108 -204q-38 -116 -38 -241q0 -85 25 -163q24 -74 76 -128q51 -53 131 -83q79 -30 188 -30q103 0 208 41q104 41 190 113l36 233h-391l27 172h581zM748 1681q5 -67 40 -94q37 -28 99 -28
q61 0 107 28q47 29 69 94h192q-35 -125 -139 -191q-107 -67 -237 -67q-65 0 -124 18q-61 19 -102 50t-66 81q-24 48 -24 109h185z" />
    <glyph glyph-name="gbreve" unicode="&#x11f;" horiz-adv-x="1118" 
d="M631 903q-119 0 -195 -64t-76 -182q0 -77 56 -118t151 -41q130 0 201 67q72 67 72 176q0 78 -56 120t-153 42zM979 -45q0 -93 -45 -160q-44 -65 -122 -110q-75 -43 -179 -64q-97 -20 -217 -20q-94 0 -168 14q-80 15 -139 46q-60 31 -96 81q-36 49 -36 121q0 70 46 137
q44 65 131 109q-18 23 -33 54t-15 70q0 71 41 124q38 49 103 89q-33 33 -55 86q-21 51 -21 117q0 91 34 166q35 79 96 129q64 53 150 83q87 30 193 30q77 0 148 -19l196 193h191l-4 -27l-242 -239q40 -37 64 -93t24 -127q0 -196 -128 -295q-129 -100 -349 -100q-51 0 -98 6
q-48 6 -89 23q-40 -16 -61 -51q-20 -33 -20 -66q0 -32 21 -53t69 -21h295q70 0 124 -17q58 -18 101 -48q41 -28 66 -74q24 -43 24 -94zM287 27q-47 -16 -86 -56q-37 -38 -37 -92q0 -59 70 -92t212 -33q44 0 102 6t111 27q57 23 92 55q37 34 37 95q0 42 -39 65
q-42 25 -126 25h-336zM518 1399q5 -66 41 -94q38 -29 98 -29q61 0 108 29t69 94h192q-35 -127 -139 -192q-105 -66 -238 -66q-69 0 -124 17q-59 18 -101 50q-43 32 -67 81q-23 46 -23 110h184z" />
    <glyph glyph-name="Gdotaccent" unicode="&#x120;" horiz-adv-x="1499" 
d="M1311 233q-45 -53 -113 -103q-68 -49 -143 -84q-74 -34 -168 -56q-90 -21 -187 -21q-140 0 -247 40q-110 41 -184 111q-74 69 -113 169q-39 99 -39 217q0 199 63 365q63 167 174 278q105 105 241 159q137 54 294 54q97 0 186 -27t155 -81t105 -134t39 -188l-2 -19h-190
q0 137 -90 205q-91 68 -238 68q-126 0 -224 -52q-99 -53 -169 -142q-71 -91 -108 -204q-38 -116 -38 -241q0 -85 25 -163q24 -74 76 -128q51 -53 131 -83q79 -30 188 -30q103 0 208 41q104 41 190 113l36 233h-391l27 172h581zM909 1708q56 0 90 -34q35 -35 25 -91
q-10 -60 -55 -94q-46 -35 -101 -35t-90 35q-34 34 -24 94q10 55 54 90t101 35z" />
    <glyph glyph-name="gdotaccent" unicode="&#x121;" horiz-adv-x="1118" 
d="M631 903q-119 0 -195 -64t-76 -182q0 -77 56 -118t151 -41q130 0 201 67q72 67 72 176q0 78 -56 120t-153 42zM979 -45q0 -93 -45 -160q-44 -65 -122 -110q-75 -43 -179 -64q-97 -20 -217 -20q-94 0 -168 14q-80 15 -139 46q-60 31 -96 81q-36 49 -36 121q0 70 46 137
q44 65 131 109q-18 23 -33 54t-15 70q0 71 41 124q38 49 103 89q-33 33 -55 86q-21 51 -21 117q0 91 34 166q35 79 96 129q64 53 150 83q87 30 193 30q77 0 148 -19l196 193h191l-4 -27l-242 -239q40 -37 64 -93t24 -127q0 -196 -128 -295q-129 -100 -349 -100q-51 0 -98 6
q-48 6 -89 23q-40 -16 -61 -51q-20 -33 -20 -66q0 -32 21 -53t69 -21h295q70 0 124 -17q58 -18 101 -48q41 -28 66 -74q24 -43 24 -94zM287 27q-47 -16 -86 -56q-37 -38 -37 -92q0 -59 70 -92t212 -33q44 0 102 6t111 27q57 23 92 55q37 34 37 95q0 42 -39 65
q-42 25 -126 25h-336zM707 1407q56 0 90 -34t24 -91q-10 -60 -55 -94q-46 -35 -100 -35q-56 0 -91 35q-34 34 -24 94q11 56 54 90q44 35 102 35z" />
    <glyph glyph-name="uni0122" unicode="&#x122;" horiz-adv-x="1499" 
d="M1311 233q-45 -53 -113 -103q-68 -49 -143 -84q-74 -34 -168 -56q-90 -21 -187 -21q-140 0 -247 40q-110 41 -184 111q-74 69 -113 169q-39 99 -39 217q0 199 63 365q63 167 174 278q105 105 241 159q137 54 294 54q97 0 186 -27t155 -81t105 -134t39 -188l-2 -19h-190
q0 137 -90 205q-91 68 -238 68q-126 0 -224 -52q-99 -53 -169 -142q-71 -91 -108 -204q-38 -116 -38 -241q0 -85 25 -163q24 -74 76 -128q51 -53 131 -83q79 -30 188 -30q103 0 208 41q104 41 190 113l36 233h-391l27 172h581zM754 -143l-2 -25l-203 -301h-133l139 326h199z
" />
    <glyph glyph-name="uni0123" unicode="&#x123;" horiz-adv-x="1118" 
d="M631 903q-119 0 -195 -64t-76 -182q0 -77 56 -118t151 -41q130 0 201 67q72 67 72 176q0 78 -56 120t-153 42zM979 -45q0 -93 -45 -160q-44 -65 -122 -110q-75 -43 -179 -64q-97 -20 -217 -20q-94 0 -168 14q-80 15 -139 46q-60 31 -96 81q-36 49 -36 121q0 70 46 137
q44 65 131 109q-18 23 -33 54t-15 70q0 71 41 124q38 49 103 89q-33 33 -55 86q-21 51 -21 117q0 91 34 166q35 79 96 129q64 53 150 83q87 30 193 30q77 0 148 -19l196 193h191l-4 -27l-242 -239q40 -37 64 -93t24 -127q0 -196 -128 -295q-129 -100 -349 -100q-51 0 -98 6
q-48 6 -89 23q-40 -16 -61 -51q-20 -33 -20 -66q0 -32 21 -53t69 -21h295q70 0 124 -17q58 -18 101 -48q41 -28 66 -74q24 -43 24 -94zM287 27q-47 -16 -86 -56q-37 -38 -37 -92q0 -59 70 -92t212 -33q44 0 102 6t111 27q57 23 92 55q37 34 37 95q0 42 -39 65
q-42 25 -126 25h-336zM918 1483l-5 -23l-202 -315h-133l141 338h199z" />
    <glyph glyph-name="Hcircumflex" unicode="&#x124;" horiz-adv-x="1480" 
d="M309 1331h193l-88 -567h735l88 567h193l-209 -1331h-193l92 592h-735l-92 -592h-193zM920 1778l299 -236l-74 -110l-246 155l-287 -155l-59 110z" />
    <glyph glyph-name="hcircumflex" unicode="&#x125;" horiz-adv-x="1163" 
d="M80 0l227 1434h187l-82 -519h4q62 77 147 108q87 32 164 32q86 0 152 -30q65 -29 106 -83q40 -52 57 -126t5 -159l-103 -657h-184l98 625q8 53 4 97q-5 52 -24 86q-21 38 -63 60q-43 23 -109 23q-48 0 -97 -18t-92 -58t-76 -108q-32 -66 -49 -170l-86 -537h-186z
M453 1880l299 -235l-74 -111l-246 156l-287 -156l-59 111z" />
    <glyph glyph-name="Hbar" unicode="&#x126;" horiz-adv-x="1480" 
d="M1149 764l37 233h-735l-37 -233h735zM293 0h-193l156 997h-143l24 160h146l26 174h193l-27 -174h735l27 174h193l-27 -174h145l-24 -160h-148l-155 -997h-193l92 592h-735z" />
    <glyph glyph-name="hbar" unicode="&#x127;" horiz-adv-x="1163" 
d="M266 0h-186l182 1147h-135l29 158h131l20 129h187l-21 -129h289l-29 -158h-284l-37 -232h4q62 77 147 108q87 32 164 32q86 0 152 -30q65 -29 106 -83q40 -52 57 -126t5 -159l-103 -657h-184l98 625q8 53 4 97q-5 52 -24 86q-21 38 -63 60q-43 23 -109 23q-48 0 -97 -18
t-92 -58t-76 -108q-32 -66 -49 -170z" />
    <glyph glyph-name="Itilde" unicode="&#x128;" horiz-adv-x="552" 
d="M309 1331h193l-209 -1331h-193zM84 1413q7 42 27 91q17 42 49 80q30 36 72 57q44 22 94 22q49 0 78 -14q42 -20 60 -32q10 -7 53 -32q24 -14 58 -14q31 0 60 16q31 17 41 82h141q-7 -43 -26 -90q-16 -40 -50 -81q-30 -36 -71 -57q-42 -22 -95 -22q-44 0 -77 15
q-46 21 -61 31q-11 7 -53 32q-24 14 -60 14q-30 0 -59 -16q-30 -16 -40 -82h-141z" />
    <glyph glyph-name="itilde" unicode="&#x129;" horiz-adv-x="489" 
d="M233 1024h187l-162 -1024h-186zM6 1126q7 44 27 92q17 40 49 79q31 37 73 58t93 21q50 0 79 -14q38 -18 59 -32q10 -7 53 -32q24 -14 59 -14q30 0 59 16q31 17 41 82h141q-7 -43 -26 -90q-17 -43 -49 -81q-29 -35 -72 -57q-40 -21 -94 -21q-47 0 -78 14q-41 19 -61 32
q-8 5 -17 10.5t-19.5 11.5t-16.5 9q-26 15 -60 15q-28 0 -59 -17q-30 -16 -40 -82h-141z" />
    <glyph glyph-name="Imacron" unicode="&#x12a;" horiz-adv-x="552" 
d="M309 1331h193l-209 -1331h-193zM752 1606l-29 -158h-606l28 158h607z" />
    <glyph glyph-name="imacron" unicode="&#x12b;" horiz-adv-x="489" 
d="M233 1024h187l-162 -1024h-186zM678 1346l-29 -158h-606l29 158h606z" />
    <glyph glyph-name="Ibreve" unicode="&#x12c;" horiz-adv-x="552" 
d="M309 1331h193l-209 -1331h-193zM309 1681q5 -66 41 -94q37 -28 99 -28q61 0 107 28q47 29 69 94h192q-35 -125 -139 -191q-107 -67 -238 -67q-66 0 -124 18q-59 18 -101 50q-43 32 -67 81q-23 46 -23 109h184z" />
    <glyph glyph-name="ibreve" unicode="&#x12d;" horiz-adv-x="489" 
d="M233 1024h187l-162 -1024h-186zM231 1399q5 -66 41 -94q38 -29 99 -29q60 0 107 29t69 94h192q-35 -127 -139 -192q-105 -66 -238 -66q-68 0 -123 17q-61 19 -102 50t-66 81q-24 48 -24 110h184z" />
    <glyph glyph-name="Iogonek" unicode="&#x12e;" horiz-adv-x="552" 
d="M295 -352q-35 -15 -81 -21t-83 -6q-97 0 -141 48q-43 47 -43 108q0 77 50 133q48 54 120 90h-17l209 1331h193l-209 -1331q-97 -40 -141 -90q-43 -49 -43 -107q0 -57 71 -57q26 0 53 5q23 4 62 20h20z" />
    <glyph glyph-name="iogonek" unicode="&#x12f;" horiz-adv-x="489" 
d="M514 1362q0 -64 -39 -104q-38 -39 -110 -39q-50 0 -85 31q-36 32 -36 73q0 35 11 57q13 26 30 43q41 41 110 41q48 0 83 -29q36 -30 36 -73zM260 -352q-34 -15 -81 -21q-46 -6 -83 -6q-97 0 -141 48q-43 47 -43 108q0 77 50 133q48 54 120 90h-10l161 1024h187
l-162 -1024q-97 -40 -141 -90q-43 -49 -43 -107q0 -57 71 -57q27 0 54 5q21 4 61 20h21z" />
    <glyph glyph-name="Idotaccent" unicode="&#x130;" horiz-adv-x="552" 
d="M309 1331h193l-209 -1331h-193zM471 1708q56 0 90 -34q35 -35 25 -91q-10 -59 -56 -94t-100 -35q-55 0 -90 35t-25 94q10 55 55 90q44 35 101 35z" />
    <glyph glyph-name="dotlessi" unicode="&#x131;" horiz-adv-x="489" 
d="M233 1024h187l-162 -1024h-186z" />
    <glyph glyph-name="Jcircumflex" unicode="&#x134;" horiz-adv-x="839" 
d="M57 178q29 -15 70 -26q39 -11 80 -11q116 0 172 65t74 185l147 940h188l-153 -977q-15 -85 -45 -157q-29 -70 -82 -123t-126 -79q-78 -28 -177 -28q-43 0 -106 13q-59 12 -99 36l25 162h32zM745 1778l299 -236l-73 -110l-246 155l-287 -155l-59 110z" />
    <glyph glyph-name="jcircumflex" unicode="&#x135;" horiz-adv-x="491" 
d="M-178 -342q61 39 107 95q45 55 79 117q32 58 52 123q22 70 28 113l145 918h189l-148 -932q-22 -140 -96 -265q-73 -124 -180 -196h-180zM379 1470l299 -235l-74 -111l-246 156l-286 -156l-60 111z" />
    <glyph glyph-name="uni0136" unicode="&#x136;" horiz-adv-x="1261" 
d="M395 649l-102 -649h-193l209 1331h193l-92 -581l659 581h229l-4 -31l-692 -608l512 -661l-4 -31h-213zM643 -143l-2 -25l-203 -301h-133l139 326h199z" />
    <glyph glyph-name="uni0137" unicode="&#x137;" horiz-adv-x="1042" 
d="M346 508l-80 -508h-186l227 1434h187l-134 -834l449 424h223l-4 -25l-475 -454l391 -518l-4 -27h-205zM596 -143l-2 -25l-203 -301h-133l139 326h199z" />
    <glyph glyph-name="Lacute" unicode="&#x139;" horiz-adv-x="1073" 
d="M502 1331l-183 -1159h607l-27 -172h-799l209 1331h193zM655 1819l78 -170l-506 -232l-55 111z" />
    <glyph glyph-name="lacute" unicode="&#x13a;" horiz-adv-x="604" 
d="M303 305q-15 -92 16 -123q30 -30 136 -18h32l-24 -158q-23 -6 -56 -9q-35 -3 -51 -3q-288 0 -237 319l176 1121h186zM643 1923l78 -170l-506 -231l-55 110z" />
    <glyph glyph-name="uni013B" unicode="&#x13b;" horiz-adv-x="1073" 
d="M502 1331l-183 -1159h607l-27 -172h-799l209 1331h193zM618 -143l-2 -25l-202 -301h-133l139 326h198z" />
    <glyph glyph-name="uni013C" unicode="&#x13c;" horiz-adv-x="604" 
d="M303 305q-15 -92 16 -123q30 -30 136 -18h32l-24 -158q-23 -6 -56 -9q-35 -3 -51 -3q-288 0 -237 319l176 1121h186zM385 -143l-2 -25l-203 -301h-133l139 326h199z" />
    <glyph glyph-name="Lcaron" unicode="&#x13d;" horiz-adv-x="1073" 
d="M502 1331l-183 -1159h607l-27 -172h-799l209 1331h193zM997 1331l-4 -24l-217 -398h-133l156 422h198z" />
    <glyph glyph-name="lcaron" unicode="&#x13e;" horiz-adv-x="620" 
d="M303 305q-15 -92 16 -123q30 -30 136 -18h32l-24 -158q-23 -6 -56 -9q-35 -3 -51 -3q-288 0 -237 319l176 1121h186zM899 1434l-4 -25l-217 -397h-133l155 422h199z" />
    <glyph glyph-name="Ldot" unicode="&#x13f;" horiz-adv-x="1073" 
d="M502 1331l-183 -1159h607l-27 -172h-799l209 1331h193zM725 813q56 0 90 -34q35 -35 25 -91q-10 -59 -56 -94t-100 -35q-55 0 -90 35t-25 94q10 55 55 90q44 35 101 35z" />
    <glyph glyph-name="ldot" unicode="&#x140;" horiz-adv-x="808" 
d="M303 305q-15 -92 16 -123q30 -30 136 -18h32l-24 -158q-23 -6 -56 -9q-35 -3 -51 -3q-288 0 -237 319l176 1121h186zM705 813q56 0 90 -34t24 -91q-10 -60 -55 -94q-46 -35 -100 -35q-56 0 -91 35q-34 34 -24 94q11 56 54 90q44 35 102 35z" />
    <glyph glyph-name="Lslash" unicode="&#x141;" horiz-adv-x="1093" 
d="M121 0l84 535l-144 -56l-45 154l217 84l97 614h192l-84 -532l244 94l43 -154l-315 -123l-70 -444h606l-26 -172h-799z" />
    <glyph glyph-name="lslash" unicode="&#x142;" horiz-adv-x="645" 
d="M377 -6q-289 0 -238 319l41 262l-133 -53l-43 154l205 82l106 676h187l-94 -596l190 75l43 -153l-262 -105l-55 -350q-15 -92 16 -123q30 -30 135 -18h33l-25 -158q-23 -6 -56 -9q-35 -3 -50 -3z" />
    <glyph glyph-name="Nacute" unicode="&#x143;" horiz-adv-x="1470" 
d="M309 1331h205l416 -774q4 -6 29 -55q26 -50 39 -77q26 -54 37 -76q21 -42 26 -54h6q5 23 9 60q1 10 11 81q2 17 7 45.5t6 36.5q7 44 8 62l119 751h192l-209 -1331h-194l-420 774q-13 22 -30 55q-6 12 -20 38t-21 40q-34 66 -40 78q-23 49 -26 55h-6q-1 -7 -4 -26.5
t-4 -32.5q-2 -14 -11 -82q-4 -29 -12 -83q-7 -46 -10 -62l-119 -754h-193zM1118 1817l78 -170l-506 -232l-55 111z" />
    <glyph glyph-name="nacute" unicode="&#x144;" horiz-adv-x="1163" 
d="M381 1024l16 -121h4q72 89 156 120q85 32 170 32q86 0 152 -33t106 -89q41 -57 57 -133q17 -78 2 -163l-100 -637h-184l98 625q8 55 5 101q-3 47 -24 85q-20 36 -64 58t-109 22q-48 0 -97 -18t-92 -58t-76 -108q-32 -66 -49 -170l-86 -537h-186l162 1024h139zM926 1509
l78 -170l-506 -231l-56 111z" />
    <glyph glyph-name="uni0145" unicode="&#x145;" horiz-adv-x="1470" 
d="M309 1331h205l416 -774q4 -6 29 -55q26 -50 39 -77q26 -54 37 -76q21 -42 26 -54h6q5 23 9 60q1 10 11 81q2 17 7 45.5t6 36.5q7 44 8 62l119 751h192l-209 -1331h-194l-420 774q-13 22 -30 55q-6 12 -20 38t-21 40q-34 66 -40 78q-23 49 -26 55h-6q-1 -7 -4 -26.5
t-4 -32.5q-2 -14 -11 -82q-4 -29 -12 -83q-7 -46 -10 -62l-119 -754h-193zM774 -143l-2 -25l-203 -301h-133l139 326h199z" />
    <glyph glyph-name="uni0146" unicode="&#x146;" horiz-adv-x="1163" 
d="M381 1024l16 -121h4q72 89 156 120q85 32 170 32q86 0 152 -33t106 -89q41 -57 57 -133q17 -78 2 -163l-100 -637h-184l98 625q8 55 5 101q-3 47 -24 85q-20 36 -64 58t-109 22q-48 0 -97 -18t-92 -58t-76 -108q-32 -66 -49 -170l-86 -537h-186l162 1024h139zM596 -143
l-2 -25l-203 -301h-133l139 326h199z" />
    <glyph glyph-name="Ncaron" unicode="&#x147;" horiz-adv-x="1470" 
d="M309 1331h205l416 -774q4 -6 29 -55q26 -50 39 -77q26 -54 37 -76q21 -42 26 -54h6q5 23 9 60q1 10 11 81q2 17 7 45.5t6 36.5q7 44 8 62l119 751h192l-209 -1331h-194l-420 774q-13 22 -30 55q-6 12 -20 38t-21 40q-34 66 -40 78q-23 49 -26 55h-6q-1 -7 -4 -26.5
t-4 -32.5q-2 -14 -11 -82q-4 -29 -12 -83q-7 -46 -10 -62l-119 -754h-193zM893 1434l-299 235l74 111l245 -156l287 156l60 -111z" />
    <glyph glyph-name="ncaron" unicode="&#x148;" horiz-adv-x="1163" 
d="M381 1024l16 -121h4q72 89 156 120q85 32 170 32q86 0 152 -33t106 -89q41 -57 57 -133q17 -78 2 -163l-100 -637h-184l98 625q8 55 5 101q-3 47 -24 85q-20 36 -64 58t-109 22q-48 0 -97 -18t-92 -58t-76 -108q-32 -66 -49 -170l-86 -537h-186l162 1024h139zM690 1126
l-299 236l74 111l246 -156l286 156l60 -111z" />
    <glyph glyph-name="napostrophe" unicode="&#x149;" horiz-adv-x="1454" 
d="M672 1024l16 -121h4q72 89 156 120q85 32 170 32t151 -33q68 -34 107 -89q41 -57 57 -133q17 -78 2 -163l-100 -637h-184l98 625q8 55 5 101q-3 45 -25 85q-21 37 -63 58q-44 22 -110 22q-46 0 -96 -18q-49 -18 -92 -58t-76 -108q-32 -66 -49 -170l-86 -537h-186
l161 1024h140zM483 1331l-2 -24l-284 -506h-134l185 530h235z" />
    <glyph glyph-name="Eng" unicode="&#x14a;" horiz-adv-x="1470" 
d="M772 -399q-32 0 -76 6q-43 6 -73 18l26 168h17q50 -18 108 -18q115 0 167 61t73 168l-418 770q-13 22 -30 55q-6 12 -20 38t-21 40q-34 66 -40 78q-23 49 -26 55h-6q-1 -7 -4 -26.5t-4 -32.5q-2 -14 -11 -82q-4 -29 -12 -83q-7 -46 -10 -62l-119 -754h-193l209 1331h205
l416 -774q4 -6 29 -55q26 -50 39 -77q26 -54 37 -76q21 -42 26 -54h6q5 23 9 60q1 10 11 81q2 17 7 45.5t6 36.5q7 44 8 62l119 751h192l-205 -1302l-6 -45q-24 -173 -139 -279q-113 -104 -297 -104z" />
    <glyph glyph-name="eng" unicode="&#x14b;" horiz-adv-x="1163" 
d="M510 -342q60 32 107 84q46 50 78 113q33 65 53 127q21 65 28 124l80 502q8 52 5 101q-3 53 -23 91q-20 39 -63 65t-109 26q-48 0 -97 -18t-92 -58t-76 -108q-32 -66 -49 -170l-86 -537h-186l162 1024h139l16 -121h4q72 89 156 120q85 32 170 32q84 -1 152 -34
q65 -31 106 -87q40 -55 55 -130q14 -72 2 -161l-86 -571q-23 -157 -97 -273q-75 -118 -173 -168h-180z" />
    <glyph glyph-name="Omacron" unicode="&#x14c;" horiz-adv-x="1517" 
d="M1200 172q-105 -105 -237 -154t-289 -49q-123 0 -224 40q-102 40 -176 113q-73 71 -115 174q-42 102 -42 224q0 188 64 353q65 168 171 274q116 116 252 166q134 49 291 49q124 0 225 -40q104 -41 176 -112q74 -72 114 -174q40 -101 40 -227q0 -185 -65 -351t-185 -286z
M702 145q120 0 222 52q101 51 173 138q71 85 112 202q40 113 40 241q0 89 -23 161q-24 74 -72 130q-49 56 -120 86q-74 31 -170 31q-122 0 -224 -51q-98 -49 -173 -138q-72 -86 -111 -199q-39 -114 -39 -239q0 -87 24 -164q24 -75 72 -131q47 -55 121 -87q73 -32 168 -32z
M1233 1606l-29 -158h-606l29 158h606z" />
    <glyph glyph-name="omacron" unicode="&#x14d;" horiz-adv-x="1234" 
d="M279 891q91 91 192 125q102 34 227 39q90 0 172 -31q81 -31 141 -86t94 -134q34 -78 34 -175q-1 -148 -50 -280q-47 -128 -143 -224q-80 -80 -185 -119t-231 -39q-92 0 -172 30t-138 85t-91 133t-33 172q0 154 49 286q49 134 134 218zM555 127q94 0 165 40q75 42 123 106
q50 66 77 153q26 82 26 180q0 130 -64 210q-64 81 -204 81q-93 0 -165 -39q-75 -40 -123 -105q-50 -66 -77 -153q-26 -82 -26 -180q0 -129 64 -211t204 -82zM1051 1346l-29 -158h-606l28 158h607z" />
    <glyph glyph-name="Obreve" unicode="&#x14e;" horiz-adv-x="1517" 
d="M1200 172q-105 -105 -237 -154t-289 -49q-123 0 -224 40q-102 40 -176 113q-73 71 -115 174q-42 102 -42 224q0 188 64 353q65 168 171 274q116 116 252 166q134 49 291 49q124 0 225 -40q104 -41 176 -112q74 -72 114 -174q40 -101 40 -227q0 -185 -65 -351t-185 -286z
M702 145q120 0 222 52q101 51 173 138q71 85 112 202q40 113 40 241q0 89 -23 161q-24 74 -72 130q-49 56 -120 86q-74 31 -170 31q-122 0 -224 -51q-98 -49 -173 -138q-72 -86 -111 -199q-39 -114 -39 -239q0 -87 24 -164q24 -75 72 -131q47 -55 121 -87q73 -32 168 -32z
M797 1681q5 -66 41 -94q37 -28 98 -28t107 28q47 29 69 94h193q-35 -125 -140 -191q-107 -67 -237 -67q-66 0 -124 18q-61 19 -102 50t-66 81q-24 48 -24 109h185z" />
    <glyph glyph-name="obreve" unicode="&#x14f;" horiz-adv-x="1234" 
d="M279 891q91 91 192 125q102 34 227 39q90 0 172 -31q81 -31 141 -86t94 -134q34 -78 34 -175q-1 -148 -50 -280q-47 -128 -143 -224q-80 -80 -185 -119t-231 -39q-92 0 -172 30t-138 85t-91 133t-33 172q0 154 49 286q49 134 134 218zM555 127q94 0 165 40q75 42 123 106
q50 66 77 153q26 82 26 180q0 130 -64 210q-64 81 -204 81q-93 0 -165 -39q-75 -40 -123 -105q-50 -66 -77 -153q-26 -82 -26 -180q0 -129 64 -211t204 -82zM588 1399q5 -66 41 -94q38 -29 98 -29q61 0 108 29q45 28 68 94h193q-35 -126 -140 -192t-237 -66q-69 0 -124 17
q-59 18 -101 50q-43 32 -67 81q-24 48 -24 110h185z" />
    <glyph glyph-name="Ohungarumlaut" unicode="&#x150;" horiz-adv-x="1517" 
d="M1200 172q-105 -105 -237 -154t-289 -49q-123 0 -224 40q-102 40 -176 113q-73 71 -115 174q-42 102 -42 224q0 188 64 353q65 168 171 274q116 116 252 166q134 49 291 49q124 0 225 -40q104 -41 176 -112q74 -72 114 -174q40 -101 40 -227q0 -185 -65 -351t-185 -286z
M702 145q120 0 222 52q101 51 173 138q71 85 112 202q40 113 40 241q0 89 -23 161q-24 74 -72 130q-49 56 -120 86q-74 31 -170 31q-122 0 -224 -51q-98 -49 -173 -138q-72 -86 -111 -199q-39 -114 -39 -239q0 -87 24 -164q24 -75 72 -131q47 -55 121 -87q73 -32 168 -32z
M987 1819l103 -144l-383 -252l-62 95zM1376 1819l103 -144l-383 -252l-62 95z" />
    <glyph glyph-name="ohungarumlaut" unicode="&#x151;" horiz-adv-x="1234" 
d="M279 891q91 91 192 125q102 34 227 39q90 0 172 -31q81 -31 141 -86t94 -134q34 -78 34 -175q-1 -148 -50 -280q-47 -128 -143 -224q-80 -80 -185 -119t-231 -39q-92 0 -172 30t-138 85t-91 133t-33 172q0 154 49 286q49 134 134 218zM555 127q94 0 165 40q75 42 123 106
q50 66 77 153q26 82 26 180q0 130 -64 210q-64 81 -204 81q-93 0 -165 -39q-75 -40 -123 -105q-50 -66 -77 -153q-26 -82 -26 -180q0 -129 64 -211t204 -82zM756 1509l102 -143l-383 -252l-61 94zM1145 1509l102 -143l-383 -252l-61 94z" />
    <glyph glyph-name="OE" unicode="&#x152;" horiz-adv-x="2170" 
d="M702 145q120 0 222 52q101 51 173 138q71 85 112 202q40 113 40 241q0 89 -23 161q-24 74 -72 130q-49 56 -120 86q-74 31 -170 31q-122 0 -224 -51q-98 -49 -173 -138q-72 -86 -111 -199q-39 -114 -39 -239q0 -87 24 -164q24 -75 72 -131q47 -55 121 -87q73 -32 168 -32
zM1163 158q-91 -87 -212 -136q-127 -52 -277 -53q-123 0 -224 40q-102 40 -176 113q-73 71 -115 174q-42 102 -42 224q0 188 64 353q65 168 171 274q116 116 252 166q134 49 291 49q147 0 254 -57t170 -162l29 188h819l-27 -172h-627l-61 -395h539l-29 -172h-539l-65 -420
h627l-27 -172h-819z" />
    <glyph glyph-name="oe" unicode="&#x153;" horiz-adv-x="1894" 
d="M1262 -33q-112 0 -201 53q-88 52 -135 152q-73 -99 -183 -152q-109 -53 -243 -53q-78 0 -153 28q-70 26 -128 81q-53 51 -89 131q-34 77 -34 178q0 147 42 270q42 124 117 212q76 90 180 139t235 49q109 0 204 -53q96 -53 146 -154q71 95 174 151t233 56q85 0 156 -31
q69 -30 119 -86t75 -130t25 -163q0 -41 -6 -92q-6 -52 -18 -98h-719q-12 -143 44 -235q57 -93 187 -93q179 0 262 160h185q-63 -165 -189 -243q-125 -77 -286 -77zM524 127q86 0 154 42t114 111q44 66 69 155q24 87 24 179q0 123 -58 204q-57 79 -180 79q-86 0 -152 -42
t-113 -110q-47 -69 -71 -153q-24 -85 -24 -176q-2 -128 55 -208q57 -81 182 -81zM1614 608q6 55 -1 106q-7 50 -32 92q-23 39 -67 64t-105 25q-127 0 -205 -79q-78 -80 -117 -208h527z" />
    <glyph glyph-name="Racute" unicode="&#x154;" horiz-adv-x="1245" 
d="M702 680q129 0 210 81q82 82 83 210q0 83 -46 135q-47 53 -156 53h-318l-76 -479h303zM100 0l209 1331h512q82 0 149 -22q66 -21 117 -65q50 -42 78 -100q29 -60 29 -130q0 -226 -141 -367q-45 -45 -115 -81q-63 -32 -145 -48l299 -487l-5 -31h-196l-309 504h-211
l-78 -504h-193zM969 1821l78 -170l-506 -232l-56 111z" />
    <glyph glyph-name="racute" unicode="&#x155;" horiz-adv-x="753" 
d="M80 0l162 1024h125l16 -164h4q50 85 143 128q96 44 189 44q18 0 32 -1q20 -1 31 -3l-28 -184h-58q-102 0 -167 -30t-102 -79q-39 -51 -56 -113q-19 -67 -29 -135l-76 -487h-186zM764 1509l78 -170l-506 -231l-55 111z" />
    <glyph glyph-name="uni0156" unicode="&#x156;" horiz-adv-x="1245" 
d="M702 680q129 0 210 81q82 82 83 210q0 83 -46 135q-47 53 -156 53h-318l-76 -479h303zM100 0l209 1331h512q82 0 149 -22q66 -21 117 -65q50 -42 78 -100q29 -60 29 -130q0 -226 -141 -367q-45 -45 -115 -81q-63 -32 -145 -48l299 -487l-5 -31h-196l-309 504h-211
l-78 -504h-193zM625 -143l-2 -25l-203 -301h-133l139 326h199z" />
    <glyph glyph-name="uni0157" unicode="&#x157;" horiz-adv-x="753" 
d="M80 0l162 1024h125l16 -164h4q50 85 143 128q96 44 189 44q18 0 32 -1q20 -1 31 -3l-28 -184h-58q-102 0 -167 -30t-102 -79q-39 -51 -56 -113q-19 -67 -29 -135l-76 -487h-186zM254 -143l-2 -25l-203 -301h-133l139 326h199z" />
    <glyph glyph-name="Rcaron" unicode="&#x158;" horiz-adv-x="1245" 
d="M702 680q129 0 210 81q82 82 83 210q0 83 -46 135q-47 53 -156 53h-318l-76 -479h303zM100 0l209 1331h512q82 0 149 -22q66 -21 117 -65q50 -42 78 -100q29 -60 29 -130q0 -226 -141 -367q-45 -45 -115 -81q-63 -32 -145 -48l299 -487l-5 -31h-196l-309 504h-211
l-78 -504h-193zM745 1434l-299 235l74 111l246 -156l287 156l59 -111z" />
    <glyph glyph-name="rcaron" unicode="&#x159;" horiz-adv-x="753" 
d="M80 0l162 1024h125l16 -164h4q50 85 143 128q96 44 189 44q18 0 32 -1q20 -1 31 -3l-28 -184h-58q-102 0 -167 -30t-102 -79q-39 -51 -56 -113q-19 -67 -29 -135l-76 -487h-186zM543 1126l-299 236l73 111l246 -156l287 156l59 -111z" />
    <glyph glyph-name="Sacute" unicode="&#x15a;" horiz-adv-x="1165" 
d="M201 940q0 97 38 176t103 131q69 55 152 81q89 28 180 28q98 0 179 -27q79 -26 136 -74q56 -47 83 -114q28 -70 22 -152l-2 -16h-183q5 44 -7 83q-12 41 -40 70q-31 33 -76 50q-46 18 -116 18q-119 0 -191 -56q-73 -57 -73 -155q0 -50 11 -73q13 -28 29 -44
q33 -33 100 -55q64 -21 138 -42q65 -19 147 -52q74 -30 130 -86q40 -40 64 -96q24 -55 24 -132q0 -97 -36 -176t-102 -138q-67 -59 -158 -90q-94 -32 -208 -32q-105 0 -191 33q-88 34 -146 89q-62 59 -89 132q-29 78 -19 160l2 16h197q-8 -54 5 -98q14 -48 47 -84
q34 -37 86 -58q55 -22 122 -22q129 0 207 69t78 179q0 39 -13 71q-12 30 -34 52q-40 40 -106 60q-76 23 -136 38q-71 18 -142 45t-126 82q-39 39 -63 91q-23 50 -23 118zM971 1821l78 -170l-506 -232l-56 111z" />
    <glyph glyph-name="sacute" unicode="&#x15b;" horiz-adv-x="1009" 
d="M156 745q0 76 31 132q30 55 85 97q48 37 123 60q69 21 146 21q78 0 144 -18q68 -19 116 -49q49 -31 78 -77q28 -44 28 -98q0 -18 -1 -29q-2 -20 -5 -32h-172q2 14 2 15v9q0 58 -48 96q-47 37 -132 37q-83 0 -144 -35t-61 -110q0 -41 27 -68q35 -35 89 -53q50 -17 116 -36
q58 -17 122 -42q62 -24 109 -71q34 -34 51 -80t17 -88q0 -92 -35 -159q-36 -68 -93 -111q-60 -44 -135 -65q-80 -22 -157 -22q-87 0 -157 21q-73 22 -121 58q-51 39 -79 90q-28 52 -28 116q0 17 1 26q0 3 0.5 6.5t1 6.5t1 7t0.5 7l4 17h174q-4 -15 -4 -28v-22q0 -62 51 -108
q52 -47 156 -47q107 0 170 45t63 131q0 21 -7 41t-24 37q-35 35 -90 53q-65 21 -116 36q-58 17 -121 39q-60 21 -103 64q-73 73 -73 180zM840 1509l78 -170l-506 -231l-56 111z" />
    <glyph glyph-name="Scircumflex" unicode="&#x15c;" horiz-adv-x="1165" 
d="M201 940q0 97 38 176t103 131q69 55 152 81q89 28 180 28q98 0 179 -27q79 -26 136 -74q56 -47 83 -114q28 -70 22 -152l-2 -16h-183q5 44 -7 83q-12 41 -40 70q-31 33 -76 50q-46 18 -116 18q-119 0 -191 -56q-73 -57 -73 -155q0 -50 11 -73q13 -28 29 -44
q33 -33 100 -55q64 -21 138 -42q65 -19 147 -52q74 -30 130 -86q40 -40 64 -96q24 -55 24 -132q0 -97 -36 -176t-102 -138q-67 -59 -158 -90q-94 -32 -208 -32q-105 0 -191 33q-88 34 -146 89q-62 59 -89 132q-29 78 -19 160l2 16h197q-8 -54 5 -98q14 -48 47 -84
q34 -37 86 -58q55 -22 122 -22q129 0 207 69t78 179q0 39 -13 71q-12 30 -34 52q-40 40 -106 60q-76 23 -136 38q-71 18 -142 45t-126 82q-39 39 -63 91q-23 50 -23 118zM770 1778l299 -236l-74 -110l-245 155l-287 -155l-60 110z" />
    <glyph glyph-name="scircumflex" unicode="&#x15d;" horiz-adv-x="1009" 
d="M156 745q0 76 31 132q30 55 85 97q48 37 123 60q69 21 146 21q78 0 144 -18q68 -19 116 -49q49 -31 78 -77q28 -44 28 -98q0 -18 -1 -29q-2 -20 -5 -32h-172q2 14 2 15v9q0 58 -48 96q-47 37 -132 37q-83 0 -144 -35t-61 -110q0 -41 27 -68q35 -35 89 -53q50 -17 116 -36
q58 -17 122 -42q62 -24 109 -71q34 -34 51 -80t17 -88q0 -92 -35 -159q-36 -68 -93 -111q-60 -44 -135 -65q-80 -22 -157 -22q-87 0 -157 21q-73 22 -121 58q-51 39 -79 90q-28 52 -28 116q0 17 1 26q0 3 0.5 6.5t1 6.5t1 7t0.5 7l4 17h174q-4 -15 -4 -28v-22q0 -62 51 -108
q52 -47 156 -47q107 0 170 45t63 131q0 21 -7 41t-24 37q-35 35 -90 53q-65 21 -116 36q-58 17 -121 39q-60 21 -103 64q-73 73 -73 180zM614 1470l299 -235l-73 -111l-246 156l-287 -156l-59 111z" />
    <glyph glyph-name="uni015E" unicode="&#x15e;" horiz-adv-x="1165" 
d="M385 -379q-91 0 -154 25l21 116h20q32 -14 64 -19t51 -5q8 0 36 2q20 1 41 8q19 6 33 20q13 13 13 37q0 49 -84 54l-4 14l57 98q-91 11 -165 46q-75 36 -125 92q-51 57 -74 124q-25 72 -15 148l2 16h197q-8 -54 5 -98q14 -48 47 -84q34 -37 86 -58q55 -22 122 -22
q129 0 207 69t78 179q0 39 -13 71q-12 30 -34 52q-40 40 -106 60q-76 23 -136 38q-71 18 -142 45t-126 82q-39 39 -63 91q-23 50 -23 118q0 97 38 176t103 131q69 55 152 81q89 28 180 28q98 0 179 -27q79 -26 136 -74q56 -47 83 -114q28 -70 22 -152l-2 -16h-183
q5 44 -7 83q-12 41 -40 70q-31 33 -76 50q-46 18 -116 18q-119 0 -191 -56q-73 -57 -73 -155q0 -50 11 -73q13 -28 29 -44q33 -33 100 -55q64 -21 138 -42q65 -19 147 -52q74 -30 130 -86q40 -40 64 -96q24 -55 24 -132q0 -85 -31 -162q-30 -75 -87 -132q-60 -60 -137 -94
q-82 -37 -182 -44l-30 -61q34 -12 57 -41t23 -70q0 -44 -25 -78q-23 -31 -64 -55q-38 -22 -88 -34q-45 -11 -100 -11z" />
    <glyph glyph-name="uni015F" unicode="&#x15f;" horiz-adv-x="1009" 
d="M301 -379q-91 0 -154 25l21 116h20q32 -14 64 -19t51 -5q8 0 36 2q20 1 41 8q19 6 33 20q13 13 13 37q0 49 -84 54l-4 14l59 98q-148 15 -235 90q-89 77 -90 193q0 17 1 26q0 3 0.5 6.5t1 6.5t1 7t0.5 7l4 17h174q-4 -15 -4 -28v-22q0 -62 51 -108q52 -47 156 -47
q107 0 170 45t63 131q0 21 -7 41t-24 37q-35 35 -90 53q-65 21 -116 36q-58 17 -121 39q-60 21 -103 64q-73 73 -73 180q0 76 31 132q30 55 85 97q48 37 123 60q69 21 146 21q78 0 144 -18q68 -19 116 -49q49 -31 78 -77q28 -44 28 -98q0 -18 -1 -29q-2 -20 -5 -32h-172
q2 14 2 15v9q0 58 -48 96q-47 37 -132 37q-83 0 -144 -35t-61 -110q0 -41 27 -68q35 -35 89 -53q50 -17 116 -36q58 -17 122 -42q62 -24 109 -71q34 -34 51 -80t17 -88q0 -78 -28 -143q-25 -58 -75 -105q-46 -43 -109 -70q-65 -28 -135 -35l-32 -63q34 -12 57 -41t23 -70
q0 -44 -25 -78q-23 -31 -64 -55q-38 -22 -88 -34q-45 -11 -100 -11z" />
    <glyph glyph-name="Scaron" unicode="&#x160;" horiz-adv-x="1165" 
d="M201 940q0 97 38 176t103 131q69 55 152 81q89 28 180 28q98 0 179 -27q79 -26 136 -74q56 -47 83 -114q28 -70 22 -152l-2 -16h-183q5 44 -7 83q-12 41 -40 70q-31 33 -76 50q-46 18 -116 18q-119 0 -191 -56q-73 -57 -73 -155q0 -50 11 -73q13 -28 29 -44
q33 -33 100 -55q64 -21 138 -42q65 -19 147 -52q74 -30 130 -86q40 -40 64 -96q24 -55 24 -132q0 -97 -36 -176t-102 -138q-67 -59 -158 -90q-94 -32 -208 -32q-105 0 -191 33q-88 34 -146 89q-62 59 -89 132q-29 78 -19 160l2 16h197q-8 -54 5 -98q14 -48 47 -84
q34 -37 86 -58q55 -22 122 -22q129 0 207 69t78 179q0 39 -13 71q-12 30 -34 52q-40 40 -106 60q-76 23 -136 38q-71 18 -142 45t-126 82q-39 39 -63 91q-23 50 -23 118zM748 1434l-299 235l73 111l246 -156l287 156l59 -111z" />
    <glyph glyph-name="scaron" unicode="&#x161;" horiz-adv-x="1009" 
d="M156 745q0 76 31 132q30 55 85 97q48 37 123 60q69 21 146 21q78 0 144 -18q68 -19 116 -49q49 -31 78 -77q28 -44 28 -98q0 -18 -1 -29q-2 -20 -5 -32h-172q2 14 2 15v9q0 58 -48 96q-47 37 -132 37q-83 0 -144 -35t-61 -110q0 -41 27 -68q35 -35 89 -53q50 -17 116 -36
q58 -17 122 -42q62 -24 109 -71q34 -34 51 -80t17 -88q0 -92 -35 -159q-36 -68 -93 -111q-60 -44 -135 -65q-80 -22 -157 -22q-87 0 -157 21q-73 22 -121 58q-51 39 -79 90q-28 52 -28 116q0 17 1 26q0 3 0.5 6.5t1 6.5t1 7t0.5 7l4 17h174q-4 -15 -4 -28v-22q0 -62 51 -108
q52 -47 156 -47q107 0 170 45t63 131q0 21 -7 41t-24 37q-35 35 -90 53q-65 21 -116 36q-58 17 -121 39q-60 21 -103 64q-73 73 -73 180zM592 1126l-299 236l74 111l245 -156l287 156l59 -111z" />
    <glyph glyph-name="uni0162" unicode="&#x162;" horiz-adv-x="1159" 
d="M412 0l182 1159h-404l27 172h983l-26 -172h-386l-182 -1159h-28l-48 -90q35 -12 58 -41q22 -28 22 -70q0 -45 -24 -78q-23 -31 -64 -55q-38 -22 -88 -34q-45 -11 -100 -11q-92 0 -154 25l21 116h20q32 -14 64 -19t51 -5q8 0 36 2q20 1 41 8q17 5 32 20q14 14 14 37
q0 49 -84 54l-4 14l75 127h-34z" />
    <glyph glyph-name="uni0163" unicode="&#x163;" horiz-adv-x="770" 
d="M225 -379q-91 0 -153 25l20 116h21q33 -14 63 -19q32 -5 51 -5q8 0 36 2q20 1 41 8q19 6 33 20q13 13 13 37q0 49 -84 54l-4 14l70 119q-105 22 -151 106q-46 83 -23 221l88 553h-148l15 91q62 21 107 53q49 35 81 71q35 40 59 83q24 44 41 85h95l-37 -231h284l-24 -152
h-285l-94 -596q-12 -76 22 -105q34 -30 82 -30q36 0 82 11q48 12 90 36h33l-26 -161q-32 -15 -75 -28q-33 -10 -87 -15l-39 -74q34 -12 57 -41t23 -70q0 -44 -25 -78q-23 -32 -63 -55q-38 -22 -88 -34q-45 -11 -101 -11z" />
    <glyph glyph-name="Tcaron" unicode="&#x164;" horiz-adv-x="1159" 
d="M1200 1331l-26 -172h-386l-182 -1159h-194l182 1159h-404l27 172h983zM750 1434l-299 235l73 111l246 -156l287 156l59 -111z" />
    <glyph glyph-name="tcaron" unicode="&#x165;" horiz-adv-x="843" 
d="M719 872h-285l-94 -596q-12 -76 22 -105q34 -30 82 -30q36 0 82 11q48 12 90 36h33l-26 -161q-40 -18 -92 -32q-48 -13 -109 -13q-152 0 -221 87q-70 88 -43 250l88 553h-148l15 91q62 21 107 53q49 35 81 71q35 40 59 83q24 44 41 85h95l-37 -231h284zM1155 1413l-4 -24
l-217 -398h-133l155 422h199z" />
    <glyph glyph-name="Tbar" unicode="&#x166;" horiz-adv-x="1159" 
d="M700 598l-94 -598h-194l94 598h-311l32 160h303l64 401h-404l27 172h983l-26 -172h-386l-63 -401h322l-33 -160h-314z" />
    <glyph glyph-name="tbar" unicode="&#x167;" horiz-adv-x="770" 
d="M623 27q-40 -18 -92 -32q-48 -13 -109 -13q-152 0 -221 87q-70 88 -43 250l30 195h-147l29 158h143l33 200h-148l15 91q62 21 107 53q49 35 81 71q35 40 59 83q24 44 41 85h95l-37 -231h284l-24 -152h-285l-31 -200h273l-29 -158h-270l-37 -238q-12 -76 22 -105
q34 -30 82 -30q36 0 82 11q48 12 90 36h33z" />
    <glyph glyph-name="Utilde" unicode="&#x168;" horiz-adv-x="1374" 
d="M1196 465q-40 -256 -180 -376t-408 -120q-116 0 -207 30t-151 91t-84 155q-25 95 -4 220l137 866h193l-140 -891q-27 -162 51 -231q79 -70 230 -70q138 0 241 71t130 230l139 891h190zM494 1413q7 46 26 91q17 42 49 80q29 35 73 57t93 22q50 0 79 -14q38 -18 59 -32
q3 -2 54 -32q24 -14 58 -14q30 0 59 16q31 17 41 82h142q-6 -39 -27 -90q-17 -43 -49 -81q-29 -35 -72 -57q-42 -22 -94 -22q-45 0 -78 15q-42 19 -60 31q-11 7 -53 32q-24 14 -61 14q-29 0 -58 -16q-30 -16 -40 -82h-141z" />
    <glyph glyph-name="utilde" unicode="&#x169;" horiz-adv-x="1118" 
d="M299 395q-7 -55 -3 -103q4 -47 29 -84q24 -36 66 -56q43 -21 109 -21q107 0 182 56q76 57 100 208l101 629h184l-106 -651q-38 -223 -163 -314q-127 -92 -321 -92q-84 0 -160 31q-72 29 -123 85t-73 130q-23 77 -8 166l102 645h184zM322 1126q8 48 26 92q17 40 49 79
q31 37 73 58t93 21q50 0 79 -14q38 -18 59 -32q3 -2 54 -32q24 -14 58 -14q30 0 59 16q31 17 41 82h142q-6 -39 -27 -90q-17 -43 -49 -81q-29 -35 -72 -57q-40 -21 -94 -21q-47 0 -78 14q-38 17 -60 32q-8 5 -17 10.5t-19.5 11.5t-16.5 9q-25 15 -61 15q-27 0 -58 -17
q-30 -16 -40 -82h-141z" />
    <glyph glyph-name="Umacron" unicode="&#x16a;" horiz-adv-x="1374" 
d="M1196 465q-40 -256 -180 -376t-408 -120q-116 0 -207 30t-151 91t-84 155q-25 95 -4 220l137 866h193l-140 -891q-27 -162 51 -231q79 -70 230 -70q138 0 241 71t130 230l139 891h190zM1161 1606l-28 -158h-607l29 158h606z" />
    <glyph glyph-name="umacron" unicode="&#x16b;" horiz-adv-x="1118" 
d="M299 395q-7 -55 -3 -103q4 -47 29 -84q24 -36 66 -56q43 -21 109 -21q107 0 182 56q76 57 100 208l101 629h184l-106 -651q-38 -223 -163 -314q-127 -92 -321 -92q-84 0 -160 31q-72 29 -123 85t-73 130q-23 77 -8 166l102 645h184zM993 1346l-28 -158h-607l29 158h606z
" />
    <glyph glyph-name="Ubreve" unicode="&#x16c;" horiz-adv-x="1374" 
d="M1196 465q-40 -256 -180 -376t-408 -120q-116 0 -207 30t-151 91t-84 155q-25 95 -4 220l137 866h193l-140 -891q-27 -162 51 -231q79 -70 230 -70q138 0 241 71t130 230l139 891h190zM719 1681q5 -66 41 -94q37 -28 98 -28q62 0 108 28q45 28 68 94h193
q-35 -125 -140 -191q-107 -67 -237 -67q-66 0 -124 18q-59 18 -101 50q-43 32 -67 81q-23 46 -23 109h184z" />
    <glyph glyph-name="ubreve" unicode="&#x16d;" horiz-adv-x="1118" 
d="M299 395q-7 -55 -3 -103q4 -47 29 -84q24 -36 66 -56q43 -21 109 -21q107 0 182 56q76 57 100 208l101 629h184l-106 -651q-38 -223 -163 -314q-127 -92 -321 -92q-84 0 -160 31q-72 29 -123 85t-73 130q-23 77 -8 166l102 645h184zM547 1399q5 -66 41 -94q38 -29 98 -29
q61 0 108 29q45 28 68 94h193q-35 -126 -140 -192t-237 -66q-69 0 -124 17q-59 18 -101 50q-43 32 -67 81q-24 48 -24 110h185z" />
    <glyph glyph-name="Uring" unicode="&#x16e;" horiz-adv-x="1374" 
d="M1196 465q-40 -256 -180 -376t-408 -120q-116 0 -207 30t-151 91t-84 155q-25 95 -4 220l137 866h193l-140 -891q-27 -162 51 -231q79 -70 230 -70q138 0 241 71t130 230l139 891h190zM655 1571q0 44 20 84q19 38 51 67q30 28 75 46q45 19 90 20q78 0 126 -54t48 -124
q0 -45 -18 -84q-17 -38 -51 -68q-31 -28 -74 -46q-41 -17 -93 -17q-78 0 -126 52q-48 53 -48 124zM950 1610q0 33 -20 53t-56 20q-41 0 -72 -32q-32 -34 -32 -74q0 -33 21 -54q22 -22 55 -22q42 0 73 33q31 32 31 76z" />
    <glyph glyph-name="uring" unicode="&#x16f;" horiz-adv-x="1118" 
d="M299 395q-7 -55 -3 -103q4 -47 29 -84q24 -36 66 -56q43 -21 109 -21q107 0 182 56q76 57 100 208l101 629h184l-106 -651q-38 -223 -163 -314q-127 -92 -321 -92q-84 0 -160 31q-72 29 -123 85t-73 130q-23 77 -8 166l102 645h184zM475 1268q0 44 20 84q19 38 51 67
q30 28 75 46q45 19 90 20q78 0 126 -54t48 -124q0 -43 -19 -84q-18 -39 -50 -68q-30 -28 -75 -46q-41 -17 -92 -17q-78 0 -126 52t-48 124zM770 1307q0 33 -20 53t-56 20q-41 0 -72 -32q-32 -34 -32 -74q0 -34 20 -54q22 -22 56 -22q40 0 72 33q32 34 32 76z" />
    <glyph glyph-name="Uhungarumlaut" unicode="&#x170;" horiz-adv-x="1374" 
d="M1196 465q-40 -256 -180 -376t-408 -120q-116 0 -207 30t-151 91t-84 155q-25 95 -4 220l137 866h193l-140 -891q-27 -162 51 -231q79 -70 230 -70q138 0 241 71t130 230l139 891h190zM895 1819l102 -144l-383 -252l-61 95zM1284 1819l102 -144l-382 -252l-62 95z" />
    <glyph glyph-name="uhungarumlaut" unicode="&#x171;" horiz-adv-x="1118" 
d="M299 395q-7 -55 -3 -103q4 -47 29 -84q24 -36 66 -56q43 -21 109 -21q107 0 182 56q76 57 100 208l101 629h184l-106 -651q-38 -223 -163 -314q-127 -92 -321 -92q-84 0 -160 31q-72 29 -123 85t-73 130q-23 77 -8 166l102 645h184zM719 1509l102 -143l-383 -252l-61 94z
M1108 1509l102 -143l-383 -252l-61 94z" />
    <glyph glyph-name="Uogonek" unicode="&#x172;" horiz-adv-x="1374" 
d="M571 -379q-97 0 -141 48q-43 47 -43 108q0 65 36 114t89 84q-91 12 -167 48q-74 36 -120 96q-46 61 -64 147q-18 83 1 199l137 866h193l-140 -891q-27 -162 51 -231q79 -70 230 -70q138 0 241 71t130 230l139 891h190l-137 -866q-38 -240 -162 -360q-123 -119 -360 -134
q-125 -72 -125 -168q0 -57 72 -57q26 0 53 5q21 4 61 20h21l-21 -123q-35 -15 -81 -21q-47 -6 -83 -6z" />
    <glyph glyph-name="uogonek" unicode="&#x173;" horiz-adv-x="1118" 
d="M467 -379q-97 0 -141 48q-43 47 -43 108q0 63 34 112q33 47 89 84q-73 12 -134 47q-55 31 -99 89q-39 51 -56 121q-16 68 -4 149l102 645h184l-100 -629q-7 -55 -3 -103q4 -47 29 -84q24 -36 66 -56q43 -21 109 -21q107 0 182 56q76 57 100 208l101 629h184l-106 -651
q-33 -192 -134 -287t-254 -113q-71 -39 -98 -79q-31 -45 -31 -91q0 -57 72 -57q26 0 53 5q23 4 62 20h20l-20 -123q-35 -15 -81 -21t-83 -6z" />
    <glyph glyph-name="Wcircumflex" unicode="&#x174;" horiz-adv-x="1855" 
d="M1257 422q0 -2 2 -16t3 -24q0 -8 1.5 -25.5t2.5 -26.5q1 -10 2.5 -26.5t1.5 -23.5q2 -32 2 -38h4q12 30 15 38q7 18 21 50q5 10 12 28.5t9 23.5q4 9 9.5 22t7.5 18l405 909h197l-4 -31l-596 -1300h-209l-125 1079h-4l-461 -1079h-209l-186 1300l4 31h188l119 -909
q1 -5 2.5 -18.5t2.5 -21.5q4 -34 5 -52q1 -10 2.5 -26.5t1.5 -23.5q2 -32 2 -38h4q1 3 7 16t9 22q12 32 19 50t21 52q3 8 6 15t6 14.5t4 10.5l383 909h217zM1112 1778l299 -236l-74 -110l-245 155l-287 -155l-60 110z" />
    <glyph glyph-name="wcircumflex" unicode="&#x175;" horiz-adv-x="1648" 
d="M868 793l-379 -793h-192l-160 997l4 27h172l93 -649q1 -5 2.5 -16.5t2.5 -15.5q3 -19 6 -42q4 -31 5 -42q2 -26 2 -32h4q1 3 4.5 14t6.5 18q5 13 17 41t17 41q7 17 14 32l306 651h211l98 -653q1 -5 2.5 -16.5t2.5 -15.5q4 -26 5 -40q1 -7 2.5 -20.5t1.5 -19.5
q2 -26 2 -32h4q8 22 12 31q2 5 7.5 18.5t8.5 21.5q12 28 17 40q2 6 15 31l303 655h186l-4 -27l-477 -997h-193l-129 788v5zM956 1470l299 -235l-73 -111l-246 156l-287 -156l-59 111z" />
    <glyph glyph-name="Ycircumflex" unicode="&#x176;" horiz-adv-x="1245" 
d="M528 520l-366 780l4 31h194l281 -629l479 629h217l-4 -31l-610 -780l-82 -520h-195zM801 1778l299 -236l-74 -110l-246 155l-286 -155l-60 110z" />
    <glyph glyph-name="ycircumflex" unicode="&#x177;" horiz-adv-x="1048" 
d="M1110 1024l-4 -27l-780 -1366h-187l4 27l224 389l-269 950l4 27h183l170 -643q3 -10 16 -71q8 -35 16 -83h5q2 3 7 14.5t9 19.5t10.5 23.5t9.5 20.5q7 15 21 43l16 33l346 643h199zM657 1470l299 -235l-73 -111l-246 156l-287 -156l-59 111z" />
    <glyph glyph-name="Ydieresis" unicode="&#x178;" horiz-adv-x="1245" 
d="M528 520l-366 780l4 31h194l281 -629l479 629h217l-4 -31l-610 -780l-82 -520h-195zM1006 1698q47 0 81 -32q33 -32 33 -79q0 -57 -47 -96t-106 -39q-47 0 -79 30t-32 77q0 59 43 99t107 40zM625 1698q48 0 82 -32q32 -31 32 -79q0 -57 -47 -96q-46 -39 -106 -39
q-47 0 -79 30t-32 77q0 59 43 99t107 40z" />
    <glyph glyph-name="Zacute" unicode="&#x179;" horiz-adv-x="1220" 
d="M1243 1331l-18 -119l-871 -1036v-4h688l-26 -172h-959l19 121l868 1034v4h-670l27 172h942zM1008 1821l77 -170l-505 -232l-56 111z" />
    <glyph glyph-name="zacute" unicode="&#x17a;" horiz-adv-x="989" 
d="M954 1024l-18 -119l-639 -749l-2 -4h524l-22 -152h-768l16 115l641 753v4h-502l25 152h745zM848 1509l78 -170l-506 -231l-55 111z" />
    <glyph glyph-name="Zdotaccent" unicode="&#x17b;" horiz-adv-x="1220" 
d="M1243 1331l-18 -119l-871 -1036v-4h688l-26 -172h-959l19 121l868 1034v4h-670l27 172h942zM819 1708q56 0 90 -34q35 -35 25 -91q-10 -60 -55 -94q-46 -35 -101 -35t-90 35q-34 34 -24 94q10 55 54 90t101 35z" />
    <glyph glyph-name="zdotaccent" unicode="&#x17c;" horiz-adv-x="989" 
d="M954 1024l-18 -119l-639 -749l-2 -4h524l-22 -152h-768l16 115l641 753v4h-502l25 152h745zM657 1407q57 0 91 -34t24 -91q-10 -60 -55 -94q-46 -35 -101 -35t-90 35q-34 34 -24 94q10 56 54 90q44 35 101 35z" />
    <glyph glyph-name="Zcaron" unicode="&#x17d;" horiz-adv-x="1220" 
d="M1243 1331l-18 -119l-871 -1036v-4h688l-26 -172h-959l19 121l868 1034v4h-670l27 172h942zM784 1434l-299 235l74 111l246 -156l287 156l59 -111z" />
    <glyph glyph-name="zcaron" unicode="&#x17e;" horiz-adv-x="989" 
d="M954 1024l-18 -119l-639 -749l-2 -4h524l-22 -152h-768l16 115l641 753v4h-502l25 152h745zM618 1126l-299 236l74 111l246 -156l287 156l59 -111z" />
    <glyph glyph-name="uni0192" unicode="&#x192;" horiz-adv-x="770" 
d="M213 821l57 228q45 175 147 244t263 69q91 0 176 -27l-41 -153h-33q-30 13 -67 17q-43 5 -68 5q-80 0 -124 -41t-68 -133l-56 -209h316l-41 -151h-316l-225 -854h-186l225 854h-154l39 151h156z" />
    <glyph glyph-name="Aringacute" unicode="&#x1fa;" horiz-adv-x="1347" 
d="M918 1444q0 32 -21 53t-55 21q-42 0 -73 -33q-32 -34 -32 -74q0 -33 21 -54q22 -22 55 -22q41 0 73 33q32 34 32 76zM776 1092q-2 -3 -7 -14.5t-9 -19.5l-21 -43q-16 -33 -20 -39q-4 -7 -8.5 -15.5t-5.5 -10.5l-261 -463h476l-115 467q-4 20 -5 26q-4 24 -7 38l-9 41
q-4 19 -4 33h-4zM174 0h-209l4 31l717 1237q-28 23 -46 60q-17 34 -17 77q0 46 19 84t51 67q33 29 75 47q42 17 90 19q78 0 126 -54t48 -124q0 -62 -34 -111t-87 -78l326 -1224l-4 -31h-193l-77 315h-613zM1047 1999l77 -170l-506 -232l-55 111z" />
    <glyph glyph-name="aringacute" unicode="&#x1fb;" horiz-adv-x="1095" 
d="M791 1180q0 32 -21 53q-20 20 -55 20q-42 0 -73 -32q-32 -34 -32 -74q0 -33 21 -54q22 -22 55 -22q42 0 73 33q32 34 32 76zM266 276q0 -76 45 -113q46 -38 119 -38q46 0 99 18q51 18 99 53q46 34 80 80t42 103l12 82q-44 16 -102 22q-54 6 -107 6q-51 0 -102 -12
q-52 -12 -93 -38q-42 -26 -66 -65q-26 -41 -26 -98zM717 98q-62 -61 -154 -96q-91 -35 -182 -35q-60 0 -118 20q-55 19 -98 57q-43 39 -67 92q-24 54 -24 124q0 140 98 238q77 77 184 107q106 30 211 30q52 0 109 -7q64 -8 108 -22l7 33q3 19 7 57q3 28 3 39q0 81 -46 124
q-47 44 -147 44q-88 0 -150 -40t-79 -126h-174v17q35 129 120 198q87 70 197 92q-26 42 -26 97q0 46 19 84t51 67q30 28 75 46q45 19 90 20q78 0 126 -54t48 -124q0 -50 -22 -93q-21 -41 -62 -71q27 -14 46 -27q25 -17 42 -35q60 -60 70 -144q10 -83 -2 -167l-100 -643h-140
l-16 98h-4zM956 1735l78 -170l-506 -232l-55 111z" />
    <glyph glyph-name="AEacute" unicode="&#x1fc;" horiz-adv-x="1884" 
d="M504 487h426l110 695h-6zM903 315h-530l-242 -315h-215l4 31l1014 1300h944l-27 -172h-626l-62 -395h539l-29 -172h-538l-66 -420h627l-27 -172h-815zM1505 1821l78 -170l-506 -232l-55 111z" />
    <glyph glyph-name="aeacute" unicode="&#x1fd;" horiz-adv-x="1767" 
d="M1487 608q4 49 -4 105q-7 49 -32 91q-23 38 -65 65q-41 26 -104 26q-129 0 -201 -79q-71 -78 -110 -208h516zM1135 -33q-120 0 -205 49q-87 50 -133 140q-91 -110 -192 -150q-99 -39 -204 -39q-72 0 -138 23q-65 23 -109 64q-46 43 -67 101t-9 130l2 14q10 70 41 124
q29 50 78 93q68 62 169 90q104 29 189 29q57 0 112 -7q60 -8 107 -22l10 76q16 105 -30 163t-158 58q-84 0 -143 -40t-76 -126h-176l2 17q22 82 62 137q42 57 99 93q55 35 123 53q67 18 142 18q107 0 189 -35q81 -34 122 -115q72 72 163 111t195 39q111 0 188 -41t122 -113
q44 -71 58 -167q14 -95 -3 -204q-2 -8 -4 -20.5t-3 -16.5t-3 -17t-4 -21h-709q-6 -70 3 -130q9 -61 35 -105t71 -68q47 -25 112 -25q94 0 158 41q63 41 104 119h185q-61 -155 -186 -237q-127 -83 -289 -83zM440 125q50 0 97 17q49 18 91 51t71 78q31 47 38 102l15 82
q-43 15 -103 25q-56 9 -106 9q-47 0 -91 -10q-46 -11 -84 -33q-39 -23 -65 -58q-28 -37 -35 -85q-15 -84 36 -132q49 -46 136 -46zM1255 1509l78 -170l-506 -231l-55 111z" />
    <glyph glyph-name="Oslashacute" unicode="&#x1fe;" horiz-adv-x="1517" 
d="M1141 1817l78 -170l-506 -232l-56 111zM317 559q-1 -99 27 -178q29 -80 88 -135l545 928q-51 12 -113 12q-122 0 -224 -51q-98 -49 -173 -138q-72 -86 -111 -199q-39 -114 -39 -239zM702 145q120 0 222 52q101 51 173 138q71 85 112 202q40 113 40 241q0 108 -32 189
q-33 85 -99 137l-553 -938q60 -21 137 -21zM674 -31q-53 0 -107 8q-47 7 -98 25l-80 -135h-168l6 31l103 176q-97 71 -155 186q-56 113 -58 260q0 188 64 353q65 168 171 274q116 116 252 166q134 49 291 49q92 0 178 -25l74 127h170l-6 -30l-94 -160q109 -71 173 -191
q62 -116 60 -274q0 -185 -65 -351t-185 -286q-105 -105 -237 -154t-289 -49z" />
    <glyph glyph-name="oslashacute" unicode="&#x1ff;" horiz-adv-x="1234" 
d="M950 1509l78 -170l-506 -231l-55 111zM287 420q0 -71 17 -123q19 -58 54 -96l404 686q-39 10 -84 10q-93 0 -165 -39q-75 -40 -123 -105q-50 -66 -77 -153q-26 -82 -26 -180zM555 127q94 0 165 40q75 42 123 106q50 66 77 153q26 82 26 180q0 124 -57 201l-397 -674
q30 -6 63 -6zM530 -33q-38 0 -65 4q-25 4 -62 13l-67 -117h-162l4 27l88 151q-77 52 -124 141q-46 88 -46 201q0 154 49 286q49 134 134 218q91 91 192 125q102 34 227 39q75 0 150 -23l74 125h159l-4 -29l-96 -163q72 -57 116 -142q43 -84 42 -194q-1 -148 -50 -280
q-47 -128 -143 -224q-80 -80 -185 -119t-231 -39z" />
    <glyph glyph-name="uni0218" unicode="&#x218;" horiz-adv-x="1165" 
d="M201 940q0 97 38 176t103 131q69 55 152 81q89 28 180 28q98 0 179 -27q79 -26 136 -74q56 -47 83 -114q28 -70 22 -152l-2 -16h-183q5 44 -7 83q-12 41 -40 70q-31 33 -76 50q-46 18 -116 18q-119 0 -191 -56q-73 -57 -73 -155q0 -50 11 -73q13 -28 29 -44
q33 -33 100 -55q64 -21 138 -42q65 -19 147 -52q74 -30 130 -86q40 -40 64 -96q24 -55 24 -132q0 -97 -36 -176t-102 -138q-67 -59 -158 -90q-94 -32 -208 -32q-105 0 -191 33q-88 34 -146 89q-62 59 -89 132q-29 78 -19 160l2 16h197q-8 -54 5 -98q14 -48 47 -84
q34 -37 86 -58q55 -22 122 -22q129 0 207 69t78 179q0 39 -13 71q-12 30 -34 52q-40 40 -106 60q-76 23 -136 38q-71 18 -142 45t-126 82q-39 39 -63 91q-23 50 -23 118zM608 -143l-2 -25l-203 -301h-133l140 326h198z" />
    <glyph glyph-name="uni0219" unicode="&#x219;" horiz-adv-x="1009" 
d="M156 745q0 76 31 132q30 55 85 97q48 37 123 60q69 21 146 21q78 0 144 -18q68 -19 116 -49q49 -31 78 -77q28 -44 28 -98q0 -18 -1 -29q-2 -20 -5 -32h-172q2 14 2 15v9q0 58 -48 96q-47 37 -132 37q-83 0 -144 -35t-61 -110q0 -41 27 -68q35 -35 89 -53q50 -17 116 -36
q58 -17 122 -42q62 -24 109 -71q34 -34 51 -80t17 -88q0 -92 -35 -159q-36 -68 -93 -111q-60 -44 -135 -65q-80 -22 -157 -22q-87 0 -157 21q-73 22 -121 58q-51 39 -79 90q-28 52 -28 116q0 17 1 26q0 3 0.5 6.5t1 6.5t1 7t0.5 7l4 17h174q-4 -15 -4 -28v-22q0 -62 51 -108
q52 -47 156 -47q107 0 170 45t63 131q0 21 -7 41t-24 37q-35 35 -90 53q-65 21 -116 36q-58 17 -121 39q-60 21 -103 64q-73 73 -73 180zM545 -143l-2 -25l-203 -301h-133l139 326h199z" />
    <glyph glyph-name="uni021A" unicode="&#x21a;" horiz-adv-x="1159" 
d="M1200 1331l-26 -172h-386l-182 -1159h-194l182 1159h-404l27 172h983zM600 -143l-2 -25l-203 -301h-133l139 326h199z" />
    <glyph glyph-name="uni021B" unicode="&#x21b;" horiz-adv-x="770" 
d="M719 872h-285l-94 -596q-12 -76 22 -105q34 -30 82 -30q36 0 82 11q48 12 90 36h33l-26 -161q-40 -18 -92 -32q-48 -13 -109 -13q-152 0 -221 87q-70 88 -43 250l88 553h-148l15 91q62 21 107 53q49 35 81 71q35 40 59 83q24 44 41 85h95l-37 -231h284zM461 -143l-2 -25
l-203 -301h-133l139 326h199z" />
    <glyph glyph-name="uni0237" unicode="&#x237;" horiz-adv-x="491" 
d="M-178 -342q61 39 107 95q45 55 79 117q32 58 52 123q22 70 28 113l145 918h189l-148 -932q-22 -140 -96 -265q-73 -124 -180 -196h-180z" />
    <glyph glyph-name="circumflex" unicode="&#x2c6;" 
d="M639 1470l299 -235l-74 -111l-246 156l-286 -156l-60 111z" />
    <glyph glyph-name="caron" unicode="&#x2c7;" 
d="M616 1126l-299 236l74 111l246 -156l287 156l59 -111z" />
    <glyph glyph-name="breve" unicode="&#x2d8;" 
d="M496 1399q5 -66 41 -94q38 -29 98 -29t107 29t69 94h193q-35 -126 -140 -192t-237 -66q-69 0 -124 17q-61 19 -102 50t-66 81q-24 48 -24 110h185z" />
    <glyph glyph-name="dotaccent" unicode="&#x2d9;" 
d="M655 1407q56 0 90 -34q35 -35 25 -91q-10 -60 -55 -94q-46 -35 -101 -35t-90 35q-34 34 -24 94q10 56 54 90q44 35 101 35z" />
    <glyph glyph-name="ring" unicode="&#x2da;" 
d="M410 1163q0 46 19 84q20 40 51 68q30 28 75 46q42 17 90 19q78 0 126 -54t48 -124q0 -45 -18 -84q-17 -37 -50 -67q-30 -28 -75 -46q-44 -18 -92 -18q-78 0 -126 52q-48 53 -48 124zM705 1202q0 32 -21 53t-55 21q-41 0 -73 -33q-32 -34 -32 -74q0 -33 21 -54t55 -21
q42 0 73 32q32 34 32 76z" />
    <glyph glyph-name="ogonek" unicode="&#x2db;" 
d="M553 0q-97 -40 -141 -90q-43 -49 -43 -107q0 -57 71 -57q27 0 54 5q21 4 61 20h20l-20 -123q-35 -15 -81 -21q-47 -6 -83 -6q-97 0 -141 48q-43 47 -43 108q0 45 18 82t48 67q33 33 69 55q31 19 80 39z" />
    <glyph glyph-name="tilde" unicode="&#x2dc;" 
d="M270 1126q7 44 27 92q17 40 49 79q31 37 73 58t93 21q50 0 79 -14q39 -18 59 -32q10 -7 53 -32q24 -14 59 -14q30 0 59 16q31 17 41 82h142q-6 -39 -27 -90q-17 -43 -49 -81q-29 -35 -72 -57q-40 -21 -94 -21q-47 0 -78 14q-38 17 -60 32q-11 7 -30.5 18t-23.5 13
q-26 15 -60 15q-27 0 -58 -17q-30 -16 -40 -82h-142z" />
    <glyph glyph-name="hungarumlaut" unicode="&#x2dd;" 
d="M631 1509l102 -143l-383 -252l-61 94zM1020 1509l102 -143l-383 -252l-61 94z" />
    <glyph glyph-name="uni0313" unicode="&#x313;" 
d="M530 1186l5 22l202 316h133l-141 -338h-199z" />
    <glyph glyph-name="uni0323" unicode="&#x323;" 
d="M401 -141q43 0 74 -31t31 -76q0 -56 -37 -93q-38 -38 -98 -38q-48 0 -78 32q-31 33 -31 75q0 56 40 93q41 38 99 38z" />
    <glyph glyph-name="uni0329" unicode="&#x329;" 
d="M489 -154l-51 -319h-172l51 319h172z" />
    <glyph glyph-name="pi" unicode="&#x3c0;" horiz-adv-x="1548" 
d="M1286 2q-39 -9 -93 -14q-41 -4 -87 -4q-155 0 -212 79q-57 80 -24 279l103 649h-350l-119 -753l-70 -238h-172l47 240l119 751h-231l24 156h1264l-25 -156h-293l-102 -653q-9 -66 -10 -92q-2 -39 8 -60t39 -32q30 -11 82 -11q9 0 55 2q22 1 72 11z" />
    <glyph glyph-name="Wgrave" unicode="&#x1e80;" horiz-adv-x="1855" 
d="M1257 422q0 -2 2 -16t3 -24q0 -8 1.5 -25.5t2.5 -26.5q1 -10 2.5 -26.5t1.5 -23.5q2 -32 2 -38h4q12 30 15 38q7 18 21 50q5 10 12 28.5t9 23.5q4 9 9.5 22t7.5 18l405 909h197l-4 -31l-596 -1300h-209l-125 1079h-4l-461 -1079h-209l-186 1300l4 31h188l119 -909
q1 -5 2.5 -18.5t2.5 -21.5q4 -34 5 -52q1 -10 2.5 -26.5t1.5 -23.5q2 -32 2 -38h4q1 3 7 16t9 22q12 32 19 50t21 52q3 8 6 15t6 14.5t4 10.5l383 909h217zM850 1659l115 162l405 -291l-67 -103z" />
    <glyph glyph-name="wgrave" unicode="&#x1e81;" horiz-adv-x="1648" 
d="M868 793l-379 -793h-192l-160 997l4 27h172l93 -649q1 -5 2.5 -16.5t2.5 -15.5q3 -19 6 -42q4 -31 5 -42q2 -26 2 -32h4q1 3 4.5 14t6.5 18q5 13 17 41t17 41q7 17 14 32l306 651h211l98 -653q1 -5 2.5 -16.5t2.5 -15.5q4 -26 5 -40q1 -7 2.5 -20.5t1.5 -19.5
q2 -26 2 -32h4q8 22 12 31q2 5 7.5 18.5t8.5 21.5q12 28 17 40q2 6 15 31l303 655h186l-4 -27l-477 -997h-193l-129 788v5zM694 1348l115 161l405 -290l-67 -103z" />
    <glyph glyph-name="Wacute" unicode="&#x1e82;" horiz-adv-x="1855" 
d="M1257 422q0 -2 2 -16t3 -24q0 -8 1.5 -25.5t2.5 -26.5q1 -10 2.5 -26.5t1.5 -23.5q2 -32 2 -38h4q12 30 15 38q7 18 21 50q5 10 12 28.5t9 23.5q4 9 9.5 22t7.5 18l405 909h197l-4 -31l-596 -1300h-209l-125 1079h-4l-461 -1079h-209l-186 1300l4 31h188l119 -909
q1 -5 2.5 -18.5t2.5 -21.5q4 -34 5 -52q1 -10 2.5 -26.5t1.5 -23.5q2 -32 2 -38h4q1 3 7 16t9 22q12 32 19 50t21 52q3 8 6 15t6 14.5t4 10.5l383 909h217zM1313 1821l78 -170l-506 -232l-56 111z" />
    <glyph glyph-name="wacute" unicode="&#x1e83;" horiz-adv-x="1648" 
d="M868 793l-379 -793h-192l-160 997l4 27h172l93 -649q1 -5 2.5 -16.5t2.5 -15.5q3 -19 6 -42q4 -31 5 -42q2 -26 2 -32h4q1 3 4.5 14t6.5 18q5 13 17 41t17 41q7 17 14 32l306 651h211l98 -653q1 -5 2.5 -16.5t2.5 -15.5q4 -26 5 -40q1 -7 2.5 -20.5t1.5 -19.5
q2 -26 2 -32h4q8 22 12 31q2 5 7.5 18.5t8.5 21.5q12 28 17 40q2 6 15 31l303 655h186l-4 -27l-477 -997h-193l-129 788v5zM1157 1509l78 -170l-506 -231l-55 111z" />
    <glyph glyph-name="Wdieresis" unicode="&#x1e84;" horiz-adv-x="1855" 
d="M1257 422q0 -2 2 -16t3 -24q0 -8 1.5 -25.5t2.5 -26.5q1 -10 2.5 -26.5t1.5 -23.5q2 -32 2 -38h4q12 30 15 38q7 18 21 50q5 10 12 28.5t9 23.5q4 9 9.5 22t7.5 18l405 909h197l-4 -31l-596 -1300h-209l-125 1079h-4l-461 -1079h-209l-186 1300l4 31h188l119 -909
q1 -5 2.5 -18.5t2.5 -21.5q4 -34 5 -52q1 -10 2.5 -26.5t1.5 -23.5q2 -32 2 -38h4q1 3 7 16t9 22q12 32 19 50t21 52q3 8 6 15t6 14.5t4 10.5l383 909h217zM1313 1690q48 0 82 -32q32 -31 32 -79q0 -57 -47 -96q-46 -39 -106 -39q-48 0 -79 30q-32 30 -32 76q0 60 43 100
t107 40zM932 1690q48 0 82 -32q33 -32 33 -79q0 -56 -48 -96q-47 -39 -106 -39q-47 0 -79 30t-32 76q0 60 43 100t107 40z" />
    <glyph glyph-name="wdieresis" unicode="&#x1e85;" horiz-adv-x="1648" 
d="M868 793l-379 -793h-192l-160 997l4 27h172l93 -649q1 -5 2.5 -16.5t2.5 -15.5q3 -19 6 -42q4 -31 5 -42q2 -26 2 -32h4q1 3 4.5 14t6.5 18q5 13 17 41t17 41q7 17 14 32l306 651h211l98 -653q1 -5 2.5 -16.5t2.5 -15.5q4 -26 5 -40q1 -7 2.5 -20.5t1.5 -19.5
q2 -26 2 -32h4q8 22 12 31q2 5 7.5 18.5t8.5 21.5q12 28 17 40q2 6 15 31l303 655h186l-4 -27l-477 -997h-193l-129 788v5zM1135 1391q48 0 82 -32q32 -31 32 -79q0 -57 -47 -96q-46 -39 -106 -39q-48 0 -79 30q-32 30 -32 76q0 60 43 100t107 40zM754 1391q48 0 82 -32
q32 -31 32 -79q0 -57 -47 -96t-106 -39q-47 0 -79 30t-32 76q0 60 43 100t107 40z" />
    <glyph glyph-name="Ygrave" unicode="&#x1ef2;" horiz-adv-x="1245" 
d="M528 520l-366 780l4 31h194l281 -629l479 629h217l-4 -31l-610 -780l-82 -520h-195zM543 1659l114 162l406 -291l-68 -103z" />
    <glyph glyph-name="ygrave" unicode="&#x1ef3;" horiz-adv-x="1048" 
d="M1110 1024l-4 -27l-780 -1366h-187l4 27l224 389l-269 950l4 27h183l170 -643q3 -10 16 -71q8 -35 16 -83h5q2 3 7 14.5t9 19.5t10.5 23.5t9.5 20.5q7 15 21 43l16 33l346 643h199zM397 1348l115 161l406 -290l-68 -103z" />
    <glyph glyph-name="uni2009" unicode="&#x2009;" horiz-adv-x="51" 
 />
    <glyph glyph-name="endash" unicode="&#x2013;" horiz-adv-x="1130" 
d="M987 520h-840l25 158h840z" />
    <glyph glyph-name="emdash" unicode="&#x2014;" horiz-adv-x="1468" 
d="M1325 520h-1178l25 158h1178z" />
    <glyph glyph-name="uni2016" unicode="&#x2016;" horiz-adv-x="1398" 
d="M752 -258h-170l290 1843h170zM416 -258h-170l291 1843h170z" />
    <glyph glyph-name="quoteleft" unicode="&#x2018;" horiz-adv-x="626" 
d="M205 801l2 24l285 506h133l-185 -530h-235z" />
    <glyph glyph-name="quoteright" unicode="&#x2019;" horiz-adv-x="626" 
d="M625 1331l-2 -24l-285 -506h-133l184 530h236z" />
    <glyph glyph-name="quotesinglbase" unicode="&#x201a;" horiz-adv-x="626" 
d="M434 270l-2 -24l-285 -506h-133l185 530h235z" />
    <glyph glyph-name="uni201B" unicode="&#x201b;" horiz-adv-x="626" 
d="M496 1331l16 -530h-133l-121 506l2 24h236z" />
    <glyph glyph-name="quotedblleft" unicode="&#x201c;" horiz-adv-x="1001" 
d="M580 801l2 24l284 506h133l-184 -530h-235zM205 801l2 24l285 506h133l-185 -530h-235z" />
    <glyph glyph-name="quotedblright" unicode="&#x201d;" horiz-adv-x="1003" 
d="M588 1331l-2 -24l-285 -506h-133l184 530h236zM967 1331l-2 -24l-285 -506h-133l184 530h236z" />
    <glyph glyph-name="quotedblbase" unicode="&#x201e;" horiz-adv-x="1003" 
d="M422 270l-2 -24l-285 -506h-133l184 530h236zM799 270l-2 -24l-285 -506h-133l184 530h236z" />
    <glyph glyph-name="uni201F" unicode="&#x201f;" horiz-adv-x="1003" 
d="M907 1331l17 -530h-133l-121 506l2 24h235zM530 1331l17 -530h-133l-121 506l2 24h235z" />
    <glyph glyph-name="dagger" unicode="&#x2020;" horiz-adv-x="866" 
d="M420 926l80 508h166l-80 -508h233l-24 -152h-236l-147 -934h-166l147 934h-231l24 152h234z" />
    <glyph glyph-name="daggerdbl" unicode="&#x2021;" horiz-adv-x="866" 
d="M496 379l-86 -539h-166l86 539h-234l25 153h231l39 242h-233l26 152h232l80 508h166l-80 -508h235l-26 -152h-234l-39 -242h236l-25 -153h-233z" />
    <glyph glyph-name="uni2022" unicode="&#x2022;" horiz-adv-x="2002" 
d="M1026 979q104 0 194 -40t158 -108q69 -69 107 -157q39 -90 39 -193q0 -101 -39 -193q-39 -91 -107 -159q-67 -67 -158 -106q-92 -39 -194 -39t-193 39q-92 39 -159 106q-68 68 -107 159t-39 193q0 103 39 193q38 88 107 157q68 67 159 108q90 40 193 40z" />
    <glyph glyph-name="ellipsis" unicode="&#x2026;" horiz-adv-x="1902" 
d="M1612 23q-23 -20 -48 -28q-27 -9 -57 -9q-49 0 -83 30q-33 29 -33 72q0 32 12 58q12 25 31 44q46 46 112 46q45 0 81 -28q34 -27 34 -71q0 -75 -49 -114zM336 23q-23 -20 -48 -28q-27 -9 -57 -9q-49 0 -83 30q-33 29 -33 72q0 32 12 58q12 25 31 44q46 46 112 46
q45 0 81 -28q34 -27 34 -71q0 -75 -49 -114zM973 23q-23 -20 -48 -28q-27 -9 -57 -9q-48 0 -83 30q-33 29 -33 72q0 32 12 58q12 25 31 44q46 46 112 46q45 0 81 -28q34 -27 34 -71q0 -75 -49 -114z" />
    <glyph glyph-name="perthousand" unicode="&#x2030;" horiz-adv-x="1916" 
d="M272 1249q44 46 102 68q57 22 124 22q97 0 164 -58t67 -163q0 -75 -28 -145q-27 -68 -74 -113q-44 -41 -100 -60q-58 -20 -119 -20q-96 0 -164 59t-68 162q0 73 26 139q26 65 70 109zM139 31l936 1300h142l-5 -31l-942 -1300h-135zM315 1026q0 -52 28 -88q27 -35 85 -35
q74 0 118 58t44 135q0 51 -28 87q-27 34 -83 34q-74 0 -119 -57t-45 -134zM1335 459q43 44 102 67q60 23 124 23q95 0 163 -59t68 -162q0 -76 -28 -146q-26 -66 -74 -112q-45 -42 -100 -61q-56 -19 -120 -19q-96 0 -163 58q-68 59 -68 163q0 72 26 138t70 110zM717 459
q43 45 101 67q60 23 124 23q96 0 164 -59t68 -162q0 -76 -28 -146q-26 -64 -75 -112q-46 -43 -99 -61q-56 -19 -120 -19q-97 0 -164 58t-67 163q0 75 25 138q26 65 71 110zM1378 236q0 -53 28 -89q27 -34 85 -34q75 0 118 57q44 58 44 135q0 51 -28 87q-27 34 -83 34
q-75 0 -119 -56q-45 -57 -45 -134zM760 236q0 -54 27 -89q27 -34 85 -34q75 0 118 57q44 58 44 135q0 53 -27 87t-83 34q-75 0 -119 -56q-45 -57 -45 -134z" />
    <glyph glyph-name="uni2034" unicode="&#x2034;" horiz-adv-x="1079" 
d="M279 1331h182l-4 -31l-99 -436h-125l41 436zM877 1331h182l-4 -31l-99 -436h-125l41 436zM578 1331h182l-4 -31l-99 -436h-125l41 436z" />
    <glyph glyph-name="guilsinglleft" unicode="&#x2039;" horiz-adv-x="696" 
d="M457 911h215l-4 -28l-379 -381l237 -350l-4 -29h-190l-260 385l2 18z" />
    <glyph glyph-name="guilsinglright" unicode="&#x203a;" horiz-adv-x="696" 
d="M260 123h-215l4 29l379 380l-238 351l5 28h190l260 -385l-2 -18z" />
    <glyph glyph-name="fraction" unicode="&#x2044;" horiz-adv-x="378" 
d="M-354 31l1007 1300h146l-4 -33l-1010 -1298h-145z" />
    <glyph glyph-name="uni2070" unicode="&#x2070;" horiz-adv-x="686" 
d="M125 858q0 104 22 191q22 86 66 153t109 104t151 37q117 0 175 -72q59 -73 59 -196q0 -108 -24 -197q-24 -90 -68 -153q-44 -64 -109 -98q-67 -35 -152 -35q-115 0 -173 73q-56 71 -56 193zM455 1225q-51 0 -88 -34q-39 -36 -59 -86q-22 -55 -32 -118t-10 -131
q0 -65 24 -104t85 -39q55 0 89 33t59 87q23 51 34 116q10 61 10 128t-24 108q-24 40 -88 40z" />
    <glyph glyph-name="uni2074" unicode="&#x2074;" horiz-adv-x="686" 
d="M508 1331h151l-65 -422h100l-20 -123h-101l-26 -178h-141l26 178h-350v93zM487 1079q6 28 9 44q2 8 4 24t4 24h-4q-11 -16 -54 -65l-131 -148q-32 -35 -53 -53l-2 -2q14 2 25 2h28h146z" />
    <glyph glyph-name="uni2075" unicode="&#x2075;" horiz-adv-x="608" 
d="M240 1331h395l-19 -119h-274l-35 -143q14 2 24 2h31q43 0 85 -12q43 -12 74 -36t52 -58q21 -35 21 -82q0 -73 -27 -125q-29 -56 -69 -89q-45 -37 -101 -55q-57 -18 -118 -18q-59 0 -118 15t-100 44l21 131h18q42 -26 88 -43q44 -16 105 -16q79 0 120 40q42 41 42 89
q0 55 -46 76q-44 20 -110 20q-32 0 -77 -5q-32 -4 -68 -13l-15 16z" />
    <glyph glyph-name="uni2076" unicode="&#x2076;" horiz-adv-x="626" 
d="M104 815q0 76 34 148q33 71 98 145q6 8 46 52q30 34 59 61q42 40 63 59q25 22 61 51h176l-2 -18q-53 -36 -133 -106q-75 -66 -123 -124l2 -2q29 9 68 9q35 0 72 -14t65 -39q29 -26 47 -63q18 -38 18 -87q0 -125 -80 -205q-45 -45 -103 -66q-56 -20 -126 -20
q-104 0 -172 56q-70 58 -70 163zM401 971q-39 0 -67 -15q-31 -17 -47 -36q-19 -24 -28 -51t-9 -56q0 -43 25 -72q25 -30 85 -30q39 0 66 14q30 16 47 37q19 23 29 50q10 26 10 54q0 43 -26 74t-85 31z" />
    <glyph glyph-name="uni2077" unicode="&#x2077;" horiz-adv-x="573" 
d="M692 1331l-14 -102q-162 -133 -264 -286q-98 -147 -160 -335h-152l2 19q50 149 148 308q96 156 225 273v2h-325l18 121h522z" />
    <glyph glyph-name="uni2078" unicode="&#x2078;" horiz-adv-x="612" 
d="M537 977q31 -17 59 -56q27 -38 27 -98q0 -53 -24 -96t-64 -73q-39 -29 -97 -46q-54 -16 -121 -16q-49 0 -87 11q-43 12 -74 35q-34 25 -53 58q-19 34 -19 82q0 70 40 125q41 57 95 80v4q-15 14 -37 45q-20 29 -20 82q0 49 21 91q21 43 59 73t87 48q47 17 107 17
q92 0 153 -47q60 -47 60 -133q0 -58 -28 -105q-29 -49 -84 -77v-4zM514 1151q0 37 -25 62q-24 24 -67 24q-52 0 -90 -35q-37 -34 -37 -86q0 -36 23 -60q24 -26 71 -26q57 0 91 40t34 81zM219 795q0 -35 30 -62q29 -26 89 -26q73 0 111 37t38 83q0 42 -31 66q-33 25 -85 25
q-65 0 -108 -33q-44 -33 -44 -90z" />
    <glyph glyph-name="uni2079" unicode="&#x2079;" horiz-adv-x="628" 
d="M668 1124q0 -75 -34 -147q-36 -76 -97 -146q-7 -9 -47 -51q-27 -29 -59 -59q-11 -10 -32 -30.5t-31 -30.5q-24 -22 -61 -52h-176l2 19q58 39 133 105t123 124l-2 2q-26 -8 -68 -8q-37 0 -72 13q-37 14 -65 39q-29 26 -47 64t-18 87q0 124 80 204q45 45 103 66
q56 20 126 20q104 0 172 -56q70 -58 70 -163zM371 969q40 0 67 14q30 16 47 37q20 25 28 51q9 29 9 55q0 43 -25 72q-26 31 -85 31q-38 0 -66 -15q-31 -17 -47 -36q-18 -22 -29 -51q-10 -26 -10 -54q0 -43 26 -74q26 -30 85 -30z" />
    <glyph glyph-name="uni207A" unicode="&#x207a;" horiz-adv-x="690" 
d="M360 1028l33 203h129l-33 -203h205l-18 -117h-205l-33 -200h-129l33 200h-203l19 117h202z" />
    <glyph glyph-name="uni207B" unicode="&#x207b;" horiz-adv-x="688" 
d="M694 1028l-18 -117h-537l19 117h536z" />
    <glyph glyph-name="uni207C" unicode="&#x207c;" horiz-adv-x="688" 
d="M713 1139l-19 -117h-536l18 117h537zM678 920l-19 -117h-536l18 117h537z" />
    <glyph glyph-name="uni207D" unicode="&#x207d;" horiz-adv-x="374" 
d="M459 1411q-77 -134 -126 -286q-48 -150 -48 -316q0 -62 8 -136q7 -65 26 -141l-2 -14h-108q-31 78 -47 160q-15 78 -15 156q0 151 51 306q49 149 146 285h117z" />
    <glyph glyph-name="uni207E" unicode="&#x207e;" horiz-adv-x="376" 
d="M63 532q77 134 126 286q49 153 49 317q0 53 -9 136q-7 64 -26 140l2 14h108q32 -79 47 -159q15 -78 15 -156q0 -154 -50 -306q-49 -148 -147 -286h-117z" />
    <glyph glyph-name="uni2080" unicode="&#x2080;" horiz-adv-x="686" 
d="M29 252q0 103 22 190q22 88 66 154q44 67 108 103q67 38 152 38q117 0 175 -72q58 -71 58 -196q0 -113 -23 -198q-24 -88 -68 -152q-45 -66 -109 -99q-65 -34 -152 -34q-116 0 -173 72q-56 71 -56 194zM358 618q-52 0 -88 -33q-37 -34 -58 -86q-22 -55 -32 -118t-10 -131
q0 -66 24 -105t85 -39q54 0 89 34t59 86q23 51 34 117q10 61 10 128q0 66 -25 108q-23 39 -88 39z" />
    <glyph glyph-name="uni2081" unicode="&#x2081;" horiz-adv-x="428" 
d="M205 504h-168l14 98q80 7 136 28q52 19 85 93h107l-113 -723h-141z" />
    <glyph glyph-name="uni2082" unicode="&#x2082;" horiz-adv-x="604" 
d="M236 121h256l-19 -121h-500l13 84q89 62 195 144q88 68 147 141q49 61 64 95q16 37 16 73q0 38 -25 61t-66 23q-58 0 -95 -35q-35 -34 -40 -80q-4 -14 -2 -28q1 -11 0 -21l-2 -17h-125q-4 15 -4 35q0 60 23 111q23 50 59 82t86 50q47 17 105 17q105 0 168 -56
q65 -57 65 -144q0 -67 -36 -129q-35 -60 -93 -121q-37 -40 -89 -82q-51 -41 -101 -80v-2z" />
    <glyph glyph-name="uni2083" unicode="&#x2083;" horiz-adv-x="614" 
d="M356 606l2 2q-32 0 -51 -1t-51 -1h-170l18 117h449l-12 -84l-168 -180q58 -17 101 -68q42 -49 42 -127q0 -118 -76 -197t-217 -79q-100 0 -167 47q-66 47 -66 133v18q0 5 2 19l2 10h133q-6 -113 106 -113q59 0 102 38q42 38 42 114q0 39 -26 70q-25 30 -95 30
q-33 0 -63 -6l-13 10l-6 62z" />
    <glyph glyph-name="uni2084" unicode="&#x2084;" horiz-adv-x="686" 
d="M412 719h151l-65 -422h100l-20 -123h-101l-26 -178h-142l27 178h-350v92zM391 467q2 8 4.5 23.5t3.5 20.5l9 48h-5q-17 -23 -53 -65l-131 -148q-32 -35 -53 -53l-2 -2q14 2 24 2h29h145z" />
    <glyph glyph-name="uni2085" unicode="&#x2085;" horiz-adv-x="608" 
d="M143 723h396l-19 -119h-274l-35 -143q14 2 23 2h32q43 0 85 -12q43 -12 74 -36q30 -23 52 -59q21 -35 21 -82q0 -72 -27 -124q-29 -56 -70 -90q-44 -36 -100 -54q-57 -18 -119 -18q-58 0 -117 15t-100 44l21 131h18q42 -26 88 -43q44 -16 105 -16q78 0 119 40
q42 41 42 89q0 55 -46 76q-44 20 -109 20q-32 0 -77 -5q-34 -4 -69 -13l-14 16z" />
    <glyph glyph-name="uni2086" unicode="&#x2086;" horiz-adv-x="626" 
d="M8 207q0 75 34 147q36 76 97 146q6 8 46 52q18 20 60 60l63 60q25 22 61 51h176l-2 -18q-53 -36 -133 -106q-75 -66 -123 -124l2 -2q26 8 67 8q38 0 73 -13q37 -14 65 -39q29 -26 47 -63q18 -38 18 -87q0 -125 -80 -205q-45 -45 -103 -66q-56 -20 -126 -20
q-104 0 -172 56q-70 58 -70 163zM305 362q-40 0 -67 -14q-32 -17 -48 -37q-18 -22 -27 -50q-9 -27 -9 -56q0 -43 25 -72q26 -31 85 -31q38 0 66 15q30 16 47 37q19 23 29 50q10 26 10 54q0 43 -26 74q-26 30 -85 30z" />
    <glyph glyph-name="uni2087" unicode="&#x2087;" horiz-adv-x="573" 
d="M596 723l-14 -102q-164 -134 -265 -286q-96 -144 -159 -335h-152l2 18q51 151 148 309q96 156 225 273v2h-326l19 121h522z" />
    <glyph glyph-name="uni2088" unicode="&#x2088;" horiz-adv-x="612" 
d="M440 371q31 -17 60 -57q26 -36 26 -97q0 -54 -23 -96t-65 -73q-39 -29 -96 -46q-54 -16 -121 -16q-49 0 -87 11q-44 13 -75 35q-33 24 -52 58t-19 82q0 70 40 125q41 57 95 80v4q-15 14 -37 45q-20 29 -20 82q0 49 21 91q22 44 58 73q37 30 87 48q47 17 108 17
q92 0 153 -47q60 -46 60 -133q0 -56 -29 -105t-84 -77v-4zM418 545q0 37 -25 62q-24 24 -67 24q-52 0 -90 -35q-37 -34 -37 -86q0 -36 23 -60q24 -26 71 -26q57 0 91 40t34 81zM123 188q0 -34 30 -61t89 -27q70 0 110 38q39 38 39 83q0 42 -32 66q-31 24 -85 24
q-65 0 -107 -32q-44 -33 -44 -91z" />
    <glyph glyph-name="uni2089" unicode="&#x2089;" horiz-adv-x="628" 
d="M573 516q0 -77 -33 -147q-34 -73 -98 -146q-13 -16 -46 -51q-27 -29 -59 -59q-10 -10 -32 -30.5t-32 -30.5q-28 -27 -60 -52h-176l2 18q53 36 133 106q75 66 123 124l-2 2q-26 -8 -68 -8q-37 0 -72 13q-37 14 -65 39q-29 26 -47 63t-18 87q0 126 79 205q45 45 104 66
q56 20 126 20q104 0 172 -56q69 -57 69 -163zM276 360q40 0 68 15q30 16 47 37q20 25 28 51q9 29 9 55q0 41 -26 72t-85 31q-37 0 -65 -15q-30 -16 -47 -37q-19 -23 -29 -50q-10 -26 -10 -54q0 -45 25 -74q26 -31 85 -31z" />
    <glyph glyph-name="uni208A" unicode="&#x208a;" horiz-adv-x="690" 
d="M264 426l33 203h129l-33 -203h205l-18 -117h-205l-33 -200h-129l33 200h-203l18 117h203z" />
    <glyph glyph-name="uni208B" unicode="&#x208b;" horiz-adv-x="688" 
d="M598 428l-18 -117h-537l18 117h537z" />
    <glyph glyph-name="uni208C" unicode="&#x208c;" horiz-adv-x="688" 
d="M616 537l-18 -117h-537l19 117h536zM582 317l-19 -116h-536l18 116h537z" />
    <glyph glyph-name="uni208D" unicode="&#x208d;" horiz-adv-x="374" 
d="M362 809q-75 -130 -125 -286q-49 -153 -49 -316q0 -53 9 -136q7 -65 26 -141l-2 -14h-108q-31 78 -47 160q-15 78 -15 155q0 155 50 307q48 146 147 285h117z" />
    <glyph glyph-name="uni208E" unicode="&#x208e;" horiz-adv-x="376" 
d="M-33 -70q77 134 126 286q48 150 48 316q0 63 -8 137q-6 57 -27 140l3 14h108q32 -79 47 -159q15 -78 15 -156q0 -151 -51 -306q-50 -151 -146 -286h-117z" />
    <glyph glyph-name="uni20A9" unicode="&#x20a9;" horiz-adv-x="2027" 
d="M1010 870h118l-24 209h-4zM774 725h-258l14 -115h197zM1145 725h-197l-49 -115h260zM1571 725h-260l12 -115h197zM575 242q1 3 7 16t9 22q12 32 19 50t21 52q3 8 6 15t6 14.5t4 10.5l19 43h-117l6 -43q1 -5 2.5 -18.5t2.5 -21.5q4 -34 5 -52q1 -10 2.5 -26.5t1.5 -23.5
q2 -32 2 -38h4zM1176 465h-338l-199 -465h-209l-68 465h-288l24 145h244l-16 115h-209l22 145h166l-61 430l4 31h188l60 -461h340l194 461h217l49 -461h340l205 461h197l-4 -31l-197 -430h166l-23 -145h-211l-51 -115h244l-25 -145h-286l-213 -465h-209zM1362 242
q12 30 15 38q7 18 21 50q5 10 12 28.5t9 23.5q4 9 9.5 22t7.5 18l18 43h-115l4 -43q0 -2 2 -16t3 -24q0 -8 1.5 -25.5t2.5 -26.5q1 -10 2.5 -26.5t1.5 -23.5q2 -32 2 -38h4z" />
    <glyph glyph-name="Euro" unicode="&#x20ac;" horiz-adv-x="1372" 
d="M442 469q15 -149 83 -239q69 -91 200 -91q67 0 126 25q55 23 99 67q42 42 73 102q29 57 46 126h186l-2 -17q-63 -248 -210 -360q-148 -113 -334 -113q-105 0 -192 38q-81 35 -144 105q-59 65 -94 158q-34 91 -39 199h-240l55 145h191q1 6 2.5 21t2.5 22q2 20 11 64h-160
l58 145h139q79 242 243 369q163 127 365 127q95 0 171 -30q78 -31 131 -82q54 -53 84 -124q30 -72 30 -157v-25q0 -6 -2 -26l-2 -17h-184q1 60 -11 115q-12 51 -43 93q-28 38 -79 62q-49 23 -117 23q-130 0 -230 -92q-96 -89 -153 -236h450l-57 -145h-436q-5 -21 -10 -58
q-5 -33 -5 -49h404l-57 -145h-349z" />
    <glyph glyph-name="uni2113" unicode="&#x2113;" horiz-adv-x="819" 
d="M109 436q19 8 63 31q36 19 59 39l70 440q18 124 51 203q34 82 76 127q44 47 94 66q52 20 107 20q93 0 143 -54q49 -53 49 -149q0 -93 -37 -191q-41 -107 -96 -193q-60 -93 -132 -177q-71 -82 -146 -147l-27 -179q-6 -38 -6 -61q0 -37 17 -53q19 -17 59 -17q20 0 58 5
q17 2 62 14l-24 -158q-34 -10 -74 -15q-43 -5 -63 -5q-108 0 -167 40q-61 41 -61 146q0 33 6 72l13 75q-12 -7 -55 -25q-10 -4 -32.5 -14t-33.5 -14zM444 688q41 50 77 107q40 63 64 118q28 64 44 122t16 116q0 57 -39 57q-38 0 -67 -59q-33 -66 -56 -213z" />
    <glyph glyph-name="uni2116" unicode="&#x2116;" horiz-adv-x="2097" 
d="M1579 1292q49 37 103 54q58 18 126 18q55 0 100 -17q49 -18 86 -51q37 -32 61 -81q24 -48 24 -111q0 -98 -33 -179q-33 -82 -96 -134q-100 -80 -246 -80q-52 0 -99 16q-48 17 -85 49q-37 33 -60 80q-22 45 -22 109q0 106 36 190q36 85 105 137zM1788 1229q-49 0 -85 -21
t-58 -55q-21 -32 -34 -79q-12 -44 -12 -93q0 -60 34 -95q35 -36 93 -36q49 0 83 20q36 21 60 54q23 31 35 76q11 40 11 90q0 58 -33 99q-33 40 -94 40zM322 1331h194l473 -1024h6q2 12 7.5 49t8.5 61q14 106 25 175l115 739h178l-209 -1331h-184l-483 1034h-7q-1 -26 -8 -72
l-12 -80q-10 -65 -11 -76q-4 -35 -9 -58l-115 -748h-178z" />
    <glyph glyph-name="uni2117" unicode="&#x2117;" horiz-adv-x="1591" 
d="M819 -23q-145 0 -273 55t-218 148q-94 97 -145 220q-52 125 -52 270q0 144 52 269q51 123 145 220q92 95 218 149t273 54q148 0 274 -54t218 -149q94 -97 145 -220q53 -127 53 -269q0 -143 -53 -270q-51 -123 -145 -220q-90 -93 -218 -148t-274 -55zM819 1241
q-116 0 -218 -45q-101 -45 -175 -123q-75 -79 -116 -181q-42 -104 -42 -222q0 -119 42 -224q41 -102 116 -182q74 -78 175 -123q102 -45 218 -45t218 45q100 44 176 123t117 182q42 105 42 224q0 118 -42 222q-42 103 -117 181q-76 79 -176 123q-102 45 -218 45zM1139 797
q-1 -50 -23 -95q-21 -43 -55 -73q-35 -31 -80 -47q-46 -17 -96 -17h-156v-258h-131v737h287q51 0 97 -15t81 -44q34 -28 55 -72t21 -98v-18zM729 684h150q69 0 99 38t30 85q0 41 -27 80t-92 39h-160v-242z" />
    <glyph glyph-name="uni2120" unicode="&#x2120;" horiz-adv-x="1167" 
d="M653 1331h117l94 -319l191 319h127l-78 -502h-98l55 345h-2l-158 -265h-102l-72 258h-2l-51 -338h-99zM256 1319q27 17 59 21q44 6 70 6q23 0 53 -8q33 -9 54 -23q24 -17 39 -43q15 -28 14 -64l-2 -8h-92q2 27 -16 46q-18 20 -64 20q-95 0 -95 -70q0 -18 19 -35
q18 -13 36 -17q6 -1 42 -11q17 -4 49 -17q23 -9 53 -29q25 -17 38 -43q11 -22 11 -53q0 -87 -63 -133q-28 -22 -70 -33q-39 -10 -86 -10q-31 0 -62 9q-33 9 -57 29q-24 19 -39 48q-14 26 -12 68l2 6h94q-1 -36 23 -57t68 -21q48 0 74 19q28 20 28 57q0 10 -3 20
q-3 11 -13 21q-29 26 -77 34q-51 8 -87 27q-42 22 -55 50q-13 29 -13 59q0 43 22 79q20 33 58 56z" />
    <glyph glyph-name="trademark" unicode="&#x2122;" horiz-adv-x="1161" 
d="M582 1331l-15 -90h-139l-63 -412h-103l64 412h-144l15 90h385zM647 1331h115l94 -319l193 319h127l-78 -502h-101l56 345h-2l-156 -265h-102l-72 258h-2l-53 -338h-97z" />
    <glyph glyph-name="uni2126" unicode="&#x2126;" horiz-adv-x="1492" 
d="M170 688q0 145 53 271q52 123 148 213q99 92 220 140q127 50 271 50q137 0 239 -40q103 -40 173 -107q69 -66 105 -154q36 -89 36 -184q0 -96 -34 -195q-37 -107 -89 -196q-57 -96 -127 -180q-73 -86 -149 -148l-2 -4q31 1 64 3q20 1 73 1h174l-25 -158h-565l15 129
q92 61 178 149q81 82 146 180q61 92 100 194q36 95 36 192q0 176 -95 268t-257 92q-109 0 -199 -39q-89 -39 -154 -108q-65 -70 -101 -164q-35 -92 -35 -205q0 -90 20 -169q23 -92 54 -157q37 -79 77 -134q44 -61 88 -99l-22 -129h-551l24 158h193q52 0 73 -1q31 -1 60 -3
l2 4q-41 47 -80 107q-38 58 -69 130q-34 78 -50 145q-18 75 -18 148z" />
    <glyph glyph-name="estimated" unicode="&#x212e;" horiz-adv-x="1513" 
d="M1434 467q-39 -256 -208 -373q-170 -117 -444 -117q-153 0 -281 52q-125 51 -214 144q-88 92 -136 225q-49 135 -49 294q0 161 50 293q50 131 138 224q90 95 216 145q128 51 280 51t276 -51q123 -50 213 -145q89 -94 137 -224q48 -131 48 -293v-59h-1128q5 -114 29 -209
q25 -97 80 -172q53 -72 141 -117q85 -43 213 -43q210 0 341 89q129 87 162 286h136zM1231 748q-1 102 -27 208q-23 96 -76 172q-51 74 -135 117q-83 43 -207 43q-122 0 -207 -43q-87 -44 -139 -117q-54 -76 -79 -172q-24 -95 -29 -208h899z" />
    <glyph glyph-name="uni2190" unicode="&#x2190;" horiz-adv-x="2039" 
d="M1026 -2l-651 651v35l651 651l113 -110l-482 -477h1055v-162h-1053l480 -477z" />
    <glyph glyph-name="uni2191" unicode="&#x2191;" horiz-adv-x="2002" 
d="M1106 1051v-1051h-162v1049l-477 -480l-111 113l652 651h34l652 -651l-111 -113z" />
    <glyph glyph-name="uni2192" unicode="&#x2192;" horiz-adv-x="2039" 
d="M924 109l479 477h-1053v162h1055l-481 477l112 110l652 -651v-35l-652 -651z" />
    <glyph glyph-name="uni2193" unicode="&#x2193;" horiz-adv-x="2002" 
d="M1608 762l110 -113l-651 -651h-35l-651 651l111 113l477 -479v1048h161v-1050z" />
    <glyph glyph-name="uni2196" unicode="&#x2196;" horiz-adv-x="2002" 
d="M641 930v-678h-156v924l25 24h922v-156h-676l811 -811l-115 -114z" />
    <glyph glyph-name="uni2197" unicode="&#x2197;" horiz-adv-x="2002" 
d="M575 119l-114 114l811 811h-676v156h922l24 -24v-924h-156v678z" />
    <glyph glyph-name="uni2198" unicode="&#x2198;" horiz-adv-x="2002" 
d="M1477 1212l114 -114l-811 -811h676v-156h-921l-25 25v923h156v-678z" />
    <glyph glyph-name="uni2199" unicode="&#x2199;" horiz-adv-x="2002" 
d="M1386 401v678h156v-923l-24 -25h-922v156h676l-811 811l114 114z" />
    <glyph glyph-name="partialdiff" unicode="&#x2202;" horiz-adv-x="1378" 
d="M299 731q72 76 173 115q102 39 224 39q126 0 214 -42q89 -42 130 -100q11 122 -16 205q-27 84 -78 138q-52 55 -125 79q-77 25 -159 25q-132 0 -271 -60l-20 164q76 36 151 52q77 16 152 16q126 0 227 -34q105 -36 176 -105q73 -71 114 -181q40 -107 40 -260
q0 -196 -55 -367q-56 -174 -162 -280q-86 -86 -197 -125t-237 -39q-95 0 -176 29q-77 27 -136 79q-58 51 -88 119q-30 69 -30 146q0 117 38 215q39 100 111 172zM358 371q0 -99 61 -169q60 -69 191 -69q79 0 144 28q63 27 107 77q47 53 69 114q24 66 24 140q0 98 -58 163
q-58 66 -194 66q-80 0 -143 -27q-64 -27 -108 -73t-69 -112q-24 -65 -24 -138z" />
    <glyph glyph-name="uni2206" unicode="&#x2206;" horiz-adv-x="1589" 
d="M18 0l15 123l794 1212h195l412 -1212l-23 -123h-1393zM1026 160q75 0 113 -1q55 -1 100 -3v2l-266 778q-17 51 -33 117q-5 20 -29 110h-4q-22 -44 -61 -110t-72 -117l-512 -778v-2q45 2 100 3q38 1 115 1h549z" />
    <glyph glyph-name="product" unicode="&#x220f;" horiz-adv-x="1556" 
d="M948 0l185 1176h-500l-184 -1176h-193l184 1176h-215l25 155h1315l-25 -155h-213l-184 -1176h-195z" />
    <glyph glyph-name="summation" unicode="&#x2211;" horiz-adv-x="1228" 
d="M1202 1176h-473q-62 0 -102 1q-64 2 -113 3l-2 -4l434 -449l-16 -94l-625 -479v-4q44 1 112 3q39 1 107 1h561l-22 -154h-1043l21 154l700 542l-481 512l21 123h946z" />
    <glyph glyph-name="minus" unicode="&#x2212;" horiz-adv-x="1157" 
d="M1094 758l-27 -170h-952l26 170h953z" />
    <glyph glyph-name="radical" unicode="&#x221a;" horiz-adv-x="1415" 
d="M451 995l34 -549q6 -75 7 -122q2 -88 2 -107h4q4 6 66 107q39 64 81 118l641 889h225l-993 -1345h-166l-76 825q-10 -1 -38 -8q-27 -7 -51 -11q-9 -2 -26 -6t-24 -5q-24 -5 -39 -9l25 150z" />
    <glyph glyph-name="infinity" unicode="&#x221e;" horiz-adv-x="1611" 
d="M1518 758q0 -79 -28 -144q-26 -61 -78 -108q-49 -44 -120 -69q-66 -23 -151 -23q-115 0 -193 48t-131 116q-75 -65 -168 -115q-91 -49 -190 -49q-133 0 -217 59q-86 60 -86 180q0 80 27 145q26 62 78 108q51 45 120 69t151 24q117 0 194 -47t132 -118q75 71 165 118
q89 47 191 47q132 0 218 -60t86 -181zM524 846q-85 0 -137 -43q-53 -44 -53 -127q0 -33 15 -54q16 -22 38 -34q27 -14 47 -18q27 -5 45 -5q77 0 144 44q61 40 112 98q-29 53 -81 96t-130 43zM1147 565q88 0 140 43t52 129q0 33 -12 54q-11 20 -33 32q-25 15 -44 18
q-27 5 -48 5q-80 0 -148 -43t-118 -96q31 -55 82 -98q52 -44 129 -44z" />
    <glyph glyph-name="integral" unicode="&#x222b;" horiz-adv-x="788" 
d="M371 1073q24 188 108 262q85 74 240 74q39 0 84 -4q50 -4 100 -27l-24 -153q-37 17 -78 21q-45 5 -72 5q-48 0 -74 -11q-28 -12 -46 -33q-17 -19 -26 -54q-11 -41 -16 -76l-174 -1102q-15 -97 -41 -157q-28 -65 -68 -104q-39 -38 -101 -57q-55 -17 -136 -17q-27 0 -84 5
q-52 5 -98 27l24 154q37 -18 76 -22q45 -5 72 -5q45 0 74 12q30 12 45 32q15 19 25 55q11 42 16 75z" />
    <glyph glyph-name="approxequal" unicode="&#x2248;" horiz-adv-x="1320" 
d="M199 860q71 40 139 55q67 15 133 15q61 0 123 -9q45 -7 122 -22q57 -11 121 -21q67 -10 121 -10q62 0 134 16q67 15 139 54l14 2l-24 -158q-76 -44 -149 -61q-68 -16 -140 -16q-62 0 -122 9q-80 12 -120 20q-61 12 -121 21q-61 9 -123 9q-60 0 -125 -12q-64 -12 -131 -47
l-16 -3zM141 502q71 40 141 55q64 14 134 14q62 0 123 -9q56 -8 120 -21q80 -16 120 -22q60 -9 122 -9q65 0 133 15q65 14 140 55l14 2l-25 -158q-79 -46 -147 -62q-70 -16 -142 -16q-61 0 -121 9t-120 21q-43 9 -121 20q-68 10 -123 10q-57 0 -125 -13q-62 -12 -131 -47
l-16 -2z" />
    <glyph glyph-name="notequal" unicode="&#x2260;" horiz-adv-x="1320" 
d="M537 408l-220 -297h-182l4 28l199 269h-291l27 165h387l141 193h-498l27 166h594l205 276h182l-4 -28l-182 -248h239l-26 -166h-336l-144 -193h449l-27 -165h-544z" />
    <glyph glyph-name="lessequal" unicode="&#x2264;" horiz-adv-x="1265" 
d="M481 829l625 -290l-31 -187l-885 420l23 141l1014 416l-31 -207l-715 -288v-5zM1061 252l-27 -170h-958l26 170h959z" />
    <glyph glyph-name="greaterequal" unicode="&#x2265;" horiz-adv-x="1265" 
d="M891 854l-625 289l31 186l883 -416l-23 -141l-1016 -420l31 207l719 291v4zM1081 252l-26 -170h-959l27 170h958z" />
    <glyph glyph-name="uni25A0" unicode="&#x25a0;" horiz-adv-x="2052" 
d="M332 1382h1388v-1382h-1388v1382z" />
    <glyph glyph-name="uni25A1" unicode="&#x25a1;" horiz-adv-x="2002" 
d="M332 1382h1388v-1382h-1388v1382zM451 1264v-1145h1151v1145h-1151z" />
    <glyph glyph-name="uni25AA" unicode="&#x25aa;" horiz-adv-x="2002" 
d="M547 963h958v-963h-958v963z" />
    <glyph glyph-name="uni25AB" unicode="&#x25ab;" horiz-adv-x="2002" 
d="M547 963h958v-963h-958v963zM666 844v-725h718v725h-718z" />
    <glyph glyph-name="lozenge" unicode="&#x25ca;" horiz-adv-x="1200" 
d="M819 1348l305 -682l-522 -680h-172l-305 680l522 682h172zM719 1155h-4l-383 -504l194 -477h4l390 514z" />
    <glyph glyph-name="uni25CB" unicode="&#x25cb;" horiz-adv-x="2002" 
d="M1028 1405q150 0 277 -56q129 -57 226 -154t152 -227q56 -132 56 -278q0 -145 -56 -277t-152 -228q-95 -95 -226 -153q-129 -57 -277 -57q-146 0 -277 57q-133 58 -228 153t-153 228q-57 131 -57 277q0 148 57 278q57 131 153 227q97 97 228 154q128 56 277 56zM1028 98
q121 0 230 47q106 46 189 127q80 78 127 188q46 107 46 230q0 124 -46 231t-127 188q-80 80 -189 127q-107 46 -230 46t-230 -46q-109 -47 -189 -127q-81 -81 -127 -188t-46 -231q0 -123 46 -230q47 -110 127 -188q83 -81 189 -127q109 -47 230 -47z" />
    <glyph glyph-name="uni25CF" unicode="&#x25cf;" horiz-adv-x="2002" 
d="M1028 1405q150 0 277 -56q129 -57 226 -154t152 -227q56 -132 56 -278q0 -145 -56 -277t-152 -228q-95 -95 -226 -153q-129 -57 -277 -57q-146 0 -277 57q-133 58 -228 153t-153 228q-57 131 -57 277q0 148 57 278q57 131 153 227q97 97 228 154q128 56 277 56z" />
    <glyph glyph-name="uni26AC" unicode="&#x26ac;" horiz-adv-x="2002" 
d="M1026 977q104 0 194 -40t158 -108q69 -69 107 -157q39 -90 39 -193q0 -101 -39 -193q-39 -91 -107 -159q-69 -69 -158 -107t-194 -38q-104 0 -193 38q-91 39 -159 107t-107 159q-39 92 -39 193q0 103 39 193q38 88 107 157q68 67 159 108q90 40 193 40zM1401 479
q0 78 -30 147q-28 65 -80 120q-48 51 -119 82q-69 30 -146 30q-75 0 -144 -30t-121 -82q-53 -53 -82 -120q-30 -69 -30 -147t30 -147q31 -72 82 -121q53 -51 121 -81q69 -30 144 -30q77 0 146 30q70 30 119 81q50 51 80 121q30 69 30 147z" />
    <glyph glyph-name="uniE181" unicode="&#xe181;" horiz-adv-x="854" 
d="M332 889q0 -79 40 -131q41 -53 122 -53q136 0 188 141h143l-2 -17q-37 -117 -123 -183t-233 -66q-56 0 -110 18q-55 18 -96 55q-42 37 -67 91q-26 55 -26 124q0 103 34 187q35 87 93 145q53 53 129 83t160 30q118 0 196 -66q79 -66 80 -184l-4 -19h-139q-1 71 -40 108
q-37 36 -108 36q-55 0 -99 -24q-47 -26 -75 -64q-31 -41 -47 -95q-16 -52 -16 -116z" />
    <glyph glyph-name="uniFF3F" unicode="&#xff3f;" horiz-adv-x="962" 
d="M844 -207l-27 -162h-971l27 162h971z" />
    <glyph glyph-name="a.hist" horiz-adv-x="1263" 
d="M674 897q-92 0 -164 -39q-74 -40 -122 -104q-51 -68 -76 -152t-25 -182q0 -125 63 -209t201 -84q91 0 161 40q71 41 119 105q49 66 75 152q26 87 26 178q0 66 -14 116q-15 52 -47 94q-31 40 -80 62q-51 23 -117 23zM270 885q75 77 179 124q101 46 212 46q118 0 201 -44
q81 -43 129 -106h6l58 119h131l-162 -1024h-131l-21 123h-4q-74 -84 -172 -120q-99 -36 -202 -36q-71 0 -146 28q-71 27 -129 83q-58 57 -92 136q-34 81 -33 187q1 137 43 266q40 125 133 218z" />
    <glyph glyph-name="a.superior" horiz-adv-x="608" 
d="M229 762q0 -35 24 -50q26 -16 64 -16q41 0 83 33q43 34 49 82l4 33q-15 5 -42 10q-21 4 -51 4q-28 0 -57 -6q-28 -6 -49 -27q-25 -25 -25 -63zM147 879q43 45 107 60q63 15 119 15q27 0 51 -4q39 -6 45 -8l4 23q21 114 -82 114q-41 0 -69 -19q-29 -20 -37 -61h-123
q15 93 85 136t156 43q45 0 90 -13q41 -12 74 -45q35 -35 38 -79q3 -47 -1 -89l-53 -344h-105l-8 60h-2q-72 -78 -172 -78q-72 0 -121 40t-49 111q0 42 16 79q16 36 37 59z" />
    <glyph glyph-name="aacute.hist" horiz-adv-x="1263" 
d="M674 897q-92 0 -164 -39q-74 -40 -122 -104q-51 -68 -76 -152t-25 -182q0 -125 63 -209t201 -84q91 0 161 40q71 41 119 105q49 66 75 152q26 87 26 178q0 66 -14 116q-15 52 -47 94q-31 40 -80 62q-51 23 -117 23zM270 885q75 77 179 124q101 46 212 46q118 0 201 -44
q81 -43 129 -106h6l58 119h131l-162 -1024h-131l-21 123h-4q-74 -84 -172 -120q-99 -36 -202 -36q-71 0 -146 28q-71 27 -129 83q-58 57 -92 136q-34 81 -33 187q1 137 43 266q40 125 133 218zM948 1509l78 -170l-506 -231l-55 111z" />
    <glyph glyph-name="abreve.hist" horiz-adv-x="1263" 
d="M674 897q-92 0 -164 -39q-74 -40 -122 -104q-51 -68 -76 -152t-25 -182q0 -125 63 -209t201 -84q91 0 161 40q71 41 119 105q49 66 75 152q26 87 26 178q0 66 -14 116q-15 52 -47 94q-31 40 -80 62q-51 23 -117 23zM270 885q75 77 179 124q101 46 212 46q118 0 201 -44
q81 -43 129 -106h6l58 119h131l-162 -1024h-131l-21 123h-4q-74 -84 -172 -120q-99 -36 -202 -36q-71 0 -146 28q-71 27 -129 83q-58 57 -92 136q-34 81 -33 187q1 137 43 266q40 125 133 218zM602 1399q5 -66 41 -94q38 -29 98 -29q61 0 108 29q45 28 68 94h193
q-35 -127 -139 -192q-105 -66 -238 -66q-69 0 -124 17q-59 18 -101 50q-43 32 -67 81q-23 46 -23 110h184z" />
    <glyph glyph-name="acircumflex.hist" horiz-adv-x="1263" 
d="M674 897q-92 0 -164 -39q-74 -40 -122 -104q-51 -68 -76 -152t-25 -182q0 -125 63 -209t201 -84q91 0 161 40q71 41 119 105q49 66 75 152q26 87 26 178q0 66 -14 116q-15 52 -47 94q-31 40 -80 62q-51 23 -117 23zM270 885q75 77 179 124q101 46 212 46q118 0 201 -44
q81 -43 129 -106h6l58 119h131l-162 -1024h-131l-21 123h-4q-74 -84 -172 -120q-99 -36 -202 -36q-71 0 -146 28q-71 27 -129 83q-58 57 -92 136q-34 81 -33 187q1 137 43 266q40 125 133 218zM748 1470l299 -235l-74 -111l-246 156l-287 -156l-59 111z" />
    <glyph glyph-name="acute.cap" 
d="M836 1821l77 -170l-505 -232l-56 111z" />
    <glyph glyph-name="adieresis.hist" horiz-adv-x="1263" 
d="M674 897q-92 0 -164 -39q-74 -40 -122 -104q-51 -68 -76 -152t-25 -182q0 -125 63 -209t201 -84q91 0 161 40q71 41 119 105q49 66 75 152q26 87 26 178q0 66 -14 116q-15 52 -47 94q-31 40 -80 62q-51 23 -117 23zM270 885q75 77 179 124q101 46 212 46q118 0 201 -44
q81 -43 129 -106h6l58 119h131l-162 -1024h-131l-21 123h-4q-74 -84 -172 -120q-99 -36 -202 -36q-71 0 -146 28q-71 27 -129 83q-58 57 -92 136q-34 81 -33 187q1 137 43 266q40 125 133 218zM948 1391q48 0 82 -32q33 -31 33 -79q0 -57 -47 -96q-46 -39 -107 -39
q-47 0 -79 30q-31 30 -31 76q0 60 43 100t106 40zM567 1391q48 0 82 -32q33 -31 33 -79q0 -57 -47 -96t-107 -39q-46 0 -78 30t-32 76q0 60 43 100t106 40z" />
    <glyph glyph-name="agrave.hist" horiz-adv-x="1263" 
d="M674 897q-92 0 -164 -39q-74 -40 -122 -104q-51 -68 -76 -152t-25 -182q0 -125 63 -209t201 -84q91 0 161 40q71 41 119 105q49 66 75 152q26 87 26 178q0 66 -14 116q-15 52 -47 94q-31 40 -80 62q-51 23 -117 23zM270 885q75 77 179 124q101 46 212 46q118 0 201 -44
q81 -43 129 -106h6l58 119h131l-162 -1024h-131l-21 123h-4q-74 -84 -172 -120q-99 -36 -202 -36q-71 0 -146 28q-71 27 -129 83q-58 57 -92 136q-34 81 -33 187q1 137 43 266q40 125 133 218zM485 1348l115 161l406 -290l-68 -103z" />
    <glyph glyph-name="amacron.hist" horiz-adv-x="1263" 
d="M674 897q-92 0 -164 -39q-74 -40 -122 -104q-51 -68 -76 -152t-25 -182q0 -125 63 -209t201 -84q91 0 161 40q71 41 119 105q49 66 75 152q26 87 26 178q0 66 -14 116q-15 52 -47 94q-31 40 -80 62q-51 23 -117 23zM270 885q75 77 179 124q101 46 212 46q118 0 201 -44
q81 -43 129 -106h6l58 119h131l-162 -1024h-131l-21 123h-4q-74 -84 -172 -120q-99 -36 -202 -36q-71 0 -146 28q-71 27 -129 83q-58 57 -92 136q-34 81 -33 187q1 137 43 266q40 125 133 218zM1049 1346l-29 -158h-606l28 158h607z" />
    <glyph glyph-name="aogonek.hist" horiz-adv-x="1263" 
d="M674 897q-92 0 -164 -39q-74 -40 -122 -104q-51 -68 -76 -152t-25 -182q0 -125 63 -209t201 -84q91 0 161 40q71 41 119 105q49 66 75 152q26 87 26 178q0 66 -14 116q-15 52 -47 94q-31 40 -80 62q-51 23 -117 23zM1026 -352q-34 -15 -81 -21t-83 -6q-98 0 -141 48
q-43 47 -43 108q0 45 18 82q17 35 47 67t68 55q30 19 78 37l-17 105h-4q-74 -84 -172 -120q-99 -36 -202 -36q-71 0 -146 28q-71 27 -129 83q-58 57 -92 136q-34 81 -33 187q1 137 43 266q40 125 133 218q75 77 179 124q101 46 212 46q118 0 201 -44q81 -43 129 -106h6
l58 119h131l-162 -1024q-97 -40 -141 -90q-43 -49 -43 -107q0 -57 71 -57q27 0 54 5q21 4 61 20h21z" />
    <glyph glyph-name="aring.hist" horiz-adv-x="1263" 
d="M811 1202q0 33 -20 53q-21 21 -56 21q-41 0 -72 -33q-32 -34 -32 -74q0 -34 20 -54q21 -21 56 -21q41 0 72 32q32 34 32 76zM674 897q-92 0 -164 -39q-74 -40 -122 -104q-51 -68 -76 -152t-25 -182q0 -125 63 -209t201 -84q91 0 161 40q71 41 119 105q49 66 75 152
q26 87 26 178q0 66 -14 116q-15 52 -47 94q-31 40 -80 62q-51 23 -117 23zM868 123q-74 -84 -172 -120q-99 -36 -202 -36q-71 0 -146 28q-71 27 -129 83q-58 57 -92 136q-34 81 -33 187q1 137 43 266q40 125 133 218q58 58 133 101q72 41 156 58q-43 49 -43 119q0 44 20 84
t51 68q30 28 75 46q42 17 90 19q78 0 126 -54t48 -124q0 -54 -27 -100q-28 -48 -74 -76q59 -22 97 -52q40 -32 69 -69h6l58 119h131l-162 -1024h-131l-21 123h-4z" />
    <glyph glyph-name="aringacute.hist" horiz-adv-x="1263" 
d="M791 1200q0 32 -21 53t-55 21q-41 0 -73 -33q-32 -34 -32 -74q0 -33 21 -54t55 -21q42 0 73 32q32 34 32 76zM674 897q-92 0 -164 -39q-74 -40 -122 -104q-51 -68 -76 -152t-25 -182q0 -125 63 -209t201 -84q91 0 161 40q71 41 119 105q49 66 75 152q26 87 26 178
q0 66 -14 116q-15 52 -47 94q-31 40 -80 62q-51 23 -117 23zM868 123q-74 -84 -172 -120q-99 -36 -202 -36q-71 0 -146 28q-71 27 -129 83q-58 57 -92 136q-34 81 -33 187q1 137 43 266q40 125 133 218q50 54 123 97q67 39 148 58q-45 50 -45 121q0 46 19 84q20 40 51 68
q30 28 75 46q42 17 90 19q78 0 126 -54t48 -124q0 -54 -24 -97t-66 -73q63 -22 104 -53q43 -33 72 -72h6l58 119h131l-162 -1024h-131l-21 123h-4zM928 1714l78 -170l-506 -231l-56 110z" />
    <glyph glyph-name="at.cap" horiz-adv-x="1593" 
d="M989 780q12 91 -24 119q-37 29 -138 33q-51 0 -105 -12q-53 -12 -104 -41h-24l18 114q103 56 256 56q114 0 188 -48q72 -46 72 -163q0 -28 -6 -66l-26 -168q-3 -11 -5 -34q-1 -12 -1 -29q0 -39 21 -62q21 -22 56 -22q56 0 97 35q39 33 67 88q27 53 39 118q12 66 12 127
q0 104 -36 179q-37 78 -100 130q-61 51 -147 78t-184 27q-139 0 -259 -49q-123 -50 -213 -137q-91 -89 -144 -207q-53 -120 -53 -258q0 -110 38 -201q38 -92 105 -154q68 -64 162 -98q96 -35 209 -35q100 0 197 22q92 21 182 62h28l-18 -125q-96 -45 -187 -63
q-97 -19 -221 -19q-144 0 -261 43q-118 43 -200 121q-83 78 -128 188q-46 112 -46 242q0 192 83 356q82 162 227 271q108 83 241 123q135 41 279 41q123 0 228 -39q107 -40 183 -110q77 -71 120 -165q44 -96 44 -210q0 -124 -40 -237q-41 -115 -111 -185q-80 -78 -203 -78
q-126 0 -172 104q-60 -79 -134 -106q-75 -27 -144 -27q-94 0 -161 53t-67 140q0 58 25 116t67 91q40 34 97 51q54 16 118 16q61 0 106 -14q52 -16 89 -41zM619 524q0 -51 37 -76q38 -26 92 -26q38 0 71 13q37 14 65 37q30 24 49 52q18 26 23 60l5 24q-32 27 -71 46
q-36 18 -102 18q-76 0 -122 -42q-47 -42 -47 -106z" />
    <glyph glyph-name="atilde.hist" horiz-adv-x="1263" 
d="M674 897q-92 0 -164 -39q-74 -40 -122 -104q-51 -68 -76 -152t-25 -182q0 -125 63 -209t201 -84q91 0 161 40q71 41 119 105q49 66 75 152q26 87 26 178q0 66 -14 116q-15 52 -47 94q-31 40 -80 62q-51 23 -117 23zM270 885q75 77 179 124q101 46 212 46q118 0 201 -44
q81 -43 129 -106h6l58 119h131l-162 -1024h-131l-21 123h-4q-74 -84 -172 -120q-99 -36 -202 -36q-71 0 -146 28q-71 27 -129 83q-58 57 -92 136q-34 81 -33 187q1 137 43 266q40 125 133 218zM377 1126q8 48 26 92q16 38 50 79q31 38 72 58q42 21 93 21q50 0 79 -14
q42 -20 60 -32q10 -7 53 -32q24 -14 58 -14q31 0 60 16q31 17 41 82h141q-6 -39 -27 -90q-17 -43 -49 -81q-30 -36 -71 -57t-95 -21q-46 0 -77 14q-41 19 -61 32q-8 5 -17 10.5t-19.5 11.5t-16.5 9q-25 15 -61 15q-27 0 -58 -17q-30 -16 -40 -82h-141z" />
    <glyph glyph-name="b.superior" horiz-adv-x="710" 
d="M621 674q-43 -43 -103 -64q-57 -20 -127 -20q-61 0 -101 23q-43 24 -61 55h-4l-28 -60h-97l121 764h137l-43 -264h2q37 34 85 52t102 18q87 0 153 -60t66 -170q0 -74 -25 -149q-24 -72 -77 -125zM401 698q44 0 79 20q34 19 58 52q21 28 34 75q12 42 12 87q0 60 -30 97
q-30 38 -95 38q-46 0 -80 -19t-57 -53q-24 -35 -35 -74q-13 -46 -13 -85q0 -59 31 -99q30 -39 96 -39z" />
    <glyph glyph-name="braceleft.cap" horiz-adv-x="802" 
d="M164 686q92 38 138 112q47 76 65 189l49 313q16 98 80 153q63 54 180 54h106l-24 -155h-92q-48 0 -63 -41q-16 -42 -23 -94l-45 -277q-12 -78 -33 -126q-23 -52 -44 -77q-24 -29 -49 -42q-7 -4 -51 -23v-4q23 -12 42 -25q21 -15 36 -43q16 -30 20 -78q5 -51 -7 -127
l-43 -276q-8 -58 -7 -94q2 -41 50 -41h92l-25 -156h-65q-147 0 -197 74t-29 202l45 275q16 114 -8 175q-24 60 -104 99z" />
    <glyph glyph-name="braceright.cap" horiz-adv-x="802" 
d="M639 649q-93 -38 -138 -111q-47 -76 -65 -190l-49 -313q-16 -99 -80 -153q-63 -54 -180 -54h-107l25 156h92q48 0 63 41q16 42 23 94l45 276q12 78 33 126q23 52 44 77q24 28 49 43q27 16 50 23v4q-28 14 -42 24q-20 14 -35 43q-16 30 -20 78q-5 51 7 127l43 277
q10 51 7 94q-3 41 -50 41h-92l25 155h65q148 0 197 -73q50 -74 29 -203l-46 -275q-16 -112 9 -175q24 -60 104 -99z" />
    <glyph glyph-name="bracketleft.cap" horiz-adv-x="696" 
d="M707 1507l-25 -155h-195l-217 -1368h195l-25 -156h-370l266 1679h371z" />
    <glyph glyph-name="bracketright.cap" horiz-adv-x="696" 
d="M-10 -172l24 156h195l217 1368h-195l25 155h371l-267 -1679h-370z" />
    <glyph glyph-name="breve.cap" 
d="M496 1681q5 -66 41 -94q37 -28 98 -28t107 28q47 29 69 94h193q-35 -125 -140 -191q-107 -67 -237 -67q-65 0 -124 18q-61 19 -102 50t-66 81q-24 48 -24 109h185z" />
    <glyph glyph-name="bullet" horiz-adv-x="974" 
d="M750 598q0 -98 -67 -154q-65 -55 -161 -55q-94 0 -158 55q-65 56 -65 154v10q0 99 68 152t161 53q94 0 158 -53t64 -152v-10z" />
    <glyph glyph-name="c.superior" horiz-adv-x="626" 
d="M424 1071q-46 0 -79 -20t-56 -54q-24 -35 -35 -74q-12 -42 -12 -85q0 -63 29 -101q30 -39 96 -39q53 0 88 27t57 86h121l-2 -10q-18 -79 -72 -133q-42 -42 -94 -60t-111 -18q-117 0 -182 64q-66 64 -66 167q0 71 23 142q22 68 72 118q46 46 103 71q60 26 128 26
q112 0 171 -61q58 -60 54 -148l-2 -13h-114q0 115 -117 115z" />
    <glyph glyph-name="caron.Slovak" 
d="M795 1415l-4 -24l-218 -398h-133l156 422h199z" />
    <glyph glyph-name="caron.cap" 
d="M616 1432l-299 235l74 111l246 -156l287 156l59 -111z" />
    <glyph glyph-name="cedilla.alt" 
d="M338 -74q118 -12 161 -53q42 -41 42 -86q0 -48 -28 -81q-27 -32 -70 -50q-47 -20 -89 -27q-50 -8 -88 -8q-42 0 -86 6q-40 6 -74 19l21 121h25q36 -16 66 -20q35 -5 54 -5q51 0 78 10q29 11 29 39q0 36 -86 47z" />
    <glyph glyph-name="circumflex.cap" 
d="M639 1778l299 -236l-74 -110l-246 155l-286 -155l-60 110z" />
    <glyph glyph-name="d.superior" horiz-adv-x="706" 
d="M426 1069q-46 0 -80 -19t-57 -53q-24 -35 -35 -73q-12 -40 -12 -84q0 -60 30 -100t97 -40q90 0 138 69t48 161q0 60 -32 100q-31 39 -97 39zM211 1092q43 43 102 65q57 21 113 21q46 0 91 -17t65 -43h2l41 254h135l-121 -764h-92l-10 62q-41 -41 -95 -61
q-51 -19 -112 -19q-93 0 -158 59q-66 60 -66 168q0 80 27 152t78 123z" />
    <glyph glyph-name="dieresis.cap" 
d="M842 1690q48 0 82 -32q32 -31 32 -79q0 -57 -47 -96t-106 -39q-47 0 -79 30t-32 76q0 60 43 100t107 40zM461 1690q48 0 82 -32q32 -31 32 -79q0 -57 -47 -96q-46 -39 -106 -39q-48 0 -79 30q-32 30 -32 76q0 60 43 100t107 40z" />
    <glyph glyph-name="dotaccent.cap" 
d="M655 1708q56 0 90 -34q35 -35 25 -91q-10 -60 -55 -94q-46 -35 -101 -35t-90 35q-34 34 -24 94q10 55 54 90t101 35z" />
    <glyph glyph-name="doublegrave" 
d="M182 1366l133 143l263 -301l-80 -94zM571 1366l134 143l262 -301l-80 -94z" />
    <glyph glyph-name="doublegrave.cap" 
d="M182 1675l133 144l263 -301l-80 -95zM571 1675l134 144l262 -301l-80 -95z" />
    <glyph glyph-name="e.superior" horiz-adv-x="645" 
d="M242 842q-5 -63 26 -103q30 -39 97 -39q45 0 77 16q33 16 54 52h131q-23 -57 -66 -100t-99 -60q-58 -18 -120 -18q-104 0 -169 64q-67 65 -67 169q0 71 28 146q26 70 79 123q47 46 99 66q54 20 120 20q43 0 86 -16t72 -45q32 -32 49 -70q18 -41 18 -93q0 -34 -3 -57
q-2 -16 -11 -55h-401zM524 946q5 52 -19 86q-24 35 -83 35q-62 0 -103 -33t-57 -88h262z" />
    <glyph glyph-name="eight.LT" horiz-adv-x="1228" 
d="M1075 418q0 -111 -43 -196t-114 -141t-167 -85t-200 -29q-201 0 -315 90q-115 91 -115 246q0 63 19 120q18 55 55 111q33 50 84 95q46 41 106 69l2 4q-46 34 -83 93q-38 61 -38 149q0 87 38 165q36 73 102 133q62 56 147 88t176 32q87 0 162 -23t126 -65q52 -43 82 -105
q29 -59 29 -137q0 -116 -60 -208q-59 -90 -153 -144l-2 -4q67 -38 114 -103q48 -66 48 -155zM938 1020q0 82 -51 135t-156 53q-61 0 -111 -21q-49 -21 -86 -58t-56 -82t-19 -99q0 -73 50 -131q49 -57 155 -57q62 0 111 21q48 20 87 58q37 36 57 83q19 45 19 98zM885 395
q0 92 -67 145q-65 52 -183 52q-69 0 -128 -21t-101 -56q-43 -36 -67 -85q-24 -50 -24 -108q0 -82 63 -139q62 -56 185 -56q75 0 135 21q59 21 102 59q42 38 63 85q22 50 22 103z" />
    <glyph glyph-name="eight.inf" horiz-adv-x="612" 
d="M381 2q31 -17 59 -56q27 -38 27 -98q0 -52 -24 -96q-24 -43 -64 -73q-39 -29 -96 -46q-54 -16 -121 -16q-48 0 -87 11q-44 13 -75 35q-33 24 -52 58q-20 35 -20 82q0 70 40 125q41 57 95 80v4q-12 11 -36 45q-21 30 -21 82q0 47 22 91t58 73q38 30 87 48q50 18 108 18
q91 0 152 -47t61 -134q0 -56 -29 -105t-84 -77v-4zM358 176q0 39 -24 63q-23 23 -68 23q-52 0 -90 -35q-37 -34 -37 -86q0 -35 24 -60q24 -26 70 -26q58 0 92 40q33 39 33 81zM63 -180q0 -35 30 -62q29 -26 89 -26q71 0 111 38q39 37 39 83q0 41 -32 65q-33 25 -85 25
q-63 0 -107 -33q-45 -34 -45 -90z" />
    <glyph glyph-name="emdash.cap" horiz-adv-x="1468" 
d="M1337 600h-1177l24 158h1178z" />
    <glyph glyph-name="endash.cap" horiz-adv-x="1130" 
d="M999 600h-839l24 158h840z" />
    <glyph glyph-name="equal.inf" horiz-adv-x="688" 
d="M557 170l-18 -117h-537l18 117h537zM522 -49l-18 -117h-537l19 117h536z" />
    <glyph glyph-name="exclamdown.cap" horiz-adv-x="626" 
d="M410 922l-123 -922h-207l4 31l166 891h160zM242 1194q0 71 47 112q46 40 108 40q49 0 82 -27t33 -74q0 -71 -47 -110t-109 -39q-50 0 -82 25t-32 73z" />
    <glyph glyph-name="f.lig" horiz-adv-x="811" 
d="M317 1018l19 110q29 176 122 256q94 80 255 80q45 0 80 -6q40 -7 79 -20l-24 -154h-33q-34 14 -58 18q-33 5 -59 5q-78 0 -119 -41q-40 -40 -55 -133l-18 -109h295l-25 -152h-295l-137 -872h-186l137 872h-154l17 103z" />
    <glyph glyph-name="f.superior" horiz-adv-x="454" 
d="M225 1155l6 55q10 98 71 139q59 40 153 40q21 0 53 -4q25 -3 53 -9l-16 -106h-19q-43 10 -77 10q-41 0 -58 -16q-18 -16 -24 -60l-7 -43h164l-16 -102h-164l-70 -451h-135l70 451h-82l10 61z" />
    <glyph glyph-name="f_b" horiz-adv-x="2070" 
d="M317 1018l19 110q29 176 122 256q94 80 255 80q45 0 80 -6q40 -7 79 -20l-24 -154h-33q-34 14 -58 18q-33 5 -59 5q-78 0 -119 -41q-40 -40 -55 -133l-18 -109h295l-25 -152h-295l-137 -872h-186l137 872h-154l17 103zM1784 119q-79 -79 -180 -113q-102 -34 -218 -39
q-114 0 -199 45t-126 107h-6l-58 -119h-131l226 1434h186l-80 -516h4q81 76 174 107q92 30 191 30q78 0 154 -29q73 -28 131 -84q57 -55 91 -133q33 -75 33 -176q0 -151 -50 -287q-49 -134 -142 -227zM1384 125q94 0 169 39q76 40 126 104q51 66 78 153t27 181
q0 128 -66 210q-66 83 -211 83q-94 0 -165 -40q-72 -40 -121 -106q-48 -64 -76 -154q-27 -87 -27 -181q0 -60 17 -114q16 -52 48 -91t82 -62q48 -22 119 -22z" />
    <glyph glyph-name="f_f" horiz-adv-x="1556" 
d="M317 1018l19 110q29 176 122 256q94 80 255 80q98 0 180 -26l-25 -154h-32q-33 14 -69 18q-45 5 -69 5q-78 0 -119 -41q-40 -40 -55 -133l-18 -109h272l-24 -152h-273l-137 -872h-186l137 872h-154l17 103zM1063 1018l18 110q29 176 122 256q94 80 255 80q98 0 180 -26
l-24 -154h-33q-33 14 -69 18q-45 5 -68 5q-79 0 -120 -41q-39 -39 -54 -133l-19 -109h316l-25 -152h-315l-137 -872h-187l137 872h-133l17 103z" />
    <glyph glyph-name="f_f_b" horiz-adv-x="2816" 
d="M317 1018l19 110q29 176 122 256q94 80 255 80q98 0 180 -26l-25 -154h-32q-33 14 -69 18q-45 5 -69 5q-78 0 -119 -41q-40 -40 -55 -133l-18 -109h272l-24 -152h-273l-137 -872h-186l137 872h-154l17 103zM1063 1018l18 110q29 176 122 256q94 80 255 80q45 0 80 -6
q42 -7 80 -20l-25 -154h-32q-34 14 -59 18q-33 5 -58 5q-79 0 -120 -41q-39 -39 -54 -133l-19 -109h295l-24 -152h-295l-137 -872h-187l137 872h-133l17 103zM2529 119q-79 -79 -180 -113q-102 -34 -217 -39q-114 0 -200 45q-85 45 -126 107h-6l-57 -119h-131l225 1434h186
l-79 -516h4q81 76 174 107q92 30 190 30q79 0 155 -29q73 -28 131 -84q55 -53 90 -133q34 -77 34 -176q0 -151 -50 -287q-49 -133 -143 -227zM2130 125q94 0 169 39q76 40 126 104q51 66 78 153q26 84 26 181q0 129 -65 210q-66 83 -211 83q-94 0 -165 -40
q-74 -41 -122 -106q-48 -64 -76 -154q-26 -84 -26 -181q0 -63 16 -114q16 -52 48 -91t82 -62q48 -22 120 -22z" />
    <glyph glyph-name="f_f_dotlessi" horiz-adv-x="2013" 
d="M317 1018l19 110q29 176 122 256q94 80 255 80q98 0 180 -26l-25 -154h-32q-33 14 -69 18q-45 5 -69 5q-78 0 -119 -41q-40 -40 -55 -133l-18 -109h272l-24 -152h-273l-137 -872h-186l137 872h-154l17 103zM1063 1018l18 110q29 176 122 256q94 80 255 80q45 0 80 -6
q42 -7 80 -20l-25 -154h-32q-34 14 -59 18q-33 5 -58 5q-79 0 -120 -41q-39 -39 -54 -133l-19 -109h295l-24 -152h-295l-137 -872h-187l137 872h-133l17 103zM1757 1024h187l-162 -1024h-187z" />
    <glyph glyph-name="f_f_h" horiz-adv-x="2695" 
d="M317 1018l19 110q29 176 122 256q94 80 255 80q98 0 180 -26l-25 -154h-32q-33 14 -69 18q-45 5 -69 5q-78 0 -119 -41q-40 -40 -55 -133l-18 -109h272l-24 -152h-273l-137 -872h-186l137 872h-154l17 103zM1063 1018l18 110q29 176 122 256q94 80 255 80q45 0 80 -6
q42 -7 80 -20l-25 -154h-32q-34 14 -59 18q-33 5 -58 5q-79 0 -120 -41q-39 -39 -54 -133l-19 -109h295l-24 -152h-295l-137 -872h-187l137 872h-133l17 103zM1612 0l227 1434h186l-81 -519h4q62 77 147 108q87 32 164 32q86 0 152 -30q65 -29 106 -83q40 -52 57 -126
q16 -71 4 -159l-102 -657h-184l98 625q8 53 4 97q-5 52 -24 86q-21 38 -63 60q-43 23 -109 23q-48 0 -97 -18t-92 -58t-76 -108q-32 -66 -49 -170l-86 -537h-186z" />
    <glyph glyph-name="f_f_i" horiz-adv-x="2013" 
d="M317 1018l19 110q29 176 122 256q94 80 255 80q98 0 180 -26l-25 -154h-32q-33 14 -69 18q-45 5 -69 5q-78 0 -119 -41q-40 -40 -55 -133l-18 -109h272l-24 -152h-273l-137 -872h-186l137 872h-154l17 103zM1063 1018l18 110q29 176 122 256q94 80 255 80q45 0 80 -6
q42 -7 80 -20l-25 -154h-32q-34 14 -59 18q-33 5 -58 5q-79 0 -120 -41q-39 -39 -54 -133l-19 -109h295l-24 -152h-295l-137 -872h-187l137 872h-133l17 103zM2038 1362q0 -64 -39 -104q-38 -39 -111 -39q-50 0 -85 31q-36 32 -36 73q0 33 12 57q14 28 29 43q41 41 111 41
q48 0 83 -29q36 -30 36 -73zM1757 1024h187l-162 -1024h-187z" />
    <glyph glyph-name="f_f_j" horiz-adv-x="2013" 
d="M317 1018l19 110q29 176 122 256q94 80 255 80q98 0 180 -26l-25 -154h-32q-33 14 -69 18q-45 5 -69 5q-78 0 -119 -41q-40 -40 -55 -133l-18 -109h272l-24 -152h-273l-137 -872h-186l137 872h-154l17 103zM1063 1018l18 110q29 176 122 256q94 80 255 80q45 0 80 -6
q42 -7 80 -20l-25 -154h-32q-34 14 -59 18q-33 5 -58 5q-79 0 -120 -41q-39 -39 -54 -133l-19 -109h295l-24 -152h-295l-137 -872h-187l137 872h-133l17 103zM2036 1362q0 -64 -39 -104q-38 -39 -111 -39q-50 0 -85 31q-36 32 -36 73q0 33 12 57q14 28 29 43q41 41 111 41
q48 0 83 -29q36 -30 36 -73zM1343 -342q61 33 108 84q46 50 78 113q31 60 52 127q22 70 29 124l145 918h189l-152 -952q-24 -156 -99 -273q-75 -118 -173 -168h-181z" />
    <glyph glyph-name="f_f_k" horiz-adv-x="2596" 
d="M317 1018l19 110q29 176 122 256q94 80 255 80q98 0 180 -26l-25 -154h-32q-33 14 -69 18q-45 5 -69 5q-78 0 -119 -41q-40 -40 -55 -133l-18 -109h272l-24 -152h-273l-137 -872h-186l137 872h-154l17 103zM1063 1018l18 110q29 176 122 256q94 80 255 80q45 0 80 -6
q42 -7 80 -20l-25 -154h-32q-34 14 -59 18q-33 5 -58 5q-79 0 -120 -41q-39 -39 -54 -133l-19 -109h295l-24 -152h-295l-137 -872h-187l137 872h-133l17 103zM1880 508l-80 -508h-186l227 1434h187l-134 -834l449 424h223l-4 -25l-475 -454l391 -518l-4 -27h-205z" />
    <glyph glyph-name="f_f_l" horiz-adv-x="2136" 
d="M317 1018l19 110q29 176 122 256q94 80 255 80q98 0 180 -26l-25 -154h-32q-33 14 -69 18q-45 5 -69 5q-78 0 -119 -41q-40 -40 -55 -133l-18 -109h272l-24 -152h-273l-137 -872h-186l137 872h-154l17 103zM1063 1018l18 110q29 176 122 256q94 80 255 80q45 0 80 -6
q42 -7 80 -20l-25 -154h-32q-34 14 -59 18q-33 5 -58 5q-79 0 -120 -41q-39 -39 -54 -133l-19 -109h295l-24 -152h-295l-137 -872h-187l137 872h-133l17 103zM1835 305q-15 -92 16 -123q30 -30 136 -18h32l-24 -158q-23 -6 -57 -9t-50 -3q-288 0 -237 319l176 1121h186z" />
    <glyph glyph-name="f_f_t" horiz-adv-x="2308" 
d="M1063 1018l18 110q29 176 122 256q94 80 255 80q98 0 180 -26l-24 -154h-33q-33 14 -69 18q-45 5 -68 5q-79 0 -120 -41q-39 -39 -54 -133l-19 -109h316l-25 -152h-315l-137 -872h-187l137 872h-133l17 103zM317 1018l19 110q29 176 122 256q94 80 255 80q98 0 180 -26
l-25 -154h-32q-33 14 -69 18q-45 5 -69 5q-78 0 -119 -41q-40 -40 -55 -133l-18 -109h274l-24 -152h-275l-137 -872h-186l137 872h-154l17 103zM2257 872h-285l-94 -596q-12 -75 23 -105t81 -30q36 0 82 11q48 12 90 36h33l-26 -161q-42 -19 -91 -32q-48 -13 -110 -13
q-152 0 -221 87q-70 88 -43 250l88 553h-142l15 91q63 22 106 53q46 34 79 71q32 37 58 83q17 30 39 85h95l-37 -231h284z" />
    <glyph glyph-name="f_h" horiz-adv-x="1947" 
d="M317 1018l19 110q29 176 122 256q94 80 255 80q45 0 80 -6q40 -7 79 -20l-24 -154h-33q-34 14 -58 18q-33 5 -59 5q-78 0 -119 -41q-40 -40 -55 -133l-18 -109h295l-25 -152h-295l-137 -872h-186l137 872h-154l17 103zM864 0l228 1434h186l-82 -519h4q61 76 148 108
t163 32q86 0 152 -30q65 -29 106 -83t58 -126q16 -71 4 -159l-102 -657h-185l98 625q9 57 5 97q-5 50 -25 86q-21 38 -62 60q-43 23 -110 23q-46 0 -96 -18q-49 -18 -92 -58t-76 -108q-32 -66 -49 -170l-86 -537h-187z" />
    <glyph glyph-name="f_j" horiz-adv-x="1267" 
d="M317 1018l19 110q29 176 122 256q94 80 255 80q45 0 80 -6q40 -7 79 -20l-24 -154h-33q-34 14 -58 18q-33 5 -59 5q-78 0 -119 -41q-40 -40 -55 -133l-18 -109h295l-25 -152h-295l-137 -872h-186l137 872h-154l17 103zM1290 1362q0 -64 -39 -104q-38 -39 -110 -39
q-50 0 -85 31q-36 32 -36 73q0 35 11 57q13 26 30 43q41 41 110 41q48 0 83 -29q36 -30 36 -73zM598 -342q62 33 108 84q44 48 77 113t53 127q21 65 28 124l146 918h188l-151 -952q-24 -154 -100 -273q-75 -118 -173 -168h-180z" />
    <glyph glyph-name="f_k" horiz-adv-x="1847" 
d="M317 1018l19 110q29 176 122 256q94 80 255 80q45 0 80 -6q40 -7 79 -20l-24 -154h-33q-34 14 -58 18q-33 5 -59 5q-78 0 -119 -41q-40 -40 -55 -133l-18 -109h295l-25 -152h-295l-137 -872h-186l137 872h-154l17 103zM1130 508l-79 -508h-187l228 1434h186l-133 -834
l448 424h224l-5 -25l-475 -454l392 -518l-5 -27h-204z" />
    <glyph glyph-name="f_t" horiz-adv-x="1562" 
d="M317 1018l19 110q29 176 122 256q94 80 255 80q98 0 180 -26l-25 -154h-32q-33 14 -69 18q-45 5 -69 5q-78 0 -119 -41q-40 -40 -55 -133l-18 -109h274l-24 -152h-275l-137 -872h-186l137 872h-154l17 103zM1511 872h-284l-94 -596q-12 -76 22 -105q35 -30 82 -30
q36 0 82 11q48 12 90 36h33l-27 -161q-42 -19 -91 -32q-48 -13 -110 -13q-152 0 -221 87q-70 88 -43 250l88 553h-139l14 95q64 22 107 52q44 31 78 71q33 38 56 81q22 40 40 84h94l-37 -231h285z" />
    <glyph glyph-name="f_t_t" horiz-adv-x="2306" 
d="M317 1018l19 110q29 176 122 256q94 80 255 80q98 0 180 -26l-25 -154h-32q-33 14 -69 18q-45 5 -69 5q-78 0 -119 -41q-40 -40 -55 -133l-18 -109h274l-24 -152h-275l-137 -872h-186l137 872h-154l17 103zM2255 872h-285l-94 -596q-12 -76 22 -105q34 -30 82 -30
q36 0 82 11q48 12 90 36h33l-26 -161q-40 -18 -92 -32q-48 -13 -109 -13q-152 0 -221 87q-70 88 -43 250l88 553h-142l15 91q63 22 106 53q46 34 79 71q30 34 57 83q21 37 40 85h95l-37 -231h284zM1489 872h-262l-94 -596q-12 -76 22 -105q35 -30 82 -30q36 0 82 11
q48 12 90 36h33l-27 -161q-42 -19 -91 -32q-48 -13 -110 -13q-152 0 -221 87q-70 88 -43 250l88 553h-139l14 95q64 22 107 52q44 31 78 71q33 38 56 81q22 40 40 84h94l-37 -231h262z" />
    <glyph glyph-name="five.LT" horiz-adv-x="1228" 
d="M436 1331h690l-26 -160h-522l-95 -376q28 4 62 6q44 2 65 2q66 0 147 -19q77 -18 140 -60t104 -110t41 -165q0 -105 -44 -195q-45 -91 -119 -152q-77 -64 -179 -98q-103 -35 -219 -35q-98 0 -200 24q-103 24 -181 81l31 184h33q69 -55 145 -85q81 -32 176 -32
q83 0 149 24q72 26 114 63q46 40 72 93q26 54 26 109q0 53 -25 94q-24 39 -65 65q-39 24 -94 37q-48 11 -111 11q-79 0 -149 -12q-71 -12 -128 -33l-24 26z" />
    <glyph glyph-name="five.inf" horiz-adv-x="608" 
d="M88 369h395l-18 -119h-275l-34 -144q21 3 23 3h32q39 0 85 -13q43 -12 74 -36t52 -58q20 -33 20 -82q0 -74 -26 -125q-28 -54 -70 -89q-44 -36 -100 -54q-60 -19 -119 -19q-56 0 -118 16q-57 15 -99 44l20 131h19q42 -26 88 -43t104 -17q79 0 120 40q42 40 42 90
q0 54 -46 75q-47 21 -110 21q-31 0 -76 -5q-27 -3 -69 -14l-14 17z" />
    <glyph glyph-name="four.LT" horiz-adv-x="1228" 
d="M897 1331h211l-131 -835h190l-26 -172h-191l-51 -324h-194l51 324h-672l-2 149zM322 487q30 2 55 2h45h364l88 486q4 29 12 75q8 52 13 74h-4q-28 -38 -52 -65q-40 -46 -52 -58l-394 -430q-19 -19 -36 -37q-8 -8 -21 -22.5t-18 -19.5v-5z" />
    <glyph glyph-name="four.inf" horiz-adv-x="686" 
d="M352 350h152l-66 -422h101l-21 -123h-100l-27 -178h-141l26 178h-350v93zM332 98q2 8 4.5 23.5t3.5 20.5q1 8 3.5 24t4.5 24h-4q-17 -23 -53 -65l-131 -148q-29 -32 -54 -53l-2 -2q14 2 25 2h29h145z" />
    <glyph glyph-name="g.hist" horiz-adv-x="1284" 
d="M690 897q-93 0 -169 -35t-126 -94q-51 -60 -78 -136q-26 -74 -26 -161q0 -136 65 -219q66 -84 211 -84q89 0 160 40q73 41 123 104q52 66 79 149q27 84 27 172q0 113 -62 188q-63 76 -204 76zM276 887q80 80 185 125q101 43 217 43q122 0 207 -44q84 -43 131 -106h6
l57 119h131l-161 -987q-39 -232 -183 -343q-145 -112 -372 -112q-86 0 -162 24q-77 24 -132 66t-89 105q-33 61 -33 137q0 20 1 32q2 23 5 34h182q-10 -106 56 -171q67 -65 194 -65q61 0 115 16q53 16 101 50t78 80q31 48 42 110l25 141h-5q-73 -72 -169 -102
q-98 -31 -193 -31q-74 0 -150 28q-72 26 -133 83q-59 55 -95 137q-36 81 -34 188q1 122 44 237q42 114 134 206z" />
    <glyph glyph-name="g.superior" horiz-adv-x="567" 
d="M461 1004q0 35 -25 57q-23 20 -67 20q-48 0 -77 -29q-30 -30 -30 -77t26 -65q24 -17 64 -17q47 0 78 29t31 82zM170 862q-19 19 -28 46t-9 59q0 96 67 154q66 57 171 57h42q16 0 29 -4l101 100h135l-2 -19l-129 -127q22 -22 33 -53q10 -29 10 -65q0 -102 -72 -158
q-71 -55 -180 -55q-24 0 -51 5q-24 4 -45 9q-12 -7 -19 -18q-8 -13 -8 -27q0 -37 45 -37h123q79 0 131 -40q53 -41 53 -105q0 -51 -27 -87t-71 -60q-43 -24 -95 -34q-50 -10 -102 -10q-103 0 -175 33t-72 109q0 92 94 143q-31 23 -31 67q0 35 24 65t58 52zM276 492
q60 0 109 20q51 21 51 66q0 23 -15 35t-61 12h-145q-23 -11 -38 -27t-15 -45q0 -61 114 -61z" />
    <glyph glyph-name="gbreve.hist" horiz-adv-x="1284" 
d="M690 897q-93 0 -169 -35t-126 -94q-51 -60 -78 -136q-26 -74 -26 -161q0 -136 65 -219q66 -84 211 -84q89 0 160 40q73 41 123 104q52 66 79 149q27 84 27 172q0 113 -62 188q-63 76 -204 76zM276 887q80 80 185 125q101 43 217 43q122 0 207 -44q84 -43 131 -106h6
l57 119h131l-161 -987q-39 -232 -183 -343q-145 -112 -372 -112q-86 0 -162 24q-77 24 -132 66t-89 105q-33 61 -33 137q0 20 1 32q2 23 5 34h182q-10 -106 56 -171q67 -65 194 -65q61 0 115 16q53 16 101 50t78 80q31 48 42 110l25 141h-5q-73 -72 -169 -102
q-98 -31 -193 -31q-74 0 -150 28q-72 26 -133 83q-59 55 -95 137q-36 81 -34 188q1 122 44 237q42 114 134 206zM602 1399q5 -66 41 -94q38 -29 98 -29q61 0 108 29t69 94h192q-35 -127 -139 -192q-105 -66 -238 -66q-69 0 -124 17q-59 18 -101 50q-43 32 -67 81
q-23 46 -23 110h184z" />
    <glyph glyph-name="gcircumflex.hist" horiz-adv-x="1284" 
d="M690 897q-93 0 -169 -35t-126 -94q-51 -60 -78 -136q-26 -74 -26 -161q0 -136 65 -219q66 -84 211 -84q89 0 160 40q73 41 123 104q52 66 79 149q27 84 27 172q0 113 -62 188q-63 76 -204 76zM276 887q80 80 185 125q101 43 217 43q122 0 207 -44q84 -43 131 -106h6
l57 119h131l-161 -987q-39 -232 -183 -343q-145 -112 -372 -112q-86 0 -162 24q-77 24 -132 66t-89 105q-33 61 -33 137q0 20 1 32q2 23 5 34h182q-10 -106 56 -171q67 -65 194 -65q61 0 115 16q53 16 101 50t78 80q31 48 42 110l25 141h-5q-73 -72 -169 -102
q-98 -31 -193 -31q-74 0 -150 28q-72 26 -133 83q-59 55 -95 137q-36 81 -34 188q1 122 44 237q42 114 134 206zM748 1470l299 -235l-74 -111l-246 156l-287 -156l-59 111z" />
    <glyph glyph-name="gdotaccent.hist" horiz-adv-x="1284" 
d="M690 897q-93 0 -169 -35t-126 -94q-51 -60 -78 -136q-26 -74 -26 -161q0 -136 65 -219q66 -84 211 -84q89 0 160 40q73 41 123 104q52 66 79 149q27 84 27 172q0 113 -62 188q-63 76 -204 76zM276 887q80 80 185 125q101 43 217 43q122 0 207 -44q84 -43 131 -106h6
l57 119h131l-161 -987q-39 -232 -183 -343q-145 -112 -372 -112q-86 0 -162 24q-77 24 -132 66t-89 105q-33 61 -33 137q0 20 1 32q2 23 5 34h182q-10 -106 56 -171q67 -65 194 -65q61 0 115 16q53 16 101 50t78 80q31 48 42 110l25 141h-5q-73 -72 -169 -102
q-98 -31 -193 -31q-74 0 -150 28q-72 26 -133 83q-59 55 -95 137q-36 81 -34 188q1 122 44 237q42 114 134 206zM762 1407q56 0 90 -34q35 -35 25 -91q-10 -59 -56 -94t-100 -35q-55 0 -90 35t-25 94q10 56 54 90q44 35 102 35z" />
    <glyph glyph-name="grave.cap" 
d="M383 1659l115 162l405 -291l-67 -103z" />
    <glyph glyph-name="guillemotleft.cap" horiz-adv-x="1126" 
d="M913 1069h215l-4 -29l-379 -381l238 -350l-4 -28h-191l-260 385l2 18zM483 1069h215l-4 -29l-379 -381l238 -350l-4 -28h-191l-260 385l2 18z" />
    <glyph glyph-name="guillemotright.cap" horiz-adv-x="1126" 
d="M686 281h-215l4 28l379 381l-238 350l5 29h190l260 -385l-2 -18zM256 281h-215l4 28l379 381l-238 350l4 29h191l260 -385l-2 -18z" />
    <glyph glyph-name="guilsinglleft.cap" horiz-adv-x="696" 
d="M483 1069h215l-4 -29l-379 -381l238 -350l-4 -28h-191l-260 385l2 18z" />
    <glyph glyph-name="guilsinglright.cap" horiz-adv-x="696" 
d="M256 281h-215l4 28l379 381l-238 350l4 29h191l260 -385l-2 -18z" />
    <glyph glyph-name="h.superior" horiz-adv-x="653" 
d="M100 608l121 764h135l-41 -256h2q36 32 78 46q46 16 84 16q43 0 78 -18t57 -46q23 -29 33 -67t4 -82l-55 -357h-133l49 324q8 49 -8 89q-16 42 -78 42q-56 0 -93 -32q-36 -32 -48 -103l-49 -320h-136z" />
    <glyph glyph-name="hungarumlaut.cap" 
d="M631 1819l102 -144l-383 -252l-61 95zM1020 1819l102 -144l-383 -252l-61 95z" />
    <glyph glyph-name="hyphen.cap" horiz-adv-x="884" 
d="M778 762l-26 -168h-594l26 168h594z" />
    <glyph glyph-name="i.dot" horiz-adv-x="489" 
d="M233 1024h187l-162 -1024h-186zM391 1407q56 0 90 -34q35 -35 25 -91q-10 -60 -55 -94q-46 -35 -101 -35t-90 35q-34 34 -24 94q10 56 54 90q44 35 101 35z" />
    <glyph glyph-name="i.superior" horiz-adv-x="292" 
d="M334 1262q-29 -23 -72 -23q-35 0 -57 16q-23 17 -23 48q0 44 33 71q28 23 74 23q32 0 55 -17t23 -49q0 -47 -33 -69zM180 1161h135l-86 -553h-135z" />
    <glyph glyph-name="invertedbreve" 
d="M780 1141q-4 66 -40 94q-37 29 -97 29t-107 -29t-71 -94h-195q38 126 142 191q107 67 237 67q65 0 124 -18q60 -18 100 -50q44 -34 67 -81q24 -49 23 -109h-183z" />
    <glyph glyph-name="invertedbreve.cap" 
d="M780 1423q-5 67 -40 95t-97 28q-61 0 -107 -28q-47 -29 -71 -95h-195q38 127 142 192q105 66 237 66q69 0 124 -17q60 -18 100 -50q44 -34 67 -81q24 -49 23 -110h-183z" />
    </font>
</defs>
</svg>
